<svg width="28" height="28" viewBox="0 0 28 28" fill="none" xmlns="http://www.w3.org/2000/svg">
<path d="M14 19.25C16.8995 19.25 19.25 16.8995 19.25 14C19.25 11.1005 16.8995 8.75 14 8.75C11.1005 8.75 8.75 11.1005 8.75 14C8.75 16.8995 11.1005 19.25 14 19.25Z" stroke="#8247E5" stroke-width="2" stroke-linecap="round" stroke-linejoin="round"/>
<path d="M20.092 7.12012C20.3691 7.37533 20.6316 7.63783 20.8795 7.90762L23.8654 8.33418C24.3519 9.17911 24.7269 10.0835 24.9811 11.0248L23.1654 13.442C23.1654 13.442 23.1982 14.1857 23.1654 14.5576L24.9811 16.9748C24.7281 17.9165 24.3531 18.8211 23.8654 19.6654L20.8795 20.092C20.8795 20.092 20.3654 20.6279 20.092 20.8795L19.6654 23.8654C18.8205 24.3519 17.9161 24.7269 16.9748 24.9811L14.5576 23.1654C14.1865 23.1983 13.8131 23.1983 13.442 23.1654L11.0248 24.9811C10.0831 24.7281 9.17856 24.3531 8.33418 23.8654L7.90762 20.8795C7.63783 20.6243 7.37533 20.3618 7.12012 20.092L4.13418 19.6654C3.64766 18.8205 3.27266 17.9161 3.01855 16.9748L4.83418 14.5576C4.83418 14.5576 4.80137 13.8139 4.83418 13.442L3.01855 11.0248C3.27149 10.0831 3.64654 9.17856 4.13418 8.33418L7.12012 7.90762C7.37533 7.63783 7.63783 7.37533 7.90762 7.12012L8.33418 4.13418C9.17911 3.64766 10.0835 3.27266 11.0248 3.01855L13.442 4.83418C13.8131 4.80136 14.1865 4.80136 14.5576 4.83418L16.9748 3.01855C17.9165 3.27149 18.8211 3.64654 19.6654 4.13418L20.092 7.12012Z" stroke="#8247E5" stroke-width="2" stroke-linecap="round" stroke-linejoin="round"/>
</svg>
