<svg width="28" height="28" viewBox="0 0 28 28" fill="none" xmlns="http://www.w3.org/2000/svg">
<path d="M5.4034 10.3467C4.80014 9.68088 4.47602 8.8086 4.49813 7.91043C4.52025 7.01227 4.88691 6.157 5.5222 5.52171C6.15749 4.88642 7.01276 4.51976 7.91092 4.49764C8.80909 4.47553 9.68136 4.79966 10.3472 5.40291L22.5972 17.6529C23.2004 18.3187 23.5245 19.191 23.5024 20.0891C23.4803 20.9873 23.1136 21.8426 22.4784 22.4779C21.8431 23.1132 20.9878 23.4798 20.0896 23.5019C19.1915 23.524 18.3192 23.1999 17.6534 22.5967L5.4034 10.3467Z" stroke="#8247E5" stroke-width="2" stroke-linecap="round" stroke-linejoin="round"/>
<path d="M17.6534 5.40291C18.3192 4.79966 19.1915 4.47553 20.0896 4.49764C20.9878 4.51976 21.8431 4.88642 22.4784 5.52171C23.1136 6.157 23.4803 7.01227 23.5024 7.91043C23.5245 8.8086 23.2004 9.68088 22.5972 10.3467L10.3472 22.5967C9.68136 23.1999 8.80909 23.524 7.91092 23.5019C7.01276 23.4798 6.15749 23.1132 5.5222 22.4779C4.88691 21.8426 4.52025 20.9873 4.49813 20.0891C4.47602 19.191 4.80014 18.3187 5.4034 17.6529L17.6534 5.40291Z" stroke="#8247E5" stroke-width="2" stroke-linecap="round" stroke-linejoin="round"/>
<path opacity="0.5" d="M14 14.4375C14.2416 14.4375 14.4375 14.2416 14.4375 14C14.4375 13.7584 14.2416 13.5625 14 13.5625C13.7584 13.5625 13.5625 13.7584 13.5625 14C13.5625 14.2416 13.7584 14.4375 14 14.4375Z" stroke="#8247E5" stroke-width="2" stroke-linecap="round" stroke-linejoin="round"/>
<path d="M14 15.3125C14.7249 15.3125 15.3125 14.7249 15.3125 14C15.3125 13.2751 14.7249 12.6875 14 12.6875C13.2751 12.6875 12.6875 13.2751 12.6875 14C12.6875 14.7249 13.2751 15.3125 14 15.3125Z" fill="#8247E5"/>
</svg>
