<svg width="28" height="28" viewBox="0 0 28 28" fill="none" xmlns="http://www.w3.org/2000/svg">
<path d="M24.5004 13.9345C24.5105 15.3258 24.243 16.705 23.7134 17.9915C23.1837 19.278 22.4027 20.4459 21.416 21.4267C17.3801 25.4627 10.7738 25.5064 6.68317 21.5252C5.18242 20.0648 4.15261 18.1891 3.72603 16.1389C3.29946 14.0888 3.49562 11.958 4.28931 10.0202C5.083 8.08244 6.43796 6.42624 8.18011 5.26441C9.92226 4.10257 11.972 3.48818 14.066 3.50017C14.197 3.5021 14.326 3.53307 14.4436 3.59085C14.5612 3.64863 14.6645 3.73178 14.7461 3.8343C14.8277 3.93682 14.8855 4.05617 14.9155 4.18374C14.9454 4.31132 14.9466 4.44394 14.9191 4.57205C14.8051 5.0802 14.806 5.60738 14.9217 6.11515C15.0373 6.62293 15.2648 7.0985 15.5875 7.50719C15.9103 7.91589 16.3202 8.2474 16.7874 8.47757C17.2545 8.70774 17.7671 8.83077 18.2879 8.83767C18.5199 8.83767 18.7425 8.92986 18.9066 9.09395C19.0707 9.25805 19.1629 9.48061 19.1629 9.71267C19.1698 10.2334 19.2928 10.746 19.523 11.2132C19.7531 11.6803 20.0847 12.0902 20.4933 12.413C20.902 12.7357 21.3776 12.9632 21.8854 13.0789C22.3932 13.1945 22.9203 13.1954 23.4285 13.0814C23.5566 13.0539 23.6892 13.0552 23.8168 13.0851C23.9444 13.115 24.0637 13.1728 24.1662 13.2544C24.2688 13.336 24.3519 13.4394 24.4097 13.557C24.4675 13.6746 24.4984 13.8035 24.5004 13.9345V13.9345Z" stroke="#8247E5" stroke-width="2" stroke-linecap="round" stroke-linejoin="round"/>
<path d="M17.0625 20.125C17.7874 20.125 18.375 19.5374 18.375 18.8125C18.375 18.0876 17.7874 17.5 17.0625 17.5C16.3376 17.5 15.75 18.0876 15.75 18.8125C15.75 19.5374 16.3376 20.125 17.0625 20.125Z" fill="#8247E5"/>
<path d="M10.0625 19.25C10.7874 19.25 11.375 18.6624 11.375 17.9375C11.375 17.2126 10.7874 16.625 10.0625 16.625C9.33763 16.625 8.75 17.2126 8.75 17.9375C8.75 18.6624 9.33763 19.25 10.0625 19.25Z" fill="#8247E5"/>
<path d="M9.1875 13.125C9.91237 13.125 10.5 12.5374 10.5 11.8125C10.5 11.0876 9.91237 10.5 9.1875 10.5C8.46263 10.5 7.875 11.0876 7.875 11.8125C7.875 12.5374 8.46263 13.125 9.1875 13.125Z" fill="#8247E5"/>
<path d="M14.875 14.875C15.5999 14.875 16.1875 14.2874 16.1875 13.5625C16.1875 12.8376 15.5999 12.25 14.875 12.25C14.1501 12.25 13.5625 12.8376 13.5625 13.5625C13.5625 14.2874 14.1501 14.875 14.875 14.875Z" fill="#8247E5"/>
</svg>
