<svg width="28" height="28" viewBox="0 0 28 28" fill="none" xmlns="http://www.w3.org/2000/svg">
<path d="M19.6875 16.625C19.6875 17.2052 19.457 17.7616 19.0468 18.1718C18.6366 18.582 18.0802 18.8125 17.5 18.8125C16.9198 18.8125 16.3634 18.582 15.9532 18.1718C15.543 17.7616 15.3125 17.2052 15.3125 16.625C15.3125 14 18.375 14 18.375 11.375C18.375 10.2147 17.9141 9.10188 17.0936 8.28141C16.2731 7.46094 15.1603 7 14 7C12.8397 7 11.7269 7.46094 10.9064 8.28141C10.0859 9.10188 9.625 10.2147 9.625 11.375" stroke="#8247E5" stroke-width="2" stroke-linecap="round" stroke-linejoin="round"/>
<path d="M17.7078 23.625C17.0767 24.3877 16.2257 24.9373 15.2709 25.1987C14.316 25.4602 13.3038 25.4208 12.3722 25.0859C11.4405 24.751 10.6349 24.137 10.0649 23.3275C9.49502 22.518 9.18862 21.5525 9.1875 20.5625C9.1875 16.0234 5.25 17.5 5.25 11.375C5.25 9.05436 6.17187 6.82876 7.81282 5.18782C9.45376 3.54687 11.6794 2.625 14 2.625C16.3206 2.625 18.5462 3.54687 20.1872 5.18782C21.8281 6.82876 22.75 9.05436 22.75 11.375" stroke="#8247E5" stroke-width="2" stroke-linecap="round" stroke-linejoin="round"/>
</svg>
