<svg width="28" height="28" viewBox="0 0 28 28" fill="none" xmlns="http://www.w3.org/2000/svg">
<path d="M16.625 21.875C15.1703 21.875 14 20.6609 14 19.1516C14 17.6422 15.1703 16.4281 16.625 16.4281C16.9561 16.4256 17.284 16.4927 17.5875 16.625C17.7531 15.8139 18.1453 15.0665 18.7187 14.4695C19.2921 13.8725 20.0231 13.4504 20.8268 13.2522C21.6305 13.054 22.4739 13.088 23.2591 13.35C24.0443 13.6121 24.7391 14.0915 25.2627 14.7327C25.7863 15.3738 26.1172 16.1503 26.2171 16.9721C26.317 17.7938 26.1817 18.627 25.827 19.3749C25.4723 20.1228 24.9126 20.7547 24.2131 21.1973C23.5135 21.6398 22.7028 21.8748 21.875 21.875H16.625Z" stroke="#8247E5" stroke-width="2" stroke-linecap="round" stroke-linejoin="round"/>
<path d="M1.75 19.2499V17.4999C1.75108 15.4365 2.3601 13.4191 3.50096 11.6998C4.64183 9.98053 6.26397 8.63548 8.16478 7.83268C10.0656 7.02988 12.1608 6.80493 14.1887 7.18591C16.2166 7.5669 18.0873 8.53693 19.5672 9.97486" stroke="#8247E5" stroke-width="2" stroke-linecap="round" stroke-linejoin="round"/>
<path d="M5.25 19.2502V17.5002C5.24942 16.2058 5.60779 14.9365 6.28527 13.8335C6.96276 12.7304 7.93283 11.8369 9.08768 11.2521C10.2425 10.6673 11.5369 10.4142 12.827 10.5209C14.117 10.6276 15.3522 11.0899 16.3953 11.8565" stroke="#8247E5" stroke-width="2" stroke-linecap="round" stroke-linejoin="round"/>
<path d="M8.75 19.25V17.5C8.75 16.5718 9.11875 15.6815 9.77513 15.0251C10.4315 14.3688 11.3217 14 12.25 14C12.5228 13.9991 12.7947 14.0321 13.0594 14.0985" stroke="#8247E5" stroke-width="2" stroke-linecap="round" stroke-linejoin="round"/>
</svg>
