<svg width="32" height="32" viewBox="0 0 32 32" fill="none" xmlns="http://www.w3.org/2000/svg">
<path d="M16 3V23.675" stroke="#8247E5" stroke-linecap="round" stroke-linejoin="round"/>
<path d="M27.5252 14.575L28.6127 13.6625C29.3502 13.05 28.9752 11.8125 28.0127 11.75L26.5752 11.6625" stroke="#8247E5" stroke-linecap="round" stroke-linejoin="round"/>
<path d="M23.0124 21.1124L22.5999 19.475C22.5505 19.2761 22.5584 19.0673 22.6225 18.8727C22.6866 18.6781 22.8045 18.5055 22.9624 18.375L24.2124 17.325" stroke="#8247E5" stroke-linecap="round" stroke-linejoin="round"/>
<path d="M22.275 11.375L20.6375 11.275C20.4363 11.2633 20.2428 11.1933 20.0808 11.0734C19.9187 10.9535 19.7951 10.789 19.725 10.6L19.0875 9.00003L16.975 3.67503C16.9022 3.47491 16.7696 3.30204 16.5952 3.17988C16.4207 3.05772 16.2129 2.99219 16 2.99219C15.787 2.99219 15.5793 3.05772 15.4048 3.17988C15.2304 3.30204 15.0978 3.47491 15.025 3.67503L12.275 10.6C12.2049 10.789 12.0813 10.9535 11.9192 11.0734C11.7572 11.1933 11.5637 11.2633 11.3625 11.275L3.98749 11.75C3.02499 11.8125 2.64999 13.05 3.38749 13.6625L9.0375 18.375C9.19541 18.5056 9.31323 18.6781 9.37736 18.8728C9.4415 19.0674 9.44934 19.2762 9.39999 19.475L7.71249 26.125C7.42499 27.25 8.62499 28.1625 9.58749 27.55L15.45 23.8375C15.6144 23.733 15.8052 23.6775 16 23.6775C16.1948 23.6775 16.3856 23.733 16.55 23.8375L17.9875 24.75" stroke="#8247E5" stroke-linecap="round" stroke-linejoin="round"/>
<path d="M21.625 27.0625L22.85 27.8375C23.6625 28.35 24.6625 27.5875 24.425 26.65L24.075 25.2875" stroke="#8247E5" stroke-linecap="round" stroke-linejoin="round"/>
</svg>
