<svg width="28" height="28" viewBox="0 0 28 28" fill="none" xmlns="http://www.w3.org/2000/svg">
<path d="M13.2236 3.99241L2.87668 22.4658C2.79072 22.6215 2.75419 22.7996 2.77196 22.9764C2.78974 23.1533 2.86097 23.3206 2.97617 23.456C3.09138 23.5914 3.24509 23.6885 3.41685 23.7343C3.5886 23.7802 3.77026 23.7727 3.93762 23.7127L13.6939 20.2346C13.8833 20.158 14.0951 20.158 14.2845 20.2346L24.0407 23.7127C24.2081 23.7727 24.3898 23.7802 24.5615 23.7343C24.7333 23.6885 24.887 23.5914 25.0022 23.456C25.1174 23.3206 25.1886 23.1533 25.2064 22.9764C25.2242 22.7996 25.1876 22.6215 25.1017 22.4658L14.7548 3.99241C14.6791 3.85564 14.5682 3.74165 14.4336 3.66226C14.2989 3.58288 14.1455 3.54102 13.9892 3.54102C13.8329 3.54102 13.6794 3.58288 13.5448 3.66226C13.4101 3.74165 13.2992 3.85564 13.2236 3.99241Z" stroke="#8247E5" stroke-width="2" stroke-linecap="round" stroke-linejoin="round"/>
<path d="M13.9893 20.125V13.125" stroke="#8247E5" stroke-width="2" stroke-linecap="round" stroke-linejoin="round"/>
</svg>
