<svg width="32" height="32" viewBox="0 0 32 32" fill="none" xmlns="http://www.w3.org/2000/svg">
<path d="M10 5H6C5.44772 5 5 5.44772 5 6V26C5 26.5523 5.44772 27 6 27H10C10.5523 27 11 26.5523 11 26V6C11 5.44772 10.5523 5 10 5Z" stroke="#8247E5" stroke-linecap="round" stroke-linejoin="round"/>
<path d="M5 10H11" stroke="#8247E5" stroke-linecap="round" stroke-linejoin="round"/>
<path d="M16 5H12C11.4477 5 11 5.44772 11 6V26C11 26.5523 11.4477 27 12 27H16C16.5523 27 17 26.5523 17 26V6C17 5.44772 16.5523 5 16 5Z" stroke="#8247E5" stroke-linecap="round" stroke-linejoin="round"/>
<path d="M11 22H17" stroke="#8247E5" stroke-linecap="round" stroke-linejoin="round"/>
<path d="M21.8306 4.67978L17.9669 5.71506C17.4334 5.858 17.1169 6.40634 17.2598 6.9398L22.4362 26.2583C22.5791 26.7918 23.1275 27.1084 23.6609 26.9654L27.5246 25.9301C28.0581 25.7872 28.3747 25.2389 28.2317 24.7054L23.0554 5.38689C22.9124 4.85342 22.3641 4.53684 21.8306 4.67978Z" stroke="#8247E5" stroke-linecap="round" stroke-linejoin="round"/>
<path d="M21.4 22.3999L27.2 20.8374" stroke="#8247E5" stroke-linecap="round" stroke-linejoin="round"/>
<path d="M18.2998 10.8L24.0998 9.25" stroke="#8247E5" stroke-linecap="round" stroke-linejoin="round"/>
</svg>
