<svg width="28" height="28" viewBox="0 0 28 28" fill="none" xmlns="http://www.w3.org/2000/svg">
<path d="M14.875 15.75C16.808 15.75 18.375 14.183 18.375 12.25C18.375 10.317 16.808 8.75 14.875 8.75C12.942 8.75 11.375 10.317 11.375 12.25C11.375 14.183 12.942 15.75 14.875 15.75Z" stroke="#8247E5" stroke-width="2" stroke-linecap="round" stroke-linejoin="round"/>
<path d="M3.5 11.8125H6.125" stroke="#8247E5" stroke-width="2" stroke-linecap="round" stroke-linejoin="round"/>
<path d="M3.5 7.4375H6.125" stroke="#8247E5" stroke-width="2" stroke-linecap="round" stroke-linejoin="round"/>
<path d="M3.5 16.1875H6.125" stroke="#8247E5" stroke-width="2" stroke-linecap="round" stroke-linejoin="round"/>
<path d="M3.5 20.5625H6.125" stroke="#8247E5" stroke-width="2" stroke-linecap="round" stroke-linejoin="round"/>
<path d="M9.625 18.375C10.2363 17.56 11.0289 16.8984 11.9402 16.4428C12.8514 15.9872 13.8562 15.75 14.875 15.75C15.8938 15.75 16.8986 15.9872 17.8098 16.4428C18.7211 16.8984 19.5137 17.56 20.125 18.375" stroke="#8247E5" stroke-width="2" stroke-linecap="round" stroke-linejoin="round"/>
<path d="M23.625 23.625V4.375C23.625 3.89175 23.2332 3.5 22.75 3.5L7 3.5C6.51675 3.5 6.125 3.89175 6.125 4.375V23.625C6.125 24.1082 6.51675 24.5 7 24.5H22.75C23.2332 24.5 23.625 24.1082 23.625 23.625Z" stroke="#8247E5" stroke-width="2" stroke-linecap="round" stroke-linejoin="round"/>
</svg>
