<svg width="28" height="28" viewBox="0 0 28 28" fill="none" xmlns="http://www.w3.org/2000/svg">
<path d="M7 12.25V4.375C7 4.14294 7.09219 3.92038 7.25628 3.75628C7.42038 3.59219 7.64294 3.5 7.875 3.5H20.125C20.3571 3.5 20.5796 3.59219 20.7437 3.75628C20.9078 3.92038 21 4.14294 21 4.375V12.25" stroke="#8247E5" stroke-width="2" stroke-linecap="round" stroke-linejoin="round"/>
<path d="M10.5 7H12.25" stroke="#8247E5" stroke-width="2" stroke-linecap="round" stroke-linejoin="round"/>
<path d="M23.625 12.25C23.625 14.8027 22.6109 17.2509 20.8059 19.0559C19.0009 20.8609 16.5527 21.875 14 21.875C11.4473 21.875 8.99913 20.8609 7.1941 19.0559C5.38906 17.2509 4.375 14.8027 4.375 12.25H23.625Z" stroke="#8247E5" stroke-width="2" stroke-linecap="round" stroke-linejoin="round"/>
<path d="M10.2374 21.1094L9.7671 24.3797C9.74993 24.5034 9.75943 24.6293 9.79495 24.7489C9.83047 24.8686 9.89119 24.9793 9.97304 25.0736C10.0549 25.1679 10.156 25.2436 10.2695 25.2956C10.383 25.3475 10.5063 25.3746 10.6312 25.375H17.3687C17.4935 25.3746 17.6168 25.3475 17.7303 25.2956C17.8439 25.2436 17.9449 25.1679 18.0268 25.0736C18.1086 24.9793 18.1694 24.8686 18.2049 24.7489C18.2404 24.6293 18.2499 24.5034 18.2327 24.3797L17.7624 21.1094" stroke="#8247E5" stroke-width="2" stroke-linecap="round" stroke-linejoin="round"/>
</svg>
