<svg width="32" height="32" viewBox="0 0 32 32" fill="none" xmlns="http://www.w3.org/2000/svg">
<path d="M16 28C22.6274 28 28 22.6274 28 16C28 9.37258 22.6274 4 16 4C9.37258 4 4 9.37258 4 16C4 22.6274 9.37258 28 16 28Z" stroke="#8247E5" stroke-linecap="round" stroke-linejoin="round"/>
<path d="M8.875 25.6625C10.6565 22.7143 13.1689 20.2758 16.169 18.583C19.1691 16.8903 22.5553 16.0006 26 16C26.675 16 27.3375 16.0375 28 16.1" stroke="#8247E5" stroke-linecap="round" stroke-linejoin="round"/>
<path d="M23.4998 6.63745C21.6256 8.93922 19.2619 10.7943 16.5807 12.0679C13.8995 13.3415 10.9681 14.0015 7.9998 14C6.73758 13.9985 5.47814 13.8814 4.2373 13.65" stroke="#8247E5" stroke-linecap="round" stroke-linejoin="round"/>
<path d="M10.7373 5.2124C14.4579 7.40567 17.3715 10.7411 19.0448 14.7227C20.7181 18.7044 21.0618 23.1198 20.0248 27.3124" stroke="#8247E5" stroke-linecap="round" stroke-linejoin="round"/>
</svg>
