<svg width="28" height="28" viewBox="0 0 28 28" fill="none" xmlns="http://www.w3.org/2000/svg">
<path d="M17.0844 24.0406C16.0844 24.3445 15.0451 24.4993 14 24.5C11.9233 24.5 9.89323 23.8842 8.16652 22.7304C6.4398 21.5767 5.09399 19.9368 4.29927 18.0182C3.50455 16.0996 3.29661 13.9884 3.70176 11.9516C4.1069 9.91476 5.10693 8.04383 6.57538 6.57538C8.04383 5.10693 9.91476 4.1069 11.9516 3.70176C13.9884 3.29661 16.0996 3.50455 18.0182 4.29927C19.9368 5.09399 21.5767 6.4398 22.7304 8.16652C23.8842 9.89323 24.5 11.9233 24.5 14C24.4993 15.0451 24.3445 16.0844 24.0406 17.0844L17.0844 24.0406Z" stroke="#8247E5" stroke-width="2" stroke-linecap="round" stroke-linejoin="round"/>
<path d="M10.0625 13.125C10.7874 13.125 11.375 12.5374 11.375 11.8125C11.375 11.0876 10.7874 10.5 10.0625 10.5C9.33763 10.5 8.75 11.0876 8.75 11.8125C8.75 12.5374 9.33763 13.125 10.0625 13.125Z" fill="#8247E5"/>
<path d="M17.9375 13.125C18.6624 13.125 19.25 12.5374 19.25 11.8125C19.25 11.0876 18.6624 10.5 17.9375 10.5C17.2126 10.5 16.625 11.0876 16.625 11.8125C16.625 12.5374 17.2126 13.125 17.9375 13.125Z" fill="#8247E5"/>
<path d="M18.5502 16.625C18.0876 17.4219 17.4239 18.0833 16.6254 18.5431C15.8269 19.0029 14.9216 19.2449 14.0002 19.2449C13.0788 19.2449 12.1735 19.0029 11.375 18.5431C10.5765 18.0833 9.91275 17.4219 9.4502 16.625" stroke="#8247E5" stroke-width="2" stroke-linecap="round" stroke-linejoin="round"/>
</svg>
