<svg width="28" height="28" viewBox="0 0 28 28" fill="none" xmlns="http://www.w3.org/2000/svg">
<path d="M21.875 24.5C23.3247 24.5 24.5 23.3247 24.5 21.875C24.5 20.4253 23.3247 19.25 21.875 19.25C20.4253 19.25 19.25 20.4253 19.25 21.875C19.25 23.3247 20.4253 24.5 21.875 24.5Z" stroke="#8247E5" stroke-width="2" stroke-linecap="round" stroke-linejoin="round"/>
<path d="M7.875 6.125H18.375C19.3033 6.125 20.1935 6.49375 20.8499 7.15013C21.5063 7.8065 21.875 8.69674 21.875 9.625C21.875 10.5533 21.5063 11.4435 20.8499 12.0999C20.1935 12.7563 19.3033 13.125 18.375 13.125H7.875C6.71468 13.125 5.60188 13.5859 4.78141 14.4064C3.96094 15.2269 3.5 16.3397 3.5 17.5C3.5 18.6603 3.96094 19.7731 4.78141 20.5936C5.60188 21.4141 6.71468 21.875 7.875 21.875H19.25" stroke="#8247E5" stroke-width="2" stroke-linecap="round" stroke-linejoin="round"/>
</svg>
