<svg width="32" height="32" viewBox="0 0 32 32" fill="none" xmlns="http://www.w3.org/2000/svg">
<path d="M19 29L16 26L19 23" stroke="#8247E5" stroke-linecap="round" stroke-linejoin="round"/>
<path d="M24.3252 9.40002L23.2252 13.5L19.1377 12.4" stroke="#8247E5" stroke-linecap="round" stroke-linejoin="round"/>
<path d="M9.8748 17.6L8.7748 13.5L4.6748 14.6" stroke="#8247E5" stroke-linecap="round" stroke-linejoin="round"/>
<path d="M16 26H27C27.3505 25.9987 27.6945 25.9054 27.9975 25.7294C28.3006 25.5533 28.5521 25.3007 28.7268 24.9969C28.9015 24.6931 28.9933 24.3487 28.993 23.9982C28.9926 23.6477 28.9002 23.3035 28.725 23L25.7375 17.825" stroke="#8247E5" stroke-linecap="round" stroke-linejoin="round"/>
<path d="M8.77479 13.5L3.27479 23C3.09955 23.3035 3.00715 23.6478 3.00684 23.9982C3.00653 24.3487 3.09832 24.6931 3.27302 24.997C3.44773 25.3008 3.6992 25.5534 4.00226 25.7294C4.30532 25.9055 4.64932 25.9988 4.99979 26H10.9998" stroke="#8247E5" stroke-linecap="round" stroke-linejoin="round"/>
<path d="M23.225 13.5L17.725 3.99995C17.5511 3.69603 17.3 3.44346 16.9971 3.26781C16.6941 3.09215 16.3502 2.99963 16 2.99963C15.6499 2.99963 15.3059 3.09215 15.003 3.26781C14.7001 3.44346 14.4489 3.69603 14.275 3.99995L11.275 9.17495" stroke="#8247E5" stroke-linecap="round" stroke-linejoin="round"/>
</svg>
