<svg width="28" height="29" viewBox="0 0 28 29" fill="none" xmlns="http://www.w3.org/2000/svg">
<path d="M14 10.625V8" stroke="#8247E5" stroke-width="2" stroke-linecap="round" stroke-linejoin="round"/>
<path d="M13.9993 8C19.0525 6.25 13.9993 1.875 13.9993 1.875C13.9993 1.875 8.74935 6.25 13.9993 8Z" stroke="#8247E5" stroke-width="2" stroke-linecap="round" stroke-linejoin="round"/>
<path d="M17.7188 14.7812C17.7188 15.7675 17.327 16.7134 16.6296 17.4108C15.9322 18.1082 14.9863 18.5 14 18.5C13.0137 18.5 12.0678 18.1082 11.3704 17.4108C10.673 16.7134 10.2812 15.7675 10.2812 14.7812" stroke="#8247E5" stroke-width="2" stroke-linecap="round" stroke-linejoin="round"/>
<path d="M10.2813 14.7813C10.2815 15.7544 9.90021 16.6889 9.21928 17.3841C8.53836 18.0794 7.61203 18.48 6.63909 18.5C4.55002 18.5438 2.84377 16.7938 2.84377 14.7047V13.25C2.84233 12.9049 2.90924 12.5629 3.04064 12.2438C3.17205 11.9246 3.36535 11.6347 3.60939 11.3906C3.85343 11.1466 4.14339 10.9533 4.46252 10.8219C4.78165 10.6905 5.12365 10.6236 5.46877 10.625H22.5313C22.8764 10.6236 23.2184 10.6905 23.5375 10.8219C23.8567 10.9533 24.1466 11.1466 24.3907 11.3906C24.6347 11.6347 24.828 11.9246 24.9594 12.2438C25.0908 12.5629 25.1577 12.9049 25.1563 13.25V14.7047C25.1563 16.7938 23.45 18.5438 21.361 18.5C20.388 18.48 19.4617 18.0794 18.7808 17.3841C18.0998 16.6889 17.7186 15.7544 17.7188 14.7813" stroke="#8247E5" stroke-width="2" stroke-linecap="round" stroke-linejoin="round"/>
<path d="M23.625 17.7671V23.7499C23.625 23.982 23.5328 24.2045 23.3687 24.3686C23.2046 24.5327 22.9821 24.6249 22.75 24.6249H5.25C5.01794 24.6249 4.79538 24.5327 4.63128 24.3686C4.46719 24.2045 4.375 23.982 4.375 23.7499V17.7671" stroke="#8247E5" stroke-width="2" stroke-linecap="round" stroke-linejoin="round"/>
</svg>
