<svg width="28" height="28" viewBox="0 0 28 28" fill="none" xmlns="http://www.w3.org/2000/svg">
<path d="M14 24.5C19.799 24.5 24.5 19.799 24.5 14C24.5 8.20101 19.799 3.5 14 3.5C8.20101 3.5 3.5 8.20101 3.5 14C3.5 19.799 8.20101 24.5 14 24.5Z" stroke="#8247E5" stroke-width="2" stroke-linecap="round" stroke-linejoin="round"/>
<path d="M18.5059 12.3594C18.5965 11.7836 18.7355 11.2165 18.9215 10.6641" stroke="#8247E5" stroke-width="2" stroke-linecap="round" stroke-linejoin="round"/>
<path d="M18.9215 17.3359C18.7355 16.7835 18.5965 16.2164 18.5059 15.6406" stroke="#8247E5" stroke-width="2" stroke-linecap="round" stroke-linejoin="round"/>
<path d="M9.49375 12.3594C9.40316 11.7836 9.26412 11.2165 9.07812 10.6641" stroke="#8247E5" stroke-width="2" stroke-linecap="round" stroke-linejoin="round"/>
<path d="M9.07812 17.3359C9.26412 16.7835 9.40316 16.2164 9.49375 15.6406" stroke="#8247E5" stroke-width="2" stroke-linecap="round" stroke-linejoin="round"/>
<path d="M20.4316 7.75466C20.7401 7.34218 21.0763 6.95118 21.4379 6.58435" stroke="#8247E5" stroke-width="2" stroke-linecap="round" stroke-linejoin="round"/>
<path d="M21.4379 21.4157C21.079 21.0464 20.7429 20.6556 20.4316 20.2454" stroke="#8247E5" stroke-width="2" stroke-linecap="round" stroke-linejoin="round"/>
<path d="M6.5625 21.4157C6.92144 21.0464 7.25748 20.6556 7.56875 20.2454" stroke="#8247E5" stroke-width="2" stroke-linecap="round" stroke-linejoin="round"/>
<path d="M7.56875 7.75466C7.26027 7.34218 6.92408 6.95118 6.5625 6.58435" stroke="#8247E5" stroke-width="2" stroke-linecap="round" stroke-linejoin="round"/>
</svg>
