<svg width="28" height="28" viewBox="0 0 28 28" fill="none" xmlns="http://www.w3.org/2000/svg">
<path d="M15.75 15.75L18.375 13.125L15.75 10.5" stroke="#8247E5" stroke-width="2" stroke-linecap="round" stroke-linejoin="round"/>
<path d="M13.3834 1.93499L1.93708 13.3813C1.59537 13.723 1.59537 14.277 1.93708 14.6187L13.3872 26.0689C13.7289 26.4106 14.283 26.4106 14.6247 26.0689L26.071 14.6226C26.4127 14.2809 26.4127 13.7269 26.071 13.3851L14.6208 1.93499C14.2791 1.59328 13.7251 1.59328 13.3834 1.93499Z" stroke="#8247E5" stroke-width="2" stroke-linecap="round" stroke-linejoin="round"/>
<path d="M9.62502 16.625V15.75C9.62358 15.4049 9.69049 15.0629 9.82189 14.7438C9.9533 14.4246 10.1466 14.1347 10.3906 13.8906C10.6347 13.6466 10.9246 13.4533 11.2438 13.3219C11.5629 13.1905 11.9049 13.1236 12.25 13.125H18.375" stroke="#8247E5" stroke-width="2" stroke-linecap="round" stroke-linejoin="round"/>
</svg>
