<svg width="28" height="28" viewBox="0 0 28 28" fill="none" xmlns="http://www.w3.org/2000/svg">
<path d="M21.875 19.25V7.00002C21.8764 6.6549 21.8095 6.3129 21.6781 5.99377C21.5467 5.67464 21.3534 5.38468 21.1094 5.14064C20.8653 4.8966 20.5754 4.7033 20.2563 4.57189C19.9371 4.44049 19.5951 4.37358 19.25 4.37502H4.375" stroke="#8247E5" stroke-width="2" stroke-linecap="round" stroke-linejoin="round"/>
<path d="M11.375 11.375H18.375" stroke="#8247E5" stroke-width="2" stroke-linecap="round" stroke-linejoin="round"/>
<path d="M11.375 14.875H18.375" stroke="#8247E5" stroke-width="2" stroke-linecap="round" stroke-linejoin="round"/>
<path d="M2.41719 8.74994C2.13384 8.43269 1.93183 8.05133 1.82855 7.6387C1.72527 7.22606 1.72382 6.79451 1.82431 6.38118C1.9248 5.96786 2.12423 5.58515 2.40544 5.26599C2.68664 4.94684 3.04119 4.7008 3.43857 4.54906C3.83594 4.39731 4.26424 4.34441 4.6866 4.3949C5.10896 4.4454 5.51272 4.59777 5.86313 4.83891C6.21354 5.08006 6.50009 5.40274 6.69814 5.77919C6.89618 6.15564 6.99977 6.57458 7 6.99994V20.9999C7.00023 21.4253 7.10382 21.8442 7.30186 22.2207C7.49991 22.5971 7.78646 22.9198 8.13687 23.161C8.48728 23.4021 8.89104 23.5545 9.3134 23.605C9.73576 23.6555 10.1641 23.6026 10.5614 23.4508C10.9588 23.2991 11.3134 23.053 11.5946 22.7339C11.8758 22.4147 12.0752 22.032 12.1757 21.6187C12.2762 21.2054 12.2747 20.7738 12.1715 20.3612C12.0682 19.9485 11.8662 19.5672 11.5828 19.2499H23.8328C24.1707 19.6277 24.392 20.0952 24.47 20.596C24.548 21.0969 24.4793 21.6095 24.2723 22.0722C24.0653 22.5348 23.7287 22.9276 23.3033 23.2031C22.8779 23.4787 22.3818 23.6252 21.875 23.6249H9.625" stroke="#8247E5" stroke-width="2" stroke-linecap="round" stroke-linejoin="round"/>
</svg>
