<svg width="28" height="28" viewBox="0 0 28 28" fill="none" xmlns="http://www.w3.org/2000/svg">
<path d="M14 26.25L16.8766 21.875" stroke="#8247E5" stroke-width="2" stroke-linecap="round" stroke-linejoin="round"/>
<path d="M10.7949 22.75L14.2512 17.5" stroke="#8247E5" stroke-width="2" stroke-linecap="round" stroke-linejoin="round"/>
<path d="M9.625 10.0625C9.625 8.5915 10.0612 7.15354 10.8784 5.93045C11.6957 4.70736 12.8573 3.75408 14.2163 3.19115C15.5753 2.62822 17.0708 2.48094 18.5135 2.76791C19.9562 3.05489 21.2815 3.76324 22.3216 4.8034C23.3618 5.84355 24.0701 7.16879 24.3571 8.61152C24.6441 10.0543 24.4968 11.5497 23.9339 12.9087C23.3709 14.2677 22.4176 15.4293 21.1946 16.2466C19.9715 17.0638 18.5335 17.5 17.0625 17.5H8.3125C7.03615 17.5 5.81207 16.993 4.90955 16.0905C4.00703 15.1879 3.5 13.9639 3.5 12.6875C3.5 11.4111 4.00703 10.1871 4.90955 9.28455C5.81207 8.38203 7.03615 7.875 8.3125 7.875C8.84504 7.87226 9.37409 7.96106 9.87656 8.1375" stroke="#8247E5" stroke-width="2" stroke-linecap="round" stroke-linejoin="round"/>
</svg>
