<svg width="28" height="28" viewBox="0 0 28 28" fill="none" xmlns="http://www.w3.org/2000/svg">
<path d="M14 11.375C14 12.0712 13.7234 12.7389 13.2312 13.2312C12.7389 13.7234 12.0712 14 11.375 14C10.6788 14 10.0111 13.7234 9.51884 13.2312C9.02656 12.7389 8.75 12.0712 8.75 11.375V7C8.75 6.30381 9.02656 5.63613 9.51884 5.14384C10.0111 4.65156 10.6788 4.375 11.375 4.375C12.0712 4.375 12.7389 4.65156 13.2312 5.14384C13.7234 5.63613 14 6.30381 14 7V11.375Z" stroke="#8247E5" stroke-width="2" stroke-linecap="round" stroke-linejoin="round"/>
<path d="M14 7C14 6.30381 14.2766 5.63613 14.7688 5.14384C15.2611 4.65156 15.9288 4.375 16.625 4.375C17.3212 4.375 17.9889 4.65156 18.4812 5.14384C18.9734 5.63613 19.25 6.30381 19.25 7V9.625" stroke="#8247E5" stroke-width="2" stroke-linecap="round" stroke-linejoin="round"/>
<path d="M14 19.25C14 18.0897 14.4609 16.9769 15.2814 16.1564C16.1019 15.3359 17.2147 14.875 18.375 14.875H16.625C16.2799 14.8764 15.9379 14.8095 15.6187 14.6781C15.2996 14.5467 15.0097 14.3534 14.7656 14.1094C14.5216 13.8653 14.3283 13.5754 14.1969 13.2563C14.0655 12.9371 13.9986 12.5951 14 12.25V10.5C14 10.2679 14.0922 10.0454 14.2563 9.88128C14.4204 9.71719 14.6429 9.625 14.875 9.625H21.875C22.2201 9.62355 22.5621 9.69046 22.8813 9.82187C23.2004 9.95327 23.4903 10.1466 23.7344 10.3906C23.9784 10.6347 24.1717 10.9246 24.3031 11.2437C24.4345 11.5629 24.5014 11.9049 24.5 12.25V14C24.5 16.7848 23.3938 19.4555 21.4246 21.4246C19.4555 23.3938 16.7848 24.5 14 24.5C11.2152 24.5 8.54451 23.3938 6.57538 21.4246C4.60625 19.4555 3.5 16.7848 3.5 14V9.625C3.5 8.92881 3.77656 8.26113 4.26884 7.76884C4.76113 7.27656 5.42881 7 6.125 7C6.82119 7 7.48887 7.27656 7.98116 7.76884C8.47344 8.26113 8.75 8.92881 8.75 9.625V11.375C8.75 12.0712 8.47344 12.7389 7.98116 13.2312C7.48887 13.7234 6.82119 14 6.125 14C5.42881 14 4.76113 13.7234 4.26884 13.2312C3.77656 12.7389 3.5 12.0712 3.5 11.375" stroke="#8247E5" stroke-width="2" stroke-linecap="round" stroke-linejoin="round"/>
</svg>
