<svg width="32" height="32" viewBox="0 0 32 32" fill="none" xmlns="http://www.w3.org/2000/svg">
<path d="M17 9V23" stroke="#8247E5" stroke-linecap="round" stroke-linejoin="round"/>
<path d="M28.5 9H22.5V23" stroke="#8247E5" stroke-linecap="round" stroke-linejoin="round"/>
<path d="M27 16H22.5" stroke="#8247E5" stroke-linecap="round" stroke-linejoin="round"/>
<path d="M9.00001 15.9999H12V18.9999C12 20.0608 11.5786 21.0782 10.8284 21.8284C10.0783 22.5785 9.06087 22.9999 8.00001 22.9999C6.93914 22.9999 5.92173 22.5785 5.17158 21.8284C4.42143 21.0782 4.00001 20.0608 4.00001 18.9999V12.9999C3.99809 12.025 4.35231 11.0829 4.9961 10.3508C5.63989 9.61859 6.52893 9.14676 7.49611 9.02394C8.4633 8.90112 9.44204 9.13577 10.2484 9.68379C11.0547 10.2318 11.6332 11.0555 11.875 11.9999" stroke="#8247E5" stroke-linecap="round" stroke-linejoin="round"/>
</svg>
