<svg width="28" height="28" viewBox="0 0 28 28" fill="none" xmlns="http://www.w3.org/2000/svg">
<path d="M14 17.5L19.25 23.625H8.75L14 17.5Z" stroke="#8247E5" stroke-width="2" stroke-linecap="round" stroke-linejoin="round"/>
<path d="M7 21H5.25C4.78587 21 4.34075 20.8156 4.01256 20.4874C3.68437 20.1592 3.5 19.7141 3.5 19.25V7C3.5 6.53587 3.68437 6.09075 4.01256 5.76256C4.34075 5.43437 4.78587 5.25 5.25 5.25H22.75C23.2141 5.25 23.6592 5.43437 23.9874 5.76256C24.3156 6.09075 24.5 6.53587 24.5 7V19.25C24.5 19.7141 24.3156 20.1592 23.9874 20.4874C23.6592 20.8156 23.2141 21 22.75 21H21" stroke="#8247E5" stroke-width="2" stroke-linecap="round" stroke-linejoin="round"/>
</svg>
