<svg width="28" height="28" viewBox="0 0 28 28" fill="none" xmlns="http://www.w3.org/2000/svg">
<path d="M10.5 23.625H26.25" stroke="#8247E5" stroke-width="2" stroke-linecap="round" stroke-linejoin="round"/>
<path d="M2.625 11.3421V5.58894C2.62499 5.45058 2.65779 5.31419 2.72071 5.19096C2.78363 5.06773 2.87488 4.96118 2.98696 4.88006C3.09904 4.79893 3.22877 4.74554 3.36548 4.72427C3.5022 4.703 3.64201 4.71445 3.77344 4.75769L5.25 5.24988L7.00001 8.53113L10.5 9.62488V5.58894C10.5 5.45058 10.5328 5.31419 10.5957 5.19096C10.6586 5.06773 10.7499 4.96118 10.862 4.88006C10.974 4.79893 11.1038 4.74554 11.2405 4.72427C11.3772 4.703 11.517 4.71445 11.6484 4.75769L13.125 5.24988L16.625 11.3749L21.9406 12.8514C22.6773 13.0551 23.3268 13.495 23.7892 14.1036C24.2515 14.7123 24.5013 15.4559 24.5 16.2202V20.1249L5.18438 14.7108C4.44768 14.5072 3.79824 14.0672 3.33586 13.4586C2.87347 12.85 2.62373 12.1064 2.625 11.3421V11.3421Z" stroke="#8247E5" stroke-width="2" stroke-linecap="round" stroke-linejoin="round"/>
</svg>
