<svg width="28" height="28" viewBox="0 0 28 28" fill="none" xmlns="http://www.w3.org/2000/svg">
<path d="M7.875 23.625H23.625" stroke="#8247E5" stroke-width="2" stroke-linecap="round" stroke-linejoin="round"/>
<path d="M2.93089 8.75H4.81214L6.99964 11.375H10.4996L9.13245 7.27344C9.08922 7.14201 9.07776 7.00219 9.09903 6.86548C9.12031 6.72876 9.1737 6.59904 9.25482 6.48696C9.33595 6.37487 9.4425 6.28363 9.56572 6.22071C9.68895 6.15779 9.82534 6.12499 9.9637 6.125H11.8121L16.6246 11.375H22.7496C23.6779 11.375 24.5681 11.7437 25.2245 12.4001C25.8809 13.0565 26.2496 13.9467 26.2496 14.875V17.5H6.97777C6.22607 17.4988 5.49471 17.2557 4.89194 16.8066C4.28916 16.3575 3.847 15.7262 3.63089 15.0062L2.0887 9.87656C2.04938 9.74557 2.04131 9.60718 2.06515 9.47251C2.08898 9.33783 2.14405 9.21062 2.22594 9.10108C2.30783 8.99154 2.41426 8.90272 2.53669 8.84175C2.65911 8.78078 2.79412 8.74935 2.93089 8.75V8.75Z" stroke="#8247E5" stroke-width="2" stroke-linecap="round" stroke-linejoin="round"/>
</svg>
