<svg width="28" height="28" viewBox="0 0 28 28" fill="none" xmlns="http://www.w3.org/2000/svg">
<path d="M2.625 23.625H18.375" stroke="#8247E5" stroke-width="2" stroke-linecap="round" stroke-linejoin="round"/>
<path d="M1.8484 15.3562L5.97184 19.2172C6.52166 19.7326 7.22314 20.0567 7.97198 20.1415C8.72082 20.2262 9.47701 20.067 10.1281 19.6875L26.6875 10.0625L24.6531 7.56872C24.1239 6.92238 23.381 6.48664 22.5586 6.34021C21.7361 6.19378 20.8885 6.34632 20.1687 6.77028L15.3125 9.62497L8.74997 7.43747L6.94528 8.21403C6.81026 8.27189 6.69198 8.36281 6.60135 8.47841C6.51072 8.59401 6.45065 8.73057 6.42667 8.87549C6.4027 9.02041 6.4156 9.16904 6.46418 9.30767C6.51276 9.44629 6.59546 9.57046 6.70465 9.66872L10.0625 12.6875L6.99997 14.4375L3.93747 13.125L2.09997 13.9125C1.96628 13.9699 1.84903 14.0597 1.75881 14.1739C1.6686 14.288 1.60828 14.4229 1.5833 14.5662C1.55832 14.7096 1.56949 14.8569 1.61578 14.9948C1.66206 15.1327 1.74202 15.257 1.8484 15.3562V15.3562Z" stroke="#8247E5" stroke-width="2" stroke-linecap="round" stroke-linejoin="round"/>
</svg>
