<svg width="28" height="28" viewBox="0 0 28 28" fill="none" xmlns="http://www.w3.org/2000/svg">
<path d="M22.9143 8.79391L19.2393 12.2502L22.7393 21.8752L20.1143 24.5002L14.8861 16.8439L12.2393 19.2502V21.8752L9.61426 24.5002L8.06113 19.9173L3.48926 18.3752L6.11426 15.7502H8.73926L11.3643 13.1252L3.48926 7.87516L6.11426 5.25016L15.7393 8.75016L19.2064 5.0861L19.1299 5.14078C19.623 4.64765 20.2919 4.37061 20.9893 4.37061C21.6867 4.37061 22.3555 4.64765 22.8486 5.14078C23.3418 5.63392 23.6188 6.30276 23.6188 7.00016C23.6188 7.69756 23.3418 8.3664 22.8486 8.85953L22.9143 8.79391Z" stroke-width="2" stroke-linecap="round" stroke-linejoin="round"/>
</svg>
