<svg width="28" height="28" viewBox="0 0 28 28" fill="none" xmlns="http://www.w3.org/2000/svg">
<path d="M23.625 12.25C23.625 17.5656 17.5 25.375 14 25.375C10.5 25.375 4.375 17.5656 4.375 12.25C4.375 9.69729 5.38906 7.24913 7.1941 5.4441C8.99913 3.63906 11.4473 2.625 14 2.625C16.5527 2.625 19.0009 3.63906 20.8059 5.4441C22.6109 7.24913 23.625 9.69729 23.625 12.25V12.25Z" stroke="#8247E5" stroke-width="2" stroke-linecap="round" stroke-linejoin="round"/>
<path d="M11.375 16.1875C10.4467 16.1875 9.5565 15.8188 8.90013 15.1624C8.24375 14.506 7.875 13.6158 7.875 12.6875L7.875 12.25C7.875 12.0179 7.96719 11.7954 8.13128 11.6313C8.29538 11.4672 8.51794 11.375 8.75 11.375C9.67826 11.375 10.5685 11.7437 11.2249 12.4001C11.8813 13.0565 12.25 13.9467 12.25 14.875V15.3125C12.25 15.5446 12.1578 15.7671 11.9937 15.9312C11.8296 16.0953 11.6071 16.1875 11.375 16.1875V16.1875Z" stroke="#8247E5" stroke-width="2" stroke-linecap="round" stroke-linejoin="round"/>
<path d="M19.25 11.375C19.4821 11.375 19.7046 11.4672 19.8687 11.6313C20.0328 11.7954 20.125 12.0179 20.125 12.25V12.6875C20.125 13.6158 19.7563 14.506 19.0999 15.1624C18.4435 15.8188 17.5533 16.1875 16.625 16.1875C16.3929 16.1875 16.1704 16.0953 16.0063 15.9312C15.8422 15.7671 15.75 15.5446 15.75 15.3125V14.875C15.75 13.9467 16.1187 13.0565 16.7751 12.4001C17.4315 11.7437 18.3217 11.375 19.25 11.375Z" stroke="#8247E5" stroke-width="2" stroke-linecap="round" stroke-linejoin="round"/>
<path d="M12.25 20.125H15.75" stroke="#8247E5" stroke-width="2" stroke-linecap="round" stroke-linejoin="round"/>
</svg>
