<svg width="28" height="28" viewBox="0 0 28 28" fill="none" xmlns="http://www.w3.org/2000/svg">
<path d="M23.625 4.375V23.625" stroke-width="2" stroke-linecap="round" stroke-linejoin="round"/>
<path d="M8.75 12.25L19.25 12.25C19.7332 12.25 20.125 11.8582 20.125 11.375V7C20.125 6.51675 19.7332 6.125 19.25 6.125L8.75 6.125C8.26675 6.125 7.875 6.51675 7.875 7V11.375C7.875 11.8582 8.26675 12.25 8.75 12.25Z" stroke-width="2" stroke-linecap="round" stroke-linejoin="round"/>
<path d="M19.25 15.75H4.375C3.89175 15.75 3.5 16.1418 3.5 16.625V21C3.5 21.4832 3.89175 21.875 4.375 21.875H19.25C19.7332 21.875 20.125 21.4832 20.125 21V16.625C20.125 16.1418 19.7332 15.75 19.25 15.75Z" stroke-width="2" stroke-linecap="round" stroke-linejoin="round"/>
</svg>
