<svg width="28" height="28" viewBox="0 0 28 28" fill="none" xmlns="http://www.w3.org/2000/svg">
<path d="M23.625 23.625H4.375" stroke="#8247E5" stroke-width="2" stroke-linecap="round" stroke-linejoin="round"/>
<path d="M15.75 8.75V19.25C15.75 19.7332 16.1418 20.125 16.625 20.125H21C21.4832 20.125 21.875 19.7332 21.875 19.25V8.75C21.875 8.26675 21.4832 7.875 21 7.875H16.625C16.1418 7.875 15.75 8.26675 15.75 8.75Z" stroke="#8247E5" stroke-width="2" stroke-linecap="round" stroke-linejoin="round"/>
<path d="M11.375 3.5H7C6.51675 3.5 6.125 3.89175 6.125 4.375V19.25C6.125 19.7332 6.51675 20.125 7 20.125H11.375C11.8582 20.125 12.25 19.7332 12.25 19.25V4.375C12.25 3.89175 11.8582 3.5 11.375 3.5Z" stroke="#8247E5" stroke-width="2" stroke-linecap="round" stroke-linejoin="round"/>
</svg>
