<svg width="28" height="28" viewBox="0 0 28 28" fill="none" xmlns="http://www.w3.org/2000/svg">
<path d="M4.375 4.375V23.625" stroke="#8247E5" stroke-width="2" stroke-linecap="round" stroke-linejoin="round"/>
<path d="M19.25 6.125H8.75C8.26675 6.125 7.875 6.51675 7.875 7V11.375C7.875 11.8582 8.26675 12.25 8.75 12.25H19.25C19.7332 12.25 20.125 11.8582 20.125 11.375V7C20.125 6.51675 19.7332 6.125 19.25 6.125Z" stroke="#8247E5" stroke-width="2" stroke-linecap="round" stroke-linejoin="round"/>
<path d="M23.625 15.75H8.75C8.26675 15.75 7.875 16.1418 7.875 16.625V21C7.875 21.4832 8.26675 21.875 8.75 21.875H23.625C24.1082 21.875 24.5 21.4832 24.5 21V16.625C24.5 16.1418 24.1082 15.75 23.625 15.75Z" stroke="#8247E5" stroke-width="2" stroke-linecap="round" stroke-linejoin="round"/>
</svg>
