<svg width="28" height="28" viewBox="0 0 28 28" fill="none" xmlns="http://www.w3.org/2000/svg">
<path d="M14 25.375V7.875" stroke-width="2" stroke-linecap="round" stroke-linejoin="round"/>
<path d="M14 7.875C15.2081 7.875 16.1875 6.89562 16.1875 5.6875C16.1875 4.47938 15.2081 3.5 14 3.5C12.7919 3.5 11.8125 4.47938 11.8125 5.6875C11.8125 6.89562 12.7919 7.875 14 7.875Z" stroke-width="2" stroke-linecap="round" stroke-linejoin="round"/>
<path d="M9.625 12.25H18.375" stroke-width="2" stroke-linecap="round" stroke-linejoin="round"/>
<path d="M4.375 15.75C4.375 17.1424 4.92812 18.4777 5.91269 19.4623C6.89726 20.4469 8.23261 21 9.625 21C10.7853 21 11.8981 21.4609 12.7186 22.2814C13.5391 23.1019 14 24.2147 14 25.375C14 24.2147 14.4609 23.1019 15.2814 22.2814C16.1019 21.4609 17.2147 21 18.375 21C19.7674 21 21.1027 20.4469 22.0873 19.4623C23.0719 18.4777 23.625 17.1424 23.625 15.75" stroke-width="2" stroke-linecap="round" stroke-linejoin="round"/>
</svg>
