<svg width="28" height="28" viewBox="0 0 28 28" fill="none" xmlns="http://www.w3.org/2000/svg">
<path d="M19.2715 10.9047H24.5215V5.65466" stroke-width="2" stroke-linecap="round" stroke-linejoin="round"/>
<path d="M7.19727 7.19683C8.0902 6.3026 9.15066 5.59317 10.318 5.10915C11.4854 4.62512 12.7367 4.37598 14.0004 4.37598C15.2641 4.37598 16.5154 4.62512 17.6828 5.10915C18.8501 5.59317 19.9106 6.3026 20.8035 7.19683L24.5223 10.9046" stroke-width="2" stroke-linecap="round" stroke-linejoin="round"/>
<path d="M8.72852 17.0953H3.47852V22.3453" stroke-width="2" stroke-linecap="round" stroke-linejoin="round"/>
<path d="M20.8035 20.8031C19.9106 21.6974 18.8501 22.4068 17.6828 22.8908C16.5154 23.3749 15.2641 23.624 14.0004 23.624C12.7367 23.624 11.4854 23.3749 10.318 22.8908C9.15066 22.4068 8.0902 21.6974 7.19727 20.8031L3.47852 17.0953" stroke-width="2" stroke-linecap="round" stroke-linejoin="round"/>
</svg>
