<svg width="28" height="28" viewBox="0 0 28 28" fill="none" xmlns="http://www.w3.org/2000/svg">
<path d="M17.5 11.375H26.25" stroke-width="2" stroke-linecap="round" stroke-linejoin="round"/>
<path d="M17.5 14.875H26.25" stroke-width="2" stroke-linecap="round" stroke-linejoin="round"/>
<path d="M17.5 18.375H26.25" stroke-width="2" stroke-linecap="round" stroke-linejoin="round"/>
<path d="M7.875 21.875H26.25" stroke-width="2" stroke-linecap="round" stroke-linejoin="round"/>
<path d="M13.8356 14.3938C13.5979 15.3483 13.0967 16.2169 12.3893 16.9005C11.6818 17.584 10.7965 18.0551 9.83437 18.2599C8.87219 18.4648 7.87182 18.3951 6.9473 18.059C6.02277 17.7229 5.21128 17.1337 4.60535 16.3587C3.99941 15.5838 3.62341 14.6541 3.52019 13.6758C3.41698 12.6975 3.59071 11.7099 4.02158 10.8255C4.45245 9.94118 5.12312 9.19567 5.95715 8.67399C6.79117 8.15232 7.75499 7.87547 8.73873 7.875" stroke-width="2" stroke-linecap="round" stroke-linejoin="round"/>
<path d="M8.73926 12.5234V18.3641" stroke-width="2" stroke-linecap="round" stroke-linejoin="round"/>
<path d="M12.2392 5.6875C12.8194 5.6875 13.3758 5.91797 13.786 6.3282C14.1963 6.73844 14.4267 7.29484 14.4267 7.875C14.4267 8.45516 14.1963 9.01156 13.786 9.4218C13.3758 9.83203 12.8194 10.0625 12.2392 10.0625L5.23924 5.6875C4.71945 5.68867 4.21706 5.87488 3.82209 6.21279C3.42712 6.5507 3.16538 7.01821 3.08377 7.53155C3.00217 8.0449 3.10602 8.57052 3.37673 9.01426C3.64744 9.45799 4.06731 9.79082 4.56112 9.95312" stroke-width="2" stroke-linecap="round" stroke-linejoin="round"/>
</svg>
