<svg width="28" height="28" viewBox="0 0 28 28" fill="none" xmlns="http://www.w3.org/2000/svg">
<path d="M22.9737 22.9715C24.8531 21.0921 22.36 15.5519 17.4052 10.5972C12.4505 5.64238 6.91028 3.14929 5.03088 5.02869C3.15148 6.90809 5.64457 12.4483 10.5993 17.4031C15.5541 22.3578 21.0943 24.8509 22.9737 22.9715Z" stroke-width="2" stroke-linecap="round" stroke-linejoin="round"/>
<path d="M17.4052 17.4028C22.36 12.4481 24.8531 6.90787 22.9737 5.02848C21.0943 3.14908 15.5541 5.64217 10.5993 10.5969C5.64457 15.5517 3.15148 21.0919 5.03088 22.9713C6.91028 24.8507 12.4505 22.3576 17.4052 17.4028Z" stroke-width="2" stroke-linecap="round" stroke-linejoin="round"/>
<path d="M14 15.3125C14.7249 15.3125 15.3125 14.7249 15.3125 14C15.3125 13.2751 14.7249 12.6875 14 12.6875C13.2751 12.6875 12.6875 13.2751 12.6875 14C12.6875 14.7249 13.2751 15.3125 14 15.3125Z" fill="#8247E5"/>
</svg>
