<svg width="28" height="28" viewBox="0 0 28 28" fill="none" xmlns="http://www.w3.org/2000/svg">
<path d="M14 24.5C19.799 24.5 24.5 19.799 24.5 14C24.5 8.20101 19.799 3.5 14 3.5C8.20101 3.5 3.5 8.20101 3.5 14C3.5 19.799 8.20101 24.5 14 24.5Z" stroke="#8247E5" stroke-width="2" stroke-linecap="round" stroke-linejoin="round"/>
<path d="M10.0625 15.3125C10.7874 15.3125 11.375 14.7249 11.375 14C11.375 13.2751 10.7874 12.6875 10.0625 12.6875C9.33763 12.6875 8.75 13.2751 8.75 14C8.75 14.7249 9.33763 15.3125 10.0625 15.3125Z" fill="#8247E5"/>
<path d="M17.9375 15.3125C18.6624 15.3125 19.25 14.7249 19.25 14C19.25 13.2751 18.6624 12.6875 17.9375 12.6875C17.2126 12.6875 16.625 13.2751 16.625 14C16.625 14.7249 17.2126 15.3125 17.9375 15.3125Z" fill="#8247E5"/>
<path d="M16.8984 18.375C16.0394 18.9455 15.0312 19.2498 14 19.2498C12.9688 19.2498 11.9606 18.9455 11.1016 18.375" stroke="#8247E5" stroke-width="2" stroke-linecap="round" stroke-linejoin="round"/>
<path d="M14 3.5C12.25 5.6875 12.25 7.875 12.25 7.875C12.25 8.33913 12.4344 8.78425 12.7626 9.11244C13.0908 9.44063 13.5359 9.625 14 9.625C14.4641 9.625 14.9092 9.44063 15.2374 9.11244C15.5656 8.78425 15.75 8.33913 15.75 7.875" stroke="#8247E5" stroke-width="2" stroke-linecap="round" stroke-linejoin="round"/>
</svg>
