<svg width="28" height="28" viewBox="0 0 28 28" fill="none" xmlns="http://www.w3.org/2000/svg">
<path d="M6.74844 22.3234L1.75 14L6.74844 5.67656C6.82457 5.54689 6.93323 5.43934 7.06367 5.36452C7.19411 5.28971 7.34182 5.25024 7.49219 5.25H23.625C23.8571 5.25 24.0796 5.34219 24.2437 5.50628C24.4078 5.67038 24.5 5.89294 24.5 6.125V21.875C24.5 22.1071 24.4078 22.3296 24.2437 22.4937C24.0796 22.6578 23.8571 22.75 23.625 22.75H7.49219C7.34182 22.7498 7.19411 22.7103 7.06367 22.6355C6.93323 22.5607 6.82457 22.4531 6.74844 22.3234V22.3234Z" stroke-width="2" stroke-linecap="round" stroke-linejoin="round"/>
<path d="M17.5 11.375L12.25 16.625" stroke-width="2" stroke-linecap="round" stroke-linejoin="round"/>
<path d="M17.5 16.625L12.25 11.375" stroke-width="2" stroke-linecap="round" stroke-linejoin="round"/>
</svg>
