<svg width="28" height="28" viewBox="0 0 28 28" fill="none" xmlns="http://www.w3.org/2000/svg">
<path d="M22.75 11.375C22.75 16.2094 18.8344 21.875 14 21.875C9.16562 21.875 5.25 16.2094 5.25 11.375C5.25 9.05436 6.17187 6.82876 7.81282 5.18782C9.45376 3.54687 11.6794 2.625 14 2.625C16.3206 2.625 18.5462 3.54687 20.1872 5.18782C21.8281 6.82876 22.75 9.05436 22.75 11.375V11.375Z" stroke="#8247E5" stroke-width="2" stroke-linecap="round" stroke-linejoin="round"/>
<path d="M15.1813 21.7656L16.625 25.375H11.375L12.8187 21.7656" stroke="#8247E5" stroke-width="2" stroke-linecap="round" stroke-linejoin="round"/>
<path d="M14.875 6.20166C15.9501 6.38068 16.9424 6.89124 17.7132 7.66194C18.4839 8.43265 18.9944 9.42496 19.1734 10.5001" stroke="#8247E5" stroke-width="2" stroke-linecap="round" stroke-linejoin="round"/>
</svg>
