<svg width="28" height="28" viewBox="0 0 28 28" fill="none" xmlns="http://www.w3.org/2000/svg">
<path d="M14 24.5C19.799 24.5 24.5 19.799 24.5 14C24.5 8.20101 19.799 3.5 14 3.5C8.20101 3.5 3.5 8.20101 3.5 14C3.5 19.799 8.20101 24.5 14 24.5Z" stroke-width="2" stroke-linecap="round" stroke-linejoin="round"/>
<path d="M6.5625 6.58435C8.52572 8.5527 9.62723 11.2199 9.625 14C9.62723 16.78 8.52572 19.4472 6.5625 21.4156" stroke-width="2" stroke-linecap="round" stroke-linejoin="round"/>
<path d="M21.4379 6.58435C19.4769 8.55416 18.376 11.2205 18.376 14C18.376 16.7795 19.4769 19.4458 21.4379 21.4156" stroke-width="2" stroke-linecap="round" stroke-linejoin="round"/>
<path d="M3.5 14H24.5" stroke-width="2" stroke-linecap="round" stroke-linejoin="round"/>
<path d="M14 3.5V24.5" stroke-width="2" stroke-linecap="round" stroke-linejoin="round"/>
</svg>
