<svg width="28" height="28" viewBox="0 0 28 28" fill="none" xmlns="http://www.w3.org/2000/svg">
<path d="M7.875 21V23.625" stroke-width="2" stroke-linecap="round" stroke-linejoin="round"/>
<path d="M20.125 21V23.625" stroke-width="2" stroke-linecap="round" stroke-linejoin="round"/>
<path d="M6.125 11.375V5.6875C6.125 5.10734 6.35547 4.55094 6.7657 4.1407C7.17594 3.73047 7.73234 3.5 8.3125 3.5C8.89266 3.5 9.44906 3.73047 9.8593 4.1407C10.2695 4.55094 10.5 5.10734 10.5 5.6875" stroke-width="2" stroke-linecap="round" stroke-linejoin="round"/>
<path d="M21.875 10.5H14.875V15.75H21.875V10.5Z" stroke-width="2" stroke-linecap="round" stroke-linejoin="round"/>
<path d="M21.875 11.375H25.375C25.6071 11.375 25.8296 11.4672 25.9937 11.6313C26.1578 11.7954 26.25 12.0179 26.25 12.25V15.75C26.25 17.1424 25.6969 18.4777 24.7123 19.4623C23.7277 20.4469 22.3924 21 21 21H7C5.60761 21 4.27226 20.4469 3.28769 19.4623C2.30312 18.4777 1.75 17.1424 1.75 15.75V12.25C1.75 12.0179 1.84219 11.7954 2.00628 11.6313C2.17038 11.4672 2.39294 11.375 2.625 11.375H14.875" stroke-width="2" stroke-linecap="round" stroke-linejoin="round"/>
</svg>
