<svg width="29" height="28" viewBox="0 0 29 28" fill="none" xmlns="http://www.w3.org/2000/svg">
<path d="M13.5625 9.625V14" stroke-width="2" stroke-linecap="round" stroke-linejoin="round"/>
<path d="M27.125 10.5V17.5" stroke-width="2" stroke-linecap="round" stroke-linejoin="round"/>
<path d="M23.625 20.125V7.875C23.625 6.9085 22.8415 6.125 21.875 6.125L5.25 6.125C4.2835 6.125 3.5 6.9085 3.5 7.875V20.125C3.5 21.0915 4.2835 21.875 5.25 21.875H21.875C22.8415 21.875 23.625 21.0915 23.625 20.125Z" stroke-width="2" stroke-linecap="round" stroke-linejoin="round"/>
<path d="M13.5625 19.25C14.2874 19.25 14.875 18.6624 14.875 17.9375C14.875 17.2126 14.2874 16.625 13.5625 16.625C12.8376 16.625 12.25 17.2126 12.25 17.9375C12.25 18.6624 12.8376 19.25 13.5625 19.25Z" fill="#8247E5"/>
</svg>
