<svg width="28" height="29" viewBox="0 0 28 29" fill="none" xmlns="http://www.w3.org/2000/svg">
<path d="M14 11.0625V15.4375" stroke-width="2" stroke-linecap="round" stroke-linejoin="round"/>
<path d="M10.5 1.875H17.5" stroke-width="2" stroke-linecap="round" stroke-linejoin="round"/>
<path d="M20.125 5.375H7.875C6.9085 5.375 6.125 6.1585 6.125 7.125V23.75C6.125 24.7165 6.9085 25.5 7.875 25.5H20.125C21.0915 25.5 21.875 24.7165 21.875 23.75V7.125C21.875 6.1585 21.0915 5.375 20.125 5.375Z" stroke-width="2" stroke-linecap="round" stroke-linejoin="round"/>
<path d="M14 20.6875C14.7249 20.6875 15.3125 20.0999 15.3125 19.375C15.3125 18.6501 14.7249 18.0625 14 18.0625C13.2751 18.0625 12.6875 18.6501 12.6875 19.375C12.6875 20.0999 13.2751 20.6875 14 20.6875Z" fill="#8247E5"/>
</svg>
