<svg width="28" height="28" viewBox="0 0 28 28" fill="none" xmlns="http://www.w3.org/2000/svg">
<path d="M10.5 24.5H17.5" stroke="#8247E5" stroke-width="2" stroke-linecap="round" stroke-linejoin="round"/>
<path d="M6.14672 11.3751C6.14526 10.3378 6.34905 9.31041 6.74634 8.35217C7.14364 7.39393 7.72659 6.52376 8.46162 5.79178C9.19665 5.0598 10.0692 4.48047 11.0291 4.08717C11.989 3.69386 13.0172 3.49435 14.0545 3.50012C18.3858 3.53293 21.853 7.13137 21.853 11.4736V12.2501C21.853 16.1657 22.6733 18.4407 23.3952 19.6876C23.4718 19.8204 23.5123 19.971 23.5124 20.1244C23.5125 20.2777 23.4724 20.4284 23.3959 20.5613C23.3195 20.6942 23.2095 20.8047 23.0769 20.8817C22.9443 20.9588 22.7938 20.9996 22.6405 21.0001H5.35922C5.20589 20.9996 5.05539 20.9588 4.9228 20.8817C4.79022 20.8047 4.68019 20.6942 4.60376 20.5613C4.52733 20.4284 4.48717 20.2777 4.48731 20.1244C4.48744 19.971 4.52787 19.8204 4.60454 19.6876C5.32641 18.4407 6.14672 16.1657 6.14672 12.2501V11.3751Z" stroke="#8247E5" stroke-width="2" stroke-linecap="round" stroke-linejoin="round"/>
<path d="M11.8125 10.5H16.1875L11.8125 15.75H16.1875" stroke="#8247E5" stroke-width="2" stroke-linecap="round" stroke-linejoin="round"/>
</svg>
