<svg width="28" height="28" viewBox="0 0 28 28" fill="none" xmlns="http://www.w3.org/2000/svg">
<path d="M5.25 4.375L22.75 23.625" stroke-width="2" stroke-linecap="round" stroke-linejoin="round"/>
<path d="M10.5 21V21.875C10.5 22.8033 10.8687 23.6935 11.5251 24.3499C12.1815 25.0063 13.0717 25.375 14 25.375C14.9283 25.375 15.8185 25.0063 16.4749 24.3499C17.1313 23.6935 17.5 22.8033 17.5 21.875V21" stroke-width="2" stroke-linecap="round" stroke-linejoin="round"/>
<path d="M20.3655 21H5.35922C5.20589 20.9995 5.05539 20.9586 4.9228 20.8816C4.79022 20.8046 4.68019 20.6941 4.60376 20.5612C4.52733 20.4282 4.48717 20.2776 4.48731 20.1242C4.48744 19.9709 4.52787 19.8203 4.60454 19.6875C5.32641 18.4406 6.14672 16.1656 6.14672 12.25V11.375C6.14582 9.77417 6.63013 8.21065 7.53579 6.89062" stroke-width="2" stroke-linecap="round" stroke-linejoin="round"/>
<path d="M10.1172 4.52818C11.3146 3.84056 12.674 3.4856 14.0547 3.50006C18.3859 3.53287 21.8531 7.13131 21.8531 11.4735V12.2501C21.8531 15.1704 22.3125 17.1719 22.8375 18.5172" stroke-width="2" stroke-linecap="round" stroke-linejoin="round"/>
</svg>
