<svg width="28" height="28" viewBox="0 0 28 28" fill="none" xmlns="http://www.w3.org/2000/svg">
<path d="M1.75 8.75H11.375" stroke-width="2" stroke-linecap="round" stroke-linejoin="round"/>
<path d="M16.625 8.75H26.25" stroke-width="2" stroke-linecap="round" stroke-linejoin="round"/>
<path d="M14 11.375C15.4497 11.375 16.625 10.1997 16.625 8.75C16.625 7.30025 15.4497 6.125 14 6.125C12.5503 6.125 11.375 7.30025 11.375 8.75C11.375 10.1997 12.5503 11.375 14 11.375Z" stroke-width="2" stroke-linecap="round" stroke-linejoin="round"/>
<path d="M4.375 21.875C5.82475 21.875 7 20.6997 7 19.25C7 17.8003 5.82475 16.625 4.375 16.625C2.92525 16.625 1.75 17.8003 1.75 19.25C1.75 20.6997 2.92525 21.875 4.375 21.875Z" stroke-width="2" stroke-linecap="round" stroke-linejoin="round"/>
<path d="M23.625 21.875C25.0747 21.875 26.25 20.6997 26.25 19.25C26.25 17.8003 25.0747 16.625 23.625 16.625C22.1753 16.625 21 17.8003 21 19.25C21 20.6997 22.1753 21.875 23.625 21.875Z" stroke-width="2" stroke-linecap="round" stroke-linejoin="round"/>
<path d="M16.6035 9.11096C18.3358 9.59727 19.8973 10.5589 21.1112 11.8869C22.3252 13.2148 23.143 14.8562 23.4723 16.625" stroke-width="2" stroke-linecap="round" stroke-linejoin="round"/>
<path d="M4.52832 16.625C4.85755 14.8562 5.67544 13.2148 6.88938 11.8869C8.10332 10.5589 9.66481 9.59727 11.3971 9.11096" stroke-width="2" stroke-linecap="round" stroke-linejoin="round"/>
</svg>
