<svg width="30" height="28" viewBox="0 0 30 28" fill="none" xmlns="http://www.w3.org/2000/svg">
<path d="M23.75 8.75C23.75 8.28587 23.5656 7.84075 23.2374 7.51256C22.9092 7.18437 22.4641 7 22 7H17.625L23.75 17.5" stroke-width="2" stroke-linecap="round" stroke-linejoin="round"/>
<path d="M23.75 21.875C26.1662 21.875 28.125 19.9162 28.125 17.5C28.125 15.0838 26.1662 13.125 23.75 13.125C21.3338 13.125 19.375 15.0838 19.375 17.5C19.375 19.9162 21.3338 21.875 23.75 21.875Z" stroke-width="2" stroke-linecap="round" stroke-linejoin="round"/>
<path d="M6.25 21.875C8.66625 21.875 10.625 19.9162 10.625 17.5C10.625 15.0838 8.66625 13.125 6.25 13.125C3.83375 13.125 1.875 15.0838 1.875 17.5C1.875 19.9162 3.83375 21.875 6.25 21.875Z" stroke-width="2" stroke-linecap="round" stroke-linejoin="round"/>
<path d="M6.25 7H9.3125L15.4375 17.5" stroke-width="2" stroke-linecap="round" stroke-linejoin="round"/>
<path d="M19.6047 10.5H11.3578L6.25 17.5" stroke-width="2" stroke-linecap="round" stroke-linejoin="round"/>
</svg>
