<svg width="28" height="28" viewBox="0 0 28 28" fill="none" xmlns="http://www.w3.org/2000/svg">
<path d="M11.375 10.0625H16.625" stroke="#8247E5" stroke-width="2" stroke-linecap="round" stroke-linejoin="round"/>
<path d="M25.1125 16.8765L20.3328 6.01554C19.8393 5.52728 19.1731 5.25342 18.4789 5.25342C17.7847 5.25342 17.1185 5.52728 16.625 6.01554V18.3749" stroke="#8247E5" stroke-width="2" stroke-linecap="round" stroke-linejoin="round"/>
<path d="M11.3752 18.3749V6.01554C10.8817 5.52728 10.2155 5.25342 9.52129 5.25342C8.82707 5.25342 8.16088 5.52728 7.66738 6.01554L2.8877 16.8765" stroke="#8247E5" stroke-width="2" stroke-linecap="round" stroke-linejoin="round"/>
<path d="M7 22.75C9.41625 22.75 11.375 20.7912 11.375 18.375C11.375 15.9588 9.41625 14 7 14C4.58375 14 2.625 15.9588 2.625 18.375C2.625 20.7912 4.58375 22.75 7 22.75Z" stroke="#8247E5" stroke-width="2" stroke-linecap="round" stroke-linejoin="round"/>
<path d="M21 22.75C23.4162 22.75 25.375 20.7912 25.375 18.375C25.375 15.9588 23.4162 14 21 14C18.5838 14 16.625 15.9588 16.625 18.375C16.625 20.7912 18.5838 22.75 21 22.75Z" stroke="#8247E5" stroke-width="2" stroke-linecap="round" stroke-linejoin="round"/>
</svg>
