<svg width="29" height="28" viewBox="0 0 29 28" fill="none" xmlns="http://www.w3.org/2000/svg">
<path d="M18.9375 8.75C19.6624 8.75 20.25 8.16237 20.25 7.4375C20.25 6.71263 19.6624 6.125 18.9375 6.125C18.2126 6.125 17.625 6.71263 17.625 7.4375C17.625 8.16237 18.2126 8.75 18.9375 8.75Z" fill="#8247E5"/>
<path d="M14.125 14.875L9.75 20.125" stroke-width="2" stroke-linecap="round" stroke-linejoin="round"/>
<path d="M23.75 10.5002V13.1252C23.75 15.91 22.6438 18.5807 20.6746 20.5499C18.7055 22.519 16.0348 23.6252 13.25 23.6252H1.875L12.375 10.5002V8.31274C12.3773 6.93109 12.8825 5.59752 13.7962 4.56111C14.7099 3.52471 15.9696 2.85634 17.3401 2.68085C18.7105 2.50535 20.098 2.83473 21.2434 3.60746C22.3888 4.3802 23.2137 5.54344 23.5641 6.87993L26.375 8.75024L23.75 10.5002Z" stroke-width="2" stroke-linecap="round" stroke-linejoin="round"/>
</svg>
