<svg width="28" height="28" viewBox="0 0 28 28" fill="none" xmlns="http://www.w3.org/2000/svg">
<path d="M18.375 24.5L12.25 20.125L6.125 24.5V7.875C6.125 7.64294 6.21719 7.42038 6.38128 7.25628C6.54538 7.09219 6.76794 7 7 7H17.5C17.7321 7 17.9546 7.09219 18.1187 7.25628C18.2828 7.42038 18.375 7.64294 18.375 7.875V24.5Z" stroke-width="2" stroke-linecap="round" stroke-linejoin="round"/>
<path d="M9.625 7V4.375C9.625 4.14294 9.71719 3.92038 9.88128 3.75628C10.0454 3.59219 10.2679 3.5 10.5 3.5H21C21.2321 3.5 21.4546 3.59219 21.6187 3.75628C21.7828 3.92038 21.875 4.14294 21.875 4.375V21L18.375 18.4953" stroke-width="2" stroke-linecap="round" stroke-linejoin="round"/>
</svg>
