<svg width="28" height="28" viewBox="0 0 28 28" fill="none" xmlns="http://www.w3.org/2000/svg">
<path d="M8.75 4.375H5.25C4.76675 4.375 4.375 4.76675 4.375 5.25V22.75C4.375 23.2332 4.76675 23.625 5.25 23.625H8.75C9.23325 23.625 9.625 23.2332 9.625 22.75V5.25C9.625 4.76675 9.23325 4.375 8.75 4.375Z" stroke-width="2" stroke-linecap="round" stroke-linejoin="round"/>
<path d="M4.375 8.75H9.625" stroke-width="2" stroke-linecap="round" stroke-linejoin="round"/>
<path d="M14 4.375H10.5C10.0168 4.375 9.625 4.76675 9.625 5.25V22.75C9.625 23.2332 10.0168 23.625 10.5 23.625H14C14.4832 23.625 14.875 23.2332 14.875 22.75V5.25C14.875 4.76675 14.4832 4.375 14 4.375Z" stroke-width="2" stroke-linecap="round" stroke-linejoin="round"/>
<path d="M9.625 19.25H14.875" stroke-width="2" stroke-linecap="round" stroke-linejoin="round"/>
<path d="M19.1988 4.08857L15.8038 4.99857C15.3351 5.12422 15.0569 5.60607 15.1826 6.07482L19.7326 23.0498C19.8582 23.5186 20.3401 23.7967 20.8088 23.6711L24.2038 22.7611C24.6726 22.6354 24.9507 22.1536 24.8251 21.6848L20.2751 4.70982C20.1494 4.24107 19.6676 3.96293 19.1988 4.08857Z" stroke-width="2.00848" stroke-linecap="round" stroke-linejoin="round"/>
<path d="M18.7246 19.6001L23.7996 18.2329" stroke-width="2" stroke-linecap="round" stroke-linejoin="round"/>
<path d="M16.0127 9.45L21.0877 8.09375" stroke-width="2" stroke-linecap="round" stroke-linejoin="round"/>
</svg>
