<svg width="28" height="28" viewBox="0 0 28 28" fill="none" xmlns="http://www.w3.org/2000/svg">
<path d="M14 19.25V8.75" stroke-width="2" stroke-linecap="round" stroke-linejoin="round"/>
<path d="M9.625 15.75C10.4903 15.75 11.3362 16.0066 12.0556 16.4873C12.7751 16.9681 13.3358 17.6513 13.667 18.4508C13.9981 19.2502 14.0847 20.1299 13.9159 20.9785C13.7471 21.8272 13.3304 22.6067 12.7186 23.2186C12.1067 23.8304 11.3272 24.2471 10.4785 24.4159C9.62985 24.5847 8.75019 24.4981 7.95076 24.167C7.15133 23.8358 6.46805 23.2751 5.98732 22.5556C5.50659 21.8362 5.25 20.9903 5.25 20.125V19.3922" stroke-width="2" stroke-linecap="round" stroke-linejoin="round"/>
<path d="M18.375 15.75C17.5097 15.75 16.6638 16.0066 15.9444 16.4873C15.2249 16.9681 14.6642 17.6513 14.333 18.4508C14.0019 19.2502 13.9153 20.1299 14.0841 20.9785C14.2529 21.8272 14.6696 22.6067 15.2814 23.2186C15.8933 23.8304 16.6728 24.2471 17.5215 24.4159C18.3701 24.5847 19.2498 24.4981 20.0492 24.167C20.8487 23.8358 21.532 23.2751 22.0127 22.5556C22.4934 21.8362 22.75 20.9903 22.75 20.125V19.3922" stroke-width="2" stroke-linecap="round" stroke-linejoin="round"/>
<path d="M7.87543 19.6875H7.00043C5.75949 19.6908 4.55748 19.2545 3.60766 18.4559C2.65784 17.6572 2.02162 16.548 1.81188 15.3249C1.60213 14.1018 1.83241 12.8439 2.46187 11.7745C3.09134 10.705 4.07928 9.89313 5.25043 9.48281V7.875C5.25043 6.71468 5.71137 5.60188 6.53184 4.78141C7.35231 3.96094 8.46511 3.5 9.62543 3.5C10.7858 3.5 11.8985 3.96094 12.719 4.78141C13.5395 5.60188 14.0004 6.71468 14.0004 7.875V20.125" stroke-width="2" stroke-linecap="round" stroke-linejoin="round"/>
<path d="M20.125 19.6875H21C22.2409 19.6908 23.4429 19.2545 24.3928 18.4559C25.3426 17.6572 25.9788 16.548 26.1886 15.3249C26.3983 14.1018 26.168 12.8439 25.5386 11.7745C24.9091 10.705 23.9211 9.89313 22.75 9.48281V7.875C22.75 6.71468 22.2891 5.60188 21.4686 4.78141C20.6481 3.96094 19.5353 3.5 18.375 3.5C17.2147 3.5 16.1019 3.96094 15.2814 4.78141C14.4609 5.60188 14 6.71468 14 7.875" stroke-width="2" stroke-linecap="round" stroke-linejoin="round"/>
<path d="M9.625 9.1875V10.0625C9.625 10.8747 9.30234 11.6537 8.72801 12.228C8.15368 12.8023 7.37473 13.125 6.5625 13.125" stroke-width="2" stroke-linecap="round" stroke-linejoin="round"/>
<path d="M18.375 9.1875V10.0625C18.375 10.8747 18.6977 11.6537 19.272 12.228C19.8463 12.8023 20.6253 13.125 21.4375 13.125" stroke-width="2" stroke-linecap="round" stroke-linejoin="round"/>
</svg>
