<svg width="28" height="28" viewBox="0 0 28 28" fill="none" xmlns="http://www.w3.org/2000/svg">
<path d="M14 19.25V24.5" stroke-width="2" stroke-linecap="round" stroke-linejoin="round"/>
<path d="M9.625 24.5H18.375" stroke-width="2" stroke-linecap="round" stroke-linejoin="round"/>
<path d="M22.0719 4.375C23.0155 5.8278 23.5495 7.50833 23.6176 9.23933C23.6857 10.9703 23.2853 12.6876 22.4588 14.21C21.6322 15.7325 20.4101 17.0036 18.9213 17.8894C17.4326 18.7751 15.7323 19.2427 14 19.2427C12.2677 19.2427 10.5674 18.7751 9.07868 17.8894C7.58991 17.0036 6.36779 15.7325 5.54124 14.21C4.71469 12.6876 4.31435 10.9703 4.38244 9.23933C4.45053 7.50833 4.98454 5.8278 5.92813 4.375H22.0719Z" stroke-width="2" stroke-linecap="round" stroke-linejoin="round"/>
<path d="M4.375 9.625H23.625" stroke-width="2" stroke-linecap="round" stroke-linejoin="round"/>
</svg>
