<svg width="28" height="28" viewBox="0 0 28 28" fill="none" xmlns="http://www.w3.org/2000/svg">
<path d="M14 17.5C15.933 17.5 17.5 15.933 17.5 14C17.5 12.067 15.933 10.5 14 10.5C12.067 10.5 10.5 12.067 10.5 14C10.5 15.933 12.067 17.5 14 17.5Z" stroke="#8247E5" stroke-width="2" stroke-linecap="round" stroke-linejoin="round"/>
<path d="M8.43302 19.5672C7.71446 18.8495 7.14237 17.9988 6.74865 17.0625C6.3371 16.094 6.125 15.0524 6.125 14C6.125 12.9477 6.3371 11.9061 6.74865 10.9375C7.14237 10.0013 7.71446 9.15063 8.43302 8.43286" stroke="#8247E5" stroke-width="2" stroke-linecap="round" stroke-linejoin="round"/>
<path d="M19.5674 8.43286C20.2859 9.15063 20.858 10.0013 21.2518 10.9375C21.6633 11.9061 21.8754 12.9477 21.8754 14C21.8754 15.0524 21.6633 16.094 21.2518 17.0625C20.858 17.9988 20.2859 18.8495 19.5674 19.5672" stroke="#8247E5" stroke-width="2" stroke-linecap="round" stroke-linejoin="round"/>
<path d="M5.33758 22.6625C4.22158 21.5445 3.33047 20.2227 2.71258 18.7688C2.07727 17.2592 1.75 15.6379 1.75 14C1.75 12.3622 2.07727 10.7409 2.71258 9.23127C3.33047 7.7774 4.22158 6.45559 5.33758 5.33752" stroke="#8247E5" stroke-width="2" stroke-linecap="round" stroke-linejoin="round"/>
<path d="M22.6621 5.33752C23.7781 6.45559 24.6692 7.7774 25.2871 9.23127C25.9224 10.7409 26.2497 12.3622 26.2497 14C26.2497 15.6379 25.9224 17.2592 25.2871 18.7688C24.6692 20.2227 23.7781 21.5445 22.6621 22.6625" stroke="#8247E5" stroke-width="2" stroke-linecap="round" stroke-linejoin="round"/>
</svg>
