<svg width="28" height="28" viewBox="0 0 28 28" fill="none" xmlns="http://www.w3.org/2000/svg">
<path d="M1.75 23.625H26.25" stroke-width="2" stroke-linecap="round" stroke-linejoin="round"/>
<path d="M15.75 23.625V4.375C15.75 4.14294 15.6578 3.92038 15.4937 3.75628C15.3296 3.59219 15.1071 3.5 14.875 3.5H4.375C4.14294 3.5 3.92038 3.59219 3.75628 3.75628C3.59219 3.92038 3.5 4.14294 3.5 4.375V23.625" stroke-width="2" stroke-linecap="round" stroke-linejoin="round"/>
<path d="M24.5 23.625V11.375C24.5 11.1429 24.4078 10.9204 24.2437 10.7563C24.0796 10.5922 23.8571 10.5 23.625 10.5H15.75" stroke-width="2" stroke-linecap="round" stroke-linejoin="round"/>
<path d="M7 7.875H10.5" stroke-width="2" stroke-linecap="round" stroke-linejoin="round"/>
<path d="M8.75 14.875H12.25" stroke-width="2" stroke-linecap="round" stroke-linejoin="round"/>
<path d="M7 19.25H10.5" stroke-width="2" stroke-linecap="round" stroke-linejoin="round"/>
<path d="M19.25 19.25H21" stroke-width="2" stroke-linecap="round" stroke-linejoin="round"/>
<path d="M19.25 14.875H21" stroke-width="2" stroke-linecap="round" stroke-linejoin="round"/>
</svg>
