<svg width="28" height="28" viewBox="0 0 28 28" fill="none" xmlns="http://www.w3.org/2000/svg">
<path d="M14 6.125V19.6875" stroke-width="2" stroke-linecap="round" stroke-linejoin="round"/>
<path d="M20.4641 16.6688C21.3282 16.7125 23.6469 16.5266 24.5 13.125C25.3532 9.72344 26.1297 5.25 22.75 5.25C19.3704 5.25 14 10.5 14 14C14 10.5 8.62974 5.25 5.25005 5.25C1.87036 5.25 2.62505 9.625 3.50005 13.125C4.37505 16.625 6.67193 16.7125 7.53599 16.6688" stroke-width="2" stroke-linecap="round" stroke-linejoin="round"/>
<path d="M9.625 15.772C8.86971 15.8564 8.15499 16.1576 7.56711 16.6393C6.97922 17.1209 6.54328 17.7624 6.31191 18.4864C6.08053 19.2103 6.06361 19.9857 6.26317 20.719C6.46273 21.4523 6.87026 22.1123 7.43657 22.6191C8.00287 23.1259 8.70376 23.4581 9.45465 23.5754C10.2055 23.6927 10.9743 23.5902 11.6683 23.2803C12.3622 22.9704 12.9516 22.4662 13.3653 21.8287C13.7791 21.1912 13.9995 20.4476 14 19.6876C14.0005 20.4476 14.2209 21.1912 14.6347 21.8287C15.0484 22.4662 15.6378 22.9704 16.3317 23.2803C17.0257 23.5902 17.7945 23.6927 18.5453 23.5754C19.2962 23.4581 19.9971 23.1259 20.5634 22.6191C21.1297 22.1123 21.5373 21.4523 21.7368 20.719C21.9364 19.9857 21.9195 19.2103 21.6881 18.4864C21.4567 17.7624 21.0208 17.1209 20.4329 16.6393C19.845 16.1576 19.1303 15.8564 18.375 15.772" stroke-width="2" stroke-linecap="round" stroke-linejoin="round"/>
</svg>
