<svg width="28" height="28" viewBox="0 0 28 28" fill="none" xmlns="http://www.w3.org/2000/svg">
<path d="M4.375 23.625H23.625" stroke="#8247E5" stroke-width="2" stroke-linecap="round" stroke-linejoin="round"/>
<path d="M10.5 23.625V14.4375H9.1875C7.44702 14.4375 5.77782 13.7461 4.54711 12.5154C3.3164 11.2847 2.625 9.61548 2.625 7.875V7.875C2.62787 7.29573 2.85927 6.74099 3.26888 6.33138C3.67849 5.92177 4.23323 5.69037 4.8125 5.6875C5.39177 5.69037 5.94651 5.92177 6.35612 6.33138C6.76573 6.74099 6.99713 7.29573 7 7.875C7.00287 8.45427 7.23427 9.009 7.64388 9.41862C8.0535 9.82823 8.60823 10.0596 9.1875 10.0625H10.5V6.125C10.5 5.19674 10.8687 4.3065 11.5251 3.65013C12.1815 2.99375 13.0717 2.625 14 2.625V2.625C14.9283 2.625 15.8185 2.99375 16.4749 3.65013C17.1313 4.3065 17.5 5.19674 17.5 6.125V14.4375H18.8125C19.3918 14.4346 19.9465 14.2032 20.3561 13.7936C20.7657 13.384 20.9971 12.8293 21 12.25V12.25C21.0029 11.6707 21.2343 11.116 21.6439 10.7064C22.0535 10.2968 22.6082 10.0654 23.1875 10.0625C23.7668 10.0654 24.3215 10.2968 24.7311 10.7064C25.1407 11.116 25.3721 11.6707 25.375 12.25V12.25C25.375 13.9905 24.6836 15.6597 23.4529 16.8904C22.2222 18.1211 20.553 18.8125 18.8125 18.8125H17.5V23.625" stroke="#8247E5" stroke-width="2" stroke-linecap="round" stroke-linejoin="round"/>
</svg>
