<svg width="28" height="28" viewBox="0 0 28 28" fill="none" xmlns="http://www.w3.org/2000/svg">
<path d="M22.75 22.75H5.25C4.78587 22.75 4.34075 22.5656 4.01256 22.2374C3.68437 21.9092 3.5 21.4641 3.5 21V8.75C3.5 8.28587 3.68437 7.84075 4.01256 7.51256C4.34075 7.18437 4.78587 7 5.25 7H8.75L10.5 4.375H17.5L19.25 7H22.75C23.2141 7 23.6592 7.18437 23.9874 7.51256C24.3156 7.84075 24.5 8.28587 24.5 8.75V21C24.5 21.4641 24.3156 21.9092 23.9874 22.2374C23.6592 22.5656 23.2141 22.75 22.75 22.75Z" stroke-width="2" stroke-linecap="round" stroke-linejoin="round"/>
<path d="M18.8121 13.1249L17.0949 11.3421C16.2729 10.5232 15.1599 10.0635 13.9996 10.0635C12.8393 10.0635 11.7263 10.5232 10.9043 11.3421" stroke-width="2" stroke-linecap="round" stroke-linejoin="round"/>
<path d="M17.0953 17.5328C16.2733 18.3517 15.1603 18.8114 14 18.8114C12.8397 18.8114 11.7267 18.3517 10.9047 17.5328L9.1875 15.75" stroke-width="2" stroke-linecap="round" stroke-linejoin="round"/>
<path d="M19.25 10.5L18.8125 13.125L16.1875 13.5625" stroke-width="2" stroke-linecap="round" stroke-linejoin="round"/>
<path d="M11.8125 15.3125L9.1875 15.75L8.75 18.375" stroke-width="2" stroke-linecap="round" stroke-linejoin="round"/>
</svg>
