<svg width="28" height="28" viewBox="0 0 28 28" fill="none" xmlns="http://www.w3.org/2000/svg">
<path d="M4.375 18.375L23.625 24.5" stroke-width="2" stroke-linecap="round" stroke-linejoin="round"/>
<path d="M23.625 18.375L4.375 24.5" stroke-width="2" stroke-linecap="round" stroke-linejoin="round"/>
<path d="M16.625 14.875C16.625 15.5712 16.3484 16.2389 15.8562 16.7312C15.3639 17.2234 14.6962 17.5 14 17.5C13.3038 17.5 12.6361 17.2234 12.1438 16.7312C11.6516 16.2389 11.375 15.5712 11.375 14.875C11.375 12.25 14 10.5 14 10.5C14 10.5 16.625 12.25 16.625 14.875Z" stroke-width="2" stroke-linecap="round" stroke-linejoin="round"/>
<path d="M19.6875 11.8125C19.6875 13.3209 19.0883 14.7676 18.0217 15.8342C16.9551 16.9008 15.5084 17.5 14 17.5C12.4916 17.5 11.0449 16.9008 9.97833 15.8342C8.91172 14.7676 8.3125 13.3209 8.3125 11.8125C8.3125 7 14 3.5 14 3.5C14 3.5 19.6875 7 19.6875 11.8125Z" stroke-width="2" stroke-linecap="round" stroke-linejoin="round"/>
</svg>
