<svg width="28" height="28" viewBox="0 0 28 28" fill="none" xmlns="http://www.w3.org/2000/svg">
<path d="M14 21V24.5" stroke-width="2" stroke-linecap="round" stroke-linejoin="round"/>
<path d="M9.1875 16.625C9.91237 16.625 10.5 16.0374 10.5 15.3125C10.5 14.5876 9.91237 14 9.1875 14C8.46263 14 7.875 14.5876 7.875 15.3125C7.875 16.0374 8.46263 16.625 9.1875 16.625Z" fill="#8247E5"/>
<path d="M18.8125 16.625C19.5374 16.625 20.125 16.0374 20.125 15.3125C20.125 14.5876 19.5374 14 18.8125 14C18.0876 14 17.5 14.5876 17.5 15.3125C17.5 16.0374 18.0876 16.625 18.8125 16.625Z" fill="#8247E5"/>
<path d="M14 5.25V9.625" stroke-width="2" stroke-linecap="round" stroke-linejoin="round"/>
<path d="M15.75 19.25L14 21L12.25 19.25" stroke-width="2" stroke-linecap="round" stroke-linejoin="round"/>
<path d="M10.5 5.79688V9.625" stroke-width="2" stroke-linecap="round" stroke-linejoin="round"/>
<path d="M17.5 5.79688V9.625" stroke-width="2" stroke-linecap="round" stroke-linejoin="round"/>
<path d="M3.5 14.8749V5.61084C3.50029 5.43734 3.55216 5.26784 3.64901 5.12388C3.74586 4.97992 3.88332 4.86801 4.04393 4.80236C4.20453 4.73671 4.38103 4.72029 4.55099 4.75519C4.72095 4.79008 4.87669 4.87472 4.99844 4.99834L7.39375 7.39366C9.30736 5.986 11.6245 5.23409 14 5.24991C16.3755 5.23409 18.6926 5.986 20.6062 7.39366V7.39366L23.0016 4.99834C23.1233 4.87472 23.2791 4.79008 23.449 4.75519C23.619 4.72029 23.7955 4.73671 23.9561 4.80236C24.1167 4.86801 24.2541 4.97992 24.351 5.12388C24.4478 5.26784 24.4997 5.43734 24.5 5.61084V14.8749C24.5 20.1905 19.7969 24.4999 14 24.4999C8.20312 24.4999 3.5 20.1905 3.5 14.8749Z" stroke-width="2" stroke-linecap="round" stroke-linejoin="round"/>
</svg>
