<svg width="28" height="28" viewBox="0 0 28 28" fill="none" xmlns="http://www.w3.org/2000/svg">
<path d="M21.8749 4.73597V22.75C21.8749 22.9821 21.7827 23.2047 21.6186 23.3687C21.4545 23.5328 21.232 23.625 20.9999 23.625H2.98584C2.81234 23.6247 2.64284 23.5729 2.49888 23.476C2.35492 23.3792 2.24301 23.2417 2.17736 23.0811C2.11171 22.9205 2.09529 22.744 2.13019 22.574C2.16508 22.4041 2.24972 22.2483 2.37334 22.1266L20.3765 4.12347C20.4982 3.99984 20.654 3.91521 20.8239 3.88031C20.9939 3.84541 21.1704 3.86183 21.331 3.92748C21.4916 3.99313 21.629 4.10504 21.7259 4.249C21.8227 4.39296 21.8746 4.56246 21.8749 4.73597Z" stroke-width="2" stroke-linecap="round" stroke-linejoin="round"/>
<path d="M8.75 15.75V23.625" stroke-width="2" stroke-linecap="round" stroke-linejoin="round"/>
</svg>
