<svg width="28" height="28" viewBox="0 0 28 28" fill="none" xmlns="http://www.w3.org/2000/svg">
<path d="M5.25 4.375L22.75 23.625" stroke-width="2" stroke-linecap="round" stroke-linejoin="round"/>
<path d="M14.8096 9.69065L20.3768 4.12347C20.4985 3.99984 20.6543 3.91521 20.8242 3.88031C20.9942 3.84541 21.1707 3.86183 21.3313 3.92748C21.4919 3.99313 21.6293 4.10504 21.7262 4.249C21.823 4.39296 21.8749 4.56246 21.8752 4.73597V17.4563" stroke-width="2" stroke-linecap="round" stroke-linejoin="round"/>
<path d="M22.7499 23.625H2.98584C2.81234 23.6247 2.64284 23.5728 2.49888 23.476C2.35492 23.3791 2.24301 23.2417 2.17736 23.081C2.11171 22.9204 2.09529 22.7439 2.13019 22.574C2.16508 22.404 2.24972 22.2483 2.37334 22.1265L12.3374 12.1625" stroke-width="2" stroke-linecap="round" stroke-linejoin="round"/>
</svg>
