<svg width="28" height="28" viewBox="0 0 28 28" fill="none" xmlns="http://www.w3.org/2000/svg">
<path d="M11.375 19.25C13.308 19.25 14.875 17.683 14.875 15.75C14.875 13.817 13.308 12.25 11.375 12.25C9.442 12.25 7.875 13.817 7.875 15.75C7.875 17.683 9.442 19.25 11.375 19.25Z" stroke="#8247E5" stroke-width="2" stroke-linecap="round" stroke-linejoin="round"/>
<path d="M5.84063 22.75C6.33728 21.7026 7.12099 20.8176 8.10067 20.1979C9.08035 19.5781 10.2158 19.2492 11.375 19.2492C12.5342 19.2492 13.6697 19.5781 14.6493 20.1979C15.629 20.8176 16.4127 21.7026 16.9094 22.75H23.625C23.8571 22.75 24.0796 22.6578 24.2437 22.4937C24.4078 22.3296 24.5 22.1071 24.5 21.875V6.125C24.5 5.89294 24.4078 5.67038 24.2437 5.50628C24.0796 5.34219 23.8571 5.25 23.625 5.25H4.375C4.14294 5.25 3.92038 5.34219 3.75628 5.50628C3.59219 5.67038 3.5 5.89294 3.5 6.125V21.875C3.5 22.1071 3.59219 22.3296 3.75628 22.4937C3.92038 22.6578 4.14294 22.75 4.375 22.75H5.84063Z" stroke="#8247E5" stroke-width="2" stroke-linecap="round" stroke-linejoin="round"/>
<path d="M19.25 19.25H21V8.75H7V10.5" stroke="#8247E5" stroke-width="2" stroke-linecap="round" stroke-linejoin="round"/>
</svg>
