<svg width="28" height="28" viewBox="0 0 28 28" fill="none" xmlns="http://www.w3.org/2000/svg">
<path d="M3.72961 15.3891C2.74891 13.7368 2.40516 11.7834 2.76294 9.89557C3.12071 8.00778 4.15539 6.31556 5.67264 5.13672C7.18989 3.95788 9.08533 3.37352 11.003 3.4934C12.9206 3.61328 14.7285 4.42915 16.0872 5.78777C17.4458 7.1464 18.2617 8.95431 18.3815 10.872C18.5014 12.7896 17.9171 14.685 16.7382 16.2023C15.5594 17.7195 13.8671 18.7542 11.9794 19.112C10.0916 19.4698 8.13812 19.126 6.48586 18.1453L3.76242 18.9219C3.65021 18.9534 3.53162 18.9545 3.41885 18.925C3.30608 18.8956 3.20319 18.8366 3.12077 18.7542C3.03834 18.6717 2.97936 18.5689 2.94989 18.4561C2.92041 18.3433 2.9215 18.2247 2.95305 18.1125L3.72961 15.3891Z" stroke="#8247E5" stroke-width="2" stroke-linecap="round" stroke-linejoin="round"/>
<path d="M10.0732 19.2389C10.4587 20.3379 11.0835 21.3376 11.9025 22.1658C12.7215 22.9939 13.7142 23.6298 14.8089 24.0275C15.9036 24.4252 17.0729 24.5747 18.2325 24.4654C19.392 24.356 20.5128 23.9905 21.5139 23.3951V23.3951L24.2373 24.1717C24.3495 24.2032 24.4681 24.2043 24.5809 24.1748C24.6937 24.1454 24.7965 24.0864 24.879 24.004C24.9614 23.9215 25.0204 23.8187 25.0498 23.7059C25.0793 23.5931 25.0782 23.4745 25.0467 23.3623L24.2701 20.6389C24.9634 19.4751 25.3443 18.152 25.376 16.7978C25.4077 15.4436 25.089 14.1041 24.4509 12.9093C23.8127 11.7144 22.8767 10.7046 21.7337 9.97781C20.5906 9.25099 19.2791 8.83176 17.9264 8.76074" stroke="#8247E5" stroke-width="2" stroke-linecap="round" stroke-linejoin="round"/>
</svg>
