<svg width="28" height="28" viewBox="0 0 28 28" fill="none" xmlns="http://www.w3.org/2000/svg">
<path d="M7.83125 15.75L3.5 19.25V5.25C3.5 5.01794 3.59219 4.79538 3.75628 4.63128C3.92038 4.46719 4.14294 4.375 4.375 4.375H18.375C18.6071 4.375 18.8296 4.46719 18.9937 4.63128C19.1578 4.79538 19.25 5.01794 19.25 5.25V14.875C19.25 15.1071 19.1578 15.3296 18.9937 15.4937C18.8296 15.6578 18.6071 15.75 18.375 15.75H7.83125Z" stroke-width="2" stroke-linecap="round" stroke-linejoin="round"/>
<path d="M8.75 15.75V20.125C8.75 20.3571 8.84219 20.5796 9.00628 20.7437C9.17038 20.9078 9.39294 21 9.625 21H20.1687L24.5 24.5V10.5C24.5 10.2679 24.4078 10.0454 24.2437 9.88128C24.0796 9.71719 23.8571 9.625 23.625 9.625H19.25" stroke-width="2" stroke-linecap="round" stroke-linejoin="round"/>
</svg>
