<svg width="28" height="28" viewBox="0 0 28 28" fill="none" xmlns="http://www.w3.org/2000/svg">
<path d="M8.53125 22.0172L4.93281 25.0359C4.80534 25.1414 4.65056 25.2086 4.48645 25.2297C4.32234 25.2508 4.15561 25.2249 4.00561 25.155C3.85561 25.0852 3.72849 24.9742 3.639 24.8351C3.54951 24.6959 3.50131 24.5342 3.5 24.3688V7C3.5 6.76794 3.59219 6.54538 3.75628 6.38128C3.92038 6.21719 4.14294 6.125 4.375 6.125H23.625C23.8571 6.125 24.0796 6.21719 24.2437 6.38128C24.4078 6.54538 24.5 6.76794 24.5 7V21C24.5 21.2321 24.4078 21.4546 24.2437 21.6187C24.0796 21.7828 23.8571 21.875 23.625 21.875H8.93594L8.53125 22.0172Z" stroke-width="2" stroke-linecap="round" stroke-linejoin="round"/>
<path d="M10.5 12.25H17.5" stroke-width="2" stroke-linecap="round" stroke-linejoin="round"/>
<path d="M10.5 15.75H17.5" stroke-width="2" stroke-linecap="round" stroke-linejoin="round"/>
</svg>
