<svg width="28" height="28" viewBox="0 0 28 28" fill="none" xmlns="http://www.w3.org/2000/svg">
<path d="M10.5 19.25H3.28125C3.1072 19.25 2.94028 19.1809 2.81721 19.0578C2.69414 18.9347 2.625 18.7678 2.625 18.5938V11.375C2.625 9.28642 3.45469 7.28338 4.93153 5.80653C6.40838 4.32969 8.41142 3.5 10.5 3.5V3.5C12.5886 3.5 14.5916 4.32969 16.0685 5.80653C17.5453 7.28338 18.375 9.28642 18.375 11.375V11.375C18.375 13.4636 17.5453 15.4666 16.0685 16.9435C14.5916 18.4203 12.5886 19.25 10.5 19.25V19.25Z" stroke-width="2" stroke-linecap="round" stroke-linejoin="round"/>
<path d="M10.0732 19.2498C10.6162 20.7855 11.622 22.115 12.952 23.0553C14.2821 23.9955 15.871 24.5002 17.4998 24.4998H24.7186C24.8926 24.4998 25.0595 24.4307 25.1826 24.3076C25.3057 24.1845 25.3748 24.0176 25.3748 23.8436V16.6248C25.3776 14.6092 24.6064 12.6694 23.2203 11.206C21.8342 9.7426 19.9392 8.86727 17.9264 8.76074" stroke-width="2" stroke-linecap="round" stroke-linejoin="round"/>
</svg>
