<svg width="28" height="28" viewBox="0 0 28 28" fill="none" xmlns="http://www.w3.org/2000/svg">
<path d="M8.3125 12.25C10.4871 12.25 12.25 10.4871 12.25 8.3125C12.25 6.13788 10.4871 4.375 8.3125 4.375C6.13788 4.375 4.375 6.13788 4.375 8.3125C4.375 10.4871 6.13788 12.25 8.3125 12.25Z" stroke="#8247E5" stroke-width="2" stroke-linecap="round" stroke-linejoin="round"/>
<path d="M19.6875 12.25C21.8621 12.25 23.625 10.4871 23.625 8.3125C23.625 6.13788 21.8621 4.375 19.6875 4.375C17.5129 4.375 15.75 6.13788 15.75 8.3125C15.75 10.4871 17.5129 12.25 19.6875 12.25Z" stroke="#8247E5" stroke-width="2" stroke-linecap="round" stroke-linejoin="round"/>
<path d="M8.3125 23.625C10.4871 23.625 12.25 21.8621 12.25 19.6875C12.25 17.5129 10.4871 15.75 8.3125 15.75C6.13788 15.75 4.375 17.5129 4.375 19.6875C4.375 21.8621 6.13788 23.625 8.3125 23.625Z" stroke="#8247E5" stroke-width="2" stroke-linecap="round" stroke-linejoin="round"/>
<path d="M19.6875 23.625C21.8621 23.625 23.625 21.8621 23.625 19.6875C23.625 17.5129 21.8621 15.75 19.6875 15.75C17.5129 15.75 15.75 17.5129 15.75 19.6875C15.75 21.8621 17.5129 23.625 19.6875 23.625Z" stroke="#8247E5" stroke-width="2" stroke-linecap="round" stroke-linejoin="round"/>
</svg>
