<svg width="28" height="28" viewBox="0 0 28 28" fill="none" xmlns="http://www.w3.org/2000/svg">
<path d="M14 8.75V14" stroke-width="2" stroke-linecap="round" stroke-linejoin="round"/>
<path d="M18.55 16.625L14 14" stroke-width="2" stroke-linecap="round" stroke-linejoin="round"/>
<path d="M7.85352 10.9048H3.47852V6.52979" stroke-width="2" stroke-linecap="round" stroke-linejoin="round"/>
<path d="M7.19727 20.8031C8.54303 22.15 10.258 23.0675 12.1253 23.4395C13.9926 23.8115 15.9283 23.6214 17.6875 22.8931C19.4467 22.1648 20.9503 20.9312 22.0083 19.3482C23.0663 17.7652 23.6309 15.904 23.6309 14C23.6309 12.096 23.0663 10.2348 22.0083 8.65182C20.9503 7.06883 19.4467 5.83517 17.6875 5.10691C15.9283 4.37865 13.9926 4.1885 12.1253 4.56052C10.258 4.93254 8.54303 5.85001 7.19727 7.19688L3.47852 10.9047" stroke-width="2" stroke-linecap="round" stroke-linejoin="round"/>
</svg>
