<svg width="28" height="28" viewBox="0 0 28 28" fill="none" xmlns="http://www.w3.org/2000/svg">
<path d="M5.25 4.375L22.75 23.625" stroke-width="2" stroke-linecap="round" stroke-linejoin="round"/>
<path d="M21.2078 21.9297C20.0467 22.4709 18.781 22.7509 17.5 22.75H7.875C6.25055 22.75 4.69263 22.1047 3.54397 20.956C2.39531 19.8074 1.75 18.2495 1.75 16.625C1.75 15.0005 2.39531 13.4426 3.54397 12.294C4.69263 11.1453 6.25055 10.5 7.875 10.5C8.38745 10.4998 8.89801 10.5622 9.39531 10.6859" stroke-width="2" stroke-linecap="round" stroke-linejoin="round"/>
<path d="M12.3154 6.94513C14.0582 5.65205 16.2194 5.05275 18.3792 5.26358C20.5391 5.47441 22.5435 6.48033 24.0034 8.08603C25.4632 9.69172 26.2743 11.7826 26.2791 13.9527C26.284 16.1229 25.4822 18.2173 24.0295 19.8295" stroke-width="2" stroke-linecap="round" stroke-linejoin="round"/>
<path d="M8.75003 14.0002C8.7457 12.4374 9.16528 10.9028 9.9641 9.55957" stroke-width="2" stroke-linecap="round" stroke-linejoin="round"/>
</svg>
