<svg width="28" height="28" viewBox="0 0 28 28" fill="none" xmlns="http://www.w3.org/2000/svg">
<path d="M9.625 16.1875C9.625 14.7165 10.0612 13.2785 10.8784 12.0554C11.6957 10.8324 12.8573 9.87908 14.2163 9.31615C15.5753 8.75322 17.0708 8.60594 18.5135 8.89291C19.9562 9.17989 21.2815 9.88824 22.3216 10.9284C23.3618 11.9685 24.0701 13.2938 24.3571 14.7365C24.6441 16.1793 24.4968 17.6747 23.9339 19.0337C23.3709 20.3927 22.4176 21.5543 21.1946 22.3716C19.9715 23.1888 18.5335 23.625 17.0625 23.625H8.3125C7.03615 23.625 5.81207 23.118 4.90955 22.2155C4.00703 21.3129 3.5 20.0889 3.5 18.8125C3.5 17.5361 4.00703 16.3121 4.90955 15.4096C5.81207 14.507 7.03615 14 8.3125 14C8.84504 13.9973 9.37409 14.0861 9.87656 14.2625" stroke-width="2" stroke-linecap="round" stroke-linejoin="round"/>
<path d="M8.71719 6.20137L8.25781 3.62012" stroke-width="2" stroke-linecap="round" stroke-linejoin="round"/>
<path d="M5.32656 8.36729L3.17188 6.85791" stroke-width="2" stroke-linecap="round" stroke-linejoin="round"/>
<path d="M4.45137 12.2827L1.87012 12.7421" stroke-width="2" stroke-linecap="round" stroke-linejoin="round"/>
<path d="M12.6328 7.07656L14.1422 4.92188" stroke-width="2" stroke-linecap="round" stroke-linejoin="round"/>
<path d="M5.64386 14.8093C5.03052 14.087 4.61921 13.2154 4.45167 12.2827C4.22947 11.0212 4.47618 9.72191 5.14532 8.6296C5.81447 7.5373 6.85989 6.72732 8.08472 6.35221C9.30954 5.9771 10.6292 6.06274 11.7953 6.593C12.9614 7.12326 13.8934 8.06155 14.4157 9.23118" stroke-width="2" stroke-linecap="round" stroke-linejoin="round"/>
</svg>
