<svg width="28" height="28" viewBox="0 0 28 28" fill="none" xmlns="http://www.w3.org/2000/svg">
<path d="M9.625 10.0625C9.625 8.5915 10.0612 7.15354 10.8784 5.93045C11.6957 4.70736 12.8573 3.75408 14.2163 3.19115C15.5753 2.62822 17.0708 2.48094 18.5135 2.76791C19.9562 3.05489 21.2815 3.76324 22.3216 4.8034C23.3618 5.84355 24.0701 7.16879 24.3571 8.61152C24.6441 10.0543 24.4968 11.5497 23.9339 12.9087C23.3709 14.2677 22.4176 15.4293 21.1946 16.2466C19.9715 17.0638 18.5335 17.5 17.0625 17.5H8.3125C7.03615 17.5 5.81207 16.993 4.90955 16.0905C4.00703 15.1879 3.5 13.9639 3.5 12.6875C3.5 11.4111 4.00703 10.1871 4.90955 9.28455C5.81207 8.38203 7.03615 7.875 8.3125 7.875C8.84504 7.87226 9.37409 7.96106 9.87656 8.1375" stroke-width="2" stroke-linecap="round" stroke-linejoin="round"/>
<path d="M8.3125 22.75C9.03737 22.75 9.625 22.1624 9.625 21.4375C9.625 20.7126 9.03737 20.125 8.3125 20.125C7.58763 20.125 7 20.7126 7 21.4375C7 22.1624 7.58763 22.75 8.3125 22.75Z" fill="#8247E5"/>
<path d="M12.6875 24.5C13.4124 24.5 14 23.9124 14 23.1875C14 22.4626 13.4124 21.875 12.6875 21.875C11.9626 21.875 11.375 22.4626 11.375 23.1875C11.375 23.9124 11.9626 24.5 12.6875 24.5Z" fill="#8247E5"/>
<path d="M17.9375 22.75C18.6624 22.75 19.25 22.1624 19.25 21.4375C19.25 20.7126 18.6624 20.125 17.9375 20.125C17.2126 20.125 16.625 20.7126 16.625 21.4375C16.625 22.1624 17.2126 22.75 17.9375 22.75Z" fill="#8247E5"/>
<path d="M7.4375 27.125C8.16237 27.125 8.75 26.5374 8.75 25.8125C8.75 25.0876 8.16237 24.5 7.4375 24.5C6.71263 24.5 6.125 25.0876 6.125 25.8125C6.125 26.5374 6.71263 27.125 7.4375 27.125Z" fill="#8247E5"/>
<path d="M17.0625 27.125C17.7874 27.125 18.375 26.5374 18.375 25.8125C18.375 25.0876 17.7874 24.5 17.0625 24.5C16.3376 24.5 15.75 25.0876 15.75 25.8125C15.75 26.5374 16.3376 27.125 17.0625 27.125Z" fill="#8247E5"/>
</svg>
