<svg width="28" height="28" viewBox="0 0 28 28" fill="none" xmlns="http://www.w3.org/2000/svg">
<path d="M8.75 14C8.75 12.2694 9.26318 10.5777 10.2246 9.13876C11.1861 7.69983 12.5527 6.57832 14.1515 5.91606C15.7504 5.25379 17.5097 5.08051 19.207 5.41813C20.9044 5.75575 22.4635 6.58911 23.6872 7.81282C24.9109 9.03653 25.7443 10.5956 26.0819 12.293C26.4195 13.9903 26.2462 15.7496 25.5839 17.3485C24.9217 18.9473 23.8002 20.3139 22.3612 21.2754C20.9223 22.2368 19.2306 22.75 17.5 22.75H7.875C6.25055 22.75 4.69263 22.1047 3.54397 20.956C2.39531 19.8074 1.75 18.2495 1.75 16.625C1.75 15.0006 2.39531 13.4426 3.54397 12.294C4.69263 11.1453 6.25055 10.5 7.875 10.5C8.38745 10.4998 8.89801 10.5623 9.39531 10.6859" stroke-width="2" stroke-linecap="round" stroke-linejoin="round"/>
</svg>
