<svg width="28" height="28" viewBox="0 0 28 28" fill="none" xmlns="http://www.w3.org/2000/svg">
<path d="M12.3051 19.6C11.7327 20.2692 11.0013 20.7836 10.178 21.096C9.35472 21.4084 8.4661 21.5087 7.59391 21.3877C6.72172 21.2667 5.89398 20.9282 5.18686 20.4035C4.47974 19.8788 3.91596 19.1846 3.54741 18.3849C3.17886 17.5852 3.01737 16.7056 3.07781 15.8271C3.13825 14.9487 3.41868 14.0995 3.89328 13.3578C4.36788 12.6161 5.02142 12.0057 5.79374 11.5828C6.56606 11.1598 7.43235 10.9379 8.3129 10.9375C8.72522 10.9397 9.13604 10.9873 9.5379 11.0797V11.0797C9.01904 10.2503 8.74598 9.2908 8.7504 8.3125C8.7504 6.92011 9.30352 5.58476 10.2881 4.60019C11.2727 3.61562 12.608 3.0625 14.0004 3.0625C15.3928 3.0625 16.7281 3.61562 17.7127 4.60019C18.6973 5.58476 19.2504 6.92011 19.2504 8.3125C19.2548 9.2908 18.9818 10.2503 18.4629 11.0797V11.0797C18.8648 10.9873 19.2756 10.9397 19.6879 10.9375C20.5684 10.9379 21.4347 11.1598 22.2071 11.5828C22.9794 12.0057 23.6329 12.6161 24.1075 13.3578C24.5821 14.0995 24.8625 14.9487 24.923 15.8271C24.9834 16.7056 24.8219 17.5852 24.4534 18.3849C24.0848 19.1846 23.5211 19.8788 22.8139 20.4035C22.1068 20.9282 21.2791 21.2667 20.4069 21.3877C19.5347 21.5087 18.6461 21.4084 17.8228 21.096C16.9995 20.7836 16.2681 20.2692 15.6957 19.6L17.5004 25.375H10.5004L12.3051 19.6Z" stroke="#8247E5" stroke-width="2" stroke-linecap="round" stroke-linejoin="round"/>
</svg>
