<svg width="28" height="28" viewBox="0 0 28 28" fill="none" xmlns="http://www.w3.org/2000/svg">
<path d="M10.5 7.875C10.5 6.94674 10.8687 6.0565 11.5251 5.40013C12.1815 4.74375 13.0717 4.375 14 4.375C14.9283 4.375 15.8185 4.74375 16.4749 5.40013C17.1313 6.0565 17.5 6.94674 17.5 7.875L2.1 19.425C1.95308 19.5352 1.84456 19.6888 1.7898 19.8641C1.73504 20.0394 1.73683 20.2275 1.7949 20.4017C1.85298 20.5759 1.9644 20.7275 2.11338 20.8348C2.26236 20.9422 2.44135 21 2.625 21H25.375C25.5586 21 25.7376 20.9422 25.8866 20.8348C26.0356 20.7275 26.147 20.5759 26.2051 20.4017C26.2632 20.2275 26.265 20.0394 26.2102 19.8641C26.1554 19.6888 26.0469 19.5352 25.9 19.425L14 10.5" stroke="#8247E5" stroke-width="2" stroke-linecap="round" stroke-linejoin="round"/>
</svg>
