<svg width="28" height="28" viewBox="0 0 28 28" fill="none" xmlns="http://www.w3.org/2000/svg">
<path d="M12.25 22.75L12.25 5.25C12.25 4.76675 11.8582 4.375 11.375 4.375H7C6.51675 4.375 6.125 4.76675 6.125 5.25L6.125 22.75C6.125 23.2332 6.51675 23.625 7 23.625H11.375C11.8582 23.625 12.25 23.2332 12.25 22.75Z" stroke="#8247E5" stroke-width="2" stroke-linecap="round" stroke-linejoin="round"/>
<path d="M21.875 22.75V5.25C21.875 4.76675 21.4832 4.375 21 4.375H16.625C16.1418 4.375 15.75 4.76675 15.75 5.25V22.75C15.75 23.2332 16.1418 23.625 16.625 23.625H21C21.4832 23.625 21.875 23.2332 21.875 22.75Z" stroke="#8247E5" stroke-width="2" stroke-linecap="round" stroke-linejoin="round"/>
</svg>
