<svg width="28" height="28" viewBox="0 0 28 28" fill="none" xmlns="http://www.w3.org/2000/svg">
<path d="M19.6875 5.25C20.4997 5.25 21.2787 5.57266 21.853 6.14699C22.4273 6.72132 22.75 7.50027 22.75 8.3125C22.75 9.12473 22.4273 9.90368 21.853 10.478C21.2787 11.0523 20.4997 11.375 19.6875 11.375H16.625V8.3125C16.625 7.50027 16.9477 6.72132 17.522 6.14699C18.0963 5.57266 18.8753 5.25 19.6875 5.25V5.25Z" stroke-width="2" stroke-linecap="round" stroke-linejoin="round"/>
<path d="M11.375 11.375H8.3125C7.50027 11.375 6.72132 11.0523 6.14699 10.478C5.57266 9.90368 5.25 9.12473 5.25 8.3125C5.25 7.50027 5.57266 6.72132 6.14699 6.14699C6.72132 5.57266 7.50027 5.25 8.3125 5.25C9.12473 5.25 9.90368 5.57266 10.478 6.14699C11.0523 6.72132 11.375 7.50027 11.375 8.3125V11.375Z" stroke-width="2" stroke-linecap="round" stroke-linejoin="round"/>
<path d="M16.625 16.625H19.6875C20.4997 16.625 21.2787 16.9477 21.853 17.522C22.4273 18.0963 22.75 18.8753 22.75 19.6875C22.75 20.4997 22.4273 21.2787 21.853 21.853C21.2787 22.4273 20.4997 22.75 19.6875 22.75C18.8753 22.75 18.0963 22.4273 17.522 21.853C16.9477 21.2787 16.625 20.4997 16.625 19.6875V16.625Z" stroke-width="2" stroke-linecap="round" stroke-linejoin="round"/>
<path d="M8.3125 22.75C7.50027 22.75 6.72132 22.4273 6.14699 21.853C5.57266 21.2787 5.25 20.4997 5.25 19.6875C5.25 18.8753 5.57266 18.0963 6.14699 17.522C6.72132 16.9477 7.50027 16.625 8.3125 16.625H11.375V19.6875C11.375 20.4997 11.0523 21.2787 10.478 21.853C9.90368 22.4273 9.12473 22.75 8.3125 22.75V22.75Z" stroke-width="2" stroke-linecap="round" stroke-linejoin="round"/>
<path d="M16.625 11.375H11.375V16.625H16.625V11.375Z" stroke-width="2" stroke-linecap="round" stroke-linejoin="round"/>
</svg>
