<svg width="28" height="28" viewBox="0 0 28 28" fill="none" xmlns="http://www.w3.org/2000/svg">
<path d="M17.5 7.875H10.5" stroke-width="2" stroke-linecap="round" stroke-linejoin="round"/>
<path d="M17.5 11.375H10.5" stroke-width="2" stroke-linecap="round" stroke-linejoin="round"/>
<path d="M21.875 23.625V4.375C21.875 3.89175 21.4832 3.5 21 3.5L7 3.5C6.51675 3.5 6.125 3.89175 6.125 4.375L6.125 23.625C6.125 24.1082 6.51675 24.5 7 24.5H21C21.4832 24.5 21.875 24.1082 21.875 23.625Z" stroke-width="2" stroke-linecap="round" stroke-linejoin="round"/>
<path d="M14 21C14.7249 21 15.3125 20.4124 15.3125 19.6875C15.3125 18.9626 14.7249 18.375 14 18.375C13.2751 18.375 12.6875 18.9626 12.6875 19.6875C12.6875 20.4124 13.2751 21 14 21Z" fill="#8247E5"/>
</svg>
