<svg width="28" height="28" viewBox="0 0 28 28" fill="none" xmlns="http://www.w3.org/2000/svg">
<path d="M4.14485 22.7392L10.0292 6.54073C10.0796 6.40212 10.1642 6.27849 10.2751 6.18133C10.3861 6.08417 10.5198 6.01663 10.6638 5.98498C10.8079 5.95334 10.9576 5.95861 11.0991 6.00032C11.2405 6.04203 11.3691 6.11882 11.473 6.22355L21.7761 16.5267C21.8808 16.6305 21.9576 16.7591 21.9993 16.9006C22.041 17.042 22.0463 17.1918 22.0147 17.3358C21.983 17.4798 21.9155 17.6136 21.8183 17.7245C21.7211 17.8355 21.5975 17.92 21.4589 17.9704L5.26047 23.8548C5.10463 23.9144 4.93488 23.9275 4.77171 23.8927C4.60854 23.8579 4.45894 23.7766 4.34097 23.6587C4.223 23.5407 4.1417 23.3911 4.1069 23.2279C4.0721 23.0648 4.08528 22.895 4.14485 22.7392V22.7392Z" stroke="#8247E5" stroke-width="2" stroke-linecap="round" stroke-linejoin="round"/>
<path d="M18.375 7.875C18.375 7.875 18.375 5.25 21 5.25C23.625 5.25 23.625 2.625 23.625 2.625" stroke="#8247E5" stroke-width="2" stroke-linecap="round" stroke-linejoin="round"/>
<path d="M11.1998 21.7L6.2998 16.8" stroke="#8247E5" stroke-width="2" stroke-linecap="round" stroke-linejoin="round"/>
<path d="M15.75 1.75V4.375" stroke="#8247E5" stroke-width="2" stroke-linecap="round" stroke-linejoin="round"/>
<path d="M23.625 12.25L25.375 14" stroke="#8247E5" stroke-width="2" stroke-linecap="round" stroke-linejoin="round"/>
<path d="M23.625 8.75L26.25 7.875" stroke="#8247E5" stroke-width="2" stroke-linecap="round" stroke-linejoin="round"/>
<path d="M8.40039 11.025L16.9754 19.6" stroke="#8247E5" stroke-width="2" stroke-linecap="round" stroke-linejoin="round"/>
</svg>
