<svg width="30" height="28" viewBox="0 0 30 28" fill="none" xmlns="http://www.w3.org/2000/svg">
<path d="M11.5 1.75V5.25" stroke="#8247E5" stroke-width="2" stroke-linecap="round" stroke-linejoin="round"/>
<path d="M15 1.75V5.25" stroke="#8247E5" stroke-width="2" stroke-linecap="round" stroke-linejoin="round"/>
<path d="M18.5 1.75V5.25" stroke="#8247E5" stroke-width="2" stroke-linecap="round" stroke-linejoin="round"/>
<path d="M6.25002 8.75H23.75C23.9821 8.75 24.2046 8.84219 24.3687 9.00628C24.5328 9.17038 24.625 9.39294 24.625 9.625V20.125C24.6265 20.4701 24.5596 20.8121 24.4282 21.1313C24.2967 21.4504 24.1034 21.7403 23.8594 21.9844C23.6154 22.2284 23.3254 22.4217 23.0063 22.5531C22.6871 22.6845 22.3451 22.7514 22 22.75H8.00002C7.6549 22.7514 7.3129 22.6845 6.99377 22.5531C6.67464 22.4217 6.38468 22.2284 6.14064 21.9844C5.8966 21.7403 5.7033 21.4504 5.57189 21.1313C5.44049 20.8121 5.37358 20.4701 5.37502 20.125V9.625C5.37502 9.39294 5.46721 9.17038 5.6313 9.00628C5.7954 8.84219 6.01796 8.75 6.25002 8.75Z" stroke="#8247E5" stroke-width="2" stroke-linecap="round" stroke-linejoin="round"/>
<path d="M28.125 10.5L24.625 13.125" stroke="#8247E5" stroke-width="2" stroke-linecap="round" stroke-linejoin="round"/>
<path d="M1.875 10.5L5.375 13.125" stroke="#8247E5" stroke-width="2" stroke-linecap="round" stroke-linejoin="round"/>
</svg>
