<svg width="28" height="28" viewBox="0 0 28 28" fill="none" xmlns="http://www.w3.org/2000/svg">
<path d="M14 24.5C19.799 24.5 24.5 19.799 24.5 14C24.5 8.20101 19.799 3.5 14 3.5C8.20101 3.5 3.5 8.20101 3.5 14C3.5 19.799 8.20101 24.5 14 24.5Z" stroke-width="2" stroke-linecap="round" stroke-linejoin="round"/>
<path d="M17.5 16.625C16.9491 17.3596 16.181 17.9022 15.3045 18.176C14.428 18.4498 13.4876 18.4409 12.6165 18.1505C11.7454 17.8601 10.9877 17.303 10.4508 16.5581C9.91391 15.8132 9.625 14.9182 9.625 14C9.625 13.0818 9.91391 12.1868 10.4508 11.4419C10.9877 10.697 11.7454 10.1399 12.6165 9.84951C13.4876 9.55914 14.428 9.55022 15.3045 9.824C16.181 10.0978 16.9491 10.6404 17.5 11.375" stroke-width="2" stroke-linecap="round" stroke-linejoin="round"/>
</svg>
