<svg width="28" height="28" viewBox="0 0 28 28" fill="none" xmlns="http://www.w3.org/2000/svg">
<path d="M14 23.625C19.3157 23.625 23.625 19.3157 23.625 14C23.625 8.68426 19.3157 4.375 14 4.375C8.68426 4.375 4.375 8.68426 4.375 14C4.375 19.3157 8.68426 23.625 14 23.625Z" stroke-width="2" stroke-linecap="round" stroke-linejoin="round"/>
<path d="M14 2.1875V6.5625" stroke-width="2" stroke-linecap="round" stroke-linejoin="round"/>
<path d="M2.1875 14H6.5625" stroke-width="2" stroke-linecap="round" stroke-linejoin="round"/>
<path d="M14 25.8125V21.4375" stroke-width="2" stroke-linecap="round" stroke-linejoin="round"/>
<path d="M25.8125 14H21.4375" stroke-width="2" stroke-linecap="round" stroke-linejoin="round"/>
<path d="M14 17.5C15.933 17.5 17.5 15.933 17.5 14C17.5 12.067 15.933 10.5 14 10.5C12.067 10.5 10.5 12.067 10.5 14C10.5 15.933 12.067 17.5 14 17.5Z" stroke-width="2" stroke-linecap="round" stroke-linejoin="round"/>
</svg>
