<svg width="28" height="28" viewBox="0 0 28 28" fill="none" xmlns="http://www.w3.org/2000/svg">
<path d="M4.93246 21.4375C4.96045 21.5526 5.01121 21.6608 5.08174 21.7559C5.15227 21.851 5.24114 21.9309 5.3431 21.9911C5.44506 22.0513 5.55804 22.0904 5.67537 22.1061C5.7927 22.1219 5.912 22.114 6.02621 22.0828C11.2401 20.6392 16.7483 20.6392 21.9622 22.0828C22.0764 22.114 22.1957 22.1219 22.313 22.1061C22.4303 22.0904 22.5433 22.0513 22.6453 21.9911C22.7472 21.9309 22.8361 21.851 22.9066 21.7559C22.9772 21.6608 23.0279 21.5526 23.0559 21.4375L25.845 9.59221C25.8833 9.43366 25.8765 9.26756 25.8254 9.11266C25.7743 8.95777 25.6809 8.82023 25.5558 8.71559C25.4307 8.61095 25.2788 8.54336 25.1173 8.52045C24.9558 8.49755 24.7911 8.52024 24.6418 8.58596L19.1075 11.0469C18.9069 11.1352 18.6808 11.146 18.4727 11.0774C18.2647 11.0087 18.0895 10.8653 17.9809 10.675L14.7653 4.87815C14.6896 4.74139 14.5787 4.62739 14.444 4.54801C14.3094 4.46862 14.156 4.42676 13.9997 4.42676C13.8434 4.42676 13.6899 4.46862 13.5553 4.54801C13.4206 4.62739 13.3097 4.74139 13.234 4.87815L10.0184 10.675C9.90985 10.8653 9.73462 11.0087 9.52656 11.0774C9.3185 11.146 9.09237 11.1352 8.89184 11.0469L3.35747 8.58596C3.20818 8.52024 3.0435 8.49755 2.88201 8.52045C2.72052 8.54336 2.56864 8.61095 2.44352 8.71559C2.3184 8.82023 2.22503 8.95777 2.17393 9.11266C2.12283 9.26756 2.11605 9.43366 2.15434 9.59221L4.93246 21.4375Z" stroke-width="2" stroke-linecap="round" stroke-linejoin="round"/>
<path d="M10.5 17.686C12.8266 17.4344 15.1734 17.4344 17.5 17.686" stroke-width="2" stroke-linecap="round" stroke-linejoin="round"/>
</svg>
