<svg width="28" height="28" viewBox="0 0 28 28" fill="none" xmlns="http://www.w3.org/2000/svg">
<path d="M8.75 13.125H16.625C17.7853 13.125 18.8981 13.5859 19.7186 14.4064C20.5391 15.2269 21 16.3397 21 17.5C21 18.6603 20.5391 19.7731 19.7186 20.5936C18.8981 21.4141 17.7853 21.875 16.625 21.875H8.75V5.25H15.3125C16.3568 5.25 17.3583 5.66484 18.0967 6.40327C18.8352 7.14169 19.25 8.14321 19.25 9.1875C19.25 10.2318 18.8352 11.2333 18.0967 11.9717C17.3583 12.7102 16.3568 13.125 15.3125 13.125" stroke-width="2" stroke-linecap="round" stroke-linejoin="round"/>
<path d="M7 5.25H8.75" stroke-width="2" stroke-linecap="round" stroke-linejoin="round"/>
<path d="M7 21.875H8.75" stroke-width="2" stroke-linecap="round" stroke-linejoin="round"/>
<path d="M11.375 5.25V2.625" stroke-width="2" stroke-linecap="round" stroke-linejoin="round"/>
<path d="M14.875 5.25V2.625" stroke-width="2" stroke-linecap="round" stroke-linejoin="round"/>
<path d="M11.375 24.5V21.875" stroke-width="2" stroke-linecap="round" stroke-linejoin="round"/>
<path d="M14.875 24.5V21.875" stroke-width="2" stroke-linecap="round" stroke-linejoin="round"/>
</svg>
