<svg width="28" height="28" viewBox="0 0 28 28" fill="none" xmlns="http://www.w3.org/2000/svg">
<path d="M21 23.625V4.375C21 3.4085 20.2165 2.625 19.25 2.625L8.75 2.625C7.7835 2.625 7 3.4085 7 4.375L7 23.625C7 24.5915 7.7835 25.375 8.75 25.375H19.25C20.2165 25.375 21 24.5915 21 23.625Z" stroke-width="2" stroke-linecap="round" stroke-linejoin="round"/>
<path d="M14 7.875C14.7249 7.875 15.3125 7.28737 15.3125 6.5625C15.3125 5.83763 14.7249 5.25 14 5.25C13.2751 5.25 12.6875 5.83763 12.6875 6.5625C12.6875 7.28737 13.2751 7.875 14 7.875Z" fill="#8247E5"/>
</svg>
