<svg width="28" height="28" viewBox="0 0 28 28" fill="none" xmlns="http://www.w3.org/2000/svg">
<path d="M13.3779 3.24617L10.2379 6.38616C9.89615 6.72787 9.89615 7.28189 10.2379 7.6236L13.3755 10.7613C13.7172 11.103 14.2713 11.103 14.613 10.7613L17.753 7.62128C18.0947 7.27957 18.0947 6.72555 17.753 6.38384L14.6153 3.24617C14.2736 2.90446 13.7196 2.90446 13.3779 3.24617Z" stroke-width="2" stroke-linecap="round" stroke-linejoin="round"/>
<path d="M20.3788 10.2462L17.2388 13.3862C16.8971 13.7279 16.8971 14.2819 17.2388 14.6236L20.3765 17.7613C20.7182 18.103 21.2722 18.103 21.6139 17.7613L24.7539 14.6213C25.0957 14.2796 25.0957 13.7256 24.7539 13.3838L21.6163 10.2462C21.2746 9.90446 20.7205 9.90446 20.3788 10.2462Z" stroke-width="2" stroke-linecap="round" stroke-linejoin="round"/>
<path d="M6.37786 10.2364L3.23786 13.3764C2.89615 13.7181 2.89615 14.2721 3.23786 14.6138L6.37554 17.7515C6.71724 18.0932 7.27126 18.0932 7.61297 17.7515L10.753 14.6115C11.0947 14.2698 11.0947 13.7158 10.753 13.3741L7.61529 10.2364C7.27358 9.89469 6.71956 9.89469 6.37786 10.2364Z" stroke-width="2" stroke-linecap="round" stroke-linejoin="round"/>
<path d="M13.3788 17.2364L10.2388 20.3764C9.89713 20.7181 9.89713 21.2721 10.2388 21.6138L13.3765 24.7515C13.7182 25.0932 14.2722 25.0932 14.6139 24.7515L17.7539 21.6115C18.0957 21.2698 18.0957 20.7158 17.7539 20.3741L14.6163 17.2364C14.2746 16.8947 13.7205 16.8947 13.3788 17.2364Z" stroke-width="2" stroke-linecap="round" stroke-linejoin="round"/>
</svg>
