<svg width="28" height="28" viewBox="0 0 28 28" fill="none" xmlns="http://www.w3.org/2000/svg">
<path d="M21 4.375H7C5.55025 4.375 4.375 5.55025 4.375 7V21C4.375 22.4497 5.55025 23.625 7 23.625H21C22.4497 23.625 23.625 22.4497 23.625 21V7C23.625 5.55025 22.4497 4.375 21 4.375Z" stroke="#8247E5" stroke-width="2" stroke-linecap="round" stroke-linejoin="round"/>
<path d="M11.8125 13.125C12.5374 13.125 13.125 12.5374 13.125 11.8125C13.125 11.0876 12.5374 10.5 11.8125 10.5C11.0876 10.5 10.5 11.0876 10.5 11.8125C10.5 12.5374 11.0876 13.125 11.8125 13.125Z" fill="#8247E5"/>
<path d="M16.1875 17.5C16.9124 17.5 17.5 16.9124 17.5 16.1875C17.5 15.4626 16.9124 14.875 16.1875 14.875C15.4626 14.875 14.875 15.4626 14.875 16.1875C14.875 16.9124 15.4626 17.5 16.1875 17.5Z" fill="#8247E5"/>
</svg>
