<svg width="28" height="28" viewBox="0 0 28 28" fill="none" xmlns="http://www.w3.org/2000/svg">
<path d="M21 4.375H7C5.55025 4.375 4.375 5.55025 4.375 7V21C4.375 22.4497 5.55025 23.625 7 23.625H21C22.4497 23.625 23.625 22.4497 23.625 21V7C23.625 5.55025 22.4497 4.375 21 4.375Z" stroke-width="2" stroke-linecap="round" stroke-linejoin="round"/>
<path d="M10.0625 11.375C10.7874 11.375 11.375 10.7874 11.375 10.0625C11.375 9.33763 10.7874 8.75 10.0625 8.75C9.33763 8.75 8.75 9.33763 8.75 10.0625C8.75 10.7874 9.33763 11.375 10.0625 11.375Z" fill="#8247E5"/>
<path d="M17.9375 11.375C18.6624 11.375 19.25 10.7874 19.25 10.0625C19.25 9.33763 18.6624 8.75 17.9375 8.75C17.2126 8.75 16.625 9.33763 16.625 10.0625C16.625 10.7874 17.2126 11.375 17.9375 11.375Z" fill="#8247E5"/>
<path d="M10.0625 19.25C10.7874 19.25 11.375 18.6624 11.375 17.9375C11.375 17.2126 10.7874 16.625 10.0625 16.625C9.33763 16.625 8.75 17.2126 8.75 17.9375C8.75 18.6624 9.33763 19.25 10.0625 19.25Z" fill="#8247E5"/>
<path d="M14 15.3125C14.7249 15.3125 15.3125 14.7249 15.3125 14C15.3125 13.2751 14.7249 12.6875 14 12.6875C13.2751 12.6875 12.6875 13.2751 12.6875 14C12.6875 14.7249 13.2751 15.3125 14 15.3125Z" fill="#8247E5"/>
<path d="M17.9375 19.25C18.6624 19.25 19.25 18.6624 19.25 17.9375C19.25 17.2126 18.6624 16.625 17.9375 16.625C17.2126 16.625 16.625 17.2126 16.625 17.9375C16.625 18.6624 17.2126 19.25 17.9375 19.25Z" fill="#8247E5"/>
</svg>
