<svg width="28" height="28" viewBox="0 0 28 28" fill="none" xmlns="http://www.w3.org/2000/svg">
<path d="M21 4.375H7C5.55025 4.375 4.375 5.55025 4.375 7V21C4.375 22.4497 5.55025 23.625 7 23.625H21C22.4497 23.625 23.625 22.4497 23.625 21V7C23.625 5.55025 22.4497 4.375 21 4.375Z" stroke-width="2" stroke-linecap="round" stroke-linejoin="round"/>
<path d="M10.0625 10.5C10.7874 10.5 11.375 9.91237 11.375 9.1875C11.375 8.46263 10.7874 7.875 10.0625 7.875C9.33763 7.875 8.75 8.46263 8.75 9.1875C8.75 9.91237 9.33763 10.5 10.0625 10.5Z" fill="#8247E5"/>
<path d="M17.9375 10.5C18.6624 10.5 19.25 9.91237 19.25 9.1875C19.25 8.46263 18.6624 7.875 17.9375 7.875C17.2126 7.875 16.625 8.46263 16.625 9.1875C16.625 9.91237 17.2126 10.5 17.9375 10.5Z" fill="#8247E5"/>
<path d="M10.0625 15.3125C10.7874 15.3125 11.375 14.7249 11.375 14C11.375 13.2751 10.7874 12.6875 10.0625 12.6875C9.33763 12.6875 8.75 13.2751 8.75 14C8.75 14.7249 9.33763 15.3125 10.0625 15.3125Z" fill="#8247E5"/>
<path d="M17.9375 15.3125C18.6624 15.3125 19.25 14.7249 19.25 14C19.25 13.2751 18.6624 12.6875 17.9375 12.6875C17.2126 12.6875 16.625 13.2751 16.625 14C16.625 14.7249 17.2126 15.3125 17.9375 15.3125Z" fill="#8247E5"/>
<path d="M10.0625 20.125C10.7874 20.125 11.375 19.5374 11.375 18.8125C11.375 18.0876 10.7874 17.5 10.0625 17.5C9.33763 17.5 8.75 18.0876 8.75 18.8125C8.75 19.5374 9.33763 20.125 10.0625 20.125Z" fill="#8247E5"/>
<path d="M17.9375 20.125C18.6624 20.125 19.25 19.5374 19.25 18.8125C19.25 18.0876 18.6624 17.5 17.9375 17.5C17.2126 17.5 16.625 18.0876 16.625 18.8125C16.625 19.5374 17.2126 20.125 17.9375 20.125Z" fill="#8247E5"/>
</svg>
