<svg width="28" height="28" viewBox="0 0 28 28" fill="none" xmlns="http://www.w3.org/2000/svg">
<path d="M21 4.375H7C5.55025 4.375 4.375 5.55025 4.375 7V21C4.375 22.4497 5.55025 23.625 7 23.625H21C22.4497 23.625 23.625 22.4497 23.625 21V7C23.625 5.55025 22.4497 4.375 21 4.375Z" stroke-width="2" stroke-linecap="round" stroke-linejoin="round"/>
<path d="M10.9375 12.25C11.6624 12.25 12.25 11.6624 12.25 10.9375C12.25 10.2126 11.6624 9.625 10.9375 9.625C10.2126 9.625 9.625 10.2126 9.625 10.9375C9.625 11.6624 10.2126 12.25 10.9375 12.25Z" fill="#8247E5"/>
<path d="M17.0625 12.25C17.7874 12.25 18.375 11.6624 18.375 10.9375C18.375 10.2126 17.7874 9.625 17.0625 9.625C16.3376 9.625 15.75 10.2126 15.75 10.9375C15.75 11.6624 16.3376 12.25 17.0625 12.25Z" fill="#8247E5"/>
<path d="M10.9375 18.375C11.6624 18.375 12.25 17.7874 12.25 17.0625C12.25 16.3376 11.6624 15.75 10.9375 15.75C10.2126 15.75 9.625 16.3376 9.625 17.0625C9.625 17.7874 10.2126 18.375 10.9375 18.375Z" fill="#8247E5"/>
<path d="M17.0625 18.375C17.7874 18.375 18.375 17.7874 18.375 17.0625C18.375 16.3376 17.7874 15.75 17.0625 15.75C16.3376 15.75 15.75 16.3376 15.75 17.0625C15.75 17.7874 16.3376 18.375 17.0625 18.375Z" fill="#8247E5"/>
</svg>
