<svg width="28" height="28" viewBox="0 0 28 28" fill="none" xmlns="http://www.w3.org/2000/svg">
<path d="M14 21V23.625" stroke-width="2" stroke-linecap="round" stroke-linejoin="round"/>
<path d="M10.0625 16.625C10.7874 16.625 11.375 16.0374 11.375 15.3125C11.375 14.5876 10.7874 14 10.0625 14C9.33763 14 8.75 14.5876 8.75 15.3125C8.75 16.0374 9.33763 16.625 10.0625 16.625Z" fill="#8247E5"/>
<path d="M17.9375 16.625C18.6624 16.625 19.25 16.0374 19.25 15.3125C19.25 14.5876 18.6624 14 17.9375 14C17.2126 14 16.625 14.5876 16.625 15.3125C16.625 16.0374 17.2126 16.625 17.9375 16.625Z" fill="#8247E5"/>
<path d="M15.75 19.25L14 21L12.25 19.25" stroke-width="2" stroke-linecap="round" stroke-linejoin="round"/>
<path d="M16.625 5.24992L22.7281 3.7296C22.8432 3.70064 22.9629 3.69537 23.0801 3.71412C23.1972 3.73288 23.3093 3.77525 23.4096 3.83868C23.5098 3.90211 23.5961 3.98526 23.6633 4.08309C23.7304 4.18091 23.7769 4.29136 23.8 4.40773L25.5937 13.989C25.7578 14.8859 24.6094 15.4109 24.0406 14.689L16.625 5.24992Z" stroke-width="2" stroke-linecap="round" stroke-linejoin="round"/>
<path d="M11.3753 5.24992L5.27213 3.7296C5.15708 3.70064 5.03735 3.69537 4.9202 3.71412C4.80305 3.73288 4.69095 3.77525 4.59069 3.83868C4.49043 3.90211 4.40412 3.98526 4.337 4.08309C4.26988 4.18091 4.22336 4.29136 4.20025 4.40773L2.4065 13.989C2.24244 14.8859 3.39088 15.4109 3.95963 14.689L11.3753 5.24992Z" stroke-width="2" stroke-linecap="round" stroke-linejoin="round"/>
<path d="M11.375 5.25H16.625" stroke-width="2" stroke-linecap="round" stroke-linejoin="round"/>
<path d="M22.75 13.0483V20.1249C22.75 21.0532 22.3813 21.9434 21.7249 22.5998C21.0685 23.2562 20.1783 23.6249 19.25 23.6249H8.75C7.82174 23.6249 6.9315 23.2562 6.27513 22.5998C5.61875 21.9434 5.25 21.0532 5.25 20.1249V13.0483" stroke-width="2" stroke-linecap="round" stroke-linejoin="round"/>
</svg>
