<svg width="28" height="28" viewBox="0 0 28 28" fill="none" xmlns="http://www.w3.org/2000/svg">
<path d="M2.625 24.5H25.375" stroke-width="2" stroke-linecap="round" stroke-linejoin="round"/>
<path d="M6.125 24.5V4.375C6.125 4.14294 6.21719 3.92038 6.38128 3.75628C6.54538 3.59219 6.76794 3.5 7 3.5H21C21.2321 3.5 21.4546 3.59219 21.6187 3.75628C21.7828 3.92038 21.875 4.14294 21.875 4.375V24.5" stroke-width="2" stroke-linecap="round" stroke-linejoin="round"/>
<path d="M17.0625 15.3125C17.7874 15.3125 18.375 14.7249 18.375 14C18.375 13.2751 17.7874 12.6875 17.0625 12.6875C16.3376 12.6875 15.75 13.2751 15.75 14C15.75 14.7249 16.3376 15.3125 17.0625 15.3125Z" fill="#8247E5"/>
</svg>
