<svg width="28" height="28" viewBox="0 0 28 28" fill="none" xmlns="http://www.w3.org/2000/svg">
<path d="M14 24.5C19.799 24.5 24.5 19.799 24.5 14C24.5 8.20101 19.799 3.5 14 3.5C8.20101 3.5 3.5 8.20101 3.5 14C3.5 19.799 8.20101 24.5 14 24.5Z" stroke-width="2" stroke-miterlimit="10"/>
<path d="M14 15.3125C14.7249 15.3125 15.3125 14.7249 15.3125 14C15.3125 13.2751 14.7249 12.6875 14 12.6875C13.2751 12.6875 12.6875 13.2751 12.6875 14C12.6875 14.7249 13.2751 15.3125 14 15.3125Z" fill="#8247E5"/>
<path d="M14 10.0625C14.7249 10.0625 15.3125 9.47487 15.3125 8.75C15.3125 8.02513 14.7249 7.4375 14 7.4375C13.2751 7.4375 12.6875 8.02513 12.6875 8.75C12.6875 9.47487 13.2751 10.0625 14 10.0625Z" fill="#8247E5"/>
<path d="M14 20.5625C14.7249 20.5625 15.3125 19.9749 15.3125 19.25C15.3125 18.5251 14.7249 17.9375 14 17.9375C13.2751 17.9375 12.6875 18.5251 12.6875 19.25C12.6875 19.9749 13.2751 20.5625 14 20.5625Z" fill="#8247E5"/>
</svg>
