<svg width="28" height="28" viewBox="0 0 28 28" fill="none" xmlns="http://www.w3.org/2000/svg">
<path d="M14 24.5C19.799 24.5 24.5 19.799 24.5 14C24.5 8.20101 19.799 3.5 14 3.5C8.20101 3.5 3.5 8.20101 3.5 14C3.5 19.799 8.20101 24.5 14 24.5Z" stroke-width="2" stroke-miterlimit="10"/>
<path d="M14 15.3125C14.7249 15.3125 15.3125 14.7249 15.3125 14C15.3125 13.2751 14.7249 12.6875 14 12.6875C13.2751 12.6875 12.6875 13.2751 12.6875 14C12.6875 14.7249 13.2751 15.3125 14 15.3125Z" fill="#8247E5"/>
<path d="M19.25 15.3125C19.9749 15.3125 20.5625 14.7249 20.5625 14C20.5625 13.2751 19.9749 12.6875 19.25 12.6875C18.5251 12.6875 17.9375 13.2751 17.9375 14C17.9375 14.7249 18.5251 15.3125 19.25 15.3125Z" fill="#8247E5"/>
<path d="M8.75 15.3125C9.47487 15.3125 10.0625 14.7249 10.0625 14C10.0625 13.2751 9.47487 12.6875 8.75 12.6875C8.02513 12.6875 7.4375 13.2751 7.4375 14C7.4375 14.7249 8.02513 15.3125 8.75 15.3125Z" fill="#8247E5"/>
</svg>
