<svg width="28" height="28" viewBox="0 0 28 28" fill="none" xmlns="http://www.w3.org/2000/svg">
<path d="M13.3548 4.19998L4.85636 13.4093C4.7418 13.5346 4.66613 13.6904 4.63857 13.8579C4.61101 14.0254 4.63275 14.1972 4.70114 14.3526C4.76953 14.5079 4.88163 14.64 5.02377 14.7328C5.1659 14.8255 5.33195 14.8749 5.50168 14.875H22.4985C22.6683 14.8749 22.8343 14.8255 22.9765 14.7328C23.1186 14.64 23.2307 14.5079 23.2991 14.3526C23.3675 14.1972 23.3892 14.0254 23.3617 13.8579C23.3341 13.6904 23.2584 13.5346 23.1439 13.4093L14.6454 4.19998C14.5644 4.10894 14.465 4.03609 14.3537 3.9862C14.2425 3.93631 14.122 3.91052 14.0001 3.91052C13.8782 3.91052 13.7577 3.93631 13.6465 3.9862C13.5353 4.03609 13.4359 4.10894 13.3548 4.19998V4.19998Z" stroke="#8247E5" stroke-width="2" stroke-linecap="round" stroke-linejoin="round"/>
<path d="M4.375 19.25V21.875C4.375 22.3582 4.76675 22.75 5.25 22.75H22.75C23.2332 22.75 23.625 22.3582 23.625 21.875V19.25C23.625 18.7668 23.2332 18.375 22.75 18.375H5.25C4.76675 18.375 4.375 18.7668 4.375 19.25Z" stroke="#8247E5" stroke-width="2" stroke-linecap="round" stroke-linejoin="round"/>
</svg>
