<svg width="28" height="28" viewBox="0 0 28 28" fill="none" xmlns="http://www.w3.org/2000/svg">
<path d="M13.3222 4.33131L3.78474 16.0782C3.68196 16.2065 3.61744 16.3613 3.59856 16.5246C3.57968 16.688 3.60721 16.8533 3.678 17.0017C3.74878 17.1502 3.85995 17.2756 3.99877 17.3638C4.13759 17.4519 4.29843 17.4991 4.46286 17.5001H23.5379C23.7023 17.4991 23.8631 17.4519 24.002 17.3638C24.1408 17.2756 24.2519 17.1502 24.3227 17.0017C24.3935 16.8533 24.421 16.688 24.4022 16.5246C24.3833 16.3613 24.3188 16.2065 24.216 16.0782L14.6785 4.33131C14.5964 4.23068 14.493 4.14958 14.3757 4.09388C14.2584 4.03818 14.1302 4.00928 14.0004 4.00928C13.8705 4.00928 13.7423 4.03818 13.625 4.09388C13.5077 4.14958 13.4043 4.23068 13.3222 4.33131Z" stroke="#8247E5" stroke-width="2" stroke-linecap="round" stroke-linejoin="round"/>
<path d="M24.5 22.75H3.5" stroke="#8247E5" stroke-width="2" stroke-linecap="round" stroke-linejoin="round"/>
</svg>
