<svg width="28" height="28" viewBox="0 0 28 28" fill="none" xmlns="http://www.w3.org/2000/svg">
<path d="M10.0078 10.8828L17.4344 18.3094" stroke="#8247E5" stroke-width="2" stroke-linecap="round" stroke-linejoin="round"/>
<path d="M23.625 23.6031H7.88594L3.82813 19.5453C3.66476 19.3836 3.53508 19.1911 3.44657 18.979C3.35807 18.7668 3.3125 18.5392 3.3125 18.3094C3.3125 18.0795 3.35807 17.8519 3.44657 17.6398C3.53508 17.4276 3.66476 17.2351 3.82813 17.0734L16.1984 4.70313C16.3601 4.53976 16.5526 4.41008 16.7648 4.32157C16.9769 4.23307 17.2045 4.1875 17.4344 4.1875C17.6642 4.1875 17.8918 4.23307 18.104 4.32157C18.3161 4.41008 18.5086 4.53976 18.6703 4.70313L23.625 9.64688C23.9503 9.97819 24.1326 10.424 24.1326 10.8883C24.1326 11.3526 23.9503 11.7984 23.625 12.1297L12.1406 23.6031" stroke="#8247E5" stroke-width="2" stroke-linecap="round" stroke-linejoin="round"/>
</svg>
