<svg width="28" height="28" viewBox="0 0 28 28" fill="none" xmlns="http://www.w3.org/2000/svg">
<path d="M9.40625 6.34375L14 1.75L18.5938 6.34375" stroke="#8247E5" stroke-width="2" stroke-linecap="round" stroke-linejoin="round"/>
<path d="M14 14V1.75" stroke="#8247E5" stroke-width="2" stroke-linecap="round" stroke-linejoin="round"/>
<path d="M19.25 10.5H21.875C22.1071 10.5 22.3296 10.5922 22.4937 10.7563C22.6578 10.9204 22.75 11.1429 22.75 11.375V22.75C22.75 22.9821 22.6578 23.2046 22.4937 23.3687C22.3296 23.5328 22.1071 23.625 21.875 23.625H6.125C5.89294 23.625 5.67038 23.5328 5.50628 23.3687C5.34219 23.2046 5.25 22.9821 5.25 22.75V11.375C5.25 11.1429 5.34219 10.9204 5.50628 10.7563C5.67038 10.5922 5.89294 10.5 6.125 10.5H8.75" stroke="#8247E5" stroke-width="2" stroke-linecap="round" stroke-linejoin="round"/>
</svg>
