<svg width="28" height="28" viewBox="0 0 28 28" fill="none" xmlns="http://www.w3.org/2000/svg">
<path d="M19.6655 12.6657L20.2015 13.2016C20.5261 13.5311 20.7081 13.975 20.7081 14.4375C20.7081 14.9001 20.5261 15.344 20.2015 15.6735L19.4358 16.4391C19.3544 16.5218 19.2574 16.5874 19.1503 16.6322C19.0433 16.6771 18.9284 16.7001 18.8124 16.7001C18.6964 16.7001 18.5815 16.6771 18.4745 16.6322C18.3674 16.5874 18.2704 16.5218 18.189 16.4391L11.5608 9.81097C11.4782 9.72955 11.4125 9.6325 11.3677 9.52547C11.3229 9.41844 11.2998 9.30357 11.2998 9.18753C11.2998 9.0715 11.3229 8.95662 11.3677 8.84959C11.4125 8.74256 11.4782 8.64551 11.5608 8.5641L12.3265 7.79847C12.6559 7.47384 13.0999 7.29187 13.5624 7.29187C14.0249 7.29187 14.4689 7.47384 14.7983 7.79847L15.3343 8.33441L18.353 5.31566C19.5343 4.13441 21.4593 4.06878 22.6624 5.21722C22.9594 5.49813 23.1972 5.83567 23.3617 6.20993C23.5261 6.58418 23.614 6.98759 23.6202 7.39635C23.6263 7.80511 23.5505 8.21096 23.3973 8.58997C23.2441 8.96898 23.0165 9.31348 22.728 9.60316L19.6655 12.6657Z" stroke-width="2" stroke-linecap="round" stroke-linejoin="round"/>
<path d="M17.3465 15.5971L11.2214 21.7221C10.7892 22.1595 10.2484 22.4741 9.65454 22.6337C9.06064 22.7932 8.43499 22.7919 7.84176 22.6299L5.28239 23.7455C5.12277 23.8155 4.94588 23.8363 4.7744 23.8051C4.60291 23.7739 4.44464 23.6922 4.31989 23.5705V23.5705C4.22915 23.4812 4.16793 23.3662 4.14447 23.2411C4.121 23.116 4.13642 22.9866 4.18864 22.8705L5.36989 20.158C5.20789 19.5648 5.20659 18.9391 5.36612 18.3452C5.52565 17.7513 5.84026 17.2105 6.2777 16.7783L12.4027 10.6533" stroke-width="2" stroke-linecap="round" stroke-linejoin="round"/>
<path d="M5.7207 17.5H15.4551" stroke-width="2" stroke-linecap="round" stroke-linejoin="round"/>
</svg>
