<svg width="28" height="28" viewBox="0 0 28 28" fill="none" xmlns="http://www.w3.org/2000/svg">
<path d="M7.4375 21.875C9.61212 21.875 11.375 20.1121 11.375 17.9375C11.375 15.7629 9.61212 14 7.4375 14C5.26288 14 3.5 15.7629 3.5 17.9375C3.5 20.1121 5.26288 21.875 7.4375 21.875Z" stroke="#8247E5" stroke-width="2" stroke-linecap="round" stroke-linejoin="round"/>
<path d="M20.5625 21.875C22.7371 21.875 24.5 20.1121 24.5 17.9375C24.5 15.7629 22.7371 14 20.5625 14C18.3879 14 16.625 15.7629 16.625 17.9375C16.625 20.1121 18.3879 21.875 20.5625 21.875Z" stroke="#8247E5" stroke-width="2" stroke-linecap="round" stroke-linejoin="round"/>
<path d="M11.375 17.5H16.625" stroke="#8247E5" stroke-width="2" stroke-linecap="round" stroke-linejoin="round"/>
<path d="M3.50002 17.9375V7.87502C3.49858 7.5299 3.56549 7.1879 3.69689 6.86877C3.8283 6.54964 4.0216 6.25968 4.26564 6.01564C4.50968 5.7716 4.79964 5.5783 5.11877 5.44689C5.4379 5.31549 5.7799 5.24858 6.12502 5.25002" stroke="#8247E5" stroke-width="2" stroke-linecap="round" stroke-linejoin="round"/>
<path d="M21.875 5.25002C22.2201 5.24858 22.5621 5.31549 22.8813 5.44689C23.2004 5.5783 23.4903 5.7716 23.7344 6.01564C23.9784 6.25968 24.1717 6.54964 24.3031 6.86877C24.4345 7.1879 24.5014 7.5299 24.5 7.87502V17.9375" stroke="#8247E5" stroke-width="2" stroke-linecap="round" stroke-linejoin="round"/>
</svg>
