<svg width="30" height="28" viewBox="0 0 30 28" fill="none" xmlns="http://www.w3.org/2000/svg">
<path d="M24.625 14.8751C24.625 20.5079 16.4875 22.4438 15.175 22.7172C15.0594 22.7391 14.9406 22.7391 14.825 22.7172C13.5125 22.4438 5.37501 20.5079 5.37501 14.8751V8.48756C5.3741 8.30747 5.42948 8.13159 5.53341 7.98452C5.63735 7.83744 5.78464 7.72652 5.9547 7.66725L14.7047 4.48443C14.8961 4.4186 15.104 4.4186 15.2953 4.48443L24.0453 7.66725C24.2154 7.72652 24.3627 7.83744 24.4666 7.98452C24.5705 8.13159 24.6259 8.30747 24.625 8.48756V14.8751Z" stroke="#8247E5" stroke-width="2" stroke-linecap="round" stroke-linejoin="round"/>
<path d="M10.625 12.25H19.375" stroke="#8247E5" stroke-width="2" stroke-linecap="round" stroke-linejoin="round"/>
<path d="M10.625 15.75H19.375" stroke="#8247E5" stroke-width="2" stroke-linecap="round" stroke-linejoin="round"/>
<path d="M24.3408 16.625H25.5002C25.8453 16.6265 26.1873 16.5596 26.5064 16.4282C26.8256 16.2967 27.1155 16.1034 27.3596 15.8594C27.6036 15.6154 27.7969 15.3254 27.9283 15.0063C28.0597 14.6871 28.1266 14.3451 28.1252 14V11.375C28.1266 11.0299 28.0597 10.6879 27.9283 10.3688C27.7969 10.0496 27.6036 9.75968 27.3596 9.51564C27.1155 9.2716 26.8256 9.0783 26.5064 8.94689C26.1873 8.81549 25.8453 8.74858 25.5002 8.75002H24.6252" stroke="#8247E5" stroke-width="2" stroke-linecap="round" stroke-linejoin="round"/>
<path d="M5.6594 16.625H4.50002C4.1549 16.6265 3.8129 16.5596 3.49377 16.4282C3.17464 16.2967 2.88468 16.1034 2.64064 15.8594C2.3966 15.6154 2.2033 15.3254 2.07189 15.0063C1.94049 14.6871 1.87358 14.3451 1.87502 14V11.375C1.87358 11.0299 1.94049 10.6879 2.07189 10.3688C2.2033 10.0496 2.3966 9.75968 2.64064 9.51564C2.88468 9.2716 3.17464 9.0783 3.49377 8.94689C3.8129 8.81549 4.1549 8.74858 4.50002 8.75002H5.37502" stroke="#8247E5" stroke-width="2" stroke-linecap="round" stroke-linejoin="round"/>
</svg>
