<svg width="28" height="28" viewBox="0 0 28 28" fill="none" xmlns="http://www.w3.org/2000/svg">
<path d="M26.4141 13.2673L16.6578 6.98921C16.5251 6.90463 16.3721 6.85739 16.2148 6.85248C16.0576 6.84756 15.9019 6.88515 15.7641 6.96128C15.6264 7.03742 15.5118 7.14927 15.4323 7.28508C15.3528 7.42088 15.3115 7.57561 15.3125 7.73296V20.2673C15.3115 20.4247 15.3528 20.5794 15.4323 20.7152C15.5118 20.851 15.6264 20.9629 15.7641 21.039C15.9019 21.1151 16.0576 21.1527 16.2148 21.1478C16.3721 21.1429 16.5251 21.0957 16.6578 21.0111L26.4141 14.733C26.5384 14.6553 26.6409 14.5473 26.712 14.4191C26.783 14.2909 26.8203 14.1467 26.8203 14.0001C26.8203 13.8536 26.783 13.7094 26.712 13.5812C26.6409 13.453 26.5384 13.345 26.4141 13.2673V13.2673Z" stroke-width="2" stroke-linecap="round" stroke-linejoin="round"/>
<path d="M14.1641 13.2673L4.40783 6.98921C4.27514 6.90463 4.1221 6.85739 3.96483 6.85248C3.80755 6.84756 3.65186 6.88515 3.51415 6.96128C3.37644 7.03742 3.26181 7.14927 3.18233 7.28508C3.10285 7.42088 3.06146 7.57561 3.06252 7.73296V20.2673C3.06146 20.4247 3.10285 20.5794 3.18233 20.7152C3.26181 20.851 3.37644 20.9629 3.51415 21.039C3.65186 21.1151 3.80755 21.1527 3.96483 21.1478C4.1221 21.1429 4.27514 21.0957 4.40783 21.0111L14.1641 14.733C14.2884 14.6553 14.3909 14.5473 14.462 14.4191C14.533 14.2909 14.5703 14.1467 14.5703 14.0001C14.5703 13.8536 14.533 13.7094 14.462 13.5812C14.3909 13.453 14.2884 13.345 14.1641 13.2673V13.2673Z" stroke-width="2" stroke-linecap="round" stroke-linejoin="round"/>
</svg>
