<svg width="28" height="28" viewBox="0 0 28 28" fill="none" xmlns="http://www.w3.org/2000/svg">
<path d="M4.375 12.25H23.625V21.875C23.625 22.1071 23.5328 22.3296 23.3687 22.4937C23.2046 22.6578 22.9821 22.75 22.75 22.75H5.25C5.01794 22.75 4.79538 22.6578 4.63128 22.4937C4.46719 22.3296 4.375 22.1071 4.375 21.875V12.25Z" stroke-width="2" stroke-linecap="round" stroke-linejoin="round"/>
<path d="M4.37487 12.2498L22.9686 7.26233L22.0608 3.88265C22.0317 3.77142 21.9807 3.66711 21.9108 3.57585C21.8408 3.48459 21.7534 3.40819 21.6536 3.35115C21.5538 3.29411 21.4436 3.25756 21.3294 3.24365C21.2153 3.22974 21.0995 3.23875 20.9889 3.27015L4.0905 7.79827C3.97905 7.8275 3.87448 7.87845 3.78278 7.9482C3.69108 8.01795 3.61406 8.10512 3.55613 8.20471C3.49821 8.3043 3.46052 8.41435 3.44524 8.52855C3.42995 8.64274 3.43737 8.75883 3.46706 8.87015L4.37487 12.2498Z" stroke-width="2" stroke-linecap="round" stroke-linejoin="round"/>
<path d="M14.2295 5.0752L19.5889 8.17051" stroke-width="2" stroke-linecap="round" stroke-linejoin="round"/>
<path d="M6.62793 7.12012L11.9764 10.2154" stroke-width="2" stroke-linecap="round" stroke-linejoin="round"/>
</svg>
