<svg width="28" height="28" viewBox="0 0 28 28" fill="none" xmlns="http://www.w3.org/2000/svg">
<path d="M21.875 3.5H6.125C5.64175 3.5 5.25 3.89175 5.25 4.375V23.625C5.25 24.1082 5.64175 24.5 6.125 24.5H21.875C22.3582 24.5 22.75 24.1082 22.75 23.625V4.375C22.75 3.89175 22.3582 3.5 21.875 3.5Z" stroke="#8247E5" stroke-width="2" stroke-linecap="round" stroke-linejoin="round"/>
<path d="M9.1875 9.625C9.91237 9.625 10.5 9.03737 10.5 8.3125C10.5 7.58763 9.91237 7 9.1875 7C8.46263 7 7.875 7.58763 7.875 8.3125C7.875 9.03737 8.46263 9.625 9.1875 9.625Z" fill="#8247E5"/>
<path d="M9.1875 21C9.91237 21 10.5 20.4124 10.5 19.6875C10.5 18.9626 9.91237 18.375 9.1875 18.375C8.46263 18.375 7.875 18.9626 7.875 19.6875C7.875 20.4124 8.46263 21 9.1875 21Z" fill="#8247E5"/>
<path d="M9.1875 15.3125C9.91237 15.3125 10.5 14.7249 10.5 14C10.5 13.2751 9.91237 12.6875 9.1875 12.6875C8.46263 12.6875 7.875 13.2751 7.875 14C7.875 14.7249 8.46263 15.3125 9.1875 15.3125Z" fill="#8247E5"/>
</svg>
