<svg width="28" height="28" viewBox="0 0 28 28" fill="none" xmlns="http://www.w3.org/2000/svg">
<path d="M10.5 17.5H4.375C4.14294 17.5 3.92038 17.4078 3.75628 17.2437C3.59219 17.0796 3.5 16.8571 3.5 16.625V11.375C3.5 11.1429 3.59219 10.9204 3.75628 10.7563C3.92038 10.5922 4.14294 10.5 4.375 10.5H10.5V4.375C10.5 4.14294 10.5922 3.92038 10.7563 3.75628C10.9204 3.59219 11.1429 3.5 11.375 3.5H16.625C16.8571 3.5 17.0796 3.59219 17.2437 3.75628C17.4078 3.92038 17.5 4.14294 17.5 4.375V10.5H23.625C23.8571 10.5 24.0796 10.5922 24.2437 10.7563C24.4078 10.9204 24.5 11.1429 24.5 11.375V16.625C24.5 16.8571 24.4078 17.0796 24.2437 17.2437C24.0796 17.4078 23.8571 17.5 23.625 17.5H17.5V23.625C17.5 23.8571 17.4078 24.0796 17.2437 24.2437C17.0796 24.4078 16.8571 24.5 16.625 24.5H11.375C11.1429 24.5 10.9204 24.4078 10.7563 24.2437C10.5922 24.0796 10.5 23.8571 10.5 23.625V17.5Z" stroke-width="2" stroke-linecap="round" stroke-linejoin="round"/>
</svg>
