<svg width="28" height="28" viewBox="0 0 28 28" fill="none" xmlns="http://www.w3.org/2000/svg">
<path d="M17.0625 9.625C17.7874 9.625 18.375 9.03737 18.375 8.3125C18.375 7.58763 17.7874 7 17.0625 7C16.3376 7 15.75 7.58763 15.75 8.3125C15.75 9.03737 16.3376 9.625 17.0625 9.625Z" fill="#8247E5"/>
<path d="M1.75 20.125C27.1031 25.6703 24.4781 8.25779 23.7562 4.92185C23.719 4.75623 23.6355 4.60458 23.5154 4.48454C23.3954 4.3645 23.2437 4.28099 23.0781 4.24372C19.7422 3.52185 2.32969 0.89685 7.875 26.25" stroke-width="2" stroke-linecap="round" stroke-linejoin="round"/>
<path d="M22.0173 16.6248C20.6136 16.644 19.2202 16.3814 17.9196 15.8527C16.6191 15.324 15.4378 14.5398 14.4456 13.5466C13.4534 12.5534 12.6704 11.3713 12.143 10.0702C11.6157 8.76908 11.3545 7.37544 11.3752 5.97168" stroke-width="2" stroke-linecap="round" stroke-linejoin="round"/>
</svg>
