<svg width="29" height="29" viewBox="0 0 29 29" fill="none" xmlns="http://www.w3.org/2000/svg">
<path d="M18.0625 9.625C18.7874 9.625 19.375 9.03737 19.375 8.3125C19.375 7.58763 18.7874 7 18.0625 7C17.3376 7 16.75 7.58763 16.75 8.3125C16.75 9.03737 17.3376 9.625 18.0625 9.625Z" fill="#8247E5"/>
<path d="M21.377 18.3642H21.1255C19.7331 18.3642 18.3977 17.811 17.4131 16.8265C16.4286 15.8419 15.8755 14.5065 15.8755 13.1142C14.485 13.1142 13.1513 12.5625 12.167 11.5803C11.1828 10.5981 10.6283 9.26559 10.6255 7.8751C10.6236 7.7911 10.6273 7.70706 10.6364 7.62354" stroke-width="2" stroke-linecap="round" stroke-linejoin="round"/>
<path d="M7.80313 16.7564L1.875 19.2501L8 21.0001L9.75 27.1251L12.2438 21.197C27.3812 20.8361 25.3687 7.75482 24.7562 4.91107C24.718 4.74885 24.6353 4.60049 24.5175 4.48265C24.3996 4.3648 24.2513 4.28212 24.0891 4.24388C21.2453 3.63138 8.16406 1.61888 7.80313 16.7564V16.7564Z" stroke-width="2" stroke-linecap="round" stroke-linejoin="round"/>
</svg>
