<svg width="28" height="28" viewBox="0 0 28 28" fill="none" xmlns="http://www.w3.org/2000/svg">
<path d="M22.75 15.75C22.75 7.875 14 2.625 14 2.625C14 2.625 5.25 7.875 5.25 15.75C5.25 18.0706 6.17187 20.2962 7.81282 21.9372C9.45376 23.5781 11.6794 24.5 14 24.5C16.3206 24.5 18.5462 23.5781 20.1872 21.9372C21.8281 20.2962 22.75 18.0706 22.75 15.75Z" stroke-width="2" stroke-linecap="round" stroke-linejoin="round"/>
<path d="M9.625 20.125C9.625 21.2853 10.0859 22.3981 10.9064 23.2186C11.7269 24.0391 12.8397 24.5 14 24.5C15.1603 24.5 16.2731 24.0391 17.0936 23.2186C17.9141 22.3981 18.375 21.2853 18.375 20.125C18.375 15.75 14 13.125 14 13.125C14 13.125 9.625 15.75 9.625 20.125Z" stroke-width="2" stroke-linecap="round" stroke-linejoin="round"/>
</svg>
