<svg width="28" height="28" viewBox="0 0 28 28" fill="none" xmlns="http://www.w3.org/2000/svg">
<path d="M7.875 2.625H20.125C20.3571 2.625 20.5796 2.71719 20.7437 2.88128C20.9078 3.04538 21 3.26794 21 3.5V8.45469C20.9992 8.64388 20.9379 8.82786 20.825 8.97969L18.55 12.0203C18.4371 12.1721 18.3758 12.3561 18.375 12.5453V24.5C18.375 24.7321 18.2828 24.9546 18.1187 25.1187C17.9546 25.2828 17.7321 25.375 17.5 25.375H10.5C10.2679 25.375 10.0454 25.2828 9.88128 25.1187C9.71719 24.9546 9.625 24.7321 9.625 24.5V12.5453C9.62422 12.3561 9.5629 12.1721 9.45 12.0203L7.175 8.97969C7.0621 8.82786 7.00078 8.64388 7 8.45469V3.5C7 3.26794 7.09219 3.04538 7.25628 2.88128C7.42038 2.71719 7.64294 2.625 7.875 2.625V2.625Z" stroke-width="2" stroke-linecap="round" stroke-linejoin="round"/>
<path d="M14 13.125V16.625" stroke-width="2" stroke-linecap="round" stroke-linejoin="round"/>
<path d="M7 7H21" stroke-width="2" stroke-linecap="round" stroke-linejoin="round"/>
</svg>
