<svg width="28" height="28" viewBox="0 0 28 28" fill="none" xmlns="http://www.w3.org/2000/svg">
<path d="M14 17.0625C15.6914 17.0625 17.0625 15.6914 17.0625 14C17.0625 12.3086 15.6914 10.9375 14 10.9375C12.3086 10.9375 10.9375 12.3086 10.9375 14C10.9375 15.6914 12.3086 17.0625 14 17.0625Z" stroke-width="2" stroke-linecap="round" stroke-linejoin="round"/>
<path d="M12.5781 11.2875C11.7797 9.60312 10.9375 7.50313 10.9375 6.125C10.9375 5.31277 11.2602 4.53382 11.8345 3.95949C12.4088 3.38516 13.1878 3.0625 14 3.0625C14.8122 3.0625 15.5912 3.38516 16.1655 3.95949C16.7398 4.53382 17.0625 5.31277 17.0625 6.125C17.0625 7.50313 16.2203 9.60312 15.4219 11.2875" stroke-width="2" stroke-linecap="round" stroke-linejoin="round"/>
<path d="M10.9374 13.8686C9.078 13.7264 6.83582 13.3983 5.64363 12.7092C4.98829 12.2805 4.52211 11.6169 4.34092 10.855C4.15972 10.0932 4.27729 9.2908 4.66945 8.61293C5.06161 7.93505 5.69856 7.43317 6.44936 7.21045C7.20016 6.98773 8.00776 7.0611 8.70613 7.41547C9.89832 8.0936 11.2983 9.87641 12.3593 11.4186" stroke-width="2" stroke-linecap="round" stroke-linejoin="round"/>
<path d="M12.3591 16.5813C11.2982 18.1235 9.89818 19.9063 8.70599 20.5845C8.3576 20.8124 7.9664 20.9669 7.55629 21.0386C7.14618 21.1102 6.72576 21.0975 6.32074 21.0011C5.91571 20.9048 5.53458 20.7269 5.20062 20.4783C4.86667 20.2297 4.5869 19.9157 4.37843 19.5553C4.16995 19.1949 4.03714 18.7958 3.98811 18.3824C3.93908 17.969 3.97486 17.5499 4.09326 17.1508C4.21166 16.7516 4.41019 16.3808 4.67673 16.061C4.94328 15.7412 5.27223 15.4791 5.64349 15.2907C6.83568 14.6017 9.07786 14.2735 10.9372 14.1313" stroke-width="2" stroke-linecap="round" stroke-linejoin="round"/>
<path d="M15.4219 16.7124C16.2203 18.3968 17.0625 20.4968 17.0625 21.8749C17.0625 22.6871 16.7398 23.4661 16.1655 24.0404C15.5912 24.6147 14.8122 24.9374 14 24.9374C13.1878 24.9374 12.4088 24.6147 11.8345 24.0404C11.2602 23.4661 10.9375 22.6871 10.9375 21.8749C10.9375 20.4968 11.7797 18.3968 12.5781 16.7124" stroke-width="2" stroke-linecap="round" stroke-linejoin="round"/>
<path d="M17.0625 14.1313C18.9219 14.2735 21.1641 14.6017 22.3563 15.2907C23.0116 15.7195 23.4778 16.383 23.659 17.1449C23.8402 17.9068 23.7226 18.7091 23.3304 19.387C22.9383 20.0649 22.3013 20.5668 21.5505 20.7895C20.7997 21.0122 19.9921 20.9389 19.2937 20.5845C18.1016 19.9063 16.7016 18.1235 15.6406 16.5813" stroke-width="2" stroke-linecap="round" stroke-linejoin="round"/>
<path d="M15.6406 11.4186C16.7016 9.87641 18.1016 8.0936 19.2937 7.41547C19.9921 7.0611 20.7997 6.98773 21.5505 7.21045C22.3013 7.43317 22.9383 7.93505 23.3304 8.61293C23.7226 9.2908 23.8402 10.0932 23.659 10.855C23.4778 11.6169 23.0116 12.2805 22.3563 12.7092C21.1641 13.3983 18.9219 13.7264 17.0625 13.8686" stroke-width="2" stroke-linecap="round" stroke-linejoin="round"/>
</svg>
