<svg width="28" height="28" viewBox="0 0 28 28" fill="none" xmlns="http://www.w3.org/2000/svg">
<path d="M4.8125 22.3125C6.50387 22.3125 7.875 20.9414 7.875 19.25C7.875 17.5586 6.50387 16.1875 4.8125 16.1875C3.12113 16.1875 1.75 17.5586 1.75 19.25C1.75 20.9414 3.12113 22.3125 4.8125 22.3125Z" stroke="#8247E5" stroke-width="2" stroke-linecap="round" stroke-linejoin="round"/>
<path d="M21.875 4.375L26.25 8.75L21.875 13.125" stroke="#8247E5" stroke-width="2" stroke-linecap="round" stroke-linejoin="round"/>
<path d="M7.875 19.25H8.75C10.1424 19.25 11.4777 18.6969 12.4623 17.7123C13.4469 16.7277 14 15.3924 14 14C14 12.6076 14.5531 11.2723 15.5377 10.2877C16.5223 9.30312 17.8576 8.75 19.25 8.75H26.25" stroke="#8247E5" stroke-width="2" stroke-linecap="round" stroke-linejoin="round"/>
</svg>
