<svg width="28" height="28" viewBox="0 0 28 28" fill="none" xmlns="http://www.w3.org/2000/svg">
<path d="M14 21.875C15.75 21.875 18.6484 21.8531 21.9734 19.9281C25.2984 18.0031 26.3813 15.6078 26.7203 14.3719C26.7515 14.2606 26.7601 14.1441 26.7455 14.0294C26.7309 13.9147 26.6934 13.8041 26.6353 13.7041C26.5771 13.6042 26.4995 13.5169 26.407 13.4475C26.3146 13.3781 26.2091 13.3279 26.0969 13.3C25.2984 13.0922 23.8984 12.9063 22.1047 13.3328" stroke-width="2" stroke-linecap="round" stroke-linejoin="round"/>
<path d="M5.89578 13.3219C4.10203 12.9062 2.70203 13.0922 1.90359 13.3C1.79138 13.3279 1.6859 13.378 1.59342 13.4475C1.50094 13.5169 1.42333 13.6041 1.3652 13.7041C1.30706 13.804 1.26958 13.9146 1.25497 14.0294C1.24036 14.1441 1.24893 14.2605 1.28015 14.3719C1.61922 15.6078 2.70203 18.0141 6.02703 19.9281C9.35203 21.8422 12.2505 21.875 14.0005 21.875" stroke-width="2" stroke-linecap="round" stroke-linejoin="round"/>
<path d="M14 21.875C14 21.875 18.375 19.4907 18.375 13.125C18.375 8.13755 15.6844 5.60005 14.525 4.72505C14.3728 4.61311 14.1889 4.55273 14 4.55273C13.8111 4.55273 13.6272 4.61311 13.475 4.72505C12.3156 5.60005 9.625 8.13755 9.625 13.125C9.625 19.4907 14 21.875 14 21.875Z" stroke-width="2" stroke-linecap="round" stroke-linejoin="round"/>
<path d="M14 21.8751C15.3125 21.5907 18.8453 19.6001 20.9672 15.9251C23.0891 12.2501 22.5641 9.32979 22.1484 8.0501C22.0849 7.84429 21.9458 7.67015 21.7592 7.56263C21.5725 7.4551 21.3521 7.42216 21.1422 7.47042C19.8864 7.75167 18.7116 8.31661 17.7078 9.12198" stroke-width="2" stroke-linecap="round" stroke-linejoin="round"/>
<path d="M10.2919 9.12198C9.28817 8.31661 8.11338 7.75167 6.85757 7.47042C6.64764 7.42216 6.42723 7.4551 6.24059 7.56263C6.05394 7.67015 5.91488 7.84429 5.85132 8.0501C5.43569 9.32979 4.91069 12.261 7.03257 15.9251C9.15444 19.5892 12.6873 21.5907 13.9998 21.8751" stroke-width="2" stroke-linecap="round" stroke-linejoin="round"/>
</svg>
