<svg width="28" height="28" viewBox="0 0 28 28" fill="none" xmlns="http://www.w3.org/2000/svg">
<path d="M18.4629 20.639L18.8895 23.2203" stroke="#8247E5" stroke-width="2" stroke-linecap="round" stroke-linejoin="round"/>
<path d="M14 21V24.5" stroke="#8247E5" stroke-width="2" stroke-linecap="round" stroke-linejoin="round"/>
<path d="M9.53789 20.639L9.11133 23.2203" stroke="#8247E5" stroke-width="2" stroke-linecap="round" stroke-linejoin="round"/>
<path d="M19.3594 7.52502C23.4391 8.37815 26.25 10.1719 26.25 12.25C26.25 15.1485 20.7703 17.5 14 17.5C7.22969 17.5 1.75 15.1485 1.75 12.25C1.75 10.1719 4.58281 8.36721 8.68438 7.52502" stroke="#8247E5" stroke-width="2" stroke-linecap="round" stroke-linejoin="round"/>
<path d="M7.87502 10.9266C7.87326 11.3216 8.00691 11.7053 8.25369 12.0138C8.50047 12.3222 8.84548 12.5369 9.23127 12.6219C10.7963 12.9717 12.3964 13.1405 14 13.125C15.6036 13.1405 17.2037 12.9717 18.7688 12.6219C19.1546 12.5369 19.4996 12.3222 19.7463 12.0138C19.9931 11.7053 20.1268 11.3216 20.125 10.9266V10.5C20.1251 9.68916 19.9642 8.88639 19.6516 8.13823C19.339 7.39008 18.881 6.71144 18.3041 6.14167C17.7272 5.5719 17.0429 5.12234 16.2909 4.81907C15.5389 4.5158 14.7342 4.36485 13.9235 4.37499C10.5547 4.41874 7.87502 7.22968 7.87502 10.5875V10.9266Z" stroke="#8247E5" stroke-width="2" stroke-linecap="round" stroke-linejoin="round"/>
</svg>
