<svg width="28" height="28" viewBox="0 0 28 28" fill="none" xmlns="http://www.w3.org/2000/svg">
<path d="M20.191 20.1906C15.641 24.7297 9.34101 24.3688 6.30039 23.8547C5.7617 23.7643 5.26462 23.5082 4.87839 23.122C4.49216 22.7358 4.23604 22.2387 4.1457 21.7C3.63164 18.6594 3.2707 12.3594 7.80976 7.80938C12.3488 3.25938 18.6598 3.63125 21.7004 4.14531C22.2391 4.23565 22.7362 4.49178 23.1224 4.878C23.5086 5.26423 23.7647 5.76132 23.8551 6.3C24.3691 9.34063 24.7301 15.6406 20.191 20.1906Z" stroke="#8247E5" stroke-width="2" stroke-linecap="round" stroke-linejoin="round"/>
<path d="M17.5 10.5L10.5 17.5" stroke="#8247E5" stroke-width="2" stroke-linecap="round" stroke-linejoin="round"/>
<path d="M13.6387 11.167L16.8324 14.3607" stroke="#8247E5" stroke-width="2" stroke-linecap="round" stroke-linejoin="round"/>
<path d="M11.167 13.639L14.3607 16.8328" stroke="#8247E5" stroke-width="2" stroke-linecap="round" stroke-linejoin="round"/>
<path d="M16.209 3.95935L24.0402 11.7906" stroke="#8247E5" stroke-width="2" stroke-linecap="round" stroke-linejoin="round"/>
<path d="M3.95898 16.2094L11.7902 24.0406" stroke="#8247E5" stroke-width="2" stroke-linecap="round" stroke-linejoin="round"/>
</svg>
