<svg width="28" height="28" viewBox="0 0 28 28" fill="none" xmlns="http://www.w3.org/2000/svg">
<path d="M16.625 11.8125H20.125" stroke-width="2" stroke-linecap="round" stroke-linejoin="round"/>
<path d="M7.875 11.8125H11.375" stroke-width="2" stroke-linecap="round" stroke-linejoin="round"/>
<path d="M9.625 10.0625V13.5625" stroke-width="2" stroke-linecap="round" stroke-linejoin="round"/>
<path d="M18.8129 6.09216L9.18792 6.12498C7.85108 6.12752 6.55768 6.59999 5.53397 7.45975C4.51026 8.3195 3.82142 9.5118 3.58792 10.8281V10.8281L1.79417 20.0265C1.67899 20.6689 1.77202 21.3312 2.05969 21.917C2.34736 22.5028 2.81463 22.9813 3.39336 23.2829C3.97209 23.5845 4.63203 23.6933 5.27694 23.5935C5.92186 23.4937 6.51804 23.1905 6.97854 22.7281V22.7281L11.7035 17.5L18.8129 17.4672C20.3213 17.4672 21.768 16.8679 22.8346 15.8013C23.9012 14.7347 24.5004 13.2881 24.5004 11.7797C24.5004 10.2712 23.9012 8.82461 22.8346 7.75799C21.768 6.69138 20.3213 6.09216 18.8129 6.09216V6.09216Z" stroke-width="2" stroke-linecap="round" stroke-linejoin="round"/>
<path d="M24.4125 10.7953L26.2062 20.0265C26.3214 20.6689 26.2284 21.3312 25.9407 21.917C25.6531 22.5028 25.1858 22.9813 24.6071 23.2829C24.0283 23.5845 23.3684 23.6933 22.7235 23.5935C22.0786 23.4937 21.4824 23.1905 21.0219 22.7281V22.7281L16.2969 17.4781" stroke-width="2" stroke-linecap="round" stroke-linejoin="round"/>
</svg>
