<svg width="28" height="28" viewBox="0 0 28 28" fill="none" xmlns="http://www.w3.org/2000/svg">
<path d="M6.125 23.625V6.125C6.125 5.66087 6.30937 5.21575 6.63756 4.88756C6.96575 4.55937 7.41087 4.375 7.875 4.375H16.625C17.0891 4.375 17.5342 4.55937 17.8624 4.88756C18.1906 5.21575 18.375 5.66087 18.375 6.125V23.625" stroke="#8247E5" stroke-width="2" stroke-linecap="round" stroke-linejoin="round"/>
<path d="M3.5 23.625H21" stroke="#8247E5" stroke-width="2" stroke-linecap="round" stroke-linejoin="round"/>
<path d="M18.375 12.25H21C21.4641 12.25 21.9092 12.4344 22.2374 12.7626C22.5656 13.0908 22.75 13.5359 22.75 14V18.375C22.75 18.8391 22.9344 19.2842 23.2626 19.6124C23.5908 19.9406 24.0359 20.125 24.5 20.125C24.9641 20.125 25.4092 19.9406 25.7374 19.6124C26.0656 19.2842 26.25 18.8391 26.25 18.375V9.47187C26.248 9.00829 26.0633 8.56419 25.7359 8.23594L23.625 6.125" stroke="#8247E5" stroke-width="2" stroke-linecap="round" stroke-linejoin="round"/>
<path d="M14.875 12.25H9.625" stroke="#8247E5" stroke-width="2" stroke-linecap="round" stroke-linejoin="round"/>
</svg>
