<svg width="28" height="28" viewBox="0 0 28 28" fill="none" xmlns="http://www.w3.org/2000/svg">
<path d="M14.875 7.875V20.125" stroke-width="2" stroke-linecap="round" stroke-linejoin="round"/>
<path d="M24.9375 7.875H19.6875V20.125" stroke-width="2" stroke-linecap="round" stroke-linejoin="round"/>
<path d="M23.625 14H19.6875" stroke-width="2" stroke-linecap="round" stroke-linejoin="round"/>
<path d="M7.87501 13.9999H10.5V16.6249C10.5 17.5532 10.1313 18.4434 9.47488 19.0998C8.8185 19.7562 7.92826 20.1249 7.00001 20.1249C6.07175 20.1249 5.18151 19.7562 4.52513 19.0998C3.86876 18.4434 3.50001 17.5532 3.50001 16.6249V11.3749C3.49833 10.5219 3.80827 9.69753 4.37159 9.05689C4.93491 8.41625 5.71281 8.0034 6.5591 7.89593C7.40538 7.78847 8.26178 7.99379 8.96734 8.4733C9.6729 8.95282 10.179 9.67351 10.3906 10.4999" stroke-width="2" stroke-linecap="round" stroke-linejoin="round"/>
</svg>
