<svg width="28" height="28" viewBox="0 0 28 28" fill="none" xmlns="http://www.w3.org/2000/svg">
<path d="M23.625 8.75H4.375C3.89175 8.75 3.5 9.14175 3.5 9.625V13.125C3.5 13.6082 3.89175 14 4.375 14H23.625C24.1082 14 24.5 13.6082 24.5 13.125V9.625C24.5 9.14175 24.1082 8.75 23.625 8.75Z" stroke-width="2" stroke-linecap="round" stroke-linejoin="round"/>
<path d="M22.75 14V21.875C22.75 22.1071 22.6578 22.3296 22.4937 22.4937C22.3296 22.6578 22.1071 22.75 21.875 22.75H6.125C5.89294 22.75 5.67038 22.6578 5.50628 22.4937C5.34219 22.3296 5.25 22.1071 5.25 21.875V14" stroke-width="2" stroke-linecap="round" stroke-linejoin="round"/>
<path d="M14 8.75V22.75" stroke-width="2" stroke-linecap="round" stroke-linejoin="round"/>
<path d="M18.9547 7.51383C17.7078 8.74977 14 8.74977 14 8.74977C14 8.74977 14 5.04196 15.2359 3.79508C15.7291 3.30194 16.3979 3.0249 17.0953 3.0249C17.7927 3.0249 18.4616 3.30194 18.9547 3.79508C19.4478 4.28822 19.7249 4.95706 19.7249 5.65446C19.7249 6.35186 19.4478 7.02069 18.9547 7.51383V7.51383Z" stroke-width="2" stroke-linecap="round" stroke-linejoin="round"/>
<path d="M9.04557 7.51383C10.2924 8.74977 14.0003 8.74977 14.0003 8.74977C14.0003 8.74977 14.0003 5.04196 12.7643 3.79508C12.2712 3.30194 11.6023 3.0249 10.9049 3.0249C10.2075 3.0249 9.53871 3.30194 9.04557 3.79508C8.55243 4.28822 8.27539 4.95706 8.27539 5.65446C8.27539 6.35186 8.55243 7.02069 9.04557 7.51383V7.51383Z" stroke-width="2" stroke-linecap="round" stroke-linejoin="round"/>
</svg>
