<svg width="28" height="28" viewBox="0 0 28 28" fill="none" xmlns="http://www.w3.org/2000/svg">
<path d="M14 24.5C19.799 24.5 24.5 19.799 24.5 14C24.5 8.20101 19.799 3.5 14 3.5C8.20101 3.5 3.5 8.20101 3.5 14C3.5 19.799 8.20101 24.5 14 24.5Z" stroke-width="2" stroke-linecap="round" stroke-linejoin="round"/>
<path d="M5.4248 20.0592L6.70449 19.2826C6.8314 19.2043 6.9362 19.0949 7.00894 18.9647C7.08168 18.8346 7.11995 18.688 7.12012 18.5389L7.14199 14.5904C7.14374 14.4267 7.19315 14.2671 7.28418 14.1311L9.44981 10.7295C9.51479 10.629 9.59947 10.5427 9.69872 10.4758C9.79797 10.409 9.90974 10.3629 10.0273 10.3404C10.1448 10.3179 10.2657 10.3195 10.3827 10.345C10.4996 10.3705 10.6101 10.4195 10.7076 10.4889L12.8514 12.042C13.0363 12.1709 13.2615 12.2292 13.4857 12.2061L16.9311 11.7357C17.1401 11.707 17.331 11.6018 17.467 11.4404L19.8951 8.64043C20.0391 8.46975 20.1133 8.25099 20.1029 8.02793L19.9826 5.37012" stroke-width="2" stroke-linecap="round" stroke-linejoin="round"/>
<path d="M20.4641 22.2798L19.2829 21.0986C19.1736 20.9894 19.038 20.9103 18.8891 20.8689L16.5376 20.2564C16.331 20.1999 16.1524 20.0696 16.0355 19.8902C15.9186 19.7108 15.8715 19.4947 15.9032 19.2829L16.1548 17.5111C16.1797 17.362 16.2419 17.2217 16.3356 17.1032C16.4293 16.9846 16.5515 16.8917 16.6907 16.8329L20.0157 15.4439C20.1701 15.3795 20.3398 15.3607 20.5046 15.3898C20.6693 15.4189 20.8223 15.4946 20.9454 15.6079L23.6688 18.1017" stroke-width="2" stroke-linecap="round" stroke-linejoin="round"/>
</svg>
