<svg width="28" height="28" viewBox="0 0 28 28" fill="none" xmlns="http://www.w3.org/2000/svg">
<path d="M14 18.375C18.3492 18.375 21.875 14.8492 21.875 10.5C21.875 6.15076 18.3492 2.625 14 2.625C9.65076 2.625 6.125 6.15076 6.125 10.5C6.125 14.8492 9.65076 18.375 14 18.375Z" stroke-width="2" stroke-linecap="round" stroke-linejoin="round"/>
<path d="M22.0389 18.5391C19.9068 20.6712 17.015 21.869 13.9998 21.869C10.9846 21.869 8.09284 20.6712 5.96075 18.5391C3.82866 16.407 2.63086 13.5152 2.63086 10.5C2.63086 7.48477 3.82866 4.59303 5.96075 2.46094" stroke-width="2" stroke-linecap="round" stroke-linejoin="round"/>
<path d="M10.5 25.375H17.5" stroke-width="2" stroke-linecap="round" stroke-linejoin="round"/>
<path d="M14 21.875V25.375" stroke-width="2" stroke-linecap="round" stroke-linejoin="round"/>
</svg>
