<svg width="28" height="28" viewBox="0 0 28 28" fill="none" xmlns="http://www.w3.org/2000/svg">
<path d="M5.33795 10.5C5.20742 10.4997 5.0786 10.4702 4.96094 10.4137C4.84328 10.3572 4.73976 10.275 4.65796 10.1733C4.57616 10.0716 4.51815 9.95286 4.4882 9.82581C4.45824 9.69876 4.45709 9.56662 4.48483 9.43906C5.18483 6.07031 9.17702 3.5 14.0005 3.5C18.8239 3.5 22.8161 6.07031 23.5161 9.43906C23.5438 9.56662 23.5427 9.69876 23.5127 9.82581C23.4827 9.95286 23.4247 10.0716 23.3429 10.1733C23.2611 10.275 23.1576 10.3572 23.04 10.4137C22.9223 10.4702 22.7935 10.4997 22.663 10.5H5.33795Z" stroke-width="2" stroke-linecap="round" stroke-linejoin="round"/>
<path d="M22.75 18.375V20.125C22.75 21.0533 22.3813 21.9435 21.7249 22.5999C21.0685 23.2563 20.1783 23.625 19.25 23.625H8.75C7.82174 23.625 6.9315 23.2563 6.27513 22.5999C5.61875 21.9435 5.25 21.0533 5.25 20.125V18.375" stroke-width="2" stroke-linecap="round" stroke-linejoin="round"/>
<path d="M3.0625 19.25L7.4375 17.5L11.8125 19.25L16.1875 17.5L20.5625 19.25L24.9375 17.5" stroke-width="2" stroke-linecap="round" stroke-linejoin="round"/>
<path d="M2.625 14H25.375" stroke-width="2" stroke-linecap="round" stroke-linejoin="round"/>
</svg>
