<svg width="28" height="28" viewBox="0 0 28 28" fill="none" xmlns="http://www.w3.org/2000/svg">
<path d="M14 10.0625C14 9.48234 13.7695 8.92594 13.3593 8.5157C12.9491 8.10547 12.3927 7.875 11.8125 7.875C11.2323 7.875 10.6759 8.10547 10.2657 8.5157C9.85547 8.92594 9.625 9.48234 9.625 10.0625V12.6875" stroke="#8247E5" stroke-width="2" stroke-linecap="round" stroke-linejoin="round"/>
<path d="M18.375 11.8125V10.0625C18.375 9.48234 18.1445 8.92594 17.7343 8.5157C17.3241 8.10547 16.7677 7.875 16.1875 7.875C15.6073 7.875 15.0509 8.10547 14.6407 8.5157C14.2305 8.92594 14 9.48234 14 10.0625V13.5625" stroke="#8247E5" stroke-width="2" stroke-linecap="round" stroke-linejoin="round"/>
<path d="M9.625 16.1875V12.6875H7.4375C6.85823 12.6904 6.30349 12.9218 5.89388 13.3314C5.48427 13.741 5.25287 14.2957 5.25 14.875V16.625C5.25 18.9456 6.17187 21.1712 7.81282 22.8122C9.45376 24.4531 11.6794 25.375 14 25.375C16.3206 25.375 18.5462 24.4531 20.1872 22.8122C21.8281 21.1712 22.75 18.9456 22.75 16.625V11.8125C22.75 11.2323 22.5195 10.6759 22.1093 10.2657C21.6991 9.85547 21.1427 9.625 20.5625 9.625C19.9823 9.625 19.4259 9.85547 19.0157 10.2657C18.6055 10.6759 18.375 11.2323 18.375 11.8125V13.5625" stroke="#8247E5" stroke-width="2" stroke-linecap="round" stroke-linejoin="round"/>
</svg>
