<svg width="28" height="28" viewBox="0 0 28 28" fill="none" xmlns="http://www.w3.org/2000/svg">
<path d="M8.75 11.375H19.25C20.1783 11.375 21.0685 11.7437 21.7249 12.4001C22.3813 13.0565 22.75 13.9467 22.75 14.875V23.625C22.75 23.8571 22.6578 24.0796 22.4937 24.2437C22.3296 24.4078 22.1071 24.5 21.875 24.5H6.125C5.89294 24.5 5.67038 24.4078 5.50628 24.2437C5.34219 24.0796 5.25 23.8571 5.25 23.625V14.875C5.25 13.9467 5.61875 13.0565 6.27513 12.4001C6.9315 11.7437 7.82174 11.375 8.75 11.375V11.375Z" stroke-width="2" stroke-linecap="round" stroke-linejoin="round"/>
<path d="M8.75002 11.375V9.62502C8.74858 9.2799 8.81549 8.9379 8.94689 8.61877C9.0783 8.29964 9.2716 8.00968 9.51564 7.76564C9.75968 7.5216 10.0496 7.3283 10.3688 7.19689C10.6879 7.06549 11.0299 6.99858 11.375 7.00002H16.625C16.9701 6.99858 17.3121 7.06549 17.6313 7.19689C17.9504 7.3283 18.2404 7.5216 18.4844 7.76564C18.7284 8.00968 18.9217 8.29964 19.0532 8.61877C19.1846 8.9379 19.2515 9.2799 19.25 9.62502V11.375" stroke-width="2" stroke-linecap="round" stroke-linejoin="round"/>
<path d="M20.125 4.375C20.125 3.91087 19.9406 3.46575 19.6124 3.13756C19.2842 2.80937 18.8391 2.625 18.375 2.625H11.375" stroke-width="2" stroke-linecap="round" stroke-linejoin="round"/>
<path d="M14 2.625V7" stroke-width="2" stroke-linecap="round" stroke-linejoin="round"/>
</svg>
