<svg width="28" height="28" viewBox="0 0 28 28" fill="none" xmlns="http://www.w3.org/2000/svg">
<path d="M10.2814 6.71563C10.0199 6.21569 9.96165 5.63405 10.1189 5.09218C10.2761 4.55032 10.6365 4.09015 11.125 3.8078C11.6135 3.52544 12.1922 3.44274 12.7402 3.57698C13.2882 3.71121 13.7631 4.05198 14.0658 4.52813L17.347 10.2047" stroke="#8247E5" stroke-width="2" stroke-linecap="round" stroke-linejoin="round"/>
<path d="M7.37224 10.4123L5.62224 7.38262C5.36072 6.88268 5.30247 6.30104 5.45967 5.75917C5.61687 5.21731 5.97736 4.75714 6.46583 4.47479C6.9543 4.19244 7.53298 4.10974 8.08098 4.24397C8.62899 4.3782 9.10393 4.71898 9.40662 5.19512L13.1254 11.6373" stroke="#8247E5" stroke-width="2" stroke-linecap="round" stroke-linejoin="round"/>
<path d="M16.844 18.0795C16.5558 17.5827 16.3685 17.034 16.2928 16.4647C16.2171 15.8955 16.2544 15.3168 16.4028 14.762C16.5511 14.2072 16.8075 13.6872 17.1573 13.2317C17.507 12.7762 17.9432 12.3942 18.4409 12.1076L17.3471 10.2045C17.0571 9.70117 16.9788 9.10326 17.1295 8.54226C17.2803 7.98127 17.6477 7.50313 18.151 7.21305C18.6543 6.92297 19.2522 6.8447 19.8132 6.99547C20.3742 7.14623 20.8524 7.51367 21.1424 8.01696L23.3299 11.8123C24.4903 13.8225 24.8045 16.2114 24.2035 18.4533C23.6025 20.6953 22.1355 22.6066 20.1253 23.767C18.115 24.9273 15.7261 25.2415 13.4842 24.6405C11.2423 24.0395 9.33089 22.5725 8.17057 20.5623L3.57682 12.5998C3.43318 12.3506 3.34004 12.0755 3.30271 11.7903C3.26537 11.5051 3.28458 11.2154 3.35923 10.9376C3.50999 10.3766 3.87743 9.89845 4.38072 9.60837C4.88401 9.31829 5.48192 9.24002 6.04292 9.39078C6.60392 9.54154 7.08205 9.90898 7.37213 10.4123L9.77838 14.5795" stroke="#8247E5" stroke-width="2" stroke-linecap="round" stroke-linejoin="round"/>
<path d="M8.87031 26.25C7.38411 25.2249 6.14694 23.8794 5.25 22.3125" stroke="#8247E5" stroke-width="2" stroke-linecap="round" stroke-linejoin="round"/>
<path d="M19.25 3.39065C20.2484 3.38794 21.2297 3.64963 22.0942 4.14912C22.9587 4.6486 23.6756 5.36807 24.1719 6.2344" stroke="#8247E5" stroke-width="2" stroke-linecap="round" stroke-linejoin="round"/>
</svg>
