<svg width="28" height="28" viewBox="0 0 28 28" fill="none" xmlns="http://www.w3.org/2000/svg">
<path d="M18.3749 13.125V7.4375C18.3749 6.85734 18.6053 6.30094 19.0156 5.8907C19.4258 5.48047 19.9822 5.25 20.5624 5.25C21.1425 5.25 21.6989 5.48047 22.1092 5.8907C22.5194 6.30094 22.7499 6.85734 22.7499 7.4375V16.625C22.7499 17.7741 22.5235 18.9119 22.0838 19.9735C21.6441 21.0351 20.9996 21.9997 20.1871 22.8122C19.3745 23.6247 18.4099 24.2692 17.3484 24.7089C16.2868 25.1487 15.1489 25.375 13.9999 25.375C9.16549 25.375 6.99987 22.75 3.43424 15.2359C3.14416 14.7326 3.0659 14.1347 3.21666 13.5737C3.36742 13.0127 3.73486 12.5346 4.23815 12.2445C4.74144 11.9545 5.33935 11.8762 5.90035 12.0269C6.46135 12.1777 6.93948 12.5451 7.22956 13.0484L9.62487 17.2047V5.6875C9.62487 5.10734 9.85534 4.55094 10.2656 4.1407C10.6758 3.73047 11.2322 3.5 11.8124 3.5C12.3925 3.5 12.9489 3.73047 13.3592 4.1407C13.7694 4.55094 13.9999 5.10734 13.9999 5.6875V13.125" stroke="#8247E5" stroke-width="2" stroke-linecap="round" stroke-linejoin="round"/>
<path d="M18.375 7.4375V3.9375C18.375 3.35734 18.1445 2.80094 17.7343 2.3907C17.3241 1.98047 16.7677 1.75 16.1875 1.75C15.6073 1.75 15.0509 1.98047 14.6407 2.3907C14.2305 2.80094 14 3.35734 14 3.9375V5.6875" stroke="#8247E5" stroke-width="2" stroke-linecap="round" stroke-linejoin="round"/>
</svg>
