<svg width="28" height="28" viewBox="0 0 28 28" fill="none" xmlns="http://www.w3.org/2000/svg">
<path d="M22.8372 7.875H5.1622C4.94689 7.87601 4.73932 7.95539 4.57829 8.09831C4.41725 8.24123 4.31378 8.4379 4.2872 8.65156L2.73407 22.6516C2.72026 22.7735 2.73227 22.8971 2.76932 23.0141C2.80637 23.1311 2.86763 23.2391 2.94913 23.3309C3.03062 23.4227 3.13052 23.4963 3.24234 23.547C3.35415 23.5977 3.47538 23.6242 3.59813 23.625H24.4013C24.524 23.6242 24.6452 23.5977 24.7571 23.547C24.8689 23.4963 24.9688 23.4227 25.0503 23.3309C25.1318 23.2391 25.193 23.1311 25.2301 23.0141C25.2671 22.8971 25.2791 22.7735 25.2653 22.6516L23.7122 8.65156C23.6856 8.4379 23.5821 8.24123 23.4211 8.09831C23.2601 7.95539 23.0525 7.87601 22.8372 7.875V7.875Z" stroke="#8247E5" stroke-width="2" stroke-linecap="round" stroke-linejoin="round"/>
<path d="M9.625 7.875C9.625 6.71468 10.0859 5.60188 10.9064 4.78141C11.7269 3.96094 12.8397 3.5 14 3.5C15.1603 3.5 16.2731 3.96094 17.0936 4.78141C17.9141 5.60188 18.375 6.71468 18.375 7.875" stroke="#8247E5" stroke-width="2" stroke-linecap="round" stroke-linejoin="round"/>
</svg>
