<svg width="28" height="28" viewBox="0 0 28 28" fill="none" xmlns="http://www.w3.org/2000/svg">
<path d="M22.75 15.75H5.25C4.76675 15.75 4.375 16.1418 4.375 16.625V21.875C4.375 22.3582 4.76675 22.75 5.25 22.75H22.75C23.2332 22.75 23.625 22.3582 23.625 21.875V16.625C23.625 16.1418 23.2332 15.75 22.75 15.75Z" stroke="#8247E5" stroke-width="2" stroke-linecap="round" stroke-linejoin="round"/>
<path d="M22.75 5.25H5.25C4.76675 5.25 4.375 5.64175 4.375 6.125V11.375C4.375 11.8582 4.76675 12.25 5.25 12.25H22.75C23.2332 12.25 23.625 11.8582 23.625 11.375V6.125C23.625 5.64175 23.2332 5.25 22.75 5.25Z" stroke="#8247E5" stroke-width="2" stroke-linecap="round" stroke-linejoin="round"/>
<path d="M19.6875 10.0625C20.4124 10.0625 21 9.47487 21 8.75C21 8.02513 20.4124 7.4375 19.6875 7.4375C18.9626 7.4375 18.375 8.02513 18.375 8.75C18.375 9.47487 18.9626 10.0625 19.6875 10.0625Z" fill="#8247E5"/>
<path d="M19.6875 20.5625C20.4124 20.5625 21 19.9749 21 19.25C21 18.5251 20.4124 17.9375 19.6875 17.9375C18.9626 17.9375 18.375 18.5251 18.375 19.25C18.375 19.9749 18.9626 20.5625 19.6875 20.5625Z" fill="#8247E5"/>
</svg>
