<svg width="28" height="28" viewBox="0 0 28 28" fill="none" xmlns="http://www.w3.org/2000/svg">
<path d="M24.6641 14.8749H21.1641C20.6999 14.8749 20.2548 15.0593 19.9266 15.3874C19.5984 15.7156 19.4141 16.1607 19.4141 16.6249V20.9999C19.4141 21.464 19.5984 21.9091 19.9266 22.2373C20.2548 22.5655 20.6999 22.7499 21.1641 22.7499H22.9141C23.3782 22.7499 23.8233 22.5655 24.1515 22.2373C24.4797 21.9091 24.6641 21.464 24.6641 20.9999V14.8749ZM24.6641 14.8749C24.6641 13.4886 24.3896 12.116 23.8565 10.8364C23.3234 9.55673 22.5421 8.39531 21.5578 7.41915C20.5735 6.44298 19.4057 5.67139 18.1216 5.14889C16.8376 4.62639 15.4628 4.36332 14.0766 4.37488C12.6913 4.36477 11.3176 4.62891 10.0349 5.15206C8.7521 5.67521 7.58554 6.44703 6.6024 7.42305C5.61926 8.39908 4.83898 9.56 4.30653 10.8389C3.77407 12.1179 3.49996 13.4895 3.5 14.8749V20.9999C3.5 21.464 3.68437 21.9091 4.01256 22.2373C4.34075 22.5655 4.78587 22.7499 5.25 22.7499H7C7.46413 22.7499 7.90925 22.5655 8.23744 22.2373C8.56563 21.9091 8.75 21.464 8.75 20.9999V16.6249C8.75 16.1607 8.56563 15.7156 8.23744 15.3874C7.90925 15.0593 7.46413 14.8749 7 14.8749H3.5" stroke-width="2" stroke-linecap="round" stroke-linejoin="round"/>
</svg>
