<svg width="28" height="28" viewBox="0 0 28 28" fill="none" xmlns="http://www.w3.org/2000/svg">
<path d="M18.375 8.75H26.25" stroke="#8247E5" stroke-width="2" stroke-linecap="round" stroke-linejoin="round"/>
<path d="M18.375 19.25H26.25" stroke="#8247E5" stroke-width="2" stroke-linecap="round" stroke-linejoin="round"/>
<path d="M18.375 12.25H26.25" stroke="#8247E5" stroke-width="2" stroke-linecap="round" stroke-linejoin="round"/>
<path d="M18.375 15.75H26.25" stroke="#8247E5" stroke-width="2" stroke-linecap="round" stroke-linejoin="round"/>
<path d="M9.62519 21.875C8.58641 21.875 7.55789 21.6695 6.59887 21.2704C5.63985 20.8712 4.76928 20.2862 4.0373 19.5492C3.30532 18.8121 2.72639 17.9375 2.33387 16.9757C1.94134 16.014 1.74298 14.9841 1.75019 13.9453C1.783 9.60312 5.38144 6.125 9.72363 6.125H14.0002C14.2323 6.125 14.4548 6.21719 14.6189 6.38128C14.783 6.54538 14.8752 6.76794 14.8752 7V21C14.8752 21.2321 14.783 21.4546 14.6189 21.6187C14.4548 21.7828 14.2323 21.875 14.0002 21.875H9.62519Z" stroke="#8247E5" stroke-width="2" stroke-linecap="round" stroke-linejoin="round"/>
</svg>
