<svg width="28" height="28" viewBox="0 0 28 28" fill="none" xmlns="http://www.w3.org/2000/svg">
<path d="M24.6641 13.9999H21.1641C20.6999 13.9999 20.2548 14.1843 19.9266 14.5124C19.5984 14.8406 19.4141 15.2857 19.4141 15.7499V20.1249C19.4141 20.589 19.5984 21.0341 19.9266 21.3623C20.2548 21.6905 20.6999 21.8749 21.1641 21.8749H22.9141C23.3782 21.8749 23.8233 21.6905 24.1515 21.3623C24.4797 21.0341 24.6641 20.589 24.6641 20.1249V13.9999ZM24.6641 13.9999C24.6641 12.6136 24.3896 11.241 23.8565 9.96139C23.3234 8.68173 22.5421 7.52031 21.5578 6.54415C20.5735 5.56798 19.4057 4.79639 18.1216 4.27389C16.8376 3.75139 15.4628 3.48832 14.0766 3.49988C12.6913 3.48977 11.3176 3.75391 10.0349 4.27706C8.7521 4.80021 7.58554 5.57203 6.6024 6.54805C5.61926 7.52408 4.83898 8.685 4.30653 9.96394C3.77407 11.2429 3.49996 12.6145 3.5 13.9999V20.1249C3.5 20.589 3.68437 21.0341 4.01256 21.3623C4.34075 21.6905 4.78587 21.8749 5.25 21.8749H7C7.46413 21.8749 7.90925 21.6905 8.23744 21.3623C8.56563 21.0341 8.75 20.589 8.75 20.1249V15.7499C8.75 15.2857 8.56563 14.8406 8.23744 14.5124C7.90925 14.1843 7.46413 13.9999 7 13.9999H3.5" stroke-width="2" stroke-linecap="round" stroke-linejoin="round"/>
<path d="M24.6641 20.125V22.75C24.6641 23.6783 24.2953 24.5685 23.6389 25.2249C22.9826 25.8813 22.0923 26.25 21.1641 26.25H14.875" stroke-width="2" stroke-linecap="round" stroke-linejoin="round"/>
</svg>
