<svg width="28" height="28" viewBox="0 0 28 28" fill="none" xmlns="http://www.w3.org/2000/svg">
<path d="M13.8141 7.45938C13.2323 6.3214 12.2842 5.41254 11.1226 4.87937C9.96109 4.34621 8.65381 4.21981 7.41163 4.52056C6.16945 4.82131 5.06478 5.53168 4.27575 6.53712C3.48672 7.54255 3.05934 8.78444 3.06252 10.0625C3.06252 17.5 14 23.625 14 23.625C14 23.625 24.9375 17.5 24.9375 10.0625C24.9388 8.93665 24.606 7.83574 23.9811 6.89921C23.3563 5.96268 22.4675 5.23267 21.4274 4.80164C20.3874 4.37062 19.2428 4.25798 18.1386 4.47798C17.0345 4.69799 16.0205 5.24075 15.225 6.0375L11.725 9.5375L15.225 13.0375L13.475 14.7875" stroke-width="2" stroke-linecap="round" stroke-linejoin="round"/>
</svg>
