<svg width="28" height="28" viewBox="0 0 28 28" fill="none" xmlns="http://www.w3.org/2000/svg">
<path d="M14 24.5C19.799 24.5 24.5 19.799 24.5 14C24.5 8.20101 19.799 3.5 14 3.5C8.20101 3.5 3.5 8.20101 3.5 14C3.5 19.799 8.20101 24.5 14 24.5Z" stroke="#8247E5" stroke-width="2" stroke-linecap="round" stroke-linejoin="round"/>
<path d="M11.375 15.75V10.5L16.625 7.875V15.75" stroke="#8247E5" stroke-width="2" stroke-linecap="round" stroke-linejoin="round"/>
<path d="M18.375 23.5484V16.625C18.375 16.3929 18.2828 16.1704 18.1187 16.0063C17.9546 15.8422 17.7321 15.75 17.5 15.75H10.5C10.2679 15.75 10.0454 15.8422 9.88128 16.0063C9.71719 16.1704 9.625 16.3929 9.625 16.625V23.5484" stroke="#8247E5" stroke-width="2" stroke-linecap="round" stroke-linejoin="round"/>
</svg>
