<svg width="28" height="28" viewBox="0 0 28 28" fill="none" xmlns="http://www.w3.org/2000/svg">
<path d="M19.25 13.125C19.25 14.5174 18.6969 15.8527 17.7123 16.8373C16.7277 17.8219 15.3924 18.375 14 18.375" stroke-width="2" stroke-linecap="round" stroke-linejoin="round"/>
<path d="M7 21.8313C8.97667 23.6036 11.5535 24.5577 14.2078 24.5C19.8406 24.3906 24.4234 19.7859 24.5 14.1531C24.5203 12.7614 24.2637 11.3796 23.7451 10.0879C23.2265 8.79626 22.4563 7.62061 21.4793 6.62932C20.5022 5.63803 19.3379 4.85088 18.0539 4.31366C16.7699 3.77643 15.3919 3.49985 14 3.5H13.125V7L1.75 14L3.25937 16.0891C3.54593 16.4878 3.93902 16.7978 4.3936 16.9835C4.84819 17.1692 5.34589 17.2231 5.82969 17.1391C7.74375 16.8219 11.0906 16.625 14 18.375L10.15 23.7672" stroke-width="2" stroke-linecap="round" stroke-linejoin="round"/>
<path d="M13.5625 12.25C14.2874 12.25 14.875 11.6624 14.875 10.9375C14.875 10.2126 14.2874 9.625 13.5625 9.625C12.8376 9.625 12.25 10.2126 12.25 10.9375C12.25 11.6624 12.8376 12.25 13.5625 12.25Z" fill="#8247E5"/>
</svg>
