<svg width="28" height="28" viewBox="0 0 28 28" fill="none" xmlns="http://www.w3.org/2000/svg">
<path d="M6.48584 4.375H21.514C21.6875 4.37529 21.857 4.42716 22.0009 4.52401C22.1449 4.62086 22.2568 4.75832 22.3225 4.91893C22.3881 5.07953 22.4045 5.25603 22.3696 5.42599C22.3347 5.59595 22.2501 5.75169 22.1265 5.87344L13.9999 14L5.87334 5.87344C5.74972 5.75169 5.66508 5.59595 5.63019 5.42599C5.59529 5.25603 5.61171 5.07953 5.67736 4.91893C5.74301 4.75832 5.85492 4.62086 5.99888 4.52401C6.14284 4.42716 6.31234 4.37529 6.48584 4.375V4.375Z" stroke="#8247E5" stroke-width="2" stroke-linecap="round" stroke-linejoin="round"/>
<path d="M6.48584 23.625H21.514C21.6875 23.6247 21.857 23.5728 22.0009 23.476C22.1449 23.3791 22.2568 23.2417 22.3225 23.0811C22.3881 22.9205 22.4045 22.744 22.3696 22.574C22.3347 22.4041 22.2501 22.2483 22.1265 22.1266L13.9999 14L5.87334 22.1266C5.74972 22.2483 5.66508 22.4041 5.63019 22.574C5.59529 22.744 5.61171 22.9205 5.67736 23.0811C5.74301 23.2417 5.85492 23.3791 5.99888 23.476C6.14284 23.5728 6.31234 23.6247 6.48584 23.625Z" stroke="#8247E5" stroke-width="2" stroke-linecap="round" stroke-linejoin="round"/>
<path d="M19.25 8.75H8.75" stroke="#8247E5" stroke-width="2" stroke-linecap="round" stroke-linejoin="round"/>
<path d="M14 14V18.375" stroke="#8247E5" stroke-width="2" stroke-linecap="round" stroke-linejoin="round"/>
</svg>
