<svg width="28" height="28" viewBox="0 0 28 28" fill="none" xmlns="http://www.w3.org/2000/svg">
<path d="M23.625 23.6251V12.6329C23.623 12.5118 23.5969 12.3924 23.548 12.2815C23.4992 12.1707 23.4287 12.0708 23.3406 11.9876L14.5906 4.03605C14.4293 3.88848 14.2186 3.80664 14 3.80664C13.7814 3.80664 13.5707 3.88848 13.4094 4.03605L4.65937 11.9876C4.57133 12.0708 4.50081 12.1707 4.45197 12.2815C4.40313 12.3924 4.37696 12.5118 4.375 12.6329V23.6251" stroke="#8247E5" stroke-width="2" stroke-linecap="round" stroke-linejoin="round"/>
<path d="M1.75 23.625H26.25" stroke="#8247E5" stroke-width="2" stroke-linecap="round" stroke-linejoin="round"/>
<path d="M16.625 23.625V17.5C16.625 17.2679 16.5328 17.0454 16.3687 16.8813C16.2046 16.7172 15.9821 16.625 15.75 16.625H12.25C12.0179 16.625 11.7954 16.7172 11.6313 16.8813C11.4672 17.0454 11.375 17.2679 11.375 17.5V23.625" stroke="#8247E5" stroke-width="2" stroke-linecap="round" stroke-linejoin="round"/>
</svg>
