<svg width="28" height="28" viewBox="0 0 28 28" fill="none" xmlns="http://www.w3.org/2000/svg">
<path d="M23.625 5.25H4.375C3.89175 5.25 3.5 5.64175 3.5 6.125V21.875C3.5 22.3582 3.89175 22.75 4.375 22.75H23.625C24.1082 22.75 24.5 22.3582 24.5 21.875V6.125C24.5 5.64175 24.1082 5.25 23.625 5.25Z" stroke="#8247E5" stroke-width="2" stroke-linecap="round" stroke-linejoin="round"/>
<path d="M3.5 18.375L9.00156 12.8735C9.08298 12.7908 9.18003 12.7251 9.28706 12.6803C9.39409 12.6355 9.50897 12.6124 9.625 12.6124C9.74103 12.6124 9.85591 12.6355 9.96294 12.6803C10.07 12.7251 10.167 12.7908 10.2484 12.8735L15.1266 17.7516C15.208 17.8343 15.305 17.8999 15.4121 17.9447C15.5191 17.9895 15.634 18.0126 15.75 18.0126C15.866 18.0126 15.9809 17.9895 16.0879 17.9447C16.195 17.8999 16.292 17.8343 16.3734 17.7516L18.6266 15.4985C18.708 15.4158 18.805 15.3501 18.9121 15.3053C19.0191 15.2605 19.134 15.2374 19.25 15.2374C19.366 15.2374 19.4809 15.2605 19.5879 15.3053C19.695 15.3501 19.792 15.4158 19.8734 15.4985L24.5 20.125" stroke="#8247E5" stroke-width="2" stroke-linecap="round" stroke-linejoin="round"/>
<path d="M17.0625 12.25C17.7874 12.25 18.375 11.6624 18.375 10.9375C18.375 10.2126 17.7874 9.625 17.0625 9.625C16.3376 9.625 15.75 10.2126 15.75 10.9375C15.75 11.6624 16.3376 12.25 17.0625 12.25Z" fill="#8247E5"/>
</svg>
