<svg width="28" height="28" viewBox="0 0 28 28" fill="none" xmlns="http://www.w3.org/2000/svg">
<path d="M24.0625 19.25V22.75C24.0625 22.9821 23.9703 23.2046 23.8062 23.3687C23.6421 23.5328 23.4196 23.625 23.1875 23.625H20.5625C20.3304 23.625 20.1079 23.5328 19.9438 23.3687C19.7797 23.2046 19.6875 22.9821 19.6875 22.75V19.25" stroke-width="2" stroke-linecap="round" stroke-linejoin="round"/>
<path d="M8.3125 19.25V22.75C8.3125 22.9821 8.22031 23.2046 8.05622 23.3687C7.89212 23.5328 7.66956 23.625 7.4375 23.625H4.8125C4.58044 23.625 4.35788 23.5328 4.19378 23.3687C4.02969 23.2046 3.9375 22.9821 3.9375 22.75V19.25" stroke-width="2" stroke-linecap="round" stroke-linejoin="round"/>
<path d="M1.75 10.5H26.25" stroke-width="2" stroke-linecap="round" stroke-linejoin="round"/>
<path d="M15.75 14V19.25" stroke-width="2" stroke-linecap="round" stroke-linejoin="round"/>
<path d="M12.25 14V19.25" stroke-width="2" stroke-linecap="round" stroke-linejoin="round"/>
<path d="M24.0625 19.25H3.9375V10.5L4.70312 5.12969C4.73211 4.92092 4.83547 4.72963 4.99421 4.59097C5.15296 4.45232 5.35642 4.37563 5.56719 4.375H22.4328C22.6436 4.37563 22.847 4.45232 23.0058 4.59097C23.1645 4.72963 23.2679 4.92092 23.2969 5.12969L24.0625 10.5V19.25Z" stroke-width="2" stroke-linecap="round" stroke-linejoin="round"/>
<path d="M7.875 15.75C8.59987 15.75 9.1875 15.1624 9.1875 14.4375C9.1875 13.7126 8.59987 13.125 7.875 13.125C7.15013 13.125 6.5625 13.7126 6.5625 14.4375C6.5625 15.1624 7.15013 15.75 7.875 15.75Z" fill="#8247E5"/>
<path d="M20.125 15.75C20.8499 15.75 21.4375 15.1624 21.4375 14.4375C21.4375 13.7126 20.8499 13.125 20.125 13.125C19.4001 13.125 18.8125 13.7126 18.8125 14.4375C18.8125 15.1624 19.4001 15.75 20.125 15.75Z" fill="#8247E5"/>
</svg>
