<svg width="28" height="28" viewBox="0 0 28 28" fill="none" xmlns="http://www.w3.org/2000/svg">
<path d="M7.57989 4.375H20.4205C20.5917 4.37494 20.7593 4.4245 20.9029 4.51767C21.0466 4.61084 21.1601 4.74364 21.2299 4.9L25.7252 15.4C25.7832 15.5329 25.8073 15.6781 25.7952 15.8226C25.7832 15.9671 25.7355 16.1063 25.6563 16.2278C25.5771 16.3493 25.469 16.4491 25.3417 16.5185C25.2143 16.5878 25.0718 16.6244 24.9268 16.625H3.07364C2.92865 16.6244 2.78607 16.5878 2.65873 16.5185C2.5314 16.4491 2.42328 16.3493 2.34411 16.2278C2.26494 16.1063 2.21719 15.9671 2.20516 15.8226C2.19314 15.6781 2.2172 15.5329 2.2752 15.4L6.77051 4.9C6.84027 4.74364 6.95383 4.61084 7.09747 4.51767C7.24111 4.4245 7.40868 4.37494 7.57989 4.375V4.375Z" stroke-width="2" stroke-linecap="round" stroke-linejoin="round"/>
<path d="M14 16.625V23.625" stroke-width="2" stroke-linecap="round" stroke-linejoin="round"/>
<path d="M10.5 23.625H17.5" stroke-width="2" stroke-linecap="round" stroke-linejoin="round"/>
<path d="M21.875 16.625V21" stroke-width="2" stroke-linecap="round" stroke-linejoin="round"/>
</svg>
