<svg width="28" height="28" viewBox="0 0 28 28" fill="none" xmlns="http://www.w3.org/2000/svg">
<path d="M4.375 19.25V7.875C4.375 7.41087 4.55937 6.96575 4.88756 6.63756C5.21575 6.30937 5.66087 6.125 6.125 6.125H21.875C22.3391 6.125 22.7842 6.30937 23.1124 6.63756C23.4406 6.96575 23.625 7.41087 23.625 7.875V19.25" stroke-width="2" stroke-linecap="round" stroke-linejoin="round"/>
<path d="M2.625 19.25H25.375V21C25.375 21.4641 25.1906 21.9092 24.8624 22.2374C24.5342 22.5656 24.0891 22.75 23.625 22.75H4.375C3.91087 22.75 3.46575 22.5656 3.13756 22.2374C2.80937 21.9092 2.625 21.4641 2.625 21V19.25Z" stroke-width="2" stroke-linecap="round" stroke-linejoin="round"/>
<path d="M15.75 9.625H12.25" stroke-width="2" stroke-linecap="round" stroke-linejoin="round"/>
</svg>
