<svg width="28" height="28" viewBox="0 0 28 28" fill="none" xmlns="http://www.w3.org/2000/svg">
<path d="M14 24.5C19.799 24.5 24.5 19.799 24.5 14C24.5 8.20101 19.799 3.5 14 3.5C8.20101 3.5 3.5 8.20101 3.5 14C3.5 19.799 8.20101 24.5 14 24.5Z" stroke-width="2" stroke-linecap="round" stroke-linejoin="round"/>
<path d="M14 18.375C16.4162 18.375 18.375 16.4162 18.375 14C18.375 11.5838 16.4162 9.625 14 9.625C11.5838 9.625 9.625 11.5838 9.625 14C9.625 16.4162 11.5838 18.375 14 18.375Z" stroke-width="2" stroke-linecap="round" stroke-linejoin="round"/>
<path d="M10.9045 10.9045L6.57324 6.57324" stroke-width="2" stroke-linecap="round" stroke-linejoin="round"/>
<path d="M17.0957 10.9045L21.427 6.57324" stroke-width="2" stroke-linecap="round" stroke-linejoin="round"/>
<path d="M17.0957 17.0953L21.427 21.4266" stroke-width="2" stroke-linecap="round" stroke-linejoin="round"/>
<path d="M10.9045 17.0953L6.57324 21.4266" stroke-width="2" stroke-linecap="round" stroke-linejoin="round"/>
</svg>
