<svg width="28" height="28" viewBox="0 0 28 28" fill="none" xmlns="http://www.w3.org/2000/svg">
<path d="M4.375 24.5C5.82475 24.5 7 23.3247 7 21.875C7 20.4253 5.82475 19.25 4.375 19.25C2.92525 19.25 1.75 20.4253 1.75 21.875C1.75 23.3247 2.92525 24.5 4.375 24.5Z" stroke-width="2" stroke-linecap="round" stroke-linejoin="round"/>
<path d="M10.5 13.125C11.9497 13.125 13.125 11.9497 13.125 10.5C13.125 9.05025 11.9497 7.875 10.5 7.875C9.05025 7.875 7.875 9.05025 7.875 10.5C7.875 11.9497 9.05025 13.125 10.5 13.125Z" stroke-width="2" stroke-linecap="round" stroke-linejoin="round"/>
<path d="M17.5 20.125C18.9497 20.125 20.125 18.9497 20.125 17.5C20.125 16.0503 18.9497 14.875 17.5 14.875C16.0503 14.875 14.875 16.0503 14.875 17.5C14.875 18.9497 16.0503 20.125 17.5 20.125Z" stroke-width="2" stroke-linecap="round" stroke-linejoin="round"/>
<path d="M23.625 8.75C25.0747 8.75 26.25 7.57475 26.25 6.125C26.25 4.67525 25.0747 3.5 23.625 3.5C22.1753 3.5 21 4.67525 21 6.125C21 7.57475 22.1753 8.75 23.625 8.75Z" stroke-width="2" stroke-linecap="round" stroke-linejoin="round"/>
<path d="M9.25332 12.8076L5.62207 19.567" stroke-width="2" stroke-linecap="round" stroke-linejoin="round"/>
<path d="M15.6406 15.6406L12.3594 12.3594" stroke-width="2" stroke-linecap="round" stroke-linejoin="round"/>
<path d="M22.3783 8.43262L18.7471 15.192" stroke-width="2" stroke-linecap="round" stroke-linejoin="round"/>
</svg>
