<svg width="28" height="28" viewBox="0 0 28 28" fill="none" xmlns="http://www.w3.org/2000/svg">
<path d="M8.75 14H19.25" stroke="#8247E5" stroke-width="2" stroke-linecap="round" stroke-linejoin="round"/>
<path d="M11.375 19.25H7C5.60761 19.25 4.27226 18.6969 3.28769 17.7123C2.30312 16.7277 1.75 15.3924 1.75 14C1.75 12.6076 2.30312 11.2723 3.28769 10.2877C4.27226 9.30312 5.60761 8.75 7 8.75H11.375" stroke="#8247E5" stroke-width="2" stroke-linecap="round" stroke-linejoin="round"/>
<path d="M16.625 19.25H21C22.3924 19.25 23.7277 18.6969 24.7123 17.7123C25.6969 16.7277 26.25 15.3924 26.25 14C26.25 12.6076 25.6969 11.2723 24.7123 10.2877C23.7277 9.30312 22.3924 8.75 21 8.75H16.625" stroke="#8247E5" stroke-width="2" stroke-linecap="round" stroke-linejoin="round"/>
</svg>
