<svg width="28" height="28" viewBox="0 0 28 28" fill="none" xmlns="http://www.w3.org/2000/svg">
<path d="M15.8598 19.5672L12.7645 22.6625C12.2768 23.1501 11.6979 23.5369 11.0608 23.8009C10.4237 24.0648 9.7408 24.2006 9.05118 24.2006C7.65843 24.2006 6.32272 23.6473 5.3379 22.6625C4.35307 21.6777 3.7998 20.342 3.7998 18.9492C3.7998 17.5565 4.35307 16.2208 5.3379 15.2359L8.43321 12.1406" stroke-width="2" stroke-linecap="round" stroke-linejoin="round"/>
<path d="M19.5672 15.8593L22.6625 12.764C23.6473 11.7791 24.2006 10.4434 24.2006 9.05069C24.2006 7.65794 23.6473 6.32223 22.6625 5.33741C21.6777 4.35258 20.342 3.79932 18.9492 3.79932C17.5565 3.79932 16.2208 4.35258 15.2359 5.33741L12.1406 8.43272" stroke-width="2" stroke-linecap="round" stroke-linejoin="round"/>
<path d="M15.8598 19.5672L12.7645 22.6625C12.2768 23.1501 11.6979 23.5369 11.0608 23.8009C10.4237 24.0648 9.7408 24.2006 9.05118 24.2006C7.65843 24.2006 6.32272 23.6473 5.3379 22.6625C4.35307 21.6777 3.7998 20.342 3.7998 18.9492C3.7998 17.5565 4.35307 16.2208 5.3379 15.2359L8.43321 12.1406" stroke-width="2" stroke-linecap="round" stroke-linejoin="round"/>
<path d="M19.5672 15.8593L22.6625 12.764C23.6473 11.7791 24.2006 10.4434 24.2006 9.05069C24.2006 7.65794 23.6473 6.32223 22.6625 5.33741C21.6777 4.35258 20.342 3.79932 18.9492 3.79932C17.5565 3.79932 16.2208 4.35258 15.2359 5.33741L12.1406 8.43272" stroke-width="2" stroke-linecap="round" stroke-linejoin="round"/>
</svg>
