<svg width="28" height="28" viewBox="0 0 28 28" fill="none" xmlns="http://www.w3.org/2000/svg">
<path d="M13.3768 7.80945L15.5424 5.64382C16.4593 4.80812 17.6629 4.35783 18.9032 4.38655C20.1435 4.41526 21.325 4.92076 22.2023 5.79801C23.0795 6.67525 23.585 7.85678 23.6137 9.09705C23.6424 10.3373 23.1922 11.541 22.3564 12.4579L19.2611 15.5423C18.815 15.99 18.2849 16.3453 17.7012 16.5877C17.1175 16.8302 16.4916 16.955 15.8596 16.955C15.2275 16.955 14.6017 16.8302 14.0179 16.5877C13.4342 16.3453 12.9041 15.99 12.458 15.5423" stroke-width="2" stroke-linecap="round" stroke-linejoin="round"/>
<path d="M14.623 20.1904L12.4574 22.3561C11.5405 23.1918 10.3368 23.6421 9.09657 23.6133C7.85629 23.5846 6.67476 23.0791 5.79752 22.2019C4.92027 21.3246 4.41477 20.1431 4.38606 18.9028C4.35735 17.6626 4.80763 16.4589 5.64334 15.542L8.73865 12.4576C9.18475 12.0099 9.71486 11.6546 10.2986 11.4121C10.8823 11.1697 11.5081 11.0449 12.1402 11.0449C12.7723 11.0449 13.3981 11.1697 13.9818 11.4121C14.5656 11.6546 15.0957 12.0099 15.5418 12.4576" stroke-width="2" stroke-linecap="round" stroke-linejoin="round"/>
</svg>
