<svg width="28" height="28" viewBox="0 0 28 28" fill="none" xmlns="http://www.w3.org/2000/svg">
<path d="M10.5 7.875V5.25" stroke-width="2" stroke-linecap="round" stroke-linejoin="round"/>
<path d="M17.5 22.75V20.125" stroke-width="2" stroke-linecap="round" stroke-linejoin="round"/>
<path d="M7.875 10.5H5.25" stroke-width="2" stroke-linecap="round" stroke-linejoin="round"/>
<path d="M22.75 17.5H20.125" stroke-width="2" stroke-linecap="round" stroke-linejoin="round"/>
<path d="M7.7661 14.0439L6.53017 15.2799C5.70924 16.1008 5.24805 17.2142 5.24805 18.3752C5.24805 18.95 5.36127 19.5193 5.58126 20.0504C5.80125 20.5815 6.12369 21.064 6.53017 21.4705C6.93665 21.877 7.41921 22.1994 7.95031 22.4194C8.4814 22.6394 9.05063 22.7526 9.62548 22.7526C10.7864 22.7526 11.8999 22.2914 12.7208 21.4705L13.9567 20.2346" stroke-width="2" stroke-linecap="round" stroke-linejoin="round"/>
<path d="M20.2346 13.9562L21.4705 12.7203C22.2914 11.8994 22.7526 10.786 22.7526 9.62499C22.7526 8.46402 22.2914 7.35061 21.4705 6.52968C20.6496 5.70875 19.5362 5.24756 18.3752 5.24756C17.2142 5.24756 16.1008 5.70875 15.2799 6.52968L14.0439 7.76562" stroke-width="2" stroke-linecap="round" stroke-linejoin="round"/>
</svg>
