<svg width="28" height="28" viewBox="0 0 28 28" fill="none" xmlns="http://www.w3.org/2000/svg">
<path d="M14 24.5C19.799 24.5 24.5 19.799 24.5 14C24.5 8.20101 19.799 3.5 14 3.5C8.20101 3.5 3.5 8.20101 3.5 14C3.5 19.799 8.20101 24.5 14 24.5Z" stroke-width="2" stroke-linecap="round" stroke-linejoin="round"/>
<path d="M19.25 23.1V19.25C19.25 19.0179 19.1578 18.7954 18.9937 18.6313C18.8296 18.4672 18.6071 18.375 18.375 18.375H9.625C9.39294 18.375 9.17038 18.4672 9.00628 18.6313C8.84219 18.7954 8.75 19.0179 8.75 19.25V23.1" stroke-width="2" stroke-linecap="round" stroke-linejoin="round"/>
<path d="M10.5 18.375V15.75C10.5 15.5179 10.5922 15.2954 10.7563 15.1313C10.9204 14.9672 11.1429 14.875 11.375 14.875H16.625C16.8571 14.875 17.0796 14.9672 17.2437 15.1313C17.4078 15.2954 17.5 15.5179 17.5 15.75V18.375" stroke-width="2" stroke-linecap="round" stroke-linejoin="round"/>
<path d="M16.1652 14.8752L14.8527 8.5752C14.6668 7.64551 13.3324 7.64551 13.1465 8.5752L11.834 14.8752" stroke-width="2" stroke-linecap="round" stroke-linejoin="round"/>
</svg>
