<svg width="28" height="28" viewBox="0 0 28 28" fill="none" xmlns="http://www.w3.org/2000/svg">
<path d="M15.9795 13.9999C16.2257 13.7242 16.5274 13.5037 16.8648 13.3526C17.2022 13.2016 17.5677 13.1235 17.9373 13.1235C18.3069 13.1235 18.6724 13.2016 19.0098 13.3526C19.3472 13.5037 19.6489 13.7242 19.8951 13.9999" stroke-width="2" stroke-linecap="round" stroke-linejoin="round"/>
<path d="M8.10449 13.9999C8.35073 13.7242 8.65241 13.5037 8.9898 13.3526C9.32718 13.2016 9.69266 13.1235 10.0623 13.1235C10.432 13.1235 10.7974 13.2016 11.1348 13.3526C11.4722 13.5037 11.7739 13.7242 12.0201 13.9999" stroke-width="2" stroke-linecap="round" stroke-linejoin="round"/>
<path d="M16.8984 19.25C16.0394 19.8205 15.0312 20.1248 14 20.1248C12.9688 20.1248 11.9606 19.8205 11.1016 19.25" stroke-width="2" stroke-linecap="round" stroke-linejoin="round"/>
<path d="M23.6251 5.28282C23.6267 5.14011 23.593 4.99921 23.5269 4.8727C23.4609 4.7462 23.3645 4.63804 23.2464 4.55787C23.1283 4.47771 22.9922 4.42804 22.8503 4.41331C22.7083 4.39857 22.5649 4.41923 22.4329 4.47344C20.7813 5.10782 17.5985 6.125 14.0001 6.125C10.4016 6.125 7.21881 5.10782 5.56725 4.47344C5.43522 4.41923 5.29182 4.39857 5.14987 4.41331C5.00791 4.42804 4.87181 4.47771 4.75373 4.55787C4.63565 4.63804 4.53927 4.7462 4.47319 4.8727C4.40711 4.99921 4.3734 5.14011 4.37506 5.28282V11.375C4.37506 19.1078 8.68443 25.375 14.0001 25.375C19.3157 25.375 23.6251 19.1078 23.6251 11.375V5.28282Z" stroke-width="2" stroke-linecap="round" stroke-linejoin="round"/>
</svg>
