<svg width="28" height="28" viewBox="0 0 28 28" fill="none" xmlns="http://www.w3.org/2000/svg">
<path d="M14 19.25C18.8325 19.25 22.75 15.3325 22.75 10.5C22.75 5.66751 18.8325 1.75 14 1.75C9.16751 1.75 5.25 5.66751 5.25 10.5C5.25 15.3325 9.16751 19.25 14 19.25Z" stroke="#8247E5" stroke-width="2" stroke-linecap="round" stroke-linejoin="round"/>
<path d="M14 15.75C16.8995 15.75 19.25 13.3995 19.25 10.5C19.25 7.60051 16.8995 5.25 14 5.25C11.1005 5.25 8.75 7.60051 8.75 10.5C8.75 13.3995 11.1005 15.75 14 15.75Z" stroke="#8247E5" stroke-width="2" stroke-linecap="round" stroke-linejoin="round"/>
<path d="M19.25 17.5V26.25L14 23.625L8.75 26.25V17.5" stroke="#8247E5" stroke-width="2" stroke-linecap="round" stroke-linejoin="round"/>
</svg>
