<svg width="28" height="28" viewBox="0 0 28 28" fill="none" xmlns="http://www.w3.org/2000/svg">
<path d="M16.625 8.75V22.2797C16.6237 22.4251 16.6591 22.5685 16.7279 22.6966C16.7967 22.8247 16.8968 22.9334 17.0188 23.0125L18.2219 23.8109C18.3385 23.8888 18.472 23.9374 18.6113 23.9529C18.7506 23.9683 18.8916 23.9501 19.0223 23.8997C19.1531 23.8493 19.2699 23.7683 19.3628 23.6634C19.4557 23.5585 19.5221 23.4328 19.5563 23.2969L21 17.5" stroke="#8247E5" stroke-width="2" stroke-linecap="round" stroke-linejoin="round"/>
<path d="M21 17.5C22.1603 17.5 23.2731 17.0391 24.0936 16.2186C24.9141 15.3981 25.375 14.2853 25.375 13.125C25.375 11.9647 24.9141 10.8519 24.0936 10.0314C23.2731 9.21094 22.1603 8.75 21 8.75H16.625C16.625 8.75 10.6641 8.75 4.93281 3.94844C4.80534 3.84295 4.65056 3.77577 4.48645 3.75469C4.32234 3.73361 4.15561 3.75949 4.00561 3.82934C3.85561 3.89919 3.72849 4.01013 3.639 4.1493C3.54951 4.28847 3.50131 4.45017 3.5 4.61563V21.6344C3.50131 21.7998 3.54951 21.9615 3.639 22.1007C3.72849 22.2399 3.85561 22.3508 4.00561 22.4207C4.15561 22.4905 4.32234 22.5164 4.48645 22.4953C4.65056 22.4742 4.80534 22.407 4.93281 22.3016C10.6641 17.5 16.625 17.5 16.625 17.5H21Z" stroke="#8247E5" stroke-width="2" stroke-linecap="round" stroke-linejoin="round"/>
</svg>
