<svg width="28" height="28" viewBox="0 0 28 28" fill="none" xmlns="http://www.w3.org/2000/svg">
<path d="M18.375 16.625C22.241 16.625 25.375 13.491 25.375 9.625C25.375 5.75901 22.241 2.625 18.375 2.625C14.509 2.625 11.375 5.75901 11.375 9.625C11.375 13.491 14.509 16.625 18.375 16.625Z" stroke="#8247E5" stroke-width="2" stroke-linecap="round" stroke-linejoin="round"/>
<path d="M23.3293 14.5797L13.4199 4.67029" stroke="#8247E5" stroke-width="2" stroke-linecap="round" stroke-linejoin="round"/>
<path d="M10.9375 17.0625L9.625 18.375" stroke="#8247E5" stroke-width="2" stroke-linecap="round" stroke-linejoin="round"/>
<path d="M11.4627 10.708L3.07361 22.1486C2.9475 22.3165 2.88683 22.5245 2.90294 22.7339C2.91904 22.9432 3.01081 23.1395 3.16111 23.2861L4.71423 24.8393C4.86084 24.9896 5.05715 25.0813 5.26649 25.0974C5.47583 25.1135 5.68386 25.0529 5.85173 24.9268L17.2924 16.5377" stroke="#8247E5" stroke-width="2" stroke-linecap="round" stroke-linejoin="round"/>
</svg>
