<svg width="28" height="28" viewBox="0 0 28 28" fill="none" xmlns="http://www.w3.org/2000/svg">
<path d="M19.2939 19.8297C18.2201 20.8063 16.8972 21.4671 15.4714 21.7391C14.0456 22.0111 12.5723 21.8838 11.2143 21.3711C9.85636 20.8585 8.66649 19.9805 7.77612 18.8341C6.88576 17.6878 6.32956 16.3176 6.16895 14.875" stroke="#8247E5" stroke-width="2" stroke-linecap="round" stroke-linejoin="round"/>
<path d="M16.9422 17.2375C16.1393 17.973 15.0888 18.3791 14 18.375V18.375C12.8397 18.375 11.7269 17.9141 10.9064 17.0936C10.0859 16.2731 9.625 15.1603 9.625 14V9.1875" stroke="#8247E5" stroke-width="2" stroke-linecap="round" stroke-linejoin="round"/>
<path d="M14 21.875V25.375" stroke="#8247E5" stroke-width="2" stroke-linecap="round" stroke-linejoin="round"/>
<path d="M5.25 4.375L22.75 23.625" stroke="#8247E5" stroke-width="2" stroke-linecap="round" stroke-linejoin="round"/>
<path d="M10.2812 4.70313C10.6711 4.06714 11.2179 3.542 11.8691 3.17809C12.5202 2.81419 13.254 2.62374 14 2.62501V2.62501C15.1603 2.62501 16.2731 3.08594 17.0936 3.90641C17.9141 4.72689 18.375 5.83968 18.375 7.00001V13.6063" stroke="#8247E5" stroke-width="2" stroke-linecap="round" stroke-linejoin="round"/>
<path d="M21.8311 14.875C21.754 15.5571 21.5885 16.2262 21.3389 16.8656" stroke="#8247E5" stroke-width="2" stroke-linecap="round" stroke-linejoin="round"/>
</svg>
