<svg width="28" height="28" viewBox="0 0 28 28" fill="none" xmlns="http://www.w3.org/2000/svg">
<path d="M23.625 12.25V7" stroke="#8247E5" stroke-width="2" stroke-linecap="round" stroke-linejoin="round"/>
<path d="M26.25 9.625H21" stroke="#8247E5" stroke-width="2" stroke-linecap="round" stroke-linejoin="round"/>
<path d="M18.375 2.625V6.125" stroke="#8247E5" stroke-width="2" stroke-linecap="round" stroke-linejoin="round"/>
<path d="M20.125 4.375H16.625" stroke="#8247E5" stroke-width="2" stroke-linecap="round" stroke-linejoin="round"/>
<path d="M23.7018 16.6905C21.9839 17.1723 20.1687 17.188 18.4427 16.7363C16.7166 16.2845 15.142 15.3814 13.8803 14.1198C12.6187 12.8582 11.7157 11.2835 11.2639 9.55748C10.8121 7.83144 10.8279 6.01626 11.3096 4.29834C9.61592 4.76976 8.07528 5.67671 6.84116 6.92884C5.60705 8.18098 4.72253 9.73461 4.27571 11.435C3.8289 13.1353 3.83538 14.9231 4.29451 16.6202C4.75364 18.3173 5.64939 19.8644 6.89255 21.1076C8.13571 22.3508 9.68289 23.2465 11.38 23.7057C13.0771 24.1648 14.8648 24.1713 16.5652 23.7244C18.2655 23.2776 19.8192 22.3931 21.0713 21.159C22.3235 19.9249 23.2304 18.3842 23.7018 16.6905V16.6905Z" stroke="#8247E5" stroke-width="2" stroke-linecap="round" stroke-linejoin="round"/>
</svg>
