<svg width="30" height="28" viewBox="0 0 30 28" fill="none" xmlns="http://www.w3.org/2000/svg">
<path d="M18.9375 7.875C20.1456 7.875 21.125 6.89562 21.125 5.6875C21.125 4.47938 20.1456 3.5 18.9375 3.5C17.7294 3.5 16.75 4.47938 16.75 5.6875C16.75 6.89562 17.7294 7.875 18.9375 7.875Z" stroke-width="2" stroke-linecap="round" stroke-linejoin="round"/>
<path d="M1.875 21.8751L9.87031 8.27981C9.94959 8.15087 10.0606 8.0444 10.1927 7.97054C10.3248 7.89669 10.4736 7.85791 10.625 7.85791C10.7764 7.85791 10.9252 7.89669 11.0573 7.97054C11.1894 8.0444 11.3004 8.15087 11.3797 8.27981L19.375 21.8751H1.875Z" stroke-width="2" stroke-linecap="round" stroke-linejoin="round"/>
<path d="M6.5127 14H14.7377" stroke-width="2" stroke-linecap="round" stroke-linejoin="round"/>
<path d="M16.7607 17.4342L20.3701 11.3311C20.4494 11.2021 20.5604 11.0957 20.6925 11.0218C20.8246 10.948 20.9734 10.9092 21.1248 10.9092C21.2762 10.9092 21.425 10.948 21.5571 11.0218C21.6892 11.0957 21.8002 11.2021 21.8795 11.3311L28.1248 21.8748H19.3748" stroke-width="2" stroke-linecap="round" stroke-linejoin="round"/>
</svg>
