<svg width="28" height="28" viewBox="0 0 28 28" fill="none" xmlns="http://www.w3.org/2000/svg">
<path d="M21.875 3.5V8.75" stroke="#8247E5" stroke-width="2" stroke-linecap="round" stroke-linejoin="round"/>
<path d="M24.5 6.125H19.25" stroke="#8247E5" stroke-width="2" stroke-linecap="round" stroke-linejoin="round"/>
<path d="M19.6875 21.875C21.3789 21.875 22.75 20.5039 22.75 18.8125C22.75 17.1211 21.3789 15.75 19.6875 15.75C17.9961 15.75 16.625 17.1211 16.625 18.8125C16.625 20.5039 17.9961 21.875 19.6875 21.875Z" stroke="#8247E5" stroke-width="2" stroke-linecap="round" stroke-linejoin="round"/>
<path d="M5.6875 25.375C7.37887 25.375 8.75 24.0039 8.75 22.3125C8.75 20.6211 7.37887 19.25 5.6875 19.25C3.99613 19.25 2.625 20.6211 2.625 22.3125C2.625 24.0039 3.99613 25.375 5.6875 25.375Z" stroke="#8247E5" stroke-width="2" stroke-linecap="round" stroke-linejoin="round"/>
<path d="M22.75 13.0375V18.8125" stroke="#8247E5" stroke-width="2" stroke-linecap="round" stroke-linejoin="round"/>
<path d="M8.75 22.3127V7.0002L14.9297 5.45801" stroke="#8247E5" stroke-width="2" stroke-linecap="round" stroke-linejoin="round"/>
<path d="M17.4016 10.0844L8.75 12.25" stroke="#8247E5" stroke-width="2" stroke-linecap="round" stroke-linejoin="round"/>
</svg>
