<svg width="28" height="28" viewBox="0 0 28 28" fill="none" xmlns="http://www.w3.org/2000/svg">
<path d="M4.09051 5.20614L10.4999 23.7233C10.7733 24.5218 11.9108 24.4999 12.1624 23.6905L14.7436 15.3124C14.7826 15.1754 14.8565 15.051 14.9582 14.9512C15.0598 14.8515 15.1857 14.78 15.3233 14.7436L23.6905 12.1624C24.4999 11.9108 24.5218 10.7733 23.7233 10.4999L5.20614 4.09051C5.05056 4.03584 4.88269 4.02623 4.72189 4.06282C4.56109 4.09941 4.41391 4.18069 4.2973 4.2973C4.18069 4.41391 4.09941 4.56109 4.06282 4.72189C4.02623 4.88269 4.03584 5.05056 4.09051 5.20614V5.20614Z" stroke="#8247E5" stroke-width="2" stroke-linecap="round" stroke-linejoin="round"/>
</svg>
