<svg width="28" height="28" viewBox="0 0 28 28" fill="none" xmlns="http://www.w3.org/2000/svg">
<path d="M22.75 14V22.75C22.75 22.9821 22.6578 23.2046 22.4937 23.3687C22.3296 23.5328 22.1071 23.625 21.875 23.625H5.25C5.01794 23.625 4.79538 23.5328 4.63128 23.3687C4.46719 23.2046 4.375 22.9821 4.375 22.75V6.125C4.375 5.89294 4.46719 5.67038 4.63128 5.50628C4.79538 5.34219 5.01794 5.25 5.25 5.25H14" stroke="#8247E5" stroke-width="2" stroke-linecap="round" stroke-linejoin="round"/>
<path d="M21.4375 9.625C23.1289 9.625 24.5 8.25387 24.5 6.5625C24.5 4.87113 23.1289 3.5 21.4375 3.5C19.7461 3.5 18.375 4.87113 18.375 6.5625C18.375 8.25387 19.7461 9.625 21.4375 9.625Z" stroke="#8247E5" stroke-width="2" stroke-linecap="round" stroke-linejoin="round"/>
</svg>
