<svg width="28" height="28" viewBox="0 0 28 28" fill="none" xmlns="http://www.w3.org/2000/svg">
<path d="M14 24.5C19.799 24.5 24.5 19.799 24.5 14C24.5 8.20101 19.799 3.5 14 3.5C8.20101 3.5 3.5 8.20101 3.5 14C3.5 19.799 8.20101 24.5 14 24.5Z" stroke-width="2" stroke-miterlimit="10"/>
<path d="M16.625 9.1875H12.2281L11.375 14.4594C11.8033 14.0311 12.349 13.7395 12.9431 13.6213C13.5371 13.5032 14.1529 13.5638 14.7124 13.7956C15.272 14.0275 15.7503 14.42 16.0868 14.9236C16.4233 15.4272 16.6029 16.0193 16.6029 16.625C16.6029 17.2307 16.4233 17.8228 16.0868 18.3264C15.7503 18.83 15.272 19.2225 14.7124 19.4544C14.1529 19.6862 13.5371 19.7468 12.9431 19.6287C12.349 19.5105 11.8033 19.2189 11.375 18.7906" stroke-width="2" stroke-linecap="round" stroke-linejoin="round"/>
</svg>
