<svg width="28" height="28" viewBox="0 0 28 28" fill="none" xmlns="http://www.w3.org/2000/svg">
<path d="M14 24.5C19.799 24.5 24.5 19.799 24.5 14C24.5 8.20101 19.799 3.5 14 3.5C8.20101 3.5 3.5 8.20101 3.5 14C3.5 19.799 8.20101 24.5 14 24.5Z" stroke-width="2" stroke-miterlimit="10"/>
<path d="M11.375 9.1875H16.625L13.5625 13.5625C14.0661 13.5625 14.5619 13.6868 15.0061 13.9242C15.4502 14.1616 15.8289 14.5049 16.1087 14.9237C16.3885 15.3424 16.5607 15.8237 16.61 16.3249C16.6594 16.8261 16.5844 17.3317 16.3916 17.797C16.1989 18.2623 15.8944 18.6728 15.5051 18.9923C15.1158 19.3118 14.6537 19.5304 14.1598 19.6286C13.6659 19.7269 13.1553 19.7018 12.6734 19.5557C12.1915 19.4095 11.753 19.1467 11.3969 18.7906" stroke-width="2" stroke-linecap="round" stroke-linejoin="round"/>
</svg>
