<svg width="28" height="28" viewBox="0 0 28 28" fill="none" xmlns="http://www.w3.org/2000/svg">
<path d="M24.0625 19.1736V8.8267C24.0617 8.67092 24.0198 8.51812 23.941 8.3837C23.8623 8.24928 23.7495 8.138 23.6141 8.06107L14.4266 2.86576C14.2969 2.79088 14.1498 2.75146 14 2.75146C13.8502 2.75146 13.7031 2.79088 13.5734 2.86576L4.38594 8.06107C4.25048 8.138 4.13769 8.24928 4.05896 8.3837C3.98023 8.51812 3.93834 8.67092 3.9375 8.8267V19.1736C3.93834 19.3294 3.98023 19.4822 4.05896 19.6166C4.13769 19.751 4.25048 19.8623 4.38594 19.9392L13.5734 25.1345C13.7031 25.2094 13.8502 25.2488 14 25.2488C14.1498 25.2488 14.2969 25.2094 14.4266 25.1345L23.6141 19.9392C23.7495 19.8623 23.8623 19.751 23.941 19.6166C24.0198 19.4822 24.0617 19.3294 24.0625 19.1736V19.1736Z" stroke="#8247E5" stroke-width="2" stroke-linecap="round" stroke-linejoin="round"/>
<path d="M14 17.9375C16.1746 17.9375 17.9375 16.1746 17.9375 14C17.9375 11.8254 16.1746 10.0625 14 10.0625C11.8254 10.0625 10.0625 11.8254 10.0625 14C10.0625 16.1746 11.8254 17.9375 14 17.9375Z" stroke="#8247E5" stroke-width="2" stroke-linecap="round" stroke-linejoin="round"/>
</svg>
