<svg width="29" height="28" viewBox="0 0 29 28" fill="none" xmlns="http://www.w3.org/2000/svg">
<path d="M24.3908 13.5078L13.8689 24.0297C13.5394 24.3543 13.0955 24.5363 12.633 24.5363C12.1704 24.5363 11.7265 24.3543 11.397 24.0297L2.11109 14.7437C1.78647 14.4143 1.60449 13.9703 1.60449 13.5078C1.60449 13.0453 1.78647 12.6013 2.11109 12.2719L12.633 1.75L24.3908 13.5078Z" stroke-width="2" stroke-linecap="round" stroke-linejoin="round"/>
<path d="M13.5625 14.875C14.7706 14.875 15.75 13.8956 15.75 12.6875C15.75 11.4794 14.7706 10.5 13.5625 10.5C12.3544 10.5 11.375 11.4794 11.375 12.6875C11.375 13.8956 12.3544 14.875 13.5625 14.875Z" stroke-width="2" stroke-linecap="round" stroke-linejoin="round"/>
<path d="M22.75 22.3125C22.75 20.125 24.9375 17.9375 24.9375 17.9375C24.9375 17.9375 27.125 20.125 27.125 22.3125C27.125 22.8927 26.8945 23.4491 26.4843 23.8593C26.0741 24.2695 25.5177 24.5 24.9375 24.5C24.3573 24.5 23.8009 24.2695 23.3907 23.8593C22.9805 23.4491 22.75 22.8927 22.75 22.3125V22.3125Z" stroke-width="2" stroke-linecap="round" stroke-linejoin="round"/>
<path d="M12.0205 11.1455L4.14551 3.27051" stroke-width="2" stroke-linecap="round" stroke-linejoin="round"/>
</svg>
