<svg width="28" height="28" viewBox="0 0 28 28" fill="none" xmlns="http://www.w3.org/2000/svg">
<path d="M7.875 11.375L16.625 20.125" stroke="#8247E5" stroke-width="2" stroke-linecap="round" stroke-linejoin="round"/>
<path d="M11.1342 20.0596L7.72168 23.4721" stroke="#8247E5" stroke-width="2" stroke-linecap="round" stroke-linejoin="round"/>
<path d="M8.07168 16.9971L4.65918 20.4096" stroke="#8247E5" stroke-width="2" stroke-linecap="round" stroke-linejoin="round"/>
<path d="M14.8859 10.0845L20.8906 3.39078C21.3838 2.89765 22.0526 2.62061 22.75 2.62061C23.4474 2.62061 24.1162 2.89765 24.6094 3.39078C25.1025 3.88392 25.3796 4.55276 25.3796 5.25016C25.3796 5.94756 25.1025 6.6164 24.6094 7.10953L17.9156 13.1142C17.8274 13.1937 17.7563 13.2903 17.7067 13.3982C17.657 13.506 17.6298 13.6229 17.6267 13.7415C17.6237 13.8602 17.6448 13.9783 17.6888 14.0886C17.7328 14.1989 17.7988 14.299 17.8828 14.383L18.8891 15.3892C19.2137 15.7187 19.3957 16.1626 19.3957 16.6252C19.3957 17.0877 19.2137 17.5316 18.8891 17.8611L10.5 26.2502L1.75 17.5002L10.1391 9.1111C10.4685 8.78647 10.9125 8.6045 11.375 8.6045C11.8375 8.6045 12.2815 8.78647 12.6109 9.1111L13.6172 10.1173C13.7011 10.2013 13.8013 10.2673 13.9116 10.3113C14.0218 10.3554 14.1399 10.3765 14.2586 10.3734C14.3773 10.3703 14.4941 10.3432 14.602 10.2935C14.7098 10.2438 14.8064 10.1727 14.8859 10.0845V10.0845Z" stroke="#8247E5" stroke-width="2" stroke-linecap="round" stroke-linejoin="round"/>
</svg>
