<svg width="28" height="28" viewBox="0 0 28 28" fill="none" xmlns="http://www.w3.org/2000/svg">
<path d="M4.375 12.25H23.625" stroke-width="2" stroke-linecap="round" stroke-linejoin="round"/>
<path d="M11.2438 16.625H6.125C5.66087 16.625 5.21575 16.4406 4.88756 16.1124C4.55937 15.7842 4.375 15.3391 4.375 14.875V7C4.375 6.07174 4.74375 5.1815 5.40013 4.52513C6.0565 3.86875 6.94674 3.5 7.875 3.5H23.625V14.875C23.625 15.3391 23.4406 15.7842 23.1124 16.1124C22.7842 16.4406 22.3391 16.625 21.875 16.625H16.7562C16.6314 16.6254 16.5081 16.6525 16.3946 16.7044C16.281 16.7564 16.18 16.8321 16.0981 16.9264C16.0163 17.0207 15.9556 17.1314 15.92 17.2511C15.8845 17.3707 15.875 17.4966 15.8922 17.6203L16.625 22.75C16.625 23.4462 16.3484 24.1139 15.8562 24.6062C15.3639 25.0984 14.6962 25.375 14 25.375C13.3038 25.375 12.6361 25.0984 12.1438 24.6062C11.6516 24.1139 11.375 23.4462 11.375 22.75L12.1078 17.6203C12.125 17.4966 12.1155 17.3707 12.08 17.2511C12.0444 17.1314 11.9837 17.0207 11.9019 16.9264C11.82 16.8321 11.719 16.7564 11.6054 16.7044C11.4919 16.6525 11.3686 16.6254 11.2438 16.625V16.625Z" stroke-width="2" stroke-linecap="round" stroke-linejoin="round"/>
<path d="M20.125 3.5V8.75" stroke-width="2" stroke-linecap="round" stroke-linejoin="round"/>
</svg>
