<svg width="28" height="28" viewBox="0 0 28 28" fill="none" xmlns="http://www.w3.org/2000/svg">
<path d="M21.875 6.125H5.25C4.76675 6.125 4.375 6.51675 4.375 7V14C4.375 14.4832 4.76675 14.875 5.25 14.875H21.875C22.3582 14.875 22.75 14.4832 22.75 14V7C22.75 6.51675 22.3582 6.125 21.875 6.125Z" stroke="#8247E5" stroke-width="2" stroke-linecap="round" stroke-linejoin="round"/>
<path d="M22.75 10.5H25.375C25.6071 10.5 25.8296 10.5922 25.9937 10.7563C26.1578 10.9204 26.25 11.1429 26.25 11.375V16.8438C26.2484 17.0336 26.1859 17.2179 26.0717 17.3695C25.9575 17.5211 25.7976 17.632 25.6156 17.6859L14.6344 20.8141C14.4524 20.868 14.2925 20.9789 14.1783 21.1305C14.0641 21.2821 14.0016 21.4664 14 21.6562V25.375" stroke="#8247E5" stroke-width="2" stroke-linecap="round" stroke-linejoin="round"/>
<path d="M4.375 10.5H1.75" stroke="#8247E5" stroke-width="2" stroke-linecap="round" stroke-linejoin="round"/>
</svg>
