<svg width="28" height="28" viewBox="0 0 28 28" fill="none" xmlns="http://www.w3.org/2000/svg">
<path d="M23.0015 3.92634L2.61397 9.66853C2.44042 9.71598 2.28572 9.81578 2.17093 9.95432C2.05615 10.0929 1.98686 10.2634 1.97251 10.4428C1.95817 10.6221 1.99945 10.8015 2.09075 10.9566C2.18205 11.1116 2.31892 11.2347 2.48272 11.3092L11.8452 15.7388C12.0286 15.8238 12.1759 15.9711 12.2608 16.1545L16.6905 25.517C16.765 25.6808 16.8881 25.8176 17.0431 25.9089C17.1982 26.0002 17.3776 26.0415 17.5569 26.0272C17.7363 26.0128 17.9068 25.9435 18.0454 25.8288C18.1839 25.714 18.2837 25.5593 18.3312 25.3857L24.0733 4.99822C24.1169 4.84944 24.1195 4.6917 24.0811 4.54153C24.0427 4.39136 23.9646 4.25429 23.855 4.14468C23.7454 4.03507 23.6083 3.95697 23.4582 3.91855C23.308 3.88014 23.1502 3.88283 23.0015 3.92634V3.92634Z" stroke-width="2" stroke-linecap="round" stroke-linejoin="round"/>
<path d="M12.1299 15.8705L17.0736 10.9268" stroke-width="2" stroke-linecap="round" stroke-linejoin="round"/>
</svg>
