<svg width="28" height="28" viewBox="0 0 28 28" fill="none" xmlns="http://www.w3.org/2000/svg">
<path d="M23.1875 14C24.3956 14 25.375 13.0206 25.375 11.8125C25.375 10.6044 24.3956 9.625 23.1875 9.625C21.9794 9.625 21 10.6044 21 11.8125C21 13.0206 21.9794 14 23.1875 14Z" stroke="#8247E5" stroke-width="2" stroke-linecap="round" stroke-linejoin="round"/>
<path d="M4.8125 14C6.02062 14 7 13.0206 7 11.8125C7 10.6044 6.02062 9.625 4.8125 9.625C3.60438 9.625 2.625 10.6044 2.625 11.8125C2.625 13.0206 3.60438 14 4.8125 14Z" stroke="#8247E5" stroke-width="2" stroke-linecap="round" stroke-linejoin="round"/>
<path d="M10.0625 8.75C11.2706 8.75 12.25 7.77062 12.25 6.5625C12.25 5.35438 11.2706 4.375 10.0625 4.375C8.85438 4.375 7.875 5.35438 7.875 6.5625C7.875 7.77062 8.85438 8.75 10.0625 8.75Z" stroke="#8247E5" stroke-width="2" stroke-linecap="round" stroke-linejoin="round"/>
<path d="M17.9375 8.75C19.1456 8.75 20.125 7.77062 20.125 6.5625C20.125 5.35438 19.1456 4.375 17.9375 4.375C16.7294 4.375 15.75 5.35438 15.75 6.5625C15.75 7.77062 16.7294 8.75 17.9375 8.75Z" stroke="#8247E5" stroke-width="2" stroke-linecap="round" stroke-linejoin="round"/>
<path d="M20.0372 17.0518C18.9409 16.4377 18.1312 15.4158 17.7841 14.208V14.208C17.5481 13.3866 17.0512 12.6643 16.3685 12.1501C15.6858 11.636 14.8544 11.3579 13.9997 11.3579C13.1451 11.3579 12.3137 11.636 11.631 12.1501C10.9483 12.6643 10.4514 13.3866 10.2154 14.208C9.86835 15.4158 9.05864 16.4377 7.96225 17.0518C7.28006 17.4234 6.74092 18.0115 6.42975 18.7233C6.11858 19.4351 6.05308 20.2303 6.24356 20.9834C6.43404 21.7365 6.86968 22.4049 7.48184 22.8832C8.094 23.3615 8.84789 23.6226 9.62475 23.6252C10.0941 23.6255 10.5588 23.5326 10.9919 23.3518C11.9454 22.9564 12.9675 22.7529 13.9997 22.7529C15.032 22.7529 16.0541 22.9564 17.0076 23.3518C17.4407 23.5326 17.9054 23.6255 18.3747 23.6252C19.1516 23.6226 19.9055 23.3615 20.5177 22.8832C21.1298 22.4049 21.5655 21.7365 21.7559 20.9834C21.9464 20.2303 21.8809 19.4351 21.5697 18.7233C21.2586 18.0115 20.7194 17.4234 20.0372 17.0518Z" stroke="#8247E5" stroke-width="2" stroke-linecap="round" stroke-linejoin="round"/>
</svg>
