<svg width="28" height="29" viewBox="0 0 28 29" fill="none" xmlns="http://www.w3.org/2000/svg">
<path d="M14 16.625V27.125" stroke-width="2" stroke-linecap="round" stroke-linejoin="round"/>
<path d="M14 16.625C15.2081 16.625 16.1875 15.6456 16.1875 14.4375C16.1875 13.2294 15.2081 12.25 14 12.25C12.7919 12.25 11.8125 13.2294 11.8125 14.4375C11.8125 15.6456 12.7919 16.625 14 16.625Z" stroke-width="2" stroke-linecap="round" stroke-linejoin="round"/>
<path d="M7.875 7.875V3.5C7.875 3.26794 7.96719 3.04538 8.13128 2.88128C8.29538 2.71719 8.51794 2.625 8.75 2.625H19.25C19.4821 2.625 19.7046 2.71719 19.8687 2.88128C20.0328 3.04538 20.125 3.26794 20.125 3.5V7.875" stroke-width="2" stroke-linecap="round" stroke-linejoin="round"/>
<path d="M7.87468 7.875L4.8778 13.9344C4.80832 14.0787 4.77877 14.2391 4.79224 14.3987C4.8057 14.5584 4.86168 14.7115 4.95437 14.8422L13.9997 27.125L23.045 14.8422C23.1377 14.7115 23.1937 14.5584 23.2071 14.3987C23.2206 14.2391 23.191 14.0787 23.1216 13.9344L20.1247 7.875H7.87468Z" stroke-width="2" stroke-linecap="round" stroke-linejoin="round"/>
</svg>
