<svg width="28" height="28" viewBox="0 0 28 28" fill="none" xmlns="http://www.w3.org/2000/svg">
<path d="M12.6875 17.5C13.8956 17.5 14.875 16.5206 14.875 15.3125C14.875 14.1044 13.8956 13.125 12.6875 13.125C11.4794 13.125 10.5 14.1044 10.5 15.3125C10.5 16.5206 11.4794 17.5 12.6875 17.5Z" stroke-width="2" stroke-linecap="round" stroke-linejoin="round"/>
<path d="M3.5 24.4998L11.1453 16.8545" stroke-width="2" stroke-linecap="round" stroke-linejoin="round"/>
<path d="M3.5 24.5L18.7578 21.9625C18.9084 21.9368 19.0495 21.8716 19.1667 21.7736C19.2839 21.6757 19.373 21.5483 19.425 21.4047L21.875 14.875L13.125 6.125L6.59531 8.575C6.45142 8.62981 6.3243 8.72118 6.22648 8.84009C6.12867 8.95901 6.06353 9.10136 6.0375 9.25312L3.5 24.5Z" stroke-width="2" stroke-linecap="round" stroke-linejoin="round"/>
<path d="M21.875 14.875L24.7516 11.9985C24.8342 11.917 24.8999 11.82 24.9447 11.713C24.9895 11.6059 25.0126 11.4911 25.0126 11.375C25.0126 11.259 24.9895 11.1441 24.9447 11.0371C24.8999 10.9301 24.8342 10.833 24.7516 10.7516L17.2484 3.24846C17.167 3.16579 17.07 3.10013 16.9629 3.05532C16.8559 3.01051 16.741 2.98743 16.625 2.98743C16.509 2.98743 16.3941 3.01051 16.2871 3.05532C16.18 3.10013 16.083 3.16579 16.0016 3.24846L13.125 6.12503" stroke-width="2" stroke-linecap="round" stroke-linejoin="round"/>
</svg>
