<svg width="28" height="28" viewBox="0 0 28 28" fill="none" xmlns="http://www.w3.org/2000/svg">
<path d="M10.1391 23.625H5.25001C5.01794 23.625 4.79538 23.5328 4.63129 23.3687C4.46719 23.2047 4.37501 22.9821 4.37501 22.75V17.861C4.37461 17.7473 4.39662 17.6348 4.43979 17.5297C4.48295 17.4246 4.54643 17.329 4.62657 17.2485L17.7516 4.12346C17.833 4.04079 17.93 3.97513 18.0371 3.93032C18.1441 3.88551 18.259 3.86243 18.375 3.86243C18.491 3.86243 18.6059 3.88551 18.7129 3.93032C18.82 3.97513 18.917 4.04079 18.9984 4.12346L23.8766 9.00159C23.9592 9.08301 24.0249 9.18006 24.0697 9.28709C24.1145 9.39412 24.1376 9.50899 24.1376 9.62503C24.1376 9.74106 24.1145 9.85594 24.0697 9.96297C24.0249 10.07 23.9592 10.167 23.8766 10.2485L10.7516 23.3735C10.671 23.4536 10.5755 23.5171 10.4704 23.5602C10.3653 23.6034 10.2527 23.6254 10.1391 23.625V23.625Z" stroke="#8247E5" stroke-width="2" stroke-linecap="round" stroke-linejoin="round"/>
<path d="M14.875 7L21 13.125" stroke="#8247E5" stroke-width="2" stroke-linecap="round" stroke-linejoin="round"/>
<path d="M17.5 21L21.875 16.625L21 13.125" stroke="#8247E5" stroke-width="2" stroke-linecap="round" stroke-linejoin="round"/>
<path d="M4.42969 17.5547L10.4453 23.5703" stroke="#8247E5" stroke-width="2" stroke-linecap="round" stroke-linejoin="round"/>
</svg>
