<svg width="28" height="28" viewBox="0 0 28 28" fill="none" xmlns="http://www.w3.org/2000/svg">
<path d="M13.9893 7.875C15.6806 7.875 17.0518 6.50387 17.0518 4.8125C17.0518 3.12113 15.6806 1.75 13.9893 1.75C12.2979 1.75 10.9268 3.12113 10.9268 4.8125C10.9268 6.50387 12.2979 7.875 13.9893 7.875Z" stroke-width="2" stroke-linecap="round" stroke-linejoin="round"/>
<path d="M16.8331 14.7328L20.6393 17.6859C20.8909 17.8954 21.2118 18.0032 21.5388 17.9883C21.8659 17.9734 22.1756 17.8368 22.4071 17.6053C22.6386 17.3737 22.7752 17.0641 22.7901 16.737C22.805 16.41 22.6972 16.0891 22.4877 15.8375L18.1565 10.2703C17.9547 10.0664 17.7145 9.90444 17.4498 9.79369C17.1852 9.68294 16.9012 9.62561 16.6143 9.625H11.3643C10.782 9.62812 10.2242 9.85987 9.81118 10.2703L5.47993 15.8375C5.25441 16.0878 5.1338 16.4153 5.14308 16.7521C5.15235 17.0889 5.29079 17.4093 5.52974 17.6468C5.76869 17.8843 6.08985 18.0209 6.4267 18.0282C6.76356 18.0355 7.09031 17.9129 7.33931 17.6859L11.1456 14.7328L8.10493 24.3141C8.03168 24.4706 7.98998 24.6401 7.98222 24.8128C7.97446 24.9854 8.00078 25.1579 8.05969 25.3204C8.11859 25.4829 8.20893 25.6323 8.32554 25.7598C8.44215 25.8874 8.58275 25.9908 8.73931 26.0641C8.89587 26.1373 9.06533 26.179 9.238 26.1868C9.41068 26.1945 9.58319 26.1682 9.74569 26.1093C9.9082 26.0504 10.0575 25.9601 10.1851 25.8435C10.3127 25.7268 10.4161 25.5862 10.4893 25.4297L13.9893 19.9172L17.4893 25.4297C17.5577 25.5931 17.6584 25.741 17.7854 25.8644C17.9125 25.9878 18.0632 26.0843 18.2285 26.1479C18.3938 26.2116 18.5702 26.2411 18.7472 26.2347C18.9242 26.2284 19.0981 26.1862 19.2584 26.1109C19.4187 26.0355 19.5621 25.9285 19.68 25.7963C19.7978 25.6641 19.8877 25.5094 19.9441 25.3415C20.0006 25.1736 20.0225 24.996 20.0085 24.8194C19.9945 24.6429 19.9449 24.471 19.8627 24.3141L16.8331 14.7328Z" stroke-width="2" stroke-linecap="round" stroke-linejoin="round"/>
</svg>
