<svg width="28" height="28" viewBox="0 0 28 28" fill="none" xmlns="http://www.w3.org/2000/svg">
<path d="M22.5969 23.439L5.09688 20.2562C4.89411 20.2201 4.71055 20.1137 4.5785 19.9557C4.44646 19.7976 4.3744 19.5981 4.375 19.3921V8.60774C4.3744 8.40179 4.44646 8.20223 4.5785 8.04418C4.71055 7.88613 4.89411 7.77972 5.09688 7.74368L22.5969 4.56087C22.723 4.53845 22.8525 4.544 22.9762 4.57711C23.1 4.61023 23.2149 4.6701 23.313 4.75251C23.411 4.83492 23.4898 4.93786 23.5437 5.05404C23.5976 5.17023 23.6254 5.29684 23.625 5.42493V22.5749C23.6254 22.703 23.5976 22.8296 23.5437 22.9458C23.4898 23.062 23.411 23.1649 23.313 23.2473C23.2149 23.3298 23.1 23.3896 22.9762 23.4227C22.8525 23.4559 22.723 23.4614 22.5969 23.439Z" stroke="#8247E5" stroke-width="2" stroke-linecap="round" stroke-linejoin="round"/>
<path d="M1.75 14H26.25" stroke="#8247E5" stroke-width="2" stroke-linecap="round" stroke-linejoin="round"/>
</svg>
