<svg width="28" height="28" viewBox="0 0 28 28" fill="none" xmlns="http://www.w3.org/2000/svg">
<path d="M16.9968 11.0796C15.044 10.4046 12.9206 10.4085 10.9702 11.0905C10.8279 11.14 10.7007 11.2254 10.6011 11.3384C10.5014 11.4515 10.4327 11.5884 10.4015 11.7358L9.76709 14.9624C9.73712 15.1055 9.67262 15.2391 9.57921 15.3515C9.4858 15.464 9.36631 15.5519 9.23115 15.6077L4.05771 17.6749C3.88174 17.7478 3.68659 17.7605 3.50264 17.7111C3.31868 17.6616 3.15622 17.5528 3.04053 17.4014C2.259 16.3916 1.87231 15.1315 1.95284 13.8572C2.03337 12.5828 2.5756 11.3814 3.47803 10.478C6.26935 7.68883 10.0539 6.12207 13.9999 6.12207C17.9459 6.12207 21.7305 7.68883 24.5218 10.478C25.4242 11.3814 25.9664 12.5828 26.047 13.8572C26.1275 15.1315 25.7408 16.3916 24.9593 17.4014C24.8436 17.5528 24.6811 17.6616 24.4972 17.7111C24.3132 17.7605 24.1181 17.7478 23.9421 17.6749L18.7687 15.6077C18.6348 15.553 18.5162 15.4667 18.4228 15.3563C18.3295 15.2458 18.2643 15.1144 18.2327 14.9733L17.5546 11.7249C17.5254 11.5782 17.4586 11.4417 17.3609 11.3286C17.2631 11.2155 17.1376 11.1297 16.9968 11.0796V11.0796Z" stroke-width="2" stroke-linecap="round" stroke-linejoin="round"/>
<path d="M4.375 21.875H23.625" stroke-width="2" stroke-linecap="round" stroke-linejoin="round"/>
</svg>
