<svg width="28" height="28" viewBox="0 0 28 28" fill="none" xmlns="http://www.w3.org/2000/svg">
<path d="M5.25 4.375L22.75 23.625" stroke="#8247E5" stroke-width="2" stroke-linecap="round" stroke-linejoin="round"/>
<path d="M12.578 12.4361C12.0309 12.5219 11.4927 12.6573 10.9702 12.8408C10.8279 12.8903 10.7007 12.9757 10.6011 13.0888C10.5014 13.2018 10.4327 13.3387 10.4015 13.4861L9.76709 16.7127C9.73712 16.8558 9.67262 16.9894 9.57921 17.1019C9.4858 17.2143 9.36631 17.3023 9.23115 17.358L4.05771 19.4252C3.88174 19.4981 3.68659 19.5108 3.50264 19.4614C3.31868 19.4119 3.15622 19.3031 3.04053 19.1518C2.259 18.1419 1.87231 16.8819 1.95284 15.6075C2.03337 14.3331 2.5756 13.1317 3.47803 12.2283C5.07988 10.6302 7.025 9.4182 9.16553 8.68457" stroke="#8247E5" stroke-width="2" stroke-linecap="round" stroke-linejoin="round"/>
<path d="M13.1797 7.89675C15.2684 7.7812 17.3581 8.1072 19.3124 8.85349C21.2667 9.59978 23.0418 10.7496 24.5219 12.228C25.4243 13.1314 25.9665 14.3328 26.0471 15.6072C26.1276 16.8816 25.7409 18.1416 24.9594 19.1514C24.8437 19.3028 24.6812 19.4116 24.4973 19.4611C24.3133 19.5105 24.1182 19.4978 23.9422 19.4249L23.5047 19.2499" stroke="#8247E5" stroke-width="2" stroke-linecap="round" stroke-linejoin="round"/>
</svg>
