<svg width="28" height="28" viewBox="0 0 28 28" fill="none" xmlns="http://www.w3.org/2000/svg">
<path d="M10.3574 2.96407C11.7672 2.47832 13.3113 2.56561 14.6573 3.20715C16.0033 3.84869 17.0436 4.99316 17.554 6.39414C18.0645 7.79511 18.0044 9.34053 17.3867 10.6976C16.7689 12.0547 15.6429 13.1149 14.2512 13.65L10.3574 2.96407Z" stroke-width="2" stroke-linecap="round" stroke-linejoin="round"/>
<path d="M2.96456 15.8924C2.47881 14.4826 2.5661 12.9385 3.20764 11.5925C3.84918 10.2465 4.99365 9.20624 6.39462 8.69576C7.7956 8.18527 9.34102 8.24537 10.6981 8.86312C12.0552 9.48087 13.1154 10.6069 13.6505 11.9986L2.96456 15.8924Z" stroke-width="2" stroke-linecap="round" stroke-linejoin="round"/>
<path d="M15.8919 23.2859C14.4822 23.7717 12.938 23.6844 11.592 23.0428C10.246 22.4013 9.20576 21.2568 8.69527 19.8559C8.18478 18.4549 8.24488 16.9095 8.86263 15.5524C9.48038 14.1953 10.6064 13.135 11.9981 12.6L15.8919 23.2859Z" stroke-width="2" stroke-linecap="round" stroke-linejoin="round"/>
<path d="M23.2855 10.3578C23.7713 11.7675 23.684 13.3116 23.0425 14.6577C22.4009 16.0037 21.2565 17.0439 19.8555 17.5544C18.4545 18.0649 16.9091 18.0048 15.552 17.387C14.1949 16.7693 13.1347 15.6433 12.5996 14.2515L23.2855 10.3578Z" stroke-width="2" stroke-linecap="round" stroke-linejoin="round"/>
<path d="M17.9922 17.9922L24.5 24.5" stroke-width="2" stroke-linecap="round" stroke-linejoin="round"/>
</svg>
