<svg width="28" height="28" viewBox="0 0 28 28" fill="none" xmlns="http://www.w3.org/2000/svg">
<path d="M2.55898 8.27989C2.43728 8.09046 2.39432 7.861 2.43927 7.64037C2.48421 7.41974 2.6135 7.22537 2.79961 7.09864C6.0653 4.75846 9.982 3.5 13.9996 3.5C18.0172 3.5 21.9339 4.75846 25.1996 7.09864C25.3857 7.22537 25.515 7.41974 25.5599 7.64037C25.6049 7.861 25.5619 8.09046 25.4402 8.27989L14.7324 25.0908C14.6548 25.2151 14.5467 25.3177 14.4186 25.3887C14.2904 25.4598 14.1462 25.4971 13.9996 25.4971C13.853 25.4971 13.7089 25.4598 13.5807 25.3887C13.4525 25.3177 13.3445 25.2151 13.2668 25.0908L2.55898 8.27989Z" stroke="#8247E5" stroke-width="2" stroke-linecap="round" stroke-linejoin="round"/>
<path d="M4.01367 10.5657C6.83041 8.25897 10.3589 6.99854 13.9996 6.99854C17.6403 6.99854 21.1688 8.25897 23.9855 10.5657" stroke="#8247E5" stroke-width="2" stroke-linecap="round" stroke-linejoin="round"/>
<path d="M17.9698 20.0045C17.5113 19.8739 17.0896 19.6381 16.7383 19.3158C16.387 18.9935 16.1158 18.5936 15.9462 18.148C15.7767 17.7024 15.7136 17.2234 15.7618 16.7491C15.8101 16.2748 15.9684 15.8183 16.2242 15.416C16.48 15.0137 16.8261 14.6766 17.2352 14.4317C17.6442 14.1867 18.1047 14.0407 18.5801 14.0051C19.0556 13.9696 19.5327 14.0455 19.9736 14.2268C20.4145 14.4082 20.807 14.69 21.1198 15.0498" stroke="#8247E5" stroke-width="2" stroke-linecap="round" stroke-linejoin="round"/>
<path d="M6.33301 14.1969C6.53593 13.6781 6.87651 13.2245 7.31807 12.8849C7.75964 12.5453 8.28547 12.3326 8.83895 12.2696C9.39243 12.2067 9.9526 12.2959 10.4592 12.5276C10.9657 12.7594 11.3995 13.1249 11.7137 13.5848C12.028 14.0448 12.2108 14.5817 12.2426 15.1379C12.2744 15.694 12.1538 16.2483 11.894 16.741C11.6342 17.2337 11.2449 17.6463 10.768 17.9342C10.2911 18.2221 9.74474 18.3745 9.18769 18.375H8.99082" stroke="#8247E5" stroke-width="2" stroke-linecap="round" stroke-linejoin="round"/>
</svg>
