<svg width="28" height="28" viewBox="0 0 28 28" fill="none" xmlns="http://www.w3.org/2000/svg">
<path d="M24.9484 13.2563L9.20937 3.63126C9.07688 3.54953 8.92498 3.50463 8.76935 3.50119C8.61371 3.49775 8.45998 3.53589 8.324 3.61168C8.18802 3.68747 8.07472 3.79817 7.9958 3.93235C7.91687 4.06653 7.87517 4.21934 7.875 4.37501V23.625C7.87517 23.7807 7.91687 23.9335 7.9958 24.0677C8.07472 24.2019 8.18802 24.3126 8.324 24.3883C8.45998 24.4641 8.61371 24.5023 8.76935 24.4988C8.92498 24.4954 9.07688 24.4505 9.20937 24.3688L24.9484 14.7438C25.0777 14.6673 25.1848 14.5586 25.2592 14.4281C25.3336 14.2977 25.3727 14.1502 25.3727 14C25.3727 13.8499 25.3336 13.7023 25.2592 13.5719C25.1848 13.4415 25.0777 13.3327 24.9484 13.2563V13.2563Z" stroke="#8247E5" stroke-width="2" stroke-linecap="round" stroke-linejoin="round"/>
</svg>
