<svg width="28" height="28" viewBox="0 0 28 28" fill="none" xmlns="http://www.w3.org/2000/svg">
<path d="M8.75 19.25L2.625 25.375" stroke="#8247E5" stroke-width="2" stroke-linecap="round" stroke-linejoin="round"/>
<path d="M25.375 2.625L19.25 8.75" stroke="#8247E5" stroke-width="2" stroke-linecap="round" stroke-linejoin="round"/>
<path d="M14.3341 7.54189L7.54366 14.3323C6.51853 15.3574 6.51853 17.0195 7.54366 18.0446L9.95666 20.4576C10.9818 21.4828 12.6438 21.4828 13.669 20.4576L20.4594 13.6672C21.4845 12.6421 21.4845 10.98 20.4594 9.95489L18.0464 7.54189C17.0213 6.51676 15.3592 6.51676 14.3341 7.54189Z" stroke="#8247E5" stroke-width="2" stroke-linecap="round" stroke-linejoin="round"/>
<path d="M10.0625 10.0625L17.9375 17.9375" stroke="#8247E5" stroke-width="2" stroke-linecap="round" stroke-linejoin="round"/>
<path d="M24.5 17.5L21.875 16.625" stroke="#8247E5" stroke-width="2" stroke-linecap="round" stroke-linejoin="round"/>
<path d="M6.125 11.375L3.5 10.5" stroke="#8247E5" stroke-width="2" stroke-linecap="round" stroke-linejoin="round"/>
<path d="M10.5 3.5L11.375 6.125" stroke="#8247E5" stroke-width="2" stroke-linecap="round" stroke-linejoin="round"/>
<path d="M16.625 21.875L17.5 24.5" stroke="#8247E5" stroke-width="2" stroke-linecap="round" stroke-linejoin="round"/>
</svg>
