<svg width="28" height="28" viewBox="0 0 28 28" fill="none" xmlns="http://www.w3.org/2000/svg">
<path d="M23.1876 14.4375L16.9095 20.7156C16.5853 21.041 16.2001 21.2992 15.7759 21.4754C15.3517 21.6516 14.8969 21.7423 14.4376 21.7423C13.9783 21.7423 13.5235 21.6516 13.0993 21.4754C12.6751 21.2992 12.2899 21.041 11.9657 20.7156L7.28448 16.0344C6.95907 15.7102 6.70087 15.325 6.52469 14.9008C6.3485 14.4766 6.25781 14.0218 6.25781 13.5625C6.25781 13.1032 6.3485 12.6484 6.52469 12.2242C6.70087 11.8 6.95907 11.4148 7.28448 11.0906L13.5626 4.8125" stroke="#8247E5" stroke-width="2" stroke-linecap="round" stroke-linejoin="round"/>
<path d="M9.625 18.375L3.5 24.5" stroke="#8247E5" stroke-width="2" stroke-linecap="round" stroke-linejoin="round"/>
<path d="M15.75 7L20.125 2.625" stroke="#8247E5" stroke-width="2" stroke-linecap="round" stroke-linejoin="round"/>
<path d="M25.375 7.875L21 12.25" stroke="#8247E5" stroke-width="2" stroke-linecap="round" stroke-linejoin="round"/>
<path d="M24.5 15.75L12.25 3.5" stroke="#8247E5" stroke-width="2" stroke-linecap="round" stroke-linejoin="round"/>
</svg>
