<svg width="28" height="28" viewBox="0 0 28 28" fill="none" xmlns="http://www.w3.org/2000/svg">
<path d="M13.125 7.875C14.5747 7.875 15.75 6.69975 15.75 5.25C15.75 3.80025 14.5747 2.625 13.125 2.625C11.6753 2.625 10.5 3.80025 10.5 5.25C10.5 6.69975 11.6753 7.875 13.125 7.875Z" stroke-width="2" stroke-linecap="round" stroke-linejoin="round"/>
<path d="M4.375 15.75C5.82475 15.75 7 14.5747 7 13.125C7 11.6753 5.82475 10.5 4.375 10.5C2.92525 10.5 1.75 11.6753 1.75 13.125C1.75 14.5747 2.92525 15.75 4.375 15.75Z" stroke-width="2" stroke-linecap="round" stroke-linejoin="round"/>
<path d="M17.5 25.375C18.9497 25.375 20.125 24.1997 20.125 22.75C20.125 21.3003 18.9497 20.125 17.5 20.125C16.0503 20.125 14.875 21.3003 14.875 22.75C14.875 24.1997 16.0503 25.375 17.5 25.375Z" stroke-width="2" stroke-linecap="round" stroke-linejoin="round"/>
<path d="M22.75 10.5C24.1997 10.5 25.375 9.32475 25.375 7.875C25.375 6.42525 24.1997 5.25 22.75 5.25C21.3003 5.25 20.125 6.42525 20.125 7.875C20.125 9.32475 21.3003 10.5 22.75 10.5Z" stroke-width="2" stroke-linecap="round" stroke-linejoin="round"/>
<path d="M20.2121 7.18584L15.6621 5.93896" stroke-width="2" stroke-linecap="round" stroke-linejoin="round"/>
<path d="M11.1785 7.01074L6.32227 11.3639" stroke-width="2" stroke-linecap="round" stroke-linejoin="round"/>
<path d="M6.49707 14.6782L15.3783 21.197" stroke-width="2" stroke-linecap="round" stroke-linejoin="round"/>
<path d="M18.375 20.2779L21.875 10.3467" stroke-width="2" stroke-linecap="round" stroke-linejoin="round"/>
</svg>
