<svg width="28" height="28" viewBox="0 0 28 28" fill="none" xmlns="http://www.w3.org/2000/svg">
<path d="M3.83895 10.2045L6.83582 22.9467C6.88213 23.1386 6.99122 23.3096 7.14578 23.4324C7.30034 23.5553 7.49151 23.623 7.68895 23.6248H20.3108C20.5083 23.623 20.6994 23.5553 20.854 23.4324C21.0085 23.3096 21.1176 23.1386 21.1639 22.9467L24.1608 10.2045C24.1943 10.0557 24.1887 9.90088 24.1448 9.75488C24.1008 9.60889 24.02 9.4767 23.91 9.37112C23.8 9.26553 23.6646 9.19012 23.517 9.15217C23.3693 9.11422 23.2143 9.11502 23.0671 9.15449L18.3749 10.4998L14.328 8.88105C14.224 8.83773 14.1125 8.81543 13.9999 8.81543C13.8872 8.81543 13.7757 8.83773 13.6718 8.88105L9.62488 10.4998L4.9327 9.15449C4.78543 9.11502 4.63047 9.11422 4.4828 9.15217C4.33514 9.19012 4.19977 9.26553 4.08978 9.37112C3.97979 9.4767 3.89892 9.60889 3.85498 9.75488C3.81103 9.90088 3.80551 10.0557 3.83895 10.2045V10.2045Z" stroke-width="2" stroke-linecap="round" stroke-linejoin="round"/>
<path d="M9.625 10.5L11.375 23.625" stroke-width="2" stroke-linecap="round" stroke-linejoin="round"/>
<path d="M18.375 10.5L16.625 23.625" stroke-width="2" stroke-linecap="round" stroke-linejoin="round"/>
<path d="M23.625 9.18731C23.6253 8.50767 23.4496 7.83953 23.1151 7.24791C22.7806 6.65628 22.2986 6.16131 21.7161 5.81116C21.1336 5.461 20.4704 5.26758 19.791 5.24971C19.1116 5.23184 18.4392 5.39013 17.8391 5.70918C17.6505 4.83098 17.1665 4.04398 16.4679 3.47943C15.7693 2.91489 14.8982 2.60693 14 2.60693C13.1018 2.60693 12.2307 2.91489 11.5321 3.47943C10.8335 4.04398 10.3495 4.83098 10.1609 5.70918C9.56084 5.39013 8.88838 5.23184 8.20897 5.24971C7.52957 5.26758 6.86635 5.461 6.28386 5.81116C5.70136 6.16131 5.21942 6.65628 4.88492 7.24791C4.55042 7.83953 4.37475 8.50767 4.375 9.18731" stroke-width="2" stroke-linecap="round" stroke-linejoin="round"/>
</svg>
