<svg width="28" height="28" viewBox="0 0 28 28" fill="none" xmlns="http://www.w3.org/2000/svg">
<path d="M7.0004 23.625C6.76833 23.625 6.54577 23.5328 6.38168 23.3687C6.21758 23.2047 6.1254 22.9821 6.1254 22.75V18.0797C5.64536 18.3087 5.11335 18.4068 4.58321 18.3641C4.13433 18.3311 3.69823 18.1996 3.30596 17.9789C2.91369 17.7582 2.57489 17.4538 2.31367 17.0872C2.05245 16.7207 1.87523 16.3011 1.79462 15.8583C1.71402 15.4154 1.73202 14.9603 1.84733 14.5252C1.96264 14.0902 2.17243 13.6859 2.46177 13.3411C2.75111 12.9963 3.11289 12.7196 3.52136 12.5305C3.92983 12.3415 4.37495 12.2448 4.82503 12.2474C5.27511 12.2499 5.7191 12.3517 6.1254 12.5453V7.87503C6.1254 7.64296 6.21758 7.42041 6.38168 7.25631C6.54577 7.09222 6.76833 7.00003 7.0004 7.00003H12.1082C11.8792 6.51999 11.7811 5.98798 11.8238 5.45784C11.8568 5.00896 11.9883 4.57287 12.209 4.1806C12.4297 3.78833 12.7342 3.44952 13.1007 3.1883C13.4672 2.92708 13.8868 2.74986 14.3297 2.66926C14.7725 2.58866 15.2276 2.60665 15.6627 2.72196C16.0978 2.83727 16.5021 3.04706 16.8468 3.3364C17.1916 3.62575 17.4683 3.98752 17.6574 4.39599C17.8464 4.80446 17.9431 5.24958 17.9406 5.69966C17.938 6.14975 17.8363 6.59374 17.6426 7.00003H22.7504C22.9825 7.00003 23.205 7.09222 23.3691 7.25631C23.5332 7.42041 23.6254 7.64296 23.6254 7.87503V12.5453C23.1454 12.3163 22.6133 12.2182 22.0832 12.261C21.6343 12.2939 21.1982 12.4255 20.806 12.6462C20.4137 12.8669 20.0749 13.1713 19.8137 13.5378C19.5524 13.9044 19.3752 14.324 19.2946 14.7668C19.214 15.2096 19.232 15.6648 19.3473 16.0998C19.4626 16.5349 19.6724 16.9392 19.9618 17.284C20.2511 17.6287 20.6129 17.9055 21.0214 18.0945C21.4298 18.2836 21.8749 18.3802 22.325 18.3777C22.7751 18.3751 23.2191 18.2734 23.6254 18.0797V22.75C23.6254 22.9821 23.5332 23.2047 23.3691 23.3687C23.205 23.5328 22.9825 23.625 22.7504 23.625H7.0004Z" stroke-width="2" stroke-linecap="round" stroke-linejoin="round"/>
</svg>
