<svg width="28" height="28" viewBox="0 0 28 28" fill="none" xmlns="http://www.w3.org/2000/svg">
<path d="M11.8125 15.75H4.375C4.14294 15.75 3.92038 15.6578 3.75628 15.4937C3.59219 15.3296 3.5 15.1071 3.5 14.875V7.875C3.5 7.64294 3.59219 7.42038 3.75628 7.25628C3.92038 7.09219 4.14294 7 4.375 7H10.9375C11.1696 7 11.3921 7.09219 11.5562 7.25628C11.7203 7.42038 11.8125 7.64294 11.8125 7.875V17.5C11.8125 18.6603 11.3516 19.7731 10.5311 20.5936C9.71062 21.4141 8.59782 21.875 7.4375 21.875" stroke-width="2" stroke-linecap="round" stroke-linejoin="round"/>
<path d="M24.5 15.75H17.0625C16.8304 15.75 16.6079 15.6578 16.4438 15.4937C16.2797 15.3296 16.1875 15.1071 16.1875 14.875V7.875C16.1875 7.64294 16.2797 7.42038 16.4438 7.25628C16.6079 7.09219 16.8304 7 17.0625 7H23.625C23.8571 7 24.0796 7.09219 24.2437 7.25628C24.4078 7.42038 24.5 7.64294 24.5 7.875V17.5C24.5 18.6603 24.0391 19.7731 23.2186 20.5936C22.3981 21.4141 21.2853 21.875 20.125 21.875" stroke-width="2" stroke-linecap="round" stroke-linejoin="round"/>
</svg>
