<svg width="28" height="28" viewBox="0 0 28 28" fill="none" xmlns="http://www.w3.org/2000/svg">
<path d="M19.25 20.125V18.375C19.25 16.9826 18.6969 15.6473 17.7123 14.6627C16.7277 13.6781 15.3924 13.125 14 13.125C12.6076 13.125 11.2723 13.6781 10.2877 14.6627C9.30312 15.6473 8.75 16.9826 8.75 18.375V20.125" stroke-width="2" stroke-linecap="round" stroke-linejoin="round"/>
<path d="M22.75 20.125V18.375C22.75 16.0544 21.8281 13.8288 20.1872 12.1878C18.5462 10.5469 16.3206 9.625 14 9.625C11.6794 9.625 9.45376 10.5469 7.81282 12.1878C6.17187 13.8288 5.25 16.0544 5.25 18.375V20.125" stroke-width="2" stroke-linecap="round" stroke-linejoin="round"/>
<path d="M26.25 20.125V18.375C26.25 15.1261 24.9594 12.0103 22.6621 9.71294C20.3647 7.41562 17.2489 6.125 14 6.125C10.7511 6.125 7.63526 7.41562 5.33794 9.71294C3.04062 12.0103 1.75 15.1261 1.75 18.375V20.125" stroke-width="2" stroke-linecap="round" stroke-linejoin="round"/>
</svg>
