<svg width="28" height="28" viewBox="0 0 28 28" fill="none" xmlns="http://www.w3.org/2000/svg">
<path d="M16.625 25.375L14 22.75L16.625 20.125" stroke-width="2" stroke-linecap="round" stroke-linejoin="round"/>
<path d="M21.2842 8.22498L20.3217 11.8125L16.7451 10.85" stroke-width="2" stroke-linecap="round" stroke-linejoin="round"/>
<path d="M8.64082 15.4L7.67832 11.8125L4.09082 12.775" stroke-width="2" stroke-linecap="round" stroke-linejoin="round"/>
<path d="M14 22.7498H23.625C23.9317 22.7487 24.2327 22.6671 24.4978 22.513C24.763 22.359 24.9831 22.138 25.1359 21.8721C25.2888 21.6063 25.3691 21.3049 25.3688 20.9983C25.3686 20.6916 25.2877 20.3904 25.1344 20.1248L22.5203 15.5967" stroke-width="2" stroke-linecap="round" stroke-linejoin="round"/>
<path d="M7.67782 11.8125L2.86532 20.125C2.71199 20.3906 2.63113 20.6918 2.63086 20.9985C2.63059 21.3051 2.71091 21.6065 2.86377 21.8723C3.01664 22.1382 3.23668 22.3592 3.50186 22.5132C3.76703 22.6673 4.06803 22.7489 4.3747 22.75H9.6247" stroke-width="2" stroke-linecap="round" stroke-linejoin="round"/>
<path d="M20.3215 11.8123L15.509 3.49979C15.3568 3.23386 15.1371 3.01286 14.872 2.85916C14.607 2.70546 14.306 2.62451 13.9996 2.62451C13.6932 2.62451 13.3923 2.70546 13.1272 2.85916C12.8622 3.01286 12.6424 3.23386 12.4902 3.49979L9.86523 8.02791" stroke-width="2" stroke-linecap="round" stroke-linejoin="round"/>
</svg>
