<svg width="28" height="28" viewBox="0 0 28 28" fill="none" xmlns="http://www.w3.org/2000/svg">
<path d="M1.58594 13.2673L11.3422 6.98921C11.4749 6.90463 11.6279 6.85739 11.7852 6.85248C11.9425 6.84756 12.0982 6.88515 12.2359 6.96128C12.3736 7.03742 12.4882 7.14927 12.5677 7.28508C12.6472 7.42088 12.6886 7.57561 12.6875 7.73296V20.2673C12.6886 20.4247 12.6472 20.5794 12.5677 20.7152C12.4882 20.851 12.3736 20.9629 12.2359 21.039C12.0982 21.1151 11.9425 21.1527 11.7852 21.1478C11.6279 21.1429 11.4749 21.0957 11.3422 21.0111L1.58594 14.733C1.46163 14.6553 1.35911 14.5473 1.28804 14.4191C1.21698 14.2909 1.17969 14.1467 1.17969 14.0001C1.17969 13.8536 1.21698 13.7094 1.28804 13.5812C1.35911 13.453 1.46163 13.345 1.58594 13.2673V13.2673Z" stroke-width="2" stroke-linecap="round" stroke-linejoin="round"/>
<path d="M13.8359 13.2673L23.5922 6.98921C23.7249 6.90463 23.8779 6.85739 24.0352 6.85248C24.1925 6.84756 24.3482 6.88515 24.4859 6.96128C24.6236 7.03742 24.7382 7.14927 24.8177 7.28508C24.8972 7.42088 24.9386 7.57561 24.9375 7.73296V20.2673C24.9386 20.4247 24.8972 20.5794 24.8177 20.7152C24.7382 20.851 24.6236 20.9629 24.4859 21.039C24.3482 21.1151 24.1925 21.1527 24.0352 21.1478C23.8779 21.1429 23.7249 21.0957 23.5922 21.0111L13.8359 14.733C13.7116 14.6553 13.6091 14.5473 13.538 14.4191C13.467 14.2909 13.4297 14.1467 13.4297 14.0001C13.4297 13.8536 13.467 13.7094 13.538 13.5812C13.6091 13.453 13.7116 13.345 13.8359 13.2673V13.2673Z" stroke-width="2" stroke-linecap="round" stroke-linejoin="round"/>
</svg>
