<svg width="28" height="28" viewBox="0 0 28 28" fill="none" xmlns="http://www.w3.org/2000/svg">
<path d="M5.25 15.75C6.17006 15.7471 7.08162 15.9262 7.9322 16.277C8.78278 16.6278 9.5556 17.1433 10.2062 17.7938C10.8568 18.4444 11.3723 19.2173 11.723 20.0678C12.0738 20.9184 12.2529 21.83 12.25 22.75" stroke-width="2" stroke-linecap="round" stroke-linejoin="round"/>
<path d="M5.25 10.5C8.4989 10.5 11.6147 11.7906 13.9121 14.0879C16.2094 16.3853 17.5 19.5011 17.5 22.75" stroke-width="2" stroke-linecap="round" stroke-linejoin="round"/>
<path d="M5.25 5.25003C7.54853 5.24571 9.82515 5.6968 11.9484 6.57725C14.0716 7.4577 15.9994 8.75007 17.6203 10.3797C19.25 12.0007 20.5423 13.9284 21.4228 16.0517C22.3032 18.1749 22.7543 20.4515 22.75 22.75" stroke-width="2" stroke-linecap="round" stroke-linejoin="round"/>
<path d="M5.6875 23.625C6.41237 23.625 7 23.0374 7 22.3125C7 21.5876 6.41237 21 5.6875 21C4.96263 21 4.375 21.5876 4.375 22.3125C4.375 23.0374 4.96263 23.625 5.6875 23.625Z" fill="#8247E5"/>
</svg>
