<svg width="28" height="28" viewBox="0 0 28 28" fill="none" xmlns="http://www.w3.org/2000/svg">
<path d="M6.5625 11.375C8.25387 11.375 9.625 10.0039 9.625 8.3125C9.625 6.62113 8.25387 5.25 6.5625 5.25C4.87113 5.25 3.5 6.62113 3.5 8.3125C3.5 10.0039 4.87113 11.375 6.5625 11.375Z" stroke="#8247E5" stroke-width="2" stroke-linecap="round" stroke-linejoin="round"/>
<path d="M6.5625 22.75C8.25387 22.75 9.625 21.3789 9.625 19.6875C9.625 17.9961 8.25387 16.625 6.5625 16.625C4.87113 16.625 3.5 17.9961 3.5 19.6875C3.5 21.3789 4.87113 22.75 6.5625 22.75Z" stroke="#8247E5" stroke-width="2" stroke-linecap="round" stroke-linejoin="round"/>
<path d="M14.8748 14L9.08887 17.9594" stroke="#8247E5" stroke-width="2" stroke-linecap="round" stroke-linejoin="round"/>
<path d="M25.3754 6.81396L17.9707 11.878" stroke="#8247E5" stroke-width="2" stroke-linecap="round" stroke-linejoin="round"/>
<path d="M25.3748 21.1858L9.08887 10.0405" stroke="#8247E5" stroke-width="2" stroke-linecap="round" stroke-linejoin="round"/>
</svg>
