<svg width="28" height="28" viewBox="0 0 28 28" fill="none" xmlns="http://www.w3.org/2000/svg">
<path d="M3.5 10.5V6.125C3.5 5.89294 3.59219 5.67038 3.75628 5.50628C3.92038 5.34219 4.14294 5.25 4.375 5.25H23.625C23.8571 5.25 24.0796 5.34219 24.2437 5.50628C24.4078 5.67038 24.5 5.89294 24.5 6.125V21.875C24.5 22.1071 24.4078 22.3296 24.2437 22.4937C24.0796 22.6578 23.8571 22.75 23.625 22.75H15.75" stroke-width="2" stroke-linecap="round" stroke-linejoin="round"/>
<path d="M3.5 21C3.96413 21 4.40925 21.1844 4.73744 21.5126C5.06563 21.8408 5.25 22.2859 5.25 22.75" stroke-width="2" stroke-linecap="round" stroke-linejoin="round"/>
<path d="M3.5 17.5C4.89239 17.5 6.22774 18.0531 7.21231 19.0377C8.19688 20.0223 8.75 21.3576 8.75 22.75" stroke-width="2" stroke-linecap="round" stroke-linejoin="round"/>
<path d="M3.5 14C4.64907 14 5.78688 14.2263 6.84848 14.6661C7.91008 15.1058 8.87467 15.7503 9.68718 16.5628C10.4997 17.3753 11.1442 18.3399 11.5839 19.4015C12.0237 20.4631 12.25 21.6009 12.25 22.75" stroke-width="2" stroke-linecap="round" stroke-linejoin="round"/>
</svg>
