<svg width="28" height="28" viewBox="0 0 28 28" fill="none" xmlns="http://www.w3.org/2000/svg">
<path d="M17.5 9.625H5.25C4.76675 9.625 4.375 10.0168 4.375 10.5V22.75C4.375 23.2332 4.76675 23.625 5.25 23.625H17.5C17.9832 23.625 18.375 23.2332 18.375 22.75V10.5C18.375 10.0168 17.9832 9.625 17.5 9.625Z" stroke-width="2" stroke-linecap="round" stroke-linejoin="round"/>
<path d="M17.5 4.375H15.75" stroke-width="2" stroke-linecap="round" stroke-linejoin="round"/>
<path d="M21.875 4.375H22.75C22.9821 4.375 23.2046 4.46719 23.3687 4.63128C23.5328 4.79538 23.625 5.01794 23.625 5.25V6.125" stroke-width="2" stroke-linecap="round" stroke-linejoin="round"/>
<path d="M23.625 12.25V10.5" stroke-width="2" stroke-linecap="round" stroke-linejoin="round"/>
<path d="M21.875 18.375H22.75C22.9821 18.375 23.2046 18.2828 23.3687 18.1187C23.5328 17.9546 23.625 17.7321 23.625 17.5V16.625" stroke-width="2" stroke-linecap="round" stroke-linejoin="round"/>
<path d="M11.375 4.375H10.5C10.2679 4.375 10.0454 4.46719 9.88128 4.63128C9.71719 4.79538 9.625 5.01794 9.625 5.25V6.125" stroke-width="2" stroke-linecap="round" stroke-linejoin="round"/>
</svg>
