<svg width="28" height="28" viewBox="0 0 28 28" fill="none" xmlns="http://www.w3.org/2000/svg">
<path d="M6.125 23.625H5.25C5.01794 23.625 4.79538 23.5328 4.63128 23.3687C4.46719 23.2046 4.375 22.9821 4.375 22.75V21.875" stroke-width="2" stroke-linecap="round" stroke-linejoin="round"/>
<path d="M12.25 9.625H9.625" stroke-width="2" stroke-linecap="round" stroke-linejoin="round"/>
<path d="M12.25 23.625H10.5" stroke-width="2" stroke-linecap="round" stroke-linejoin="round"/>
<path d="M18.375 18.375V15.75" stroke-width="2" stroke-linecap="round" stroke-linejoin="round"/>
<path d="M4.375 17.5V15.75" stroke-width="2" stroke-linecap="round" stroke-linejoin="round"/>
<path d="M16.625 23.625H17.5C17.7321 23.625 17.9546 23.5328 18.1187 23.3687C18.2828 23.2046 18.375 22.9821 18.375 22.75V21.875" stroke-width="2" stroke-linecap="round" stroke-linejoin="round"/>
<path d="M16.625 9.625H17.5C17.7321 9.625 17.9546 9.71719 18.1187 9.88128C18.2828 10.0454 18.375 10.2679 18.375 10.5V11.375" stroke-width="2" stroke-linecap="round" stroke-linejoin="round"/>
<path d="M6.125 9.625H5.25C5.01794 9.625 4.79538 9.71719 4.63128 9.88128C4.46719 10.0454 4.375 10.2679 4.375 10.5V11.375" stroke-width="2" stroke-linecap="round" stroke-linejoin="round"/>
<path d="M18.375 18.375H22.75C22.9821 18.375 23.2046 18.2828 23.3687 18.1187C23.5328 17.9546 23.625 17.7321 23.625 17.5V5.25C23.625 5.01794 23.5328 4.79538 23.3687 4.63128C23.2046 4.46719 22.9821 4.375 22.75 4.375H10.5C10.2679 4.375 10.0454 4.46719 9.88128 4.63128C9.71719 4.79538 9.625 5.01794 9.625 5.25V9.625" stroke-width="2" stroke-linecap="round" stroke-linejoin="round"/>
</svg>
