<svg width="29" height="28" viewBox="0 0 29 28" fill="none" xmlns="http://www.w3.org/2000/svg">
<path d="M9.75 25.375C10.7165 25.375 11.5 24.5915 11.5 23.625C11.5 22.6585 10.7165 21.875 9.75 21.875C8.7835 21.875 8 22.6585 8 23.625C8 24.5915 8.7835 25.375 9.75 25.375Z" fill="#8247E5"/>
<path d="M21.125 25.375C22.0915 25.375 22.875 24.5915 22.875 23.625C22.875 22.6585 22.0915 21.875 21.125 21.875C20.1585 21.875 19.375 22.6585 19.375 23.625C19.375 24.5915 20.1585 25.375 21.125 25.375Z" fill="#8247E5"/>
<path d="M5.62656 7.875H25.2484L22.3609 17.9812C22.2579 18.348 22.0373 18.6708 21.733 18.9C21.4287 19.1293 21.0575 19.2522 20.6766 19.25H10.1984C9.81747 19.2522 9.44631 19.1293 9.14201 18.9C8.8377 18.6708 8.61709 18.348 8.51406 17.9812L4.55469 4.13438C4.50237 3.95145 4.39185 3.79056 4.23987 3.67609C4.0879 3.56162 3.90276 3.4998 3.7125 3.5H1.875" stroke-width="2" stroke-linecap="round" stroke-linejoin="round"/>
</svg>
