<svg width="28" height="28" viewBox="0 0 28 28" fill="none" xmlns="http://www.w3.org/2000/svg">
<path d="M20.125 20.125H7.63438L4.58281 3.34688C4.54711 3.14595 4.4423 2.96382 4.28651 2.832C4.13072 2.70018 3.93375 2.62695 3.72969 2.625H1.75" stroke-width="2" stroke-linecap="round" stroke-linejoin="round"/>
<path d="M8.75 24.5C9.95812 24.5 10.9375 23.5206 10.9375 22.3125C10.9375 21.1044 9.95812 20.125 8.75 20.125C7.54188 20.125 6.5625 21.1044 6.5625 22.3125C6.5625 23.5206 7.54188 24.5 8.75 24.5Z" stroke-width="2" stroke-linecap="round" stroke-linejoin="round"/>
<path d="M20.125 24.5C21.3331 24.5 22.3125 23.5206 22.3125 22.3125C22.3125 21.1044 21.3331 20.125 20.125 20.125C18.9169 20.125 17.9375 21.1044 17.9375 22.3125C17.9375 23.5206 18.9169 24.5 20.125 24.5Z" stroke-width="2" stroke-linecap="round" stroke-linejoin="round"/>
<path d="M6.83594 15.75H20.5734C20.9825 15.7512 21.3788 15.6083 21.6929 15.3462C22.007 15.0842 22.2186 14.7198 22.2906 14.3172L23.625 7H5.25" stroke-width="2" stroke-linecap="round" stroke-linejoin="round"/>
</svg>
