<svg width="29" height="28" viewBox="0 0 29 28" fill="none" xmlns="http://www.w3.org/2000/svg">
<path d="M6.5625 26.25C7.28737 26.25 7.875 25.6624 7.875 24.9375C7.875 24.2126 7.28737 23.625 6.5625 23.625C5.83763 23.625 5.25 24.2126 5.25 24.9375C5.25 25.6624 5.83763 26.25 6.5625 26.25Z" fill="#8247E5"/>
<path d="M9.625 23.1875C10.3499 23.1875 10.9375 22.5999 10.9375 21.875C10.9375 21.1501 10.3499 20.5625 9.625 20.5625C8.90013 20.5625 8.3125 21.1501 8.3125 21.875C8.3125 22.5999 8.90013 23.1875 9.625 23.1875Z" fill="#8247E5"/>
<path d="M3.0625 22.75C3.78737 22.75 4.375 22.1624 4.375 21.4375C4.375 20.7126 3.78737 20.125 3.0625 20.125C2.33763 20.125 1.75 20.7126 1.75 21.4375C1.75 22.1624 2.33763 22.75 3.0625 22.75Z" fill="#8247E5"/>
<path d="M6.125 19.6875C6.84987 19.6875 7.4375 19.0999 7.4375 18.375C7.4375 17.6501 6.84987 17.0625 6.125 17.0625C5.40013 17.0625 4.8125 17.6501 4.8125 18.375C4.8125 19.0999 5.40013 19.6875 6.125 19.6875Z" fill="#8247E5"/>
<path d="M27.1251 4.37501H23.9861C23.8724 4.37461 23.7599 4.39662 23.6548 4.43979C23.5497 4.48295 23.4541 4.54643 23.3736 4.62657L20.1251 7.87501L6.04857 10.2156C5.88921 10.242 5.74026 10.312 5.61822 10.4178C5.49618 10.5236 5.40581 10.6611 5.35711 10.8151C5.30842 10.9691 5.30331 11.1336 5.34234 11.2903C5.38137 11.4471 5.46302 11.5899 5.57826 11.7031L16.297 22.4219C16.4102 22.5371 16.5531 22.6188 16.7098 22.6578C16.8665 22.6968 17.031 22.6917 17.185 22.643C17.339 22.5943 17.4766 22.504 17.5824 22.3819C17.6882 22.2599 17.7581 22.1109 17.7845 21.9516L20.1251 7.87501" stroke="#8247E5" stroke-width="2" stroke-linecap="round" stroke-linejoin="round"/>
</svg>
