<svg width="28" height="28" viewBox="0 0 28 28" fill="none" xmlns="http://www.w3.org/2000/svg">
<path d="M3.5 7.875H6.02656C7.13931 7.87636 8.23571 8.14299 9.22483 8.65276C10.2139 9.16254 11.0673 9.90077 11.7141 10.8063L16.2859 17.1937C16.9327 18.0992 17.7861 18.8375 18.7752 19.3472C19.7643 19.857 20.8607 20.1236 21.9734 20.125H25.375" stroke-width="2" stroke-linecap="round" stroke-linejoin="round"/>
<path d="M22.75 5.25L25.375 7.875L22.75 10.5" stroke-width="2" stroke-linecap="round" stroke-linejoin="round"/>
<path d="M22.75 17.5L25.375 20.125L22.75 22.75" stroke-width="2" stroke-linecap="round" stroke-linejoin="round"/>
<path d="M16.1543 10.9922L16.2855 10.8063C16.9323 9.90077 17.7857 9.16254 18.7748 8.65276C19.7639 8.14299 20.8603 7.87636 21.973 7.875H25.3746" stroke-width="2" stroke-linecap="round" stroke-linejoin="round"/>
<path d="M3.5 20.125H6.02656C7.13931 20.1236 8.23571 19.857 9.22483 19.3472C10.2139 18.8375 11.0673 18.0992 11.7141 17.1937L11.8453 17.0078" stroke-width="2" stroke-linecap="round" stroke-linejoin="round"/>
</svg>
