<svg width="28" height="28" viewBox="0 0 28 28" fill="none" xmlns="http://www.w3.org/2000/svg">
<path d="M20.6501 13.2564L7.45943 5.18452C7.32615 5.10229 7.17324 5.05734 7.01665 5.05436C6.86007 5.05138 6.70556 5.09048 6.56924 5.16757C6.43293 5.24467 6.3198 5.35694 6.24167 5.49267C6.16354 5.6284 6.12327 5.78261 6.12506 5.93921V22.0611C6.12327 22.2177 6.16354 22.3719 6.24167 22.5076C6.3198 22.6433 6.43293 22.7556 6.56924 22.8327C6.70556 22.9098 6.86007 22.9489 7.01665 22.9459C7.17324 22.943 7.32615 22.898 7.45943 22.8158L20.6501 14.7439C20.7767 14.6654 20.8812 14.5559 20.9536 14.4258C21.0261 14.2956 21.0641 14.1491 21.0641 14.0001C21.0641 13.8512 21.0261 13.7047 20.9536 13.5745C20.8812 13.4444 20.7767 13.3349 20.6501 13.2564Z" stroke-width="2" stroke-linecap="round" stroke-linejoin="round"/>
<path d="M21.875 4.375V23.625" stroke-width="2" stroke-linecap="round" stroke-linejoin="round"/>
</svg>
