<svg width="28" height="28" viewBox="0 0 28 28" fill="none" xmlns="http://www.w3.org/2000/svg">
<path d="M10.0625 16.625C11.2706 16.625 12.25 15.6456 12.25 14.4375C12.25 13.2294 11.2706 12.25 10.0625 12.25C8.85438 12.25 7.875 13.2294 7.875 14.4375C7.875 15.6456 8.85438 16.625 10.0625 16.625Z" stroke="#8247E5" stroke-width="2" stroke-linecap="round" stroke-linejoin="round"/>
<path d="M17.9375 16.625C19.1456 16.625 20.125 15.6456 20.125 14.4375C20.125 13.2294 19.1456 12.25 17.9375 12.25C16.7294 12.25 15.75 13.2294 15.75 14.4375C15.75 15.6456 16.7294 16.625 17.9375 16.625Z" stroke="#8247E5" stroke-width="2" stroke-linecap="round" stroke-linejoin="round"/>
<path d="M8.75 21.2733C6.87887 20.129 5.43287 18.4046 4.6321 16.3627C3.83134 14.3208 3.71966 12.0731 4.31408 9.96191C4.9085 7.85067 6.17645 5.99146 7.92494 4.66728C9.67342 3.3431 11.8067 2.62646 14 2.62646C16.1933 2.62646 18.3266 3.3431 20.0751 4.66728C21.8236 5.99146 23.0915 7.85067 23.6859 9.96191C24.2803 12.0731 24.1687 14.3208 23.3679 16.3627C22.5671 18.4046 21.1211 20.129 19.25 21.2733V23.6249C19.25 23.857 19.1578 24.0795 18.9937 24.2436C18.8296 24.4077 18.6071 24.4999 18.375 24.4999H9.625C9.39294 24.4999 9.17038 24.4077 9.00628 24.2436C8.84219 24.0795 8.75 23.857 8.75 23.6249V21.2733Z" stroke="#8247E5" stroke-width="2" stroke-linecap="round" stroke-linejoin="round"/>
<path d="M12.25 24.5V21" stroke="#8247E5" stroke-width="2" stroke-linecap="round" stroke-linejoin="round"/>
<path d="M15.75 24.5V21" stroke="#8247E5" stroke-width="2" stroke-linecap="round" stroke-linejoin="round"/>
</svg>
