<svg width="28" height="28" viewBox="0 0 28 28" fill="none" xmlns="http://www.w3.org/2000/svg">
<path d="M16.1875 18.8125H4.375" stroke-width="2" stroke-linecap="round" stroke-linejoin="round"/>
<path d="M23.625 18.8125H20.5625" stroke-width="2" stroke-linecap="round" stroke-linejoin="round"/>
<path d="M18.375 21C19.5831 21 20.5625 20.0206 20.5625 18.8125C20.5625 17.6044 19.5831 16.625 18.375 16.625C17.1669 16.625 16.1875 17.6044 16.1875 18.8125C16.1875 20.0206 17.1669 21 18.375 21Z" stroke-width="2" stroke-linecap="round" stroke-linejoin="round"/>
<path d="M9.1875 9.1875H4.375" stroke-width="2" stroke-linecap="round" stroke-linejoin="round"/>
<path d="M23.625 9.1875H13.5625" stroke-width="2" stroke-linecap="round" stroke-linejoin="round"/>
<path d="M11.375 11.375C12.5831 11.375 13.5625 10.3956 13.5625 9.1875C13.5625 7.97938 12.5831 7 11.375 7C10.1669 7 9.1875 7.97938 9.1875 9.1875C9.1875 10.3956 10.1669 11.375 11.375 11.375Z" stroke-width="2" stroke-linecap="round" stroke-linejoin="round"/>
</svg>
