<svg width="28" height="28" viewBox="0 0 28 28" fill="none" xmlns="http://www.w3.org/2000/svg">
<path d="M14 11.8125V23.625" stroke-width="2" stroke-linecap="round" stroke-linejoin="round"/>
<path d="M14 4.375V7.4375" stroke-width="2" stroke-linecap="round" stroke-linejoin="round"/>
<path d="M14 11.8125C15.2081 11.8125 16.1875 10.8331 16.1875 9.625C16.1875 8.41688 15.2081 7.4375 14 7.4375C12.7919 7.4375 11.8125 8.41688 11.8125 9.625C11.8125 10.8331 12.7919 11.8125 14 11.8125Z" stroke-width="2" stroke-linecap="round" stroke-linejoin="round"/>
<path d="M21.875 20.5625V23.625" stroke-width="2" stroke-linecap="round" stroke-linejoin="round"/>
<path d="M21.875 4.375V16.1875" stroke-width="2" stroke-linecap="round" stroke-linejoin="round"/>
<path d="M21.875 20.5625C23.0831 20.5625 24.0625 19.5831 24.0625 18.375C24.0625 17.1669 23.0831 16.1875 21.875 16.1875C20.6669 16.1875 19.6875 17.1669 19.6875 18.375C19.6875 19.5831 20.6669 20.5625 21.875 20.5625Z" stroke-width="2" stroke-linecap="round" stroke-linejoin="round"/>
<path d="M6.125 17.0625V23.625" stroke-width="2" stroke-linecap="round" stroke-linejoin="round"/>
<path d="M6.125 4.375V12.6875" stroke-width="2" stroke-linecap="round" stroke-linejoin="round"/>
<path d="M6.125 17.0625C7.33312 17.0625 8.3125 16.0831 8.3125 14.875C8.3125 13.6669 7.33312 12.6875 6.125 12.6875C4.91688 12.6875 3.9375 13.6669 3.9375 14.875C3.9375 16.0831 4.91688 17.0625 6.125 17.0625Z" stroke-width="2" stroke-linecap="round" stroke-linejoin="round"/>
</svg>
