<svg width="28" height="28" viewBox="0 0 28 28" fill="none" xmlns="http://www.w3.org/2000/svg">
<path d="M14 24.5C19.799 24.5 24.5 19.799 24.5 14C24.5 8.20101 19.799 3.5 14 3.5C8.20101 3.5 3.5 8.20101 3.5 14C3.5 19.799 8.20101 24.5 14 24.5Z" stroke-width="2" stroke-miterlimit="10"/>
<path d="M10.0625 13.125C10.7874 13.125 11.375 12.5374 11.375 11.8125C11.375 11.0876 10.7874 10.5 10.0625 10.5C9.33763 10.5 8.75 11.0876 8.75 11.8125C8.75 12.5374 9.33763 13.125 10.0625 13.125Z" fill="#8247E5"/>
<path d="M17.9375 13.125C18.6624 13.125 19.25 12.5374 19.25 11.8125C19.25 11.0876 18.6624 10.5 17.9375 10.5C17.2126 10.5 16.625 11.0876 16.625 11.8125C16.625 12.5374 17.2126 13.125 17.9375 13.125Z" fill="#8247E5"/>
<path d="M10.0625 13.125C10.7874 13.125 11.375 12.5374 11.375 11.8125C11.375 11.0876 10.7874 10.5 10.0625 10.5C9.33763 10.5 8.75 11.0876 8.75 11.8125C8.75 12.5374 9.33763 13.125 10.0625 13.125Z" fill="#8247E5"/>
<path d="M17.9375 13.125C18.6624 13.125 19.25 12.5374 19.25 11.8125C19.25 11.0876 18.6624 10.5 17.9375 10.5C17.2126 10.5 16.625 11.0876 16.625 11.8125C16.625 12.5374 17.2126 13.125 17.9375 13.125Z" fill="#8247E5"/>
<path d="M18.5502 19.2498C18.0876 18.4529 17.4239 17.7915 16.6254 17.3317C15.8269 16.8719 14.9216 16.6299 14.0002 16.6299C13.0788 16.6299 12.1735 16.8719 11.375 17.3317C10.5765 17.7915 9.91275 18.4529 9.4502 19.2498" stroke-width="2" stroke-linecap="round" stroke-linejoin="round"/>
</svg>
