<svg width="28" height="28" viewBox="0 0 28 28" fill="none" xmlns="http://www.w3.org/2000/svg">
<path d="M14 2.625C14 2.625 24.9375 9.625 24.9375 15.3125C24.9384 16.3953 24.6303 17.4558 24.0492 18.3694C23.4682 19.2831 22.6384 20.0119 21.6575 20.4702C20.6765 20.9286 19.5851 21.0973 18.5115 20.9567C17.4379 20.8162 16.4268 20.372 15.5969 19.6766L17.5 25.375H10.5L12.4031 19.6766C11.5733 20.372 10.5621 20.8162 9.48851 20.9567C8.41492 21.0973 7.3235 20.9286 6.34253 20.4702C5.36156 20.0119 4.53179 19.2831 3.95076 18.3694C3.36973 17.4558 3.06157 16.3953 3.0625 15.3125C3.0625 9.625 14 2.625 14 2.625Z" stroke-width="2" stroke-linecap="round" stroke-linejoin="round"/>
</svg>
