<svg width="28" height="28" viewBox="0 0 28 28" fill="none" xmlns="http://www.w3.org/2000/svg">
<path d="M15.1707 19.1952L13.0707 24.8937C13.0086 25.0611 12.8966 25.2055 12.75 25.3075C12.6034 25.4095 12.429 25.4642 12.2504 25.4642C12.0718 25.4642 11.8974 25.4095 11.7508 25.3075C11.6042 25.2055 11.4922 25.0611 11.4301 24.8937L9.33008 19.1952C9.28576 19.0749 9.21587 18.9657 9.12523 18.8751C9.03459 18.7844 8.92536 18.7145 8.80508 18.6702L3.10665 16.5702C2.93919 16.5081 2.79477 16.3961 2.69278 16.2495C2.5908 16.1029 2.53613 15.9285 2.53613 15.7499C2.53613 15.5713 2.5908 15.3969 2.69278 15.2503C2.79477 15.1037 2.93919 14.9918 3.10665 14.9296L8.80508 12.8296C8.92536 12.7853 9.03459 12.7154 9.12523 12.6247C9.21587 12.5341 9.28576 12.4249 9.33008 12.3046L11.4301 6.60616C11.4922 6.4387 11.6042 6.29428 11.7508 6.1923C11.8974 6.09031 12.0718 6.03564 12.2504 6.03564C12.429 6.03564 12.6034 6.09031 12.75 6.1923C12.8966 6.29428 13.0086 6.4387 13.0707 6.60616L15.1707 12.3046C15.215 12.4249 15.2849 12.5341 15.3756 12.6247C15.4662 12.7154 15.5754 12.7853 15.6957 12.8296L21.3941 14.9296C21.5616 14.9918 21.706 15.1037 21.808 15.2503C21.91 15.3969 21.9647 15.5713 21.9647 15.7499C21.9647 15.9285 21.91 16.1029 21.808 16.2495C21.706 16.3961 21.5616 16.5081 21.3941 16.5702L15.6957 18.6702C15.5754 18.7145 15.4662 18.7844 15.3756 18.8751C15.2849 18.9657 15.215 19.0749 15.1707 19.1952V19.1952Z" stroke="#8247E5" stroke-width="2" stroke-linecap="round" stroke-linejoin="round"/>
<path d="M19.25 1.75V7" stroke="#8247E5" stroke-width="2" stroke-linecap="round" stroke-linejoin="round"/>
<path d="M21.875 4.375H16.625" stroke="#8247E5" stroke-width="2" stroke-linecap="round" stroke-linejoin="round"/>
<path d="M24.5 7.875V11.375" stroke="#8247E5" stroke-width="2" stroke-linecap="round" stroke-linejoin="round"/>
<path d="M26.25 9.625H22.75" stroke="#8247E5" stroke-width="2" stroke-linecap="round" stroke-linejoin="round"/>
</svg>
