<svg width="28" height="28" viewBox="0 0 28 28" fill="none" xmlns="http://www.w3.org/2000/svg">
<path d="M14.875 14.875C15.1071 14.875 15.3296 14.9672 15.4937 15.1313C15.6578 15.2954 15.75 15.5179 15.75 15.75C15.75 16.2141 15.5656 16.6592 15.2374 16.9874C14.9092 17.3156 14.4641 17.5 14 17.5C13.6549 17.5014 13.3129 17.4345 12.9937 17.3031C12.6746 17.1717 12.3847 16.9784 12.1406 16.7344C11.8966 16.4903 11.7033 16.2004 11.5719 15.8813C11.4405 15.5621 11.3736 15.2201 11.375 14.875C11.375 13.9467 11.7437 13.0565 12.4001 12.4001C13.0565 11.7437 13.9467 11.375 14.875 11.375C16.0353 11.375 17.1481 11.8359 17.9686 12.6564C18.7891 13.4769 19.25 14.5897 19.25 15.75C19.25 17.1424 18.6969 18.4777 17.7123 19.4623C16.7277 20.4469 15.3924 21 14 21C12.3755 21 10.8176 20.3547 9.66897 19.206C8.52031 18.0574 7.875 16.4995 7.875 14.875C7.87789 13.0194 8.61632 11.2406 9.92845 9.92845C11.2406 8.61632 13.0194 7.87789 14.875 7.875C16.9636 7.875 18.9666 8.70469 20.4435 10.1815C21.9203 11.6584 22.75 13.6614 22.75 15.75C22.75 16.8991 22.5237 18.0369 22.0839 19.0985C21.6442 20.1601 20.9997 21.1247 20.1872 21.9372C19.3747 22.7497 18.4101 23.3942 17.3485 23.8339C16.2869 24.2737 15.1491 24.5 14 24.5C11.4473 24.5 8.99913 23.4859 7.1941 21.6809C5.38906 19.8759 4.375 17.4277 4.375 14.875C4.375 12.0902 5.48125 9.41951 7.45038 7.45038C9.41951 5.48125 12.0902 4.375 14.875 4.375C16.3688 4.375 17.8479 4.66922 19.228 5.24087C20.6081 5.81252 21.8621 6.65039 22.9183 7.70666C23.9746 8.76293 24.8125 10.0169 25.3841 11.397C25.9558 12.7771 26.25 14.2562 26.25 15.75" stroke-width="2" stroke-linecap="round" stroke-linejoin="round"/>
</svg>
