<svg width="28" height="28" viewBox="0 0 28 28" fill="none" xmlns="http://www.w3.org/2000/svg">
<path d="M4.375 24.5H23.625" stroke-width="2" stroke-linecap="round" stroke-linejoin="round"/>
<path d="M12.2496 14.875L10.3027 5.79688C10.2212 5.41408 10.2263 5.0179 10.3176 4.63732C10.409 4.25675 10.5843 3.90142 10.8307 3.59734C11.0771 3.29326 11.3884 3.04814 11.7417 2.8799C12.0951 2.71166 12.4816 2.62457 12.873 2.625H15.1262C15.5175 2.62457 15.9041 2.71166 16.2574 2.8799C16.6108 3.04814 16.9221 3.29326 17.1685 3.59734C17.4149 3.90142 17.5902 4.25675 17.6816 4.63732C17.7729 5.0179 17.778 5.41408 17.6965 5.79688L15.7496 14.875" stroke-width="2" stroke-linecap="round" stroke-linejoin="round"/>
<path d="M22.75 14.875H5.25C4.76675 14.875 4.375 15.2668 4.375 15.75V20.125C4.375 20.6082 4.76675 21 5.25 21H22.75C23.2332 21 23.625 20.6082 23.625 20.125V15.75C23.625 15.2668 23.2332 14.875 22.75 14.875Z" stroke-width="2" stroke-linecap="round" stroke-linejoin="round"/>
</svg>
