<svg width="28" height="28" viewBox="0 0 28 28" fill="none" xmlns="http://www.w3.org/2000/svg">
<path d="M14 2.625V20.7156" stroke="#8247E5" stroke-width="2" stroke-linecap="round" stroke-linejoin="round"/>
<path d="M24.0842 12.7531L25.0357 11.9547C25.6811 11.4188 25.3529 10.336 24.5107 10.2813L23.2529 10.2047" stroke="#8247E5" stroke-width="2" stroke-linecap="round" stroke-linejoin="round"/>
<path d="M20.136 18.4732L19.7751 17.0404C19.7319 16.8664 19.7388 16.6837 19.7949 16.5134C19.851 16.3432 19.9541 16.1922 20.0923 16.0779L21.186 15.1592" stroke="#8247E5" stroke-width="2" stroke-linecap="round" stroke-linejoin="round"/>
<path d="M19.4905 9.95315L18.0577 9.86565C17.8816 9.85541 17.7123 9.79409 17.5705 9.6892C17.4287 9.58432 17.3206 9.44039 17.2592 9.27503L16.7014 7.87503L14.853 3.21565C14.7893 3.04055 14.6733 2.88928 14.5206 2.78239C14.368 2.6755 14.1862 2.61816 13.9999 2.61816C13.8135 2.61816 13.6317 2.6755 13.4791 2.78239C13.3265 2.88928 13.2104 3.04055 13.1467 3.21565L10.7405 9.27503C10.6792 9.44039 10.571 9.58432 10.4292 9.6892C10.2874 9.79409 10.1181 9.85541 9.94206 9.86565L3.48894 10.2813C2.64675 10.336 2.31862 11.4188 2.96394 11.9547L7.90769 16.0782C8.04586 16.1924 8.14895 16.3434 8.20507 16.5137C8.26119 16.684 8.26805 16.8666 8.22487 17.0407L6.74831 22.8594C6.49675 23.8438 7.54675 24.6422 8.38894 24.1063L13.5186 20.8578C13.6625 20.7664 13.8294 20.7178 13.9999 20.7178C14.1703 20.7178 14.3373 20.7664 14.4811 20.8578L15.7389 21.6563" stroke="#8247E5" stroke-width="2" stroke-linecap="round" stroke-linejoin="round"/>
<path d="M18.9219 23.6797L19.9938 24.3578C20.7047 24.8063 21.5797 24.1391 21.3719 23.3188L21.0656 22.1266" stroke="#8247E5" stroke-width="2" stroke-linecap="round" stroke-linejoin="round"/>
</svg>
