<svg width="28" height="28" viewBox="0 0 28 28" fill="none" xmlns="http://www.w3.org/2000/svg">
<path d="M14.4811 20.8578L19.9936 24.3578C20.7046 24.8063 21.5796 24.1391 21.3717 23.3188L19.7749 17.0407C19.7317 16.8666 19.7386 16.684 19.7947 16.5137C19.8508 16.3434 19.9539 16.1924 20.0921 16.0782L25.0358 11.9547C25.6811 11.4188 25.353 10.336 24.5108 10.2813L18.0577 9.86565C17.8816 9.85541 17.7123 9.79409 17.5705 9.68921C17.4287 9.58432 17.3206 9.4404 17.2592 9.27503L14.853 3.21565C14.7893 3.04055 14.6733 2.88928 14.5206 2.78239C14.368 2.6755 14.1862 2.61816 13.9999 2.61816C13.8135 2.61816 13.6317 2.6755 13.4791 2.78239C13.3265 2.88928 13.2104 3.04055 13.1467 3.21565L10.7405 9.27503C10.6792 9.4404 10.571 9.58432 10.4292 9.68921C10.2874 9.79409 10.1181 9.85541 9.94206 9.86565L3.48894 10.2813C2.64675 10.336 2.31862 11.4188 2.96394 11.9547L7.90769 16.0782C8.04586 16.1924 8.14895 16.3434 8.20507 16.5137C8.26119 16.684 8.26805 16.8666 8.22487 17.0407L6.74831 22.8594C6.49675 23.8438 7.54675 24.6422 8.38894 24.1063L13.5186 20.8578C13.6625 20.7664 13.8294 20.7178 13.9999 20.7178C14.1703 20.7178 14.3373 20.7664 14.4811 20.8578V20.8578Z" stroke-width="2" stroke-linecap="round" stroke-linejoin="round"/>
</svg>
