<svg width="28" height="28" viewBox="0 0 28 28" fill="none" xmlns="http://www.w3.org/2000/svg">
<path d="M3.5 7V15.75" stroke="#8247E5" stroke-width="2" stroke-linecap="round" stroke-linejoin="round"/>
<path d="M5.92773 23.6252C6.80324 22.2823 7.99993 21.1791 9.40939 20.4155C10.8189 19.6519 12.3966 19.252 13.9996 19.252C15.6026 19.252 17.1804 19.6519 18.5898 20.4155C19.9993 21.1791 21.196 22.2823 22.0715 23.6252" stroke="#8247E5" stroke-width="2" stroke-linecap="round" stroke-linejoin="round"/>
<path d="M24.5 7L14 10.5L3.5 7L14 3.5L24.5 7Z" stroke="#8247E5" stroke-width="2" stroke-linecap="round" stroke-linejoin="round"/>
<path d="M18.5172 8.99072C19.3198 9.86723 19.8501 10.9583 20.0434 12.131C20.2368 13.3036 20.0847 14.5072 19.6059 15.595C19.127 16.6827 18.3421 17.6077 17.3467 18.2571C16.3513 18.9065 15.1885 19.2522 14 19.2522C12.8115 19.2522 11.6487 18.9065 10.6533 18.2571C9.65793 17.6077 8.87297 16.6827 8.39413 15.595C7.91529 14.5072 7.76326 13.3036 7.95657 12.131C8.14988 10.9583 8.68017 9.86723 9.48282 8.99072" stroke="#8247E5" stroke-width="2" stroke-linecap="round" stroke-linejoin="round"/>
</svg>
