<svg width="28" height="28" viewBox="0 0 28 28" fill="none" xmlns="http://www.w3.org/2000/svg">
<path d="M11.375 15.3125V17.9375C11.375 18.9818 10.9602 19.9833 10.2217 20.7217C9.48331 21.4602 8.48179 21.875 7.4375 21.875C6.39321 21.875 5.39169 21.4602 4.65327 20.7217C3.91484 19.9833 3.5 18.9818 3.5 17.9375V15.3125" stroke="#8247E5" stroke-width="2" stroke-linecap="round" stroke-linejoin="round"/>
<path d="M24.5 15.3125V17.9375C24.5 18.9818 24.0852 19.9833 23.3467 20.7217C22.6083 21.4602 21.6068 21.875 20.5625 21.875C19.5182 21.875 18.5167 21.4602 17.7783 20.7217C17.0398 19.9833 16.625 18.9818 16.625 17.9375V15.3125" stroke="#8247E5" stroke-width="2" stroke-linecap="round" stroke-linejoin="round"/>
<path d="M21.875 5.25002C22.2201 5.24858 22.5621 5.31549 22.8813 5.44689C23.2004 5.5783 23.4904 5.7716 23.7344 6.01564C23.9784 6.25968 24.1717 6.54964 24.3032 6.86877C24.4346 7.1879 24.5015 7.5299 24.5 7.87502V15.3125H3.50002V7.87502C3.49858 7.5299 3.56549 7.1879 3.69689 6.86877C3.8283 6.54964 4.0216 6.25968 4.26564 6.01564C4.50968 5.7716 4.79964 5.5783 5.11877 5.44689C5.4379 5.31549 5.7799 5.24858 6.12502 5.25002" stroke="#8247E5" stroke-width="2" stroke-linecap="round" stroke-linejoin="round"/>
<path d="M18.375 15.3125L23.5594 20.4969" stroke="#8247E5" stroke-width="2" stroke-linecap="round" stroke-linejoin="round"/>
<path d="M5.25 15.3125L10.4344 20.4969" stroke="#8247E5" stroke-width="2" stroke-linecap="round" stroke-linejoin="round"/>
</svg>
