<svg width="28" height="28" viewBox="0 0 28 28" fill="none" xmlns="http://www.w3.org/2000/svg">
<path d="M8.75 17.5H22.75C22.9821 17.5 23.2046 17.4078 23.3687 17.2437C23.5328 17.0796 23.625 16.8571 23.625 16.625V5.25C23.625 5.01794 23.5328 4.79538 23.3687 4.63128C23.2046 4.46719 22.9821 4.375 22.75 4.375H10.5C10.2679 4.375 10.0454 4.46719 9.88128 4.63128C9.71719 4.79538 9.625 5.01794 9.625 5.25V6.125" stroke="#8247E5" stroke-width="2" stroke-linecap="round" stroke-linejoin="round"/>
<path d="M11.375 14.875L8.75 17.5L11.375 20.125" stroke="#8247E5" stroke-width="2" stroke-linecap="round" stroke-linejoin="round"/>
<path d="M19.25 10.5H5.25C5.01794 10.5 4.79538 10.5922 4.63128 10.7563C4.46719 10.9204 4.375 11.1429 4.375 11.375V22.75C4.375 22.9821 4.46719 23.2046 4.63128 23.3687C4.79538 23.5328 5.01794 23.625 5.25 23.625H17.5C17.7321 23.625 17.9546 23.5328 18.1187 23.3687C18.2828 23.2046 18.375 22.9821 18.375 22.75V21.875" stroke="#8247E5" stroke-width="2" stroke-linecap="round" stroke-linejoin="round"/>
<path d="M16.625 13.125L19.25 10.5L16.625 7.875" stroke="#8247E5" stroke-width="2" stroke-linecap="round" stroke-linejoin="round"/>
</svg>
