<svg width="28" height="28" viewBox="0 0 28 28" fill="none" xmlns="http://www.w3.org/2000/svg">
<path d="M4.01426 18.9217L6.66114 3.92634C6.67964 3.81317 6.72048 3.70481 6.78128 3.60758C6.84209 3.51035 6.92164 3.4262 7.01529 3.36002C7.10895 3.29385 7.21485 3.24699 7.3268 3.22216C7.43876 3.19733 7.55454 3.19503 7.66739 3.2154L13.7049 4.27634C13.933 4.31899 14.1353 4.44945 14.2682 4.63966C14.4012 4.82987 14.4542 5.06465 14.4158 5.29353L11.758 20.3763C11.576 21.3919 11.0037 22.296 10.1635 22.8949C9.32337 23.4938 8.28215 23.7401 7.2627 23.581C5.08614 23.231 3.63145 21.0982 4.01426 18.9217Z" stroke-width="2" stroke-linecap="round" stroke-linejoin="round"/>
<path d="M12.9395 13.6499L20.9129 10.7514C21.0213 10.7114 21.1366 10.6932 21.252 10.698C21.3675 10.7028 21.4808 10.7303 21.5856 10.7792C21.6903 10.828 21.7844 10.897 21.8623 10.9824C21.9402 11.0677 22.0004 11.1677 22.0395 11.2764L24.1395 17.0296C24.2169 17.2472 24.2052 17.4866 24.1068 17.6956C24.0085 17.9045 23.8315 18.0662 23.6145 18.1452L9.2207 23.3842" stroke-width="2" stroke-linecap="round" stroke-linejoin="round"/>
<path d="M24.0625 17.7734V22.75C24.0625 22.9821 23.9703 23.2046 23.8062 23.3687C23.6421 23.5328 23.4196 23.625 23.1875 23.625H7.875" stroke-width="2" stroke-linecap="round" stroke-linejoin="round"/>
<path d="M7.875 21C8.59987 21 9.1875 20.4124 9.1875 19.6875C9.1875 18.9626 8.59987 18.375 7.875 18.375C7.15013 18.375 6.5625 18.9626 6.5625 19.6875C6.5625 20.4124 7.15013 21 7.875 21Z" fill="#8247E5"/>
</svg>
