<svg width="28" height="28" viewBox="0 0 28 28" fill="none" xmlns="http://www.w3.org/2000/svg">
<path d="M8.33398 14.4594L16.6465 4.39688L23.6246 4.375L23.6027 11.3531L13.5402 19.6656" stroke="#8247E5" stroke-width="2" stroke-linecap="round" stroke-linejoin="round"/>
<path d="M10.9375 17.0625L17.5 10.5" stroke="#8247E5" stroke-width="2" stroke-linecap="round" stroke-linejoin="round"/>
<path d="M8.98014 21.6016L5.70983 24.8719C5.5458 25.0355 5.32356 25.1274 5.09186 25.1274C4.86016 25.1274 4.63793 25.0355 4.47389 24.8719L3.12858 23.5266C2.96494 23.3626 2.87305 23.1403 2.87305 22.9086C2.87305 22.6769 2.96494 22.4547 3.12858 22.2907L6.39889 19.0203C6.48157 18.9389 6.54722 18.8419 6.59204 18.7348C6.63685 18.6278 6.65993 18.5129 6.65993 18.3969C6.65993 18.2809 6.63685 18.166 6.59204 18.059C6.54722 17.9519 6.48157 17.8549 6.39889 17.7735L4.12389 15.4985C4.04122 15.417 3.97556 15.32 3.93075 15.213C3.88593 15.1059 3.86286 14.9911 3.86286 14.875C3.86286 14.759 3.88593 14.6441 3.93075 14.5371C3.97556 14.4301 4.04122 14.333 4.12389 14.2516L5.50202 12.8735C5.58343 12.7908 5.68048 12.7251 5.78751 12.6803C5.89455 12.6355 6.00942 12.6124 6.12545 12.6124C6.24149 12.6124 6.35636 12.6355 6.4634 12.6803C6.57043 12.7251 6.66747 12.7908 6.74889 12.8735L15.127 21.2516C15.2097 21.333 15.2753 21.4301 15.3202 21.5371C15.365 21.6441 15.3881 21.759 15.3881 21.875C15.3881 21.9911 15.365 22.1059 15.3202 22.213C15.2753 22.32 15.2097 22.417 15.127 22.4985L13.7489 23.8766C13.6675 23.9593 13.5704 24.0249 13.4634 24.0697C13.3564 24.1145 13.2415 24.1376 13.1255 24.1376C13.0094 24.1376 12.8945 24.1145 12.7875 24.0697C12.6805 24.0249 12.5834 23.9593 12.502 23.8766L10.227 21.6016C10.1456 21.5189 10.0486 21.4533 9.94152 21.4084C9.83449 21.3636 9.71961 21.3406 9.60358 21.3406C9.48755 21.3406 9.37267 21.3636 9.26564 21.4084C9.15861 21.4533 9.06156 21.5189 8.98014 21.6016Z" stroke="#8247E5" stroke-width="2" stroke-linecap="round" stroke-linejoin="round"/>
</svg>
