<svg width="28" height="28" viewBox="0 0 28 28" fill="none" xmlns="http://www.w3.org/2000/svg">
<path d="M21.2625 21.4813L26.25 14L21.2625 6.51879C21.1834 6.39679 21.0747 6.29675 20.9466 6.22792C20.8185 6.15909 20.6751 6.1237 20.5297 6.12504H4.375C4.14294 6.12504 3.92038 6.21722 3.75628 6.38132C3.59219 6.54541 3.5 6.76797 3.5 7.00004V21C3.5 21.2321 3.59219 21.4547 3.75628 21.6188C3.92038 21.7829 4.14294 21.875 4.375 21.875H20.5297C20.6751 21.8764 20.8185 21.841 20.9466 21.7722C21.0747 21.7033 21.1834 21.6033 21.2625 21.4813V21.4813Z" stroke-width="2" stroke-linecap="round" stroke-linejoin="round"/>
</svg>
