<svg width="28" height="28" viewBox="0 0 28 28" fill="none" xmlns="http://www.w3.org/2000/svg">
<path d="M20.3875 21.4813L25.0469 14.4813C25.1437 14.3395 25.1956 14.1718 25.1956 14C25.1956 13.8283 25.1437 13.6606 25.0469 13.5188L20.3875 6.51879C20.3084 6.39679 20.1997 6.29675 20.0716 6.22792C19.9435 6.15909 19.8001 6.1237 19.6547 6.12504H2.625L7.54688 13.5188C7.64375 13.6606 7.69557 13.8283 7.69557 14C7.69557 14.1718 7.64375 14.3395 7.54688 14.4813L2.625 21.875H19.6547C19.8001 21.8764 19.9435 21.841 20.0716 21.7722C20.1997 21.7033 20.3084 21.6033 20.3875 21.4813V21.4813Z" stroke-width="2" stroke-linecap="round" stroke-linejoin="round"/>
</svg>
