<svg width="28" height="28" viewBox="0 0 28 28" fill="none" xmlns="http://www.w3.org/2000/svg">
<path d="M14 14L24.5 3.5" stroke-width="2" stroke-linecap="round" stroke-linejoin="round"/>
<path d="M21.4263 6.57344C19.5648 4.70635 17.0702 3.60615 14.4362 3.49059C11.8023 3.37503 9.2209 4.25252 7.20304 5.9494C5.18519 7.64628 3.87791 10.0389 3.53996 12.6536C3.202 15.2684 3.85799 17.9147 5.3781 20.0689C6.8982 22.223 9.17163 23.728 11.7484 24.2859C14.3252 24.8439 17.0176 24.4141 19.2926 23.0816C21.5676 21.7492 23.2595 19.6112 24.0334 17.0909C24.8073 14.5705 24.6068 11.8515 23.4716 9.47187" stroke-width="2" stroke-linecap="round" stroke-linejoin="round"/>
<path d="M17.708 10.292C16.8409 9.42733 15.6983 8.89371 14.4787 8.78384C13.2591 8.67396 12.0395 8.99477 11.0319 9.69053C10.0242 10.3863 9.29205 11.413 8.96265 12.5924C8.63324 13.7718 8.72738 15.0294 9.22869 16.1466C9.73001 17.2638 10.6068 18.1701 11.7069 18.7081C12.8069 19.2461 14.0606 19.3818 15.2503 19.0916C16.4399 18.8013 17.4903 18.1036 18.219 17.1195C18.9477 16.1353 19.3087 14.9271 19.2392 13.7045" stroke-width="2" stroke-linecap="round" stroke-linejoin="round"/>
</svg>
