<svg width="28" height="28" viewBox="0 0 28 28" fill="none" xmlns="http://www.w3.org/2000/svg">
<path d="M3.5 11.375H8.75V22.75H3.5C3.26794 22.75 3.04538 22.6578 2.88128 22.4937C2.71719 22.3296 2.625 22.1071 2.625 21.875V12.25C2.625 12.0179 2.71719 11.7954 2.88128 11.6313C3.04538 11.4672 3.26794 11.375 3.5 11.375V11.375Z" stroke-width="2" stroke-linecap="round" stroke-linejoin="round"/>
<path d="M8.75 11.375L13.125 2.625C14.0533 2.625 14.9435 2.99375 15.5999 3.65013C16.2562 4.3065 16.625 5.19674 16.625 6.125V8.75H23.3953C23.6434 8.74939 23.8888 8.80188 24.115 8.90396C24.3412 9.00604 24.5429 9.15534 24.7066 9.34182C24.8703 9.52831 24.9922 9.74767 25.0641 9.98516C25.136 10.2227 25.1562 10.4728 25.1234 10.7188L23.8109 21.2188C23.7578 21.6403 23.5532 22.0281 23.2352 22.3098C22.9173 22.5916 22.5076 22.748 22.0828 22.75H8.75" stroke-width="2" stroke-linecap="round" stroke-linejoin="round"/>
</svg>
