<svg width="28" height="28" viewBox="0 0 28 28" fill="none" xmlns="http://www.w3.org/2000/svg">
<path d="M3.5 5.25H8.75V16.625H3.5C3.26794 16.625 3.04538 16.5328 2.88128 16.3687C2.71719 16.2046 2.625 15.9821 2.625 15.75V6.125C2.625 5.89294 2.71719 5.67038 2.88128 5.50628C3.04538 5.34219 3.26794 5.25 3.5 5.25V5.25Z" stroke="#8247E5" stroke-width="2" stroke-linecap="round" stroke-linejoin="round"/>
<path d="M8.75 16.625L13.125 25.375C14.0533 25.375 14.9435 25.0063 15.5999 24.3499C16.2562 23.6935 16.625 22.8033 16.625 21.875V19.25H23.3953C23.6434 19.2506 23.8888 19.1981 24.115 19.096C24.3412 18.994 24.5429 18.8447 24.7066 18.6582C24.8703 18.4717 24.9922 18.2523 25.0641 18.0148C25.136 17.7773 25.1562 17.5272 25.1234 17.2812L23.8109 6.78125C23.7578 6.35974 23.5532 5.97194 23.2352 5.69019C22.9173 5.40844 22.5076 5.25198 22.0828 5.25H8.75" stroke="#8247E5" stroke-width="2" stroke-linecap="round" stroke-linejoin="round"/>
</svg>
