<svg width="28" height="28" viewBox="0 0 28 28" fill="none" xmlns="http://www.w3.org/2000/svg">
<path d="M22.8372 23.625H5.1622C4.94689 23.624 4.73932 23.5446 4.57829 23.4017C4.41725 23.2588 4.31378 23.0621 4.2872 22.8484L2.73407 8.84844C2.72026 8.72646 2.73227 8.60293 2.76932 8.4859C2.80637 8.36886 2.86763 8.26093 2.94913 8.16912C3.03062 8.07731 3.13052 8.00368 3.24234 7.953C3.35415 7.90233 3.47538 7.87575 3.59813 7.875H24.4013C24.524 7.87575 24.6452 7.90233 24.7571 7.953C24.8689 8.00368 24.9688 8.07731 25.0503 8.16912C25.1318 8.26093 25.193 8.36886 25.2301 8.4859C25.2671 8.60293 25.2791 8.72646 25.2653 8.84844L23.7122 22.8484C23.6856 23.0621 23.5821 23.2588 23.4211 23.4017C23.2601 23.5446 23.0525 23.624 22.8372 23.625V23.625Z" stroke="#8247E5" stroke-width="2" stroke-linecap="round" stroke-linejoin="round"/>
<path d="M9.625 7.875C9.625 6.71468 10.0859 5.60188 10.9064 4.78141C11.7269 3.96094 12.8397 3.5 14 3.5C15.1603 3.5 16.2731 3.96094 17.0936 4.78141C17.9141 5.60188 18.375 6.71468 18.375 7.875" stroke="#8247E5" stroke-width="2" stroke-linecap="round" stroke-linejoin="round"/>
</svg>
