<svg width="28" height="28" viewBox="0 0 28 28" fill="none" xmlns="http://www.w3.org/2000/svg">
<path d="M14 24.5C19.799 24.5 24.5 19.799 24.5 14C24.5 8.20101 19.799 3.5 14 3.5C8.20101 3.5 3.5 8.20101 3.5 14C3.5 19.799 8.20101 24.5 14 24.5Z" stroke="#8247E5" stroke-width="2" stroke-linecap="round" stroke-linejoin="round"/>
<path d="M11.375 14.875H14.875C15.5712 14.875 16.2389 14.5984 16.7312 14.1062C17.2234 13.6139 17.5 12.9462 17.5 12.25C17.5 11.5538 17.2234 10.8861 16.7312 10.3938C16.2389 9.90156 15.5712 9.625 14.875 9.625H11.375V18.375" stroke="#8247E5" stroke-width="2" stroke-linecap="round" stroke-linejoin="round"/>
<path d="M15.0498 14.8643L17.4998 18.3752" stroke="#8247E5" stroke-width="2" stroke-linecap="round" stroke-linejoin="round"/>
</svg>
