<svg width="28" height="28" viewBox="0 0 28 28" fill="none" xmlns="http://www.w3.org/2000/svg">
<path d="M14 25.375V9.625" stroke-width="2" stroke-linecap="round" stroke-linejoin="round"/>
<path d="M14 16.625L8.75 14" stroke-width="2" stroke-linecap="round" stroke-linejoin="round"/>
<path d="M14 14L19.25 11.375" stroke-width="2" stroke-linecap="round" stroke-linejoin="round"/>
<path d="M14.4923 19.8186C15.2951 20.3654 16.2029 20.7391 17.1579 20.916C18.113 21.0929 19.0944 21.0691 20.0398 20.8461C20.9851 20.6232 21.8737 20.2059 22.6491 19.6209C23.4244 19.0358 24.0695 18.2958 24.5434 17.4479C25.0172 16.6001 25.3094 15.6628 25.4014 14.6959C25.4934 13.729 25.3831 12.7535 25.0776 11.8315C24.7721 10.9095 24.2781 10.0611 23.627 9.34039C22.9758 8.61967 22.1818 8.04235 21.2954 7.64514C21.1008 7.5473 20.9462 7.38493 20.8579 7.18577C20.2909 5.83495 19.3376 4.68167 18.1175 3.87064C16.8975 3.05961 15.4651 2.62695 14.0001 2.62695C12.5351 2.62695 11.1027 3.05961 9.8827 3.87064C8.66267 4.68167 7.70933 5.83495 7.1423 7.18577C7.05406 7.38493 6.89943 7.5473 6.7048 7.64514C5.81843 8.04235 5.02442 8.61967 4.37328 9.34039C3.72213 10.0611 3.22811 10.9095 2.92262 11.8315C2.61713 12.7535 2.50686 13.729 2.59884 14.6959C2.69081 15.6628 2.98301 16.6001 3.45685 17.4479C3.93069 18.2958 4.57579 19.0358 5.35114 19.6209C6.12649 20.2059 7.0151 20.6232 7.96046 20.8461C8.90582 21.0691 9.88725 21.0929 10.8423 20.916C11.7974 20.7391 12.7051 20.3654 13.5079 19.8186C13.6541 19.7226 13.8252 19.6715 14.0001 19.6715C14.175 19.6715 14.3461 19.7226 14.4923 19.8186Z" stroke-width="2" stroke-linecap="round" stroke-linejoin="round"/>
</svg>
