<svg width="28" height="28" viewBox="0 0 28 28" fill="none" xmlns="http://www.w3.org/2000/svg">
<path d="M14 17.5C16.4162 17.5 18.375 15.5412 18.375 13.125C18.375 10.7088 16.4162 8.75 14 8.75C11.5838 8.75 9.625 10.7088 9.625 13.125C9.625 15.5412 11.5838 17.5 14 17.5Z" stroke="#8247E5" stroke-width="2" stroke-miterlimit="10"/>
<path d="M6.97852 21.8096C7.63685 20.5128 8.64141 19.4237 9.88083 18.663C11.1202 17.9022 12.5461 17.4995 14.0004 17.4995C15.4547 17.4995 16.8805 17.9022 18.12 18.663C19.3594 19.4237 20.3639 20.5128 21.0223 21.8096" stroke="#8247E5" stroke-width="2" stroke-linecap="round" stroke-linejoin="round"/>
<path d="M21.875 7.875C22.8415 7.875 23.625 7.0915 23.625 6.125C23.625 5.1585 22.8415 4.375 21.875 4.375C20.9085 4.375 20.125 5.1585 20.125 6.125C20.125 7.0915 20.9085 7.875 21.875 7.875Z" stroke="#8247E5" stroke-width="2" stroke-linecap="round" stroke-linejoin="round"/>
<path d="M21.875 4.375V3.0625" stroke="#8247E5" stroke-width="2" stroke-linecap="round" stroke-linejoin="round"/>
<path d="M20.3551 5.25L19.2285 4.59375" stroke="#8247E5" stroke-width="2" stroke-linecap="round" stroke-linejoin="round"/>
<path d="M20.3551 7L19.2285 7.65625" stroke="#8247E5" stroke-width="2" stroke-linecap="round" stroke-linejoin="round"/>
<path d="M21.875 7.875V9.1875" stroke="#8247E5" stroke-width="2" stroke-linecap="round" stroke-linejoin="round"/>
<path d="M23.3955 7L24.5221 7.65625" stroke="#8247E5" stroke-width="2" stroke-linecap="round" stroke-linejoin="round"/>
<path d="M23.3955 5.25L24.5221 4.59375" stroke="#8247E5" stroke-width="2" stroke-linecap="round" stroke-linejoin="round"/>
<path d="M24.4234 12.7424C24.4765 13.1595 24.5021 13.5797 24.5 14.0002C24.5 16.0769 23.8842 18.107 22.7304 19.8337C21.5767 21.5604 19.9368 22.9062 18.0182 23.7009C16.0996 24.4956 13.9884 24.7036 11.9516 24.2984C9.91476 23.8933 8.04383 22.8933 6.57538 21.4248C5.10693 19.9564 4.1069 18.0854 3.70176 16.0486C3.29661 14.0118 3.50455 11.9006 4.29927 9.98201C5.09399 8.06339 6.4398 6.42351 8.16652 5.26976C9.89323 4.116 11.9233 3.50019 14 3.50019C14.325 3.49814 14.6499 3.51274 14.9734 3.54394" stroke="#8247E5" stroke-width="2" stroke-linecap="round" stroke-linejoin="round"/>
</svg>
