<svg width="29" height="28" viewBox="0 0 29 28" fill="none" xmlns="http://www.w3.org/2000/svg">
<path d="M8.75 15.75C11.1662 15.75 13.125 13.7912 13.125 11.375C13.125 8.95875 11.1662 7 8.75 7C6.33375 7 4.375 8.95875 4.375 11.375C4.375 13.7912 6.33375 15.75 8.75 15.75Z" stroke-width="2" stroke-linecap="round" stroke-linejoin="round"/>
<path d="M16.625 8.75H27.125" stroke-width="2" stroke-linecap="round" stroke-linejoin="round"/>
<path d="M16.625 14H27.125" stroke-width="2" stroke-linecap="round" stroke-linejoin="round"/>
<path d="M19.25 19.25H27.125" stroke-width="2" stroke-linecap="round" stroke-linejoin="round"/>
<path d="M1.96875 21.0001C2.35428 19.4943 3.22998 18.1597 4.45779 17.2067C5.68561 16.2536 7.1957 15.7363 8.75 15.7363C10.3043 15.7363 11.8144 16.2536 13.0422 17.2067C14.27 18.1597 15.1457 19.4943 15.5312 21.0001" stroke-width="2" stroke-linecap="round" stroke-linejoin="round"/>
</svg>
