<svg width="28" height="28" viewBox="0 0 28 28" fill="none" xmlns="http://www.w3.org/2000/svg">
<path d="M14 17.5C16.4162 17.5 18.375 15.5412 18.375 13.125C18.375 10.7088 16.4162 8.75 14 8.75C11.5838 8.75 9.625 10.7088 9.625 13.125C9.625 15.5412 11.5838 17.5 14 17.5Z" stroke="#8247E5" stroke-width="2" stroke-miterlimit="10"/>
<path d="M6.97852 21.8096C7.63685 20.5128 8.64141 19.4237 9.88083 18.663C11.1202 17.9022 12.5461 17.4995 14.0004 17.4995C15.4547 17.4995 16.8805 17.9022 18.12 18.663C19.3594 19.4237 20.3639 20.5128 21.0223 21.8096" stroke="#8247E5" stroke-width="2" stroke-linecap="round" stroke-linejoin="round"/>
<path d="M19.25 6.125H24.5" stroke="#8247E5" stroke-width="2" stroke-linecap="round" stroke-linejoin="round"/>
<path d="M23.8984 10.5C24.2996 11.6232 24.5031 12.8074 24.5 14C24.5 16.0767 23.8842 18.1068 22.7304 19.8335C21.5767 21.5602 19.9368 22.906 18.0182 23.7008C16.0996 24.4955 13.9884 24.7034 11.9516 24.2983C9.91476 23.8931 8.04383 22.8931 6.57538 21.4246C5.10693 19.9562 4.1069 18.0853 3.70176 16.0485C3.29661 14.0117 3.50455 11.9005 4.29927 9.98184C5.09399 8.06322 6.4398 6.42334 8.16652 5.26959C9.89323 4.11583 11.9233 3.50002 14 3.50002C14.5532 3.49893 15.1055 3.54283 15.6516 3.63127" stroke="#8247E5" stroke-width="2" stroke-linecap="round" stroke-linejoin="round"/>
</svg>
