<svg width="30" height="28" viewBox="0 0 30 28" fill="none" xmlns="http://www.w3.org/2000/svg">
<path d="M15 17.5C17.4162 17.5 19.375 15.5412 19.375 13.125C19.375 10.7088 17.4162 8.75 15 8.75C12.5838 8.75 10.625 10.7088 10.625 13.125C10.625 15.5412 12.5838 17.5 15 17.5Z" stroke-width="2" stroke-linecap="round" stroke-linejoin="round"/>
<path d="M7.97852 21.8096C8.63685 20.5128 9.64141 19.4237 10.8808 18.663C12.1202 17.9022 13.5461 17.4995 15.0004 17.4995C16.4547 17.4995 17.8805 17.9022 19.12 18.663C20.3594 19.4237 21.3639 20.5128 22.0223 21.8096" stroke-width="2" stroke-linecap="round" stroke-linejoin="round"/>
<path d="M22.875 14L25.5 16.625L28.125 14" stroke-width="2" stroke-linecap="round" stroke-linejoin="round"/>
<path d="M1.875 14L4.5 11.375L7.125 14" stroke-width="2" stroke-linecap="round" stroke-linejoin="round"/>
<path d="M25.5004 16.6252V14.0002C25.5029 11.7317 24.7705 9.52328 23.4131 7.70568C22.0556 5.88808 20.1459 4.55902 17.9699 3.91743C15.794 3.27585 13.4687 3.35625 11.3423 4.14661C9.21582 4.93697 7.40253 6.39477 6.17383 8.3018" stroke-width="2" stroke-linecap="round" stroke-linejoin="round"/>
<path d="M4.50001 11.375V14C4.49753 16.2686 5.22985 18.477 6.58734 20.2946C7.94484 22.1122 9.8545 23.4412 12.0305 24.0828C14.2064 24.7244 16.5317 24.644 18.6581 23.8536C20.7846 23.0633 22.5979 21.6055 23.8266 19.6984" stroke-width="2" stroke-linecap="round" stroke-linejoin="round"/>
</svg>
