<svg width="28" height="28" viewBox="0 0 28 28" fill="none" xmlns="http://www.w3.org/2000/svg">
<path d="M8.75 21.875C10.683 21.875 12.25 20.308 12.25 18.375C12.25 16.442 10.683 14.875 8.75 14.875C6.817 14.875 5.25 16.442 5.25 18.375C5.25 20.308 6.817 21.875 8.75 21.875Z" stroke-width="2" stroke-linecap="round" stroke-linejoin="round"/>
<path d="M3.5 24.5C4.11128 23.685 4.90392 23.0234 5.81516 22.5678C6.7264 22.1122 7.7312 21.875 8.75 21.875C9.7688 21.875 10.7736 22.1122 11.6848 22.5678C12.5961 23.0234 13.3887 23.685 14 24.5" stroke-width="2" stroke-linecap="round" stroke-linejoin="round"/>
<path d="M8.75 10.5C10.683 10.5 12.25 8.933 12.25 7C12.25 5.067 10.683 3.5 8.75 3.5C6.817 3.5 5.25 5.067 5.25 7C5.25 8.933 6.817 10.5 8.75 10.5Z" stroke-width="2" stroke-linecap="round" stroke-linejoin="round"/>
<path d="M3.5 13.125C4.11128 12.31 4.90392 11.6484 5.81516 11.1928C6.7264 10.7372 7.7312 10.5 8.75 10.5C9.7688 10.5 10.7736 10.7372 11.6848 11.1928C12.5961 11.6484 13.3887 12.31 14 13.125" stroke-width="2" stroke-linecap="round" stroke-linejoin="round"/>
<path d="M19.25 21.875C21.183 21.875 22.75 20.308 22.75 18.375C22.75 16.442 21.183 14.875 19.25 14.875C17.317 14.875 15.75 16.442 15.75 18.375C15.75 20.308 17.317 21.875 19.25 21.875Z" stroke-width="2" stroke-linecap="round" stroke-linejoin="round"/>
<path d="M14 24.5C14.6113 23.685 15.4039 23.0234 16.3152 22.5678C17.2264 22.1122 18.2312 21.875 19.25 21.875C20.2688 21.875 21.2736 22.1122 22.1848 22.5678C23.0961 23.0234 23.8887 23.685 24.5 24.5" stroke-width="2" stroke-linecap="round" stroke-linejoin="round"/>
<path d="M19.25 10.5C21.183 10.5 22.75 8.933 22.75 7C22.75 5.067 21.183 3.5 19.25 3.5C17.317 3.5 15.75 5.067 15.75 7C15.75 8.933 17.317 10.5 19.25 10.5Z" stroke-width="2" stroke-linecap="round" stroke-linejoin="round"/>
<path d="M14 13.125C14.6113 12.31 15.4039 11.6484 16.3152 11.1928C17.2264 10.7372 18.2312 10.5 19.25 10.5C20.2688 10.5 21.2736 10.7372 22.1848 11.1928C23.0961 11.6484 23.8887 12.31 24.5 13.125" stroke-width="2" stroke-linecap="round" stroke-linejoin="round"/>
</svg>
