<svg width="29" height="28" viewBox="0 0 29 28" fill="none" xmlns="http://www.w3.org/2000/svg">
<path d="M21.875 14.875H27.125" stroke-width="2" stroke-linecap="round" stroke-linejoin="round"/>
<path d="M24.5 12.25V17.5" stroke-width="2" stroke-linecap="round" stroke-linejoin="round"/>
<path d="M11.8125 17.5C15.4369 17.5 18.375 14.5619 18.375 10.9375C18.375 7.31313 15.4369 4.375 11.8125 4.375C8.18813 4.375 5.25 7.31313 5.25 10.9375C5.25 14.5619 8.18813 17.5 11.8125 17.5Z" stroke-width="2" stroke-miterlimit="10"/>
<path d="M2.42773 21.8748C3.57755 20.5044 5.01354 19.4024 6.6348 18.6464C8.25606 17.8903 10.0232 17.4985 11.8121 17.4985C13.601 17.4985 15.3682 17.8903 16.9894 18.6464C18.6107 19.4024 20.0467 20.5044 21.1965 21.8748" stroke-width="2" stroke-linecap="round" stroke-linejoin="round"/>
</svg>
