<svg width="28" height="28" viewBox="0 0 28 28" fill="none" xmlns="http://www.w3.org/2000/svg">
<path d="M14 17.5C16.4162 17.5 18.375 15.5412 18.375 13.125C18.375 10.7088 16.4162 8.75 14 8.75C11.5838 8.75 9.625 10.7088 9.625 13.125C9.625 15.5412 11.5838 17.5 14 17.5Z" stroke-width="2" stroke-linecap="round" stroke-linejoin="round"/>
<path d="M23.625 5.25H4.375C3.89175 5.25 3.5 5.64175 3.5 6.125V21.875C3.5 22.3582 3.89175 22.75 4.375 22.75H23.625C24.1082 22.75 24.5 22.3582 24.5 21.875V6.125C24.5 5.64175 24.1082 5.25 23.625 5.25Z" stroke-width="2" stroke-linecap="round" stroke-linejoin="round"/>
<path d="M6.57324 22.7501C7.11527 21.2134 8.12066 19.8827 9.45079 18.9414C10.7809 18.0001 12.3703 17.4946 13.9998 17.4946C15.6293 17.4946 17.2187 18.0001 18.5488 18.9414C19.879 19.8827 20.8843 21.2134 21.4264 22.7501" stroke-width="2" stroke-linecap="round" stroke-linejoin="round"/>
</svg>
