<svg width="28" height="28" viewBox="0 0 28 28" fill="none" xmlns="http://www.w3.org/2000/svg">
<path d="M11.8125 17.5C15.4369 17.5 18.375 14.5619 18.375 10.9375C18.375 7.31313 15.4369 4.375 11.8125 4.375C8.18813 4.375 5.25 7.31313 5.25 10.9375C5.25 14.5619 8.18813 17.5 11.8125 17.5Z" stroke="#8247E5" stroke-width="2" stroke-miterlimit="10"/>
<path d="M2.42773 21.8748C3.57755 20.5044 5.01354 19.4024 6.6348 18.6464C8.25606 17.8903 10.0232 17.4985 11.8121 17.4985C13.601 17.4985 15.3682 17.8903 16.9894 18.6464C18.6107 19.4024 20.0467 20.5044 21.1965 21.8748" stroke="#8247E5" stroke-width="2" stroke-linecap="round" stroke-linejoin="round"/>
<path d="M24.0625 16.625C25.029 16.625 25.8125 15.8415 25.8125 14.875C25.8125 13.9085 25.029 13.125 24.0625 13.125C23.096 13.125 22.3125 13.9085 22.3125 14.875C22.3125 15.8415 23.096 16.625 24.0625 16.625Z" stroke="#8247E5" stroke-width="2" stroke-linecap="round" stroke-linejoin="round"/>
<path d="M24.0625 13.125V11.8125" stroke="#8247E5" stroke-width="2" stroke-linecap="round" stroke-linejoin="round"/>
<path d="M22.5426 14L21.416 13.3438" stroke="#8247E5" stroke-width="2" stroke-linecap="round" stroke-linejoin="round"/>
<path d="M22.5426 15.75L21.416 16.4062" stroke="#8247E5" stroke-width="2" stroke-linecap="round" stroke-linejoin="round"/>
<path d="M24.0625 16.625V17.9375" stroke="#8247E5" stroke-width="2" stroke-linecap="round" stroke-linejoin="round"/>
<path d="M25.583 15.75L26.7096 16.4062" stroke="#8247E5" stroke-width="2" stroke-linecap="round" stroke-linejoin="round"/>
<path d="M25.583 14L26.7096 13.3438" stroke="#8247E5" stroke-width="2" stroke-linecap="round" stroke-linejoin="round"/>
</svg>
