<svg width="28" height="28" viewBox="0 0 28 28" fill="none" xmlns="http://www.w3.org/2000/svg">
<path d="M14 17.5C16.4162 17.5 18.375 15.5412 18.375 13.125C18.375 10.7088 16.4162 8.75 14 8.75C11.5838 8.75 9.625 10.7088 9.625 13.125C9.625 15.5412 11.5838 17.5 14 17.5Z" stroke="#8247E5" stroke-width="2" stroke-linecap="round" stroke-linejoin="round"/>
<path d="M22.75 4.375H5.25C4.76675 4.375 4.375 4.76675 4.375 5.25V22.75C4.375 23.2332 4.76675 23.625 5.25 23.625H22.75C23.2332 23.625 23.625 23.2332 23.625 22.75V5.25C23.625 4.76675 23.2332 4.375 22.75 4.375Z" stroke="#8247E5" stroke-width="2" stroke-linecap="round" stroke-linejoin="round"/>
<path d="M6.32227 23.6251C6.71878 21.8853 7.69444 20.3317 9.08941 19.2189C10.4844 18.1061 12.2159 17.5 14.0004 17.5C15.7849 17.5 17.5164 18.1061 18.9114 19.2189C20.3063 20.3317 21.282 21.8853 21.6785 23.6251" stroke="#8247E5" stroke-width="2" stroke-linecap="round" stroke-linejoin="round"/>
</svg>
