<svg width="28" height="28" viewBox="0 0 28 28" fill="none" xmlns="http://www.w3.org/2000/svg">
<path d="M26.25 19.25L20.125 15.75V12.25L26.25 8.75V19.25Z" stroke="#8247E5" stroke-width="2" stroke-linecap="round" stroke-linejoin="round"/>
<path d="M3.81738 2.625L24.5002 25.375" stroke="#8247E5" stroke-width="2" stroke-linecap="round" stroke-linejoin="round"/>
<path d="M12.1299 6.5625H19.2502C19.4823 6.5625 19.7048 6.65469 19.8689 6.81878C20.033 6.98288 20.1252 7.20544 20.1252 7.4375V15.75" stroke="#8247E5" stroke-width="2" stroke-linecap="round" stroke-linejoin="round"/>
<path d="M20.125 20.5625C20.125 20.7946 20.0328 21.0171 19.8687 21.1812C19.7046 21.3453 19.4821 21.4375 19.25 21.4375H2.625C2.39294 21.4375 2.17038 21.3453 2.00628 21.1812C1.84219 21.0171 1.75 20.7946 1.75 20.5625V7.4375C1.75 7.20544 1.84219 6.98288 2.00628 6.81878C2.17038 6.65469 2.39294 6.5625 2.625 6.5625H7.39375" stroke="#8247E5" stroke-width="2" stroke-linecap="round" stroke-linejoin="round"/>
</svg>
