<svg width="28" height="28" viewBox="0 0 28 28" fill="none" xmlns="http://www.w3.org/2000/svg">
<path d="M14 24.5C19.799 24.5 24.5 19.799 24.5 14C24.5 8.20101 19.799 3.5 14 3.5C8.20101 3.5 3.5 8.20101 3.5 14C3.5 19.799 8.20101 24.5 14 24.5Z" stroke="#8247E5" stroke-width="2" stroke-linecap="round" stroke-linejoin="round"/>
<path d="M8.75 4.91113L14 14.0002" stroke="#8247E5" stroke-width="2" stroke-linecap="round" stroke-linejoin="round"/>
<path d="M8.75 23.0891L14 14" stroke="#8247E5" stroke-width="2" stroke-linecap="round" stroke-linejoin="round"/>
<path d="M24.5 14H14" stroke="#8247E5" stroke-width="2" stroke-linecap="round" stroke-linejoin="round"/>
<path d="M12.7529 3.57654C14.7328 4.46375 16.3896 5.94188 17.496 7.80811C18.6024 9.67434 19.1043 11.8372 18.9326 14" stroke="#8247E5" stroke-width="2" stroke-linecap="round" stroke-linejoin="round"/>
<path d="M5.5895 20.3C5.3669 18.1398 5.81957 15.9637 6.88518 14.0715C7.95078 12.1793 9.57688 10.664 11.5395 9.73438" stroke="#8247E5" stroke-width="2" stroke-linecap="round" stroke-linejoin="round"/>
<path d="M23.6578 18.1344C21.8991 19.406 19.7895 20.1015 17.6193 20.125C15.4491 20.1485 13.3249 19.4989 11.5391 18.2656" stroke="#8247E5" stroke-width="2" stroke-linecap="round" stroke-linejoin="round"/>
</svg>
