<svg width="28" height="28" viewBox="0 0 28 28" fill="none" xmlns="http://www.w3.org/2000/svg">
<path d="M14 21.875C18.3492 21.875 21.875 18.3492 21.875 14C21.875 9.65076 18.3492 6.125 14 6.125C9.65076 6.125 6.125 9.65076 6.125 14C6.125 18.3492 9.65076 21.875 14 21.875Z" stroke-width="2" stroke-miterlimit="10"/>
<path d="M14 9.625V14H18.375" stroke-width="2" stroke-linecap="round" stroke-linejoin="round"/>
<path d="M9.625 7.44844L10.3688 3.34688C10.4048 3.14411 10.5112 2.96055 10.6693 2.8285C10.8273 2.69646 11.0269 2.6244 11.2328 2.625H16.7672C16.9731 2.6244 17.1727 2.69646 17.3307 2.8285C17.4888 2.96055 17.5952 3.14411 17.6312 3.34688L18.375 7.44844" stroke-width="2" stroke-linecap="round" stroke-linejoin="round"/>
<path d="M9.625 20.5518L10.3688 24.6533C10.4048 24.8561 10.5112 25.0397 10.6693 25.1717C10.8273 25.3037 11.0269 25.3758 11.2328 25.3752H16.7672C16.9731 25.3758 17.1727 25.3037 17.3307 25.1717C17.4888 25.0397 17.5952 24.8561 17.6312 24.6533L18.375 20.5518" stroke-width="2" stroke-linecap="round" stroke-linejoin="round"/>
</svg>
