<svg width="28" height="28" viewBox="0 0 28 28" fill="none" xmlns="http://www.w3.org/2000/svg">
<path d="M10.4893 6.5625C11.6974 6.5625 12.6768 5.58312 12.6768 4.375C12.6768 3.16688 11.6974 2.1875 10.4893 2.1875C9.28113 2.1875 8.30176 3.16688 8.30176 4.375C8.30176 5.58312 9.28113 6.5625 10.4893 6.5625Z" stroke="#8247E5" stroke-width="2" stroke-linecap="round" stroke-linejoin="round"/>
<path d="M10.4893 6.5625V14.4375H20.1143L23.6143 21.4375L26.2393 20.5625" stroke="#8247E5" stroke-width="2" stroke-linecap="round" stroke-linejoin="round"/>
<path d="M18.3535 17.9375C18.2681 19.3005 17.7859 20.6089 16.9663 21.7012C16.1466 22.7936 15.0253 23.6224 13.7404 24.0854C12.4556 24.5484 11.0634 24.6255 9.73531 24.3071C8.40723 23.9887 7.20129 23.2888 6.26605 22.2936C5.33081 21.2983 4.70714 20.0512 4.47185 18.7059C4.23657 17.3607 4.39996 15.9759 4.94189 14.7223C5.48382 13.4687 6.38062 12.4011 7.52181 11.6508C8.663 10.9006 9.99873 10.5005 11.3644 10.5H17.4894" stroke="#8247E5" stroke-width="2" stroke-linecap="round" stroke-linejoin="round"/>
</svg>
