<svg width="28" height="28" viewBox="0 0 28 28" fill="none" xmlns="http://www.w3.org/2000/svg">
<path d="M10.1611 18.1673C11.1937 17.1767 12.5693 16.6235 14.0002 16.6235C15.4311 16.6235 16.8067 17.1767 17.8393 18.1673" stroke-width="2" stroke-linecap="round" stroke-linejoin="round"/>
<path d="M6.45312 14.4484C8.47154 12.4789 11.1799 11.3765 14 11.3765C16.8201 11.3765 19.5285 12.4789 21.5469 14.4484" stroke-width="2" stroke-linecap="round" stroke-linejoin="round"/>
<path d="M2.74512 10.7406C5.74512 7.78421 9.7879 6.12695 13.9998 6.12695C18.2117 6.12695 22.2545 7.78421 25.2545 10.7406" stroke-width="2" stroke-linecap="round" stroke-linejoin="round"/>
<path d="M14 23.1875C14.7249 23.1875 15.3125 22.5999 15.3125 21.875C15.3125 21.1501 14.7249 20.5625 14 20.5625C13.2751 20.5625 12.6875 21.1501 12.6875 21.875C12.6875 22.5999 13.2751 23.1875 14 23.1875Z" fill="#8247E5"/>
</svg>
