<svg width="28" height="28" viewBox="0 0 28 28" fill="none" xmlns="http://www.w3.org/2000/svg">
<path d="M10.1611 18.1673C11.1937 17.1767 12.5693 16.6235 14.0002 16.6235C15.4311 16.6235 16.8067 17.1767 17.8393 18.1673" stroke-width="2" stroke-linecap="round" stroke-linejoin="round"/>
<path d="M24.5 6.125L19.25 11.375" stroke-width="2" stroke-linecap="round" stroke-linejoin="round"/>
<path d="M24.5 11.375L19.25 6.125" stroke-width="2" stroke-linecap="round" stroke-linejoin="round"/>
<path d="M2.74512 10.7407C5.73812 7.77348 9.78528 6.11371 13.9998 6.12506C14.5845 6.12483 15.1688 6.1577 15.7498 6.2235" stroke-width="2" stroke-linecap="round" stroke-linejoin="round"/>
<path d="M6.45312 14.4486C8.46472 12.4685 11.1774 11.3638 14 11.3751C14.5863 11.3722 15.1718 11.4198 15.75 11.5173" stroke-width="2" stroke-linecap="round" stroke-linejoin="round"/>
<path d="M14 23.1875C14.7249 23.1875 15.3125 22.5999 15.3125 21.875C15.3125 21.1501 14.7249 20.5625 14 20.5625C13.2751 20.5625 12.6875 21.1501 12.6875 21.875C12.6875 22.5999 13.2751 23.1875 14 23.1875Z" fill="#8247E5"/>
</svg>
