<svg width="28" height="28" viewBox="0 0 28 28" fill="none" xmlns="http://www.w3.org/2000/svg">
<path d="M5.25 4.375L22.75 23.625" stroke-width="2" stroke-linecap="round" stroke-linejoin="round"/>
<path d="M11.7139 6.28912C12.4708 6.17892 13.2348 6.12408 13.9998 6.12506C18.2143 6.11371 22.2615 7.77348 25.2545 10.7407" stroke-width="2" stroke-linecap="round" stroke-linejoin="round"/>
<path d="M2.74512 10.7408C4.22869 9.2718 5.98647 8.10862 7.91856 7.31738" stroke-width="2" stroke-linecap="round" stroke-linejoin="round"/>
<path d="M16.6357 11.7031C18.489 12.1621 20.185 13.1102 21.5467 14.4484" stroke-width="2" stroke-linecap="round" stroke-linejoin="round"/>
<path d="M6.45312 14.4484C7.92965 13.0037 9.7897 12.0129 11.8125 11.5938" stroke-width="2" stroke-linecap="round" stroke-linejoin="round"/>
<path d="M10.1611 18.1671C11.1475 17.2253 12.4452 16.6784 13.8081 16.63C15.171 16.5816 16.5042 17.0351 17.5549 17.9046" stroke-width="2" stroke-linecap="round" stroke-linejoin="round"/>
<path d="M14 23.1875C14.7249 23.1875 15.3125 22.5999 15.3125 21.875C15.3125 21.1501 14.7249 20.5625 14 20.5625C13.2751 20.5625 12.6875 21.1501 12.6875 21.875C12.6875 22.5999 13.2751 23.1875 14 23.1875Z" fill="#8247E5"/>
</svg>
