<svg width="28" height="28" viewBox="0 0 28 28" fill="none" xmlns="http://www.w3.org/2000/svg">
<path d="M14 19.25V25.375" stroke-width="2" stroke-linecap="round" stroke-linejoin="round"/>
<path d="M9.625 25.375H18.375" stroke-width="2" stroke-linecap="round" stroke-linejoin="round"/>
<path d="M8.7496 2.625H19.2496L22.1043 12.2828C22.2802 12.8878 22.2337 13.5358 21.973 14.1094C21.2798 15.6432 20.1588 16.9446 18.7446 17.8574C17.3303 18.7702 15.6828 19.2557 13.9996 19.2557C12.3164 19.2557 10.6689 18.7702 9.25461 17.8574C7.84036 16.9446 6.71941 15.6432 6.02616 14.1094C5.76553 13.5358 5.71897 12.8878 5.89491 12.2828L8.7496 2.625Z" stroke-width="2" stroke-linecap="round" stroke-linejoin="round"/>
<path d="M6.28906 10.9704C7.44844 10.347 10.1391 9.45009 14 11.3751C18.1125 13.4313 20.9016 12.272 21.9187 11.6704" stroke-width="2" stroke-linecap="round" stroke-linejoin="round"/>
</svg>
