<svg width="28" height="28" viewBox="0 0 28 28" fill="none" xmlns="http://www.w3.org/2000/svg">
<path d="M23.9419 7.76539C24.5158 9.10556 24.6563 10.5917 24.3437 12.0156C24.0311 13.4396 23.281 14.7302 22.1984 15.7067C21.1158 16.6831 19.755 17.2966 18.3064 17.4613C16.8579 17.6259 15.3941 17.3334 14.12 16.6248V16.6248L7.98405 23.7341C7.49091 24.2273 6.82207 24.5043 6.12467 24.5043C5.42727 24.5043 4.75843 24.2273 4.2653 23.7341C3.77216 23.241 3.49512 22.5722 3.49512 21.8748C3.49512 21.1774 3.77216 20.5085 4.2653 20.0154L11.3747 13.8795C10.666 12.6054 10.3735 11.1416 10.5382 9.69301C10.7028 8.24444 11.3163 6.88362 12.2928 5.80105C13.2692 4.71848 14.5598 3.96838 15.9838 3.65575C17.4078 3.34312 18.8939 3.48362 20.234 4.05758L15.6403 8.64039L16.2637 11.7357L19.359 12.3591L23.9419 7.76539Z" stroke="#8247E5" stroke-width="2" stroke-linecap="round" stroke-linejoin="round"/>
</svg>
