<svg width="28" height="28" viewBox="0 0 28 28" fill="none" xmlns="http://www.w3.org/2000/svg">
<path d="M14 24.5C19.799 24.5 24.5 19.799 24.5 14C24.5 8.20101 19.799 3.5 14 3.5C8.20101 3.5 3.5 8.20101 3.5 14C3.5 19.799 8.20101 24.5 14 24.5Z" stroke-width="2" stroke-linecap="round" stroke-linejoin="round"/>
<path d="M14 20.5625C14.7249 20.5625 15.3125 19.9749 15.3125 19.25C15.3125 18.5251 14.7249 17.9375 14 17.9375C13.2751 17.9375 12.6875 18.5251 12.6875 19.25C12.6875 19.9749 13.2751 20.5625 14 20.5625Z" fill="#8247E5"/>
<path d="M14 24.5C12.6076 24.5 11.2723 23.9469 10.2877 22.9623C9.30312 21.9777 8.75 20.6424 8.75 19.25C8.75 17.8576 9.30312 16.5223 10.2877 15.5377C11.2723 14.5531 12.6076 14 14 14C15.3924 14 16.7277 13.4469 17.7123 12.4623C18.6969 11.4777 19.25 10.1424 19.25 8.75C19.25 7.35761 18.6969 6.02226 17.7123 5.03769C16.7277 4.05312 15.3924 3.5 14 3.5" stroke-width="2" stroke-linecap="round" stroke-linejoin="round"/>
<path d="M14 10.0625C14.7249 10.0625 15.3125 9.47487 15.3125 8.75C15.3125 8.02513 14.7249 7.4375 14 7.4375C13.2751 7.4375 12.6875 8.02513 12.6875 8.75C12.6875 9.47487 13.2751 10.0625 14 10.0625Z" fill="#8247E5"/>
</svg>
