<svg width="28" height="28" viewBox="0 0 28 28" fill="none" xmlns="http://www.w3.org/2000/svg">
<path d="M26.3266 13.3221L23.625 14.6674L20.125 7.97364L22.8594 6.60645C23.0626 6.50287 23.2985 6.48383 23.5157 6.5535C23.7329 6.62316 23.9137 6.77587 24.0188 6.97833L26.7094 12.1299C26.7639 12.233 26.7973 12.346 26.8076 12.4622C26.8178 12.5784 26.8047 12.6955 26.7691 12.8066C26.7334 12.9177 26.6759 13.0205 26.5999 13.109C26.5239 13.1976 26.431 13.27 26.3266 13.3221V13.3221Z" stroke="#8247E5" stroke-width="2" stroke-linecap="round" stroke-linejoin="round"/>
<path d="M4.37481 14.5577L1.67325 13.2014C1.56923 13.1505 1.47652 13.0791 1.40064 12.9915C1.32476 12.904 1.26725 12.8021 1.23154 12.6919C1.19583 12.5817 1.18264 12.4655 1.19276 12.3501C1.20287 12.2347 1.23609 12.1225 1.29044 12.0202L3.98106 6.86862C4.08632 6.66631 4.2664 6.51309 4.48295 6.44158C4.6995 6.37008 4.93541 6.38595 5.14044 6.48581L7.87481 7.85299L4.37481 14.5577Z" stroke="#8247E5" stroke-width="2" stroke-linecap="round" stroke-linejoin="round"/>
<path d="M23.625 14.667L21.875 16.7232L17.85 20.7482C17.7403 20.8508 17.6074 20.9253 17.4626 20.9653C17.3179 21.0053 17.1656 21.0096 17.0188 20.9779L10.675 19.392C10.5591 19.3597 10.4511 19.3038 10.3578 19.2279L4.375 14.5576" stroke="#8247E5" stroke-width="2" stroke-linecap="round" stroke-linejoin="round"/>
<path d="M21.8753 16.7236L17.0628 13.2236L15.6628 14.2736C15.0563 14.7263 14.3197 14.9709 13.5628 14.9709C12.806 14.9709 12.0694 14.7263 11.4628 14.2736L10.8722 13.8252C10.7723 13.7493 10.6897 13.653 10.6299 13.5427C10.57 13.4325 10.5342 13.3108 10.5249 13.1857C10.5156 13.0605 10.533 12.9349 10.5759 12.817C10.6188 12.6991 10.6862 12.5916 10.7738 12.5018L15.0613 8.2252C15.1418 8.14506 15.2374 8.08159 15.3425 8.03842C15.4476 7.99525 15.5602 7.97324 15.6738 7.97364H20.1253" stroke="#8247E5" stroke-width="2" stroke-linecap="round" stroke-linejoin="round"/>
<path d="M7.94043 7.85324L13.5514 6.21261C13.7507 6.15544 13.9639 6.17095 14.1529 6.25636L17.9373 7.97355" stroke="#8247E5" stroke-width="2" stroke-linecap="round" stroke-linejoin="round"/>
<path d="M12.25 23.2859L8.95781 22.4547C8.82366 22.4244 8.69943 22.3604 8.59687 22.2688L6.125 20.125" stroke="#8247E5" stroke-width="2" stroke-linecap="round" stroke-linejoin="round"/>
</svg>
