<svg width="28" height="28" viewBox="0 0 28 28" fill="none" xmlns="http://www.w3.org/2000/svg">
<path d="M23.625 5.25H4.375C3.89175 5.25 3.5 5.64175 3.5 6.125V21.875C3.5 22.3582 3.89175 22.75 4.375 22.75H23.625C24.1082 22.75 24.5 22.3582 24.5 21.875V6.125C24.5 5.64175 24.1082 5.25 23.625 5.25Z" stroke="#8247E5" stroke-width="2" stroke-linecap="round" stroke-linejoin="round"/>
<path d="M7.4375 10.5C8.16237 10.5 8.75 9.91237 8.75 9.1875C8.75 8.46263 8.16237 7.875 7.4375 7.875C6.71263 7.875 6.125 8.46263 6.125 9.1875C6.125 9.91237 6.71263 10.5 7.4375 10.5Z" fill="#8247E5"/>
<path d="M11.8125 10.5C12.5374 10.5 13.125 9.91237 13.125 9.1875C13.125 8.46263 12.5374 7.875 11.8125 7.875C11.0876 7.875 10.5 8.46263 10.5 9.1875C10.5 9.91237 11.0876 10.5 11.8125 10.5Z" fill="#8247E5"/>
</svg>
