<svg width="28" height="28" viewBox="0 0 28 28" fill="none" xmlns="http://www.w3.org/2000/svg">
<path d="M14 16.625C15.4497 16.625 16.625 15.4497 16.625 14C16.625 12.5503 15.4497 11.375 14 11.375C12.5503 11.375 11.375 12.5503 11.375 14C11.375 15.4497 12.5503 16.625 14 16.625Z" stroke="#8247E5" stroke-width="2" stroke-linecap="round" stroke-linejoin="round"/>
<path d="M10.5 8.75C11.9497 8.75 13.125 7.57475 13.125 6.125C13.125 4.67525 11.9497 3.5 10.5 3.5C9.05025 3.5 7.875 4.67525 7.875 6.125C7.875 7.57475 9.05025 8.75 10.5 8.75Z" stroke="#8247E5" stroke-width="2" stroke-linecap="round" stroke-linejoin="round"/>
<path d="M21.875 14C23.3247 14 24.5 12.8247 24.5 11.375C24.5 9.92525 23.3247 8.75 21.875 8.75C20.4253 8.75 19.25 9.92525 19.25 11.375C19.25 12.8247 20.4253 14 21.875 14Z" stroke="#8247E5" stroke-width="2" stroke-linecap="round" stroke-linejoin="round"/>
<path d="M21.875 22.75C23.3247 22.75 24.5 21.5747 24.5 20.125C24.5 18.6753 23.3247 17.5 21.875 17.5C20.4253 17.5 19.25 18.6753 19.25 20.125C19.25 21.5747 20.4253 22.75 21.875 22.75Z" stroke="#8247E5" stroke-width="2" stroke-linecap="round" stroke-linejoin="round"/>
<path d="M6.125 23.625C7.57475 23.625 8.75 22.4497 8.75 21C8.75 19.5503 7.57475 18.375 6.125 18.375C4.67525 18.375 3.5 19.5503 3.5 21C3.5 22.4497 4.67525 23.625 6.125 23.625Z" stroke="#8247E5" stroke-width="2" stroke-linecap="round" stroke-linejoin="round"/>
<path d="M12.9387 11.6049L11.5605 8.52051" stroke="#8247E5" stroke-width="2" stroke-linecap="round" stroke-linejoin="round"/>
<path d="M19.3816 12.2061L16.4941 13.1686" stroke="#8247E5" stroke-width="2" stroke-linecap="round" stroke-linejoin="round"/>
<path d="M19.808 18.5173L16.0674 15.6079" stroke="#8247E5" stroke-width="2" stroke-linecap="round" stroke-linejoin="round"/>
<path d="M12.0424 15.7393L8.08301 19.2611" stroke="#8247E5" stroke-width="2" stroke-linecap="round" stroke-linejoin="round"/>
</svg>
