<svg width="28" height="28" viewBox="0 0 28 28" fill="none" xmlns="http://www.w3.org/2000/svg">
<path d="M23.625 4.375H4.375" stroke="#8247E5" stroke-width="2" stroke-linecap="round" stroke-linejoin="round"/>
<path d="M21.875 19.25V8.75C21.875 8.26675 21.4832 7.875 21 7.875H16.625C16.1418 7.875 15.75 8.26675 15.75 8.75V19.25C15.75 19.7332 16.1418 20.125 16.625 20.125H21C21.4832 20.125 21.875 19.7332 21.875 19.25Z" stroke="#8247E5" stroke-width="2" stroke-linecap="round" stroke-linejoin="round"/>
<path d="M11.375 7.875H7C6.51675 7.875 6.125 8.26675 6.125 8.75V23.625C6.125 24.1082 6.51675 24.5 7 24.5H11.375C11.8582 24.5 12.25 24.1082 12.25 23.625V8.75C12.25 8.26675 11.8582 7.875 11.375 7.875Z" stroke="#8247E5" stroke-width="2" stroke-linecap="round" stroke-linejoin="round"/>
</svg>
