<svg width="32" height="32" viewBox="0 0 32 32" fill="none" xmlns="http://www.w3.org/2000/svg">
<path d="M20.5 20.5C21.0523 20.5 21.5 20.0523 21.5 19.5C21.5 18.9477 21.0523 18.5 20.5 18.5C19.9477 18.5 19.5 18.9477 19.5 19.5C19.5 20.0523 19.9477 20.5 20.5 20.5Z" fill="#8247E5"/>
<path d="M11.5 20.5C12.0523 20.5 12.5 20.0523 12.5 19.5C12.5 18.9477 12.0523 18.5 11.5 18.5C10.9477 18.5 10.5 18.9477 10.5 19.5C10.5 20.0523 10.9477 20.5 11.5 20.5Z" fill="#8247E5"/>
<path d="M3 24.0001V21.1376C3 13.9501 8.775 8.0251 15.95 8.0001C17.6614 7.99351 19.3572 8.32491 20.9402 8.97527C22.5232 9.62564 23.9623 10.5822 25.1747 11.79C26.3872 12.9978 27.3492 14.4331 28.0057 16.0136C28.6621 17.5941 29 19.2887 29 21.0001V24.0001C29 24.2653 28.8946 24.5197 28.7071 24.7072C28.5196 24.8947 28.2652 25.0001 28 25.0001H4C3.73478 25.0001 3.48043 24.8947 3.29289 24.7072C3.10536 24.5197 3 24.2653 3 24.0001Z" stroke-linecap="round" stroke-linejoin="round"/>
<path d="M4 7L7.8875 10.8875" stroke-linecap="round" stroke-linejoin="round"/>
<path d="M28.0002 7L24.1377 10.8625" stroke-linecap="round" stroke-linejoin="round"/>
</svg>
