<svg width="32" height="32" viewBox="0 0 32 32" fill="none" xmlns="http://www.w3.org/2000/svg">
<path d="M16 18C17.6569 18 19 16.6569 19 15C19 13.3431 17.6569 12 16 12C14.3431 12 13 13.3431 13 15C13 16.6569 14.3431 18 16 18Z" stroke="#8247E5" stroke-linecap="round" stroke-linejoin="round"/>
<path d="M16.3625 28H15.6375C15.1742 28.0001 14.7253 27.8394 14.3674 27.5453C14.0095 27.2512 13.7647 26.842 13.675 26.3875L12.475 20.3875C12.4177 20.0976 12.4254 19.7986 12.4975 19.512C12.5696 19.2254 12.7044 18.9583 12.892 18.73C13.0797 18.5017 13.3156 18.3178 13.5828 18.1916C13.8501 18.0654 14.1419 17.9999 14.4375 18H17.5625C17.858 17.9999 18.1499 18.0654 18.4171 18.1916C18.6843 18.3178 18.9202 18.5017 19.1079 18.73C19.2956 18.9583 19.4303 19.2254 19.5024 19.512C19.5745 19.7986 19.5822 20.0976 19.525 20.3875L18.325 26.3875C18.2352 26.842 17.9905 27.2512 17.6326 27.5453C17.2746 27.8394 16.8257 28.0001 16.3625 28V28Z" stroke="#8247E5" stroke-linecap="round" stroke-linejoin="round"/>
<path d="M8.5375 18.9C8.06927 17.6879 7.9033 16.3801 8.05396 15.0895C8.20461 13.7989 8.66735 12.5645 9.40215 11.4929C10.137 10.4213 11.1217 9.54478 12.2713 8.93918C13.4209 8.33357 14.7007 8.01709 16 8.01709C17.2993 8.01709 18.5791 8.33357 19.7287 8.93918C20.8783 9.54478 21.863 10.4213 22.5978 11.4929C23.3327 12.5645 23.7954 13.7989 23.946 15.0895C24.0967 16.3801 23.9307 17.6879 23.4625 18.9" stroke="#8247E5" stroke-linecap="round" stroke-linejoin="round"/>
<path d="M9.55 26.1126C7.36041 24.7169 5.68258 22.6487 4.76838 20.2184C3.85417 17.7881 3.75291 15.1268 4.4798 12.6341C5.20669 10.1413 6.72251 7.95162 8.79972 6.39362C10.8769 4.83562 13.4034 3.99341 16 3.99341C18.5966 3.99341 21.1231 4.83562 23.2003 6.39362C25.2775 7.95162 26.7933 10.1413 27.5202 12.6341C28.2471 15.1268 28.1458 17.7881 27.2316 20.2184C26.3174 22.6487 24.6396 24.7169 22.45 26.1126" stroke="#8247E5" stroke-linecap="round" stroke-linejoin="round"/>
</svg>
