<svg width="32" height="32" viewBox="0 0 32 32" fill="none" xmlns="http://www.w3.org/2000/svg">
<path d="M17.2627 4.0625C17.5534 3.30751 18.0663 2.65843 18.7336 2.20094C19.4008 1.74344 20.1912 1.49905 21.0002 1.5" stroke="#8247E5" stroke-linecap="round" stroke-linejoin="round"/>
<path d="M27.3125 20.3624C25.7375 24.2124 22.8875 26.9999 20.5 26.9999H11.5C8 26.9999 3.5 20.9999 3.5 14.4999C3.50052 13.0523 3.91995 11.6358 4.70768 10.4213C5.49542 9.20684 6.61779 8.24626 7.93936 7.65552C9.26093 7.06478 10.7252 6.86912 12.1555 7.09215C13.5858 7.31518 14.921 7.94737 16 8.91243V8.91243C16.7637 8.2282 17.6597 7.70785 18.6325 7.38353C19.6052 7.05922 20.6342 6.93783 21.6557 7.02686C22.6773 7.11589 23.6697 7.41346 24.5717 7.90117C25.4737 8.38889 26.2661 9.05639 26.9 9.86243V9.86243C25.9813 10.4172 25.2282 11.2082 24.7192 12.153C24.2102 13.0978 23.9639 14.1618 24.006 15.2342C24.0482 16.3066 24.3772 17.348 24.9587 18.25C25.5403 19.152 26.3531 19.8815 27.3125 20.3624V20.3624Z" stroke="#8247E5" stroke-linecap="round" stroke-linejoin="round"/>
</svg>
