<svg width="32" height="32" viewBox="0 0 32 32" fill="none" xmlns="http://www.w3.org/2000/svg">
<path d="M22.025 12.4625H28.025V6.46252" stroke="#8247E5" stroke-linecap="round" stroke-linejoin="round"/>
<path d="M8.22498 8.22505C9.24547 7.20307 10.4574 6.3923 11.7915 5.83913C13.1256 5.28595 14.5557 5.00122 16 5.00122C17.4442 5.00122 18.8743 5.28595 20.2084 5.83913C21.5425 6.3923 22.7545 7.20307 23.775 8.22505L28.025 12.4626" stroke="#8247E5" stroke-linecap="round" stroke-linejoin="round"/>
<path d="M9.97498 19.5375H3.97498V25.5375" stroke="#8247E5" stroke-linecap="round" stroke-linejoin="round"/>
<path d="M23.775 23.775C22.7545 24.797 21.5425 25.6077 20.2084 26.1609C18.8743 26.7141 17.4442 26.9988 16 26.9988C14.5557 26.9988 13.1256 26.7141 11.7915 26.1609C10.4574 25.6077 9.24547 24.797 8.22498 23.775L3.97498 19.5375" stroke="#8247E5" stroke-linecap="round" stroke-linejoin="round"/>
</svg>
