<svg width="32" height="32" viewBox="0 0 32 32" fill="none" xmlns="http://www.w3.org/2000/svg">
<path d="M16 20C18.2091 20 20 18.2091 20 16C20 13.7909 18.2091 12 16 12C13.7909 12 12 13.7909 12 16C12 18.2091 13.7909 20 16 20Z" stroke="#8247E5" stroke-linecap="round" stroke-linejoin="round"/>
<path d="M9.63774 22.3625C8.81652 21.5421 8.16271 20.5699 7.71274 19.5C7.24241 18.393 7 17.2027 7 16C7 14.7972 7.24241 13.6069 7.71274 12.5C8.16271 11.43 8.81652 10.4578 9.63774 9.63745" stroke="#8247E5" stroke-linecap="round" stroke-linejoin="round"/>
<path d="M22.3623 9.63745C23.1835 10.4578 23.8373 11.43 24.2873 12.5C24.7576 13.6069 25 14.7972 25 16C25 17.2027 24.7576 18.393 24.2873 19.5C23.8373 20.5699 23.1835 21.5421 22.3623 22.3625" stroke="#8247E5" stroke-linecap="round" stroke-linejoin="round"/>
<path d="M6.09997 25.9C4.82454 24.6222 3.80613 23.1115 3.09997 21.45C2.3739 19.7247 1.99988 17.8718 1.99988 16C1.99988 14.1282 2.3739 12.2752 3.09997 10.55C3.80613 8.8884 4.82454 7.37776 6.09997 6.09998" stroke="#8247E5" stroke-linecap="round" stroke-linejoin="round"/>
<path d="M25.9 6.09998C27.1755 7.37776 28.1939 8.8884 28.9 10.55C29.6261 12.2752 30.0001 14.1282 30.0001 16C30.0001 17.8718 29.6261 19.7247 28.9 21.45C28.1939 23.1115 27.1755 24.6222 25.9 25.9" stroke="#8247E5" stroke-linecap="round" stroke-linejoin="round"/>
</svg>
