<svg width="32" height="32" viewBox="0 0 32 32" fill="none" xmlns="http://www.w3.org/2000/svg">
<path d="M16.5 27H5.96246C5.8356 27.0017 5.70968 26.9779 5.59215 26.9302C5.47461 26.8824 5.36784 26.8115 5.27813 26.7218C5.18841 26.6321 5.11758 26.5253 5.0698 26.4078C5.02203 26.2903 4.99828 26.1644 4.99996 26.0375V15.5C4.99996 12.45 6.21156 9.52494 8.36823 7.36827C10.5249 5.2116 13.45 4 16.5 4V4C18.0102 4 19.5056 4.29746 20.9008 4.87539C22.2961 5.45331 23.5638 6.3004 24.6317 7.36827C25.6996 8.43615 26.5466 9.7039 27.1246 11.0991C27.7025 12.4944 28 13.9898 28 15.5V15.5C28 17.0102 27.7025 18.5056 27.1246 19.9009C26.5466 21.2961 25.6996 22.5639 24.6317 23.6317C23.5638 24.6996 22.2961 25.5467 20.9008 26.1246C19.5056 26.7025 18.0102 27 16.5 27V27Z" stroke="#8247E5" stroke-linecap="round" stroke-linejoin="round"/>
<path d="M16.5 17C17.0523 17 17.5 16.5523 17.5 16C17.5 15.4477 17.0523 15 16.5 15C15.9477 15 15.5 15.4477 15.5 16C15.5 16.5523 15.9477 17 16.5 17Z" fill="#8247E5"/>
<path d="M10.5 17C11.0523 17 11.5 16.5523 11.5 16C11.5 15.4477 11.0523 15 10.5 15C9.94772 15 9.5 15.4477 9.5 16C9.5 16.5523 9.94772 17 10.5 17Z" fill="#8247E5"/>
<path d="M22.5 17C23.0523 17 23.5 16.5523 23.5 16C23.5 15.4477 23.0523 15 22.5 15C21.9477 15 21.5 15.4477 21.5 16C21.5 16.5523 21.9477 17 22.5 17Z" fill="#8247E5"/>
</svg>
