<svg width="32" height="32" viewBox="0 0 32 32" fill="none" xmlns="http://www.w3.org/2000/svg">
<path d="M5.67485 22.125C4.18596 19.613 3.66516 16.6439 4.21023 13.7752C4.7553 10.9064 6.32876 8.33525 8.6352 6.54438C10.9416 4.75352 13.8225 3.86611 16.7368 4.04875C19.6512 4.2314 22.3987 5.47153 24.4635 7.53634C26.5283 9.60115 27.7684 12.3486 27.9511 15.263C28.1337 18.1774 27.2463 21.0582 25.4554 23.3646C23.6646 25.6711 21.0934 27.2445 18.2247 27.7896C15.3559 28.3347 12.3868 27.8139 9.87485 26.325V26.325L5.72485 27.5C5.55482 27.5497 5.37455 27.5528 5.20292 27.5089C5.0313 27.465 4.87464 27.3757 4.74938 27.2504C4.62411 27.1252 4.53485 26.9685 4.49095 26.7969C4.44705 26.6253 4.45012 26.445 4.49985 26.275L5.67485 22.125Z" stroke-linecap="round" stroke-linejoin="round"/>
<path d="M16 17C16.5523 17 17 16.5523 17 16C17 15.4477 16.5523 15 16 15C15.4477 15 15 15.4477 15 16C15 16.5523 15.4477 17 16 17Z" fill="#8247E5"/>
<path d="M10 17C10.5523 17 11 16.5523 11 16C11 15.4477 10.5523 15 10 15C9.44772 15 9 15.4477 9 16C9 16.5523 9.44772 17 10 17Z" fill="#8247E5"/>
<path d="M22 17C22.5523 17 23 16.5523 23 16C23 15.4477 22.5523 15 22 15C21.4477 15 21 15.4477 21 16C21 16.5523 21.4477 17 22 17Z" fill="#8247E5"/>
</svg>
