<svg width="32" height="32" viewBox="0 0 32 32" fill="none" xmlns="http://www.w3.org/2000/svg">
<path d="M16.5 27H5.96246C5.8356 27.0017 5.70968 26.9779 5.59215 26.9302C5.47461 26.8824 5.36784 26.8115 5.27813 26.7218C5.18841 26.6321 5.11758 26.5253 5.0698 26.4078C5.02203 26.2903 4.99828 26.1644 4.99996 26.0375V15.5C4.99996 12.45 6.21156 9.52494 8.36823 7.36827C10.5249 5.2116 13.45 4 16.5 4V4C18.0102 4 19.5056 4.29746 20.9008 4.87539C22.2961 5.45331 23.5638 6.3004 24.6317 7.36827C25.6996 8.43615 26.5466 9.7039 27.1246 11.0991C27.7025 12.4944 28 13.9898 28 15.5V15.5C28 17.0102 27.7025 18.5056 27.1246 19.9009C26.5466 21.2961 25.6996 22.5639 24.6317 23.6317C23.5638 24.6996 22.2961 25.5467 20.9008 26.1246C19.5056 26.7025 18.0102 27 16.5 27V27Z" stroke-linecap="round" stroke-linejoin="round"/>
<path d="M12.5 14H20" stroke-linecap="round" stroke-linejoin="round"/>
<path d="M12.5 18H20" stroke-linecap="round" stroke-linejoin="round"/>
</svg>
