<svg width="32" height="32" viewBox="0 0 32 32" fill="none" xmlns="http://www.w3.org/2000/svg">
<path d="M15.2883 3.70994L11.6998 7.29851C11.3093 7.68903 11.3093 8.3222 11.6998 8.71272L15.2857 12.2986C15.6762 12.6892 16.3094 12.6892 16.6999 12.2986L20.2885 8.71007C20.679 8.31955 20.679 7.68638 20.2885 7.29586L16.7026 3.70994C16.312 3.31942 15.6789 3.31942 15.2883 3.70994Z" stroke-linecap="round" stroke-linejoin="round"/>
<path d="M23.2898 11.7099L19.7012 15.2985C19.3107 15.689 19.3107 16.3222 19.7012 16.7127L23.2872 20.2986C23.6777 20.6892 24.3109 20.6892 24.7014 20.2986L28.2899 16.7101C28.6805 16.3195 28.6805 15.6864 28.2899 15.2959L24.704 11.7099C24.3135 11.3194 23.6803 11.3194 23.2898 11.7099Z" stroke-linecap="round" stroke-linejoin="round"/>
<path d="M7.28835 11.6987L3.69978 15.2873C3.30926 15.6778 3.30926 16.311 3.69978 16.7015L7.2857 20.2874C7.67622 20.6779 8.30939 20.6779 8.69991 20.2874L12.2885 16.6988C12.679 16.3083 12.679 15.6752 12.2885 15.2846L8.70256 11.6987C8.31204 11.3082 7.67887 11.3082 7.28835 11.6987Z" stroke-linecap="round" stroke-linejoin="round"/>
<path d="M15.2898 19.6987L11.7012 23.2873C11.3107 23.6778 11.3107 24.311 11.7012 24.7015L15.2872 28.2874C15.6777 28.6779 16.3109 28.6779 16.7014 28.2874L20.2899 24.6988C20.6805 24.3083 20.6805 23.6752 20.2899 23.2846L16.704 19.6987C16.3135 19.3082 15.6803 19.3082 15.2898 19.6987Z" stroke-linecap="round" stroke-linejoin="round"/>
</svg>
