<svg width="32" height="32" viewBox="0 0 32 32" fill="none" xmlns="http://www.w3.org/2000/svg">
<path d="M12 19C12.5523 19 13 18.5523 13 18C13 17.4477 12.5523 17 12 17C11.4477 17 11 17.4477 11 18C11 18.5523 11.4477 19 12 19Z" fill="#8247E5"/>
<path d="M20 19C20.5523 19 21 18.5523 21 18C21 17.4477 20.5523 17 20 17C19.4477 17 19 17.4477 19 18C19 18.5523 19.4477 19 20 19Z" fill="#8247E5"/>
<path d="M9.2998 10.0001C11.4676 9.32069 13.7281 8.98331 15.9998 9.00011C18.2715 8.98331 20.532 9.32069 22.6998 10.0001" stroke-linecap="round" stroke-linejoin="round"/>
<path d="M22.6998 22C20.532 22.6794 18.2715 23.0168 15.9998 23C13.7281 23.0168 11.4676 22.6794 9.2998 22" stroke-linecap="round" stroke-linejoin="round"/>
<path d="M19.3752 22.7625L20.8877 25.7625C20.985 25.967 21.1505 26.1313 21.3558 26.2272C21.5611 26.323 21.7934 26.3443 22.0127 26.2875C25.0752 25.5375 27.7252 24.2375 29.6502 22.5625C29.7953 22.4344 29.9007 22.2675 29.9539 22.0814C30.0071 21.8953 30.0058 21.6978 29.9502 21.5125L25.7127 7.36246C25.6715 7.21765 25.5968 7.08454 25.4948 6.97382C25.3927 6.8631 25.2662 6.77786 25.1252 6.72496C23.928 6.2338 22.6899 5.84898 21.4252 5.57496C21.1822 5.52173 20.928 5.55985 20.7113 5.68205C20.4946 5.80424 20.3304 6.00196 20.2502 6.23746L19.2627 9.22496" stroke-linecap="round" stroke-linejoin="round"/>
<path d="M12.625 22.7625L11.1125 25.7625C11.0152 25.967 10.8496 26.1313 10.6443 26.2272C10.439 26.323 10.2068 26.3443 9.98747 26.2875C6.92497 25.5375 4.27497 24.2375 2.34997 22.5625C2.20484 22.4344 2.09945 22.2675 2.04628 22.0814C1.99311 21.8953 1.99439 21.6978 2.04997 21.5125L6.28747 7.36246C6.32871 7.21765 6.40335 7.08454 6.50538 6.97382C6.60742 6.8631 6.73401 6.77786 6.87497 6.72496C8.07217 6.2338 9.31028 5.84898 10.575 5.57496C10.818 5.52173 11.0721 5.55985 11.2889 5.68205C11.5056 5.80424 11.6697 6.00196 11.75 6.23746L12.7375 9.22496" stroke-linecap="round" stroke-linejoin="round"/>
</svg>
