<svg width="32" height="32" viewBox="0 0 32 32" fill="none" xmlns="http://www.w3.org/2000/svg">
<path d="M11.4375 12.4375L19.925 20.925" stroke-linecap="round" stroke-linejoin="round"/>
<path d="M27.0001 26.9751H9.01255L4.37505 22.3376C4.18835 22.1527 4.04014 21.9328 3.93899 21.6903C3.83785 21.4479 3.78577 21.1878 3.78577 20.9251C3.78577 20.6624 3.83785 20.4023 3.93899 20.1598C4.04014 19.9174 4.18835 19.6974 4.37505 19.5126L18.5126 5.37505C18.6974 5.18835 18.9174 5.04014 19.1598 4.93899C19.4023 4.83785 19.6624 4.78577 19.9251 4.78577C20.1878 4.78577 20.4479 4.83785 20.6903 4.93899C20.9328 5.04014 21.1527 5.18835 21.3376 5.37505L27.0001 11.0251C27.3718 11.4037 27.5801 11.9131 27.5801 12.4438C27.5801 12.9745 27.3718 13.4839 27.0001 13.8626L13.8751 26.9751" stroke-linecap="round" stroke-linejoin="round"/>
</svg>
