<svg width="32" height="32" viewBox="0 0 32 32" fill="none" xmlns="http://www.w3.org/2000/svg">
<path d="M30.1875 15.1624L19.0375 7.98744C18.8859 7.89078 18.711 7.83679 18.5312 7.83118C18.3515 7.82556 18.1736 7.86852 18.0162 7.95553C17.8588 8.04253 17.7278 8.17037 17.6369 8.32558C17.5461 8.48078 17.4988 8.65761 17.5 8.83744V23.1624C17.4988 23.3423 17.5461 23.5191 17.6369 23.6743C17.7278 23.8295 17.8588 23.9573 18.0162 24.0444C18.1736 24.1314 18.3515 24.1743 18.5312 24.1687C18.711 24.1631 18.8859 24.1091 19.0375 24.0124L30.1875 16.8374C30.3296 16.7487 30.4468 16.6252 30.528 16.4787C30.6092 16.3322 30.6518 16.1675 30.6518 15.9999C30.6518 15.8324 30.6092 15.6677 30.528 15.5211C30.4468 15.3746 30.3296 15.2512 30.1875 15.1624V15.1624Z" stroke="#8247E5" stroke-linecap="round" stroke-linejoin="round"/>
<path d="M16.1875 15.1624L5.03752 7.98744C4.88588 7.89078 4.71098 7.83679 4.53123 7.83118C4.35149 7.82556 4.17355 7.86852 4.01617 7.95553C3.85879 8.04253 3.72778 8.17037 3.63695 8.32558C3.54611 8.48078 3.49881 8.65761 3.50002 8.83744V23.1624C3.49881 23.3423 3.54611 23.5191 3.63695 23.6743C3.72778 23.8295 3.85879 23.9573 4.01617 24.0444C4.17355 24.1314 4.35149 24.1743 4.53123 24.1687C4.71098 24.1631 4.88588 24.1091 5.03752 24.0124L16.1875 16.8374C16.3296 16.7487 16.4468 16.6252 16.528 16.4787C16.6092 16.3322 16.6518 16.1675 16.6518 15.9999C16.6518 15.8324 16.6092 15.6677 16.528 15.5211C16.4468 15.3746 16.3296 15.2512 16.1875 15.1624V15.1624Z" stroke="#8247E5" stroke-linecap="round" stroke-linejoin="round"/>
</svg>
