<svg width="32" height="32" viewBox="0 0 32 32" fill="none" xmlns="http://www.w3.org/2000/svg">
<path d="M23.0749 23.075C17.8749 28.2625 10.6749 27.85 7.19988 27.2625C6.58424 27.1593 6.01615 26.8666 5.57474 26.4252C5.13334 25.9838 4.84063 25.4157 4.73738 24.8C4.14988 21.325 3.73738 14.125 8.92488 8.92503C14.1124 3.72504 21.3249 4.15004 24.7999 4.73754C25.4155 4.84078 25.9836 5.1335 26.425 5.5749C26.8664 6.0163 27.1591 6.5844 27.2624 7.20003C27.8499 10.675 28.2624 17.875 23.0749 23.075Z" stroke-linecap="round" stroke-linejoin="round"/>
<path d="M20 12L12 20" stroke-linecap="round" stroke-linejoin="round"/>
<path d="M15.5874 12.7625L19.2374 16.4125" stroke-linecap="round" stroke-linejoin="round"/>
<path d="M12.7627 15.5875L16.4127 19.2375" stroke-linecap="round" stroke-linejoin="round"/>
<path d="M18.5249 4.52502L27.4749 13.475" stroke-linecap="round" stroke-linejoin="round"/>
<path d="M4.5249 18.525L13.4749 27.475" stroke-linecap="round" stroke-linejoin="round"/>
</svg>
