<svg width="32" height="32" viewBox="0 0 32 32" fill="none" xmlns="http://www.w3.org/2000/svg">
<path d="M27 10H5C4.44772 10 4 10.4477 4 11V15C4 15.5523 4.44772 16 5 16H27C27.5523 16 28 15.5523 28 15V11C28 10.4477 27.5523 10 27 10Z" stroke="#8247E5" stroke-linecap="round" stroke-linejoin="round"/>
<path d="M26 16V25C26 25.2652 25.8946 25.5196 25.7071 25.7071C25.5196 25.8946 25.2652 26 25 26H7C6.73478 26 6.48043 25.8946 6.29289 25.7071C6.10536 25.5196 6 25.2652 6 25V16" stroke="#8247E5" stroke-linecap="round" stroke-linejoin="round"/>
<path d="M16 10V26" stroke="#8247E5" stroke-linecap="round" stroke-linejoin="round"/>
<path d="M21.6625 8.58748C20.2375 9.99998 16 9.99998 16 9.99998C16 9.99998 16 5.76248 17.4125 4.33748C17.9761 3.77389 18.7405 3.45728 19.5375 3.45728C20.3345 3.45728 21.0989 3.77389 21.6625 4.33748C22.2261 4.90106 22.5427 5.66545 22.5427 6.46248C22.5427 7.25951 22.2261 8.02389 21.6625 8.58748V8.58748Z" stroke="#8247E5" stroke-linecap="round" stroke-linejoin="round"/>
<path d="M10.3377 8.58748C11.7627 9.99998 16.0002 9.99998 16.0002 9.99998C16.0002 9.99998 16.0002 5.76248 14.5877 4.33748C14.0241 3.77389 13.2598 3.45728 12.4627 3.45728C11.6657 3.45728 10.9013 3.77389 10.3377 4.33748C9.77414 4.90106 9.45752 5.66545 9.45752 6.46248C9.45752 7.25951 9.77414 8.02389 10.3377 8.58748V8.58748Z" stroke="#8247E5" stroke-linecap="round" stroke-linejoin="round"/>
</svg>
