<svg width="32" height="32" viewBox="0 0 32 32" fill="none" xmlns="http://www.w3.org/2000/svg">
<path d="M10.3748 14H21.6248L24.4498 6.46246C24.4876 6.36379 24.5557 6.27964 24.6443 6.22208C24.7329 6.16451 24.8375 6.1365 24.943 6.14205C25.0485 6.1476 25.1495 6.18644 25.2316 6.25299C25.3137 6.31953 25.3725 6.41037 25.3998 6.51246L28.8248 19.325C28.8729 19.5236 28.8605 19.7321 28.7892 19.9236C28.718 20.1152 28.591 20.2811 28.4248 20.4L16.5748 28.6C16.4057 28.7166 16.2052 28.7791 15.9998 28.7791C15.7944 28.7791 15.5939 28.7166 15.4248 28.6L3.57479 20.4C3.40854 20.2811 3.28162 20.1152 3.21034 19.9236C3.13907 19.7321 3.12669 19.5236 3.17479 19.325L6.59979 6.51246C6.62703 6.41037 6.68591 6.31953 6.76798 6.25299C6.85005 6.18644 6.95109 6.1476 7.05661 6.14205C7.16212 6.1365 7.26669 6.16451 7.35529 6.22208C7.44389 6.27964 7.51198 6.36379 7.54979 6.46246L10.3748 14Z" stroke="#8247E5" stroke-linecap="round" stroke-linejoin="round"/>
<path d="M16.0875 28.775L21.625 14H27.4" stroke="#8247E5" stroke-linecap="round" stroke-linejoin="round"/>
<path d="M4.59998 14H10.375L15.9125 28.775" stroke="#8247E5" stroke-linecap="round" stroke-linejoin="round"/>
</svg>
