<svg width="32" height="32" viewBox="0 0 32 32" fill="none" xmlns="http://www.w3.org/2000/svg">
<path d="M4.97498 28.0124C4.9765 28.1885 5.02447 28.361 5.11402 28.5125C5.20358 28.6641 5.33156 28.7893 5.48502 28.8755C5.63848 28.9618 5.81199 29.006 5.98801 29.0037C6.16403 29.0014 6.33632 28.9527 6.48748 28.8624L27.4625 16.8499C27.6168 16.768 27.7458 16.6455 27.8358 16.4958C27.9259 16.3461 27.9734 16.1746 27.9734 15.9999C27.9734 15.8252 27.9259 15.6538 27.8358 15.5041C27.7458 15.3543 27.6168 15.2319 27.4625 15.1499L6.48748 3.13743C6.33632 3.0472 6.16403 2.99848 5.98801 2.99618C5.81199 2.99388 5.63848 3.03808 5.48502 3.12433C5.33156 3.21057 5.20358 3.33579 5.11402 3.48734C5.02447 3.63889 4.9765 3.8114 4.97498 3.98743V28.0124Z" stroke-linecap="round" stroke-linejoin="round"/>
<path d="M5.27502 3.2749L21.9875 19.9874" stroke-linecap="round" stroke-linejoin="round"/>
<path d="M5.27502 28.725L21.9875 12.0125" stroke-linecap="round" stroke-linejoin="round"/>
</svg>
