<svg width="32" height="32" viewBox="0 0 32 32" fill="none" xmlns="http://www.w3.org/2000/svg">
<path d="M28.1875 16.0001H24.1875C23.6571 16.0001 23.1484 16.2108 22.7733 16.5858C22.3982 16.9609 22.1875 17.4696 22.1875 18.0001V23C22.1875 23.5305 22.3982 24.0392 22.7733 24.4143C23.1484 24.7893 23.6571 25 24.1875 25H26.1875C26.7179 25 27.2266 24.7893 27.6017 24.4143C27.9768 24.0392 28.1875 23.5305 28.1875 23V16.0001ZM28.1875 16.0001C28.1876 14.4157 27.8739 12.8471 27.2646 11.3846C26.6553 9.92217 25.7624 8.59484 24.6375 7.47922C23.5126 6.3636 22.1779 5.48178 20.7104 4.88463C19.2429 4.28749 17.6718 3.98685 16.0875 4.00005C14.5043 3.98851 12.9344 4.29037 11.4684 4.88826C10.0024 5.48615 8.66919 6.36823 7.5456 7.48368C6.42201 8.59914 5.53026 9.92591 4.92174 11.3875C4.31322 12.8492 3.99996 14.4168 4 16.0001V23C4 23.5305 4.21071 24.0392 4.58579 24.4143C4.96086 24.7893 5.46957 25 6 25H8C8.53043 25 9.03914 24.7893 9.41421 24.4143C9.78929 24.0392 10 23.5305 10 23V18.0001C10 17.4696 9.78929 16.9609 9.41421 16.5858C9.03914 16.2108 8.53043 16.0001 8 16.0001H4" stroke="#8247E5" stroke-linecap="round" stroke-linejoin="round"/>
<path d="M28.1875 23V26C28.1875 27.0609 27.7661 28.0783 27.0159 28.8284C26.2658 29.5786 25.2484 30 24.1875 30H17" stroke="#8247E5" stroke-linecap="round" stroke-linejoin="round"/>
</svg>
