<svg width="32" height="32" viewBox="0 0 32 32" fill="none" xmlns="http://www.w3.org/2000/svg">
<path d="M15.7875 8.52495C15.1226 7.2244 14.0391 6.18571 12.7116 5.57637C11.3841 4.96704 9.89007 4.82258 8.47044 5.1663C7.0508 5.51001 5.78832 6.32187 4.88657 7.47094C3.98482 8.62 3.49638 10.0393 3.50002 11.5C3.50002 20 16 27 16 27C16 27 28.5 20 28.5 11.5C28.5015 10.2133 28.1211 8.95508 27.407 7.88476C26.6929 6.81444 25.6772 5.98014 24.4885 5.48754C23.2998 4.99494 21.9917 4.86621 20.7298 5.11764C19.468 5.36908 18.3091 5.98937 17.4 6.89995L13.4 10.9L17.4 14.9L15.4 16.9" stroke="#8247E5" stroke-linecap="round" stroke-linejoin="round"/>
</svg>
