<svg width="32" height="32" viewBox="0 0 32 32" fill="none" xmlns="http://www.w3.org/2000/svg">
<path d="M8.66247 5H23.3375C23.5331 4.99993 23.7246 5.05657 23.8888 5.16305C24.053 5.26953 24.1828 5.4213 24.2625 5.6L29.4 17.6C29.4663 17.7519 29.4938 17.9178 29.48 18.083C29.4663 18.2481 29.4117 18.4072 29.3212 18.546C29.2307 18.6849 29.1072 18.799 28.9616 18.8783C28.8161 18.9575 28.6532 18.9993 28.4875 19H3.51247C3.34677 18.9993 3.18382 18.9575 3.03829 18.8783C2.89276 18.799 2.7692 18.6849 2.67872 18.546C2.58824 18.4072 2.53367 18.2481 2.51993 18.083C2.50618 17.9178 2.53368 17.7519 2.59997 17.6L7.73747 5.6C7.81719 5.4213 7.94698 5.26953 8.11114 5.16305C8.2753 5.05657 8.4668 4.99993 8.66247 5V5Z" stroke-linecap="round" stroke-linejoin="round"/>
<path d="M16 19V27" stroke-linecap="round" stroke-linejoin="round"/>
<path d="M12 27H20" stroke-linecap="round" stroke-linejoin="round"/>
<path d="M25 19V24" stroke-linecap="round" stroke-linejoin="round"/>
</svg>
