<svg width="32" height="32" viewBox="0 0 32 32" fill="none" xmlns="http://www.w3.org/2000/svg">
<path d="M5.67485 22.1251C4.18596 19.6131 3.66516 16.644 4.21023 13.7753C4.7553 10.9065 6.32876 8.33537 8.6352 6.5445C10.9416 4.75364 13.8225 3.86623 16.7368 4.04888C19.6512 4.23152 22.3987 5.47165 24.4635 7.53646C26.5283 9.60127 27.7684 12.3488 27.9511 15.2631C28.1337 18.1775 27.2463 21.0583 25.4554 23.3647C23.6646 25.6712 21.0934 27.2446 18.2247 27.7897C15.3559 28.3348 12.3868 27.814 9.87485 26.3251V26.3251L5.72485 27.5001C5.55482 27.5498 5.37455 27.5529 5.20292 27.509C5.0313 27.4651 4.87464 27.3758 4.74938 27.2506C4.62411 27.1253 4.53485 26.9686 4.49095 26.797C4.44705 26.6254 4.45012 26.4451 4.49985 26.2751L5.67485 22.1251Z" stroke="#8247E5" stroke-linecap="round" stroke-linejoin="round"/>
<path d="M10 18L14 14L18 18L22 14" stroke="#8247E5" stroke-linecap="round" stroke-linejoin="round"/>
</svg>
