<svg width="32" height="32" viewBox="0 0 32 32" fill="none" xmlns="http://www.w3.org/2000/svg">
<path d="M18 9H5C4.44772 9 4 9.44772 4 10V22C4 22.5523 4.44772 23 5 23H18C18.5523 23 19 22.5523 19 22V10C19 9.44772 18.5523 9 18 9Z" stroke="#8247E5" stroke-linecap="round" stroke-linejoin="round"/>
<path d="M19 11H23C23.2652 11 23.5195 11.1054 23.7071 11.2929C23.8946 11.4804 24 11.7348 24 12V21C24 22.8565 23.2625 24.637 21.9497 25.9497C20.637 27.2625 18.8565 28 17 28V28C15.4923 27.9989 14.0251 27.5119 12.8159 26.6113C11.6068 25.7106 10.7202 24.4443 10.2875 23" stroke="#8247E5" stroke-linecap="round" stroke-linejoin="round"/>
<path d="M13.75 13H9.25" stroke="#8247E5" stroke-linecap="round" stroke-linejoin="round"/>
<path d="M11.5 19V13" stroke="#8247E5" stroke-linecap="round" stroke-linejoin="round"/>
<path d="M13.5375 8.99994C13.1415 8.31492 12.9575 7.52784 13.0089 6.73827C13.0603 5.9487 13.3447 5.1921 13.8262 4.56419C14.3076 3.93627 14.9645 3.46525 15.7136 3.2107C16.4628 2.95614 17.2707 2.9295 18.035 3.13414C18.7993 3.33877 19.4858 3.76549 20.0075 4.36032C20.5293 4.95515 20.863 5.69136 20.9663 6.47584C21.0696 7.26031 20.9379 8.05779 20.5879 8.76742C20.2379 9.47704 19.6853 10.0669 19 10.4624" stroke="#8247E5" stroke-linecap="round" stroke-linejoin="round"/>
<path d="M20.7625 5.64993C21.2137 5.11596 21.8251 4.7417 22.5058 4.58272C23.1866 4.42374 23.9005 4.4885 24.5415 4.76739C25.1826 5.04629 25.7166 5.52444 26.0643 6.1309C26.4121 6.73735 26.555 7.43976 26.4719 8.13389C26.3888 8.82801 26.0841 9.47684 25.603 9.98406C25.122 10.4913 24.4902 10.8299 23.8014 10.9496C23.1126 11.0693 22.4037 10.9637 21.7797 10.6485C21.1557 10.3333 20.6499 9.82532 20.3375 9.19993" stroke="#8247E5" stroke-linecap="round" stroke-linejoin="round"/>
<path d="M24 11H27.4125C27.5683 11 27.7178 11.0619 27.8279 11.1721C27.9381 11.2823 28 11.4317 28 11.5875V19C28 20.0609 27.5786 21.0783 26.8285 21.8284C26.0783 22.5786 25.0609 23 24 23H23.7125" stroke="#8247E5" stroke-linecap="round" stroke-linejoin="round"/>
</svg>
