<svg width="32" height="32" viewBox="0 0 32 32" fill="none" xmlns="http://www.w3.org/2000/svg">
<path d="M27.5 21.9124V10.0874C27.499 9.90938 27.4512 9.73475 27.3612 9.58113C27.2712 9.42751 27.1423 9.30033 26.9875 9.21241L16.4875 3.27491C16.3393 3.18934 16.1711 3.14429 16 3.14429C15.8289 3.14429 15.6607 3.18934 15.5125 3.27491L5.0125 9.21241C4.85769 9.30033 4.72879 9.42751 4.63882 9.58113C4.54884 9.73475 4.50096 9.90938 4.5 10.0874V21.9124C4.50096 22.0904 4.54884 22.2651 4.63882 22.4187C4.72879 22.5723 4.85769 22.6995 5.0125 22.7874L15.5125 28.7249C15.6607 28.8105 15.8289 28.8555 16 28.8555C16.1711 28.8555 16.3393 28.8105 16.4875 28.7249L26.9875 22.7874C27.1423 22.6995 27.2712 22.5723 27.3612 22.4187C27.4512 22.2651 27.499 22.0904 27.5 21.9124V21.9124Z" stroke="#8247E5" stroke-linecap="round" stroke-linejoin="round"/>
<path d="M16 20.5C18.4853 20.5 20.5 18.4853 20.5 16C20.5 13.5147 18.4853 11.5 16 11.5C13.5147 11.5 11.5 13.5147 11.5 16C11.5 18.4853 13.5147 20.5 16 20.5Z" stroke="#8247E5" stroke-linecap="round" stroke-linejoin="round"/>
</svg>
