<svg width="32" height="32" viewBox="0 0 32 32" fill="none" xmlns="http://www.w3.org/2000/svg">
<path d="M21.5 19.5C22.0523 19.5 22.5 19.0523 22.5 18.5C22.5 17.9477 22.0523 17.5 21.5 17.5C20.9477 17.5 20.5 17.9477 20.5 18.5C20.5 19.0523 20.9477 19.5 21.5 19.5Z" fill="#8247E5"/>
<path d="M25.7001 20.425C25.2458 22.2422 24.2903 23.8954 22.9424 25.1961C21.5944 26.4967 19.9083 27.3927 18.076 27.7818C16.2437 28.171 14.3389 28.0376 12.5787 27.3971C10.8185 26.7565 9.27358 25.6344 8.11998 24.1586C6.96638 22.6828 6.25047 20.9127 6.05381 19.0499C5.85715 17.1871 6.18764 15.3065 7.00764 13.6223C7.82765 11.9382 9.10418 10.5182 10.6918 9.52422C12.2795 8.53019 14.1144 8.00206 15.9876 8" stroke-linecap="round" stroke-linejoin="round"/>
<path d="M8.40021 11.4875C7.49486 11.4125 6.65418 10.9883 6.05584 10.3047C5.4575 9.62117 5.14839 8.73173 5.19384 7.82442C5.23929 6.91711 5.63573 6.06301 6.29938 5.44265C6.96304 4.82229 7.84189 4.48427 8.75021 4.50004L23.2502 11.5C24.1785 11.5 25.0687 11.1313 25.7251 10.4749C26.3815 9.81854 26.7502 8.9283 26.7502 8.00004C26.7502 7.07178 26.3815 6.18154 25.7251 5.52517C25.0687 4.86879 24.1785 4.50004 23.2502 4.50004" stroke-linecap="round" stroke-linejoin="round"/>
<path d="M6.0752 19.2875L15.9877 14V28" stroke-linecap="round" stroke-linejoin="round"/>
<path d="M11.9873 16.1375V27.1625" stroke-linecap="round" stroke-linejoin="round"/>
</svg>
