<svg width="32" height="32" viewBox="0 0 32 32" fill="none" xmlns="http://www.w3.org/2000/svg">
<path d="M15.1123 4.56251L3.28729 25.675C3.18904 25.8528 3.1473 26.0564 3.16761 26.2585C3.18792 26.4607 3.26933 26.6519 3.40099 26.8066C3.53265 26.9613 3.70832 27.0723 3.90462 27.1247C4.10091 27.1771 4.30852 27.1685 4.49979 27.1L15.6498 23.125C15.8663 23.0374 16.1083 23.0374 16.3248 23.125L27.4748 27.1C27.6661 27.1685 27.8737 27.1771 28.07 27.1247C28.2663 27.0723 28.4419 26.9613 28.5736 26.8066C28.7053 26.6519 28.7867 26.4607 28.807 26.2585C28.8273 26.0564 28.7855 25.8528 28.6873 25.675L16.8623 4.56251C16.7758 4.40621 16.649 4.27592 16.4952 4.1852C16.3413 4.09448 16.1659 4.04663 15.9873 4.04663C15.8087 4.04663 15.6333 4.09448 15.4794 4.1852C15.3255 4.27592 15.1988 4.40621 15.1123 4.56251Z" stroke="#8247E5" stroke-linecap="round" stroke-linejoin="round"/>
<path d="M15.9873 23V15" stroke="#8247E5" stroke-linecap="round" stroke-linejoin="round"/>
</svg>
