<svg width="32" height="32" viewBox="0 0 32 32" fill="none" xmlns="http://www.w3.org/2000/svg">
<path d="M6 5L26 27" stroke-linecap="round" stroke-linejoin="round"/>
<path d="M14.3752 14.2125C13.75 14.3105 13.1349 14.4654 12.5377 14.675C12.3751 14.7316 12.2297 14.8292 12.1159 14.9584C12.002 15.0876 11.9234 15.2441 11.8877 15.4125L11.1627 19.1C11.1285 19.2636 11.0548 19.4163 10.948 19.5448C10.8413 19.6734 10.7047 19.7739 10.5502 19.8375L4.63774 22.2C4.43662 22.2834 4.2136 22.2979 4.00336 22.2414C3.79313 22.1849 3.60746 22.0605 3.47524 21.8875C2.58206 20.7335 2.14013 19.2934 2.23217 17.8369C2.3242 16.3805 2.94389 15.0075 3.97524 13.975C5.80593 12.1486 8.02892 10.7635 10.4752 9.92505" stroke-linecap="round" stroke-linejoin="round"/>
<path d="M15.0625 9.025C17.4497 8.89294 19.8378 9.26551 22.0713 10.1184C24.3048 10.9713 26.3335 12.2854 28.025 13.975C29.0563 15.0075 29.676 16.3805 29.7681 17.8369C29.8601 19.2933 29.4182 20.7334 28.525 21.8875C28.3928 22.0604 28.2071 22.1848 27.9969 22.2414C27.7866 22.2979 27.5636 22.2833 27.3625 22.2L26.8625 22" stroke-linecap="round" stroke-linejoin="round"/>
</svg>
