<svg width="32" height="32" viewBox="0 0 32 32" fill="none" xmlns="http://www.w3.org/2000/svg">
<path d="M19.4252 12.6625C17.1935 11.8912 14.7667 11.8956 12.5377 12.675C12.3751 12.7316 12.2297 12.8292 12.1159 12.9584C12.002 13.0876 11.9234 13.244 11.8877 13.4125L11.1627 17.1C11.1285 17.2636 11.0548 17.4163 10.948 17.5448C10.8413 17.6733 10.7047 17.7738 10.5502 17.8375L4.63774 20.2C4.43662 20.2834 4.2136 20.2979 4.00336 20.2414C3.79313 20.1849 3.60746 20.0605 3.47524 19.8875C2.58206 18.7334 2.14013 17.2934 2.23217 15.8369C2.3242 14.3805 2.94389 13.0075 3.97524 11.975C7.16532 8.7874 11.4905 6.99683 16.0002 6.99683C20.51 6.99683 24.8352 8.7874 28.0252 11.975C29.0566 13.0075 29.6763 14.3805 29.7683 15.8369C29.8603 17.2934 29.4184 18.7334 28.5252 19.8875C28.393 20.0605 28.2073 20.1849 27.9971 20.2414C27.7869 20.2979 27.5639 20.2834 27.3627 20.2L21.4502 17.8375C21.2973 17.775 21.1617 17.6764 21.055 17.5502C20.9484 17.4239 20.8738 17.2738 20.8377 17.1125L20.0627 13.4C20.0294 13.2324 19.9531 13.0764 19.8413 12.9471C19.7296 12.8179 19.5862 12.7198 19.4252 12.6625V12.6625Z" stroke-linecap="round" stroke-linejoin="round"/>
<path d="M5 25H27" stroke-linecap="round" stroke-linejoin="round"/>
</svg>
