<svg width="32" height="32" viewBox="0 0 32 32" fill="none" xmlns="http://www.w3.org/2000/svg">
<path d="M2.92476 9.46249C2.78567 9.24599 2.73658 8.98376 2.78794 8.73161C2.83931 8.47946 2.98706 8.25732 3.19976 8.11249C6.93198 5.438 11.4082 3.99976 15.9998 3.99976C20.5913 3.99976 25.0675 5.438 28.7998 8.11249C29.0125 8.25732 29.1602 8.47946 29.2116 8.73161C29.2629 8.98376 29.2139 9.24599 29.0748 9.46249L16.8373 28.675C16.7485 28.8171 16.6251 28.9342 16.4786 29.0154C16.332 29.0967 16.1673 29.1393 15.9998 29.1393C15.8322 29.1393 15.6675 29.0967 15.521 29.0154C15.3745 28.9342 15.251 28.8171 15.1623 28.675L2.92476 9.46249Z" stroke-linecap="round" stroke-linejoin="round"/>
<path d="M4.58752 12.075C7.80665 9.43878 11.8392 7.99829 16 7.99829C20.1609 7.99829 24.1934 9.43878 27.4125 12.075" stroke-linecap="round" stroke-linejoin="round"/>
<path d="M20.5375 22.8625C20.0135 22.7133 19.5316 22.4437 19.1301 22.0754C18.7286 21.7071 18.4186 21.2501 18.2249 20.7408C18.0312 20.2316 17.959 19.6841 18.0141 19.1421C18.0693 18.6 18.2502 18.0783 18.5425 17.6185C18.8349 17.1587 19.2305 16.7735 19.6979 16.4936C20.1654 16.2137 20.6917 16.0467 21.2351 16.0061C21.7784 15.9654 22.3237 16.0522 22.8276 16.2595C23.3315 16.4668 23.78 16.7888 24.1375 17.2" stroke-linecap="round" stroke-linejoin="round"/>
<path d="M7.2373 16.225C7.46922 15.6321 7.85845 15.1137 8.3631 14.7256C8.86774 14.3375 9.46869 14.0944 10.1012 14.0224C10.7338 13.9505 11.374 14.0524 11.9529 14.3173C12.5318 14.5821 13.0275 14.9999 13.3867 15.5255C13.7458 16.0512 13.9548 16.6648 13.9911 17.3004C14.0274 17.936 13.8897 18.5695 13.5927 19.1326C13.2958 19.6957 12.8508 20.1672 12.3059 20.4962C11.7609 20.8253 11.1364 20.9995 10.4998 21H10.2748" stroke-linecap="round" stroke-linejoin="round"/>
</svg>
