<svg width="32" height="32" viewBox="0 0 32 32" fill="none" xmlns="http://www.w3.org/2000/svg">
<path d="M4.38756 11.6625L7.81256 26.225C7.86548 26.4443 7.99016 26.6397 8.1668 26.7801C8.34344 26.9205 8.56192 26.9979 8.78756 27H23.2126C23.4382 26.9979 23.6567 26.9205 23.8333 26.7801C24.01 26.6397 24.1346 26.4443 24.1876 26.225L27.6126 11.6625C27.6508 11.4924 27.6445 11.3155 27.5942 11.1486C27.544 10.9818 27.4516 10.8307 27.3259 10.71C27.2002 10.5894 27.0455 10.5032 26.8767 10.4598C26.708 10.4164 26.5309 10.4173 26.3626 10.4625L21.0001 12L16.3751 10.15C16.2562 10.1004 16.1288 10.075 16.0001 10.075C15.8713 10.075 15.7439 10.1004 15.6251 10.15L11.0001 12L5.63756 10.4625C5.46925 10.4173 5.29216 10.4164 5.1234 10.4598C4.95464 10.5032 4.79992 10.5894 4.67423 10.71C4.54853 10.8307 4.4561 10.9818 4.40588 11.1486C4.35566 11.3155 4.34935 11.4924 4.38756 11.6625V11.6625Z" stroke="#8247E5" stroke-linecap="round" stroke-linejoin="round"/>
<path d="M11 12L13 27" stroke="#8247E5" stroke-linecap="round" stroke-linejoin="round"/>
<path d="M21 12L19 27" stroke="#8247E5" stroke-linecap="round" stroke-linejoin="round"/>
<path d="M27 10.4999C27.0003 9.72319 26.7995 8.95961 26.4172 8.28346C26.0349 7.60732 25.4842 7.04164 24.8184 6.64146C24.1527 6.24128 23.3948 6.02023 22.6183 5.9998C21.8419 5.97938 21.0733 6.16029 20.3875 6.52492C20.172 5.52126 19.6189 4.62183 18.8205 3.97663C18.022 3.33144 17.0265 2.97949 16 2.97949C14.9735 2.97949 13.978 3.33144 13.1795 3.97663C12.3811 4.62183 11.828 5.52126 11.6125 6.52492C10.9267 6.16029 10.1581 5.97938 9.38168 5.9998C8.60522 6.02023 7.84726 6.24128 7.18155 6.64146C6.51584 7.04164 5.96505 7.60732 5.58277 8.28346C5.20048 8.95961 4.99971 9.72319 5 10.4999" stroke="#8247E5" stroke-linecap="round" stroke-linejoin="round"/>
</svg>
