<svg width="32" height="32" viewBox="0 0 32 32" fill="none" xmlns="http://www.w3.org/2000/svg">
<path d="M23.5 6C24.6046 6 25.5 5.10457 25.5 4C25.5 2.89543 24.6046 2 23.5 2C22.3954 2 21.5 2.89543 21.5 4C21.5 5.10457 22.3954 6 23.5 6Z" stroke="#8247E5" stroke-linecap="round" stroke-linejoin="round"/>
<path d="M20.125 22C18.8498 22.6588 17.4353 23.0025 16 23.0025C14.5647 23.0025 13.1502 22.6588 11.875 22" stroke="#8247E5" stroke-linecap="round" stroke-linejoin="round"/>
<path d="M16 9L17 3L21.525 3.7" stroke="#8247E5" stroke-linecap="round" stroke-linejoin="round"/>
<path d="M7.42499 11.2375C9.71249 9.8375 12.7125 9 16 9C19.2875 9 22.2875 9.8375 24.575 11.2375C24.8373 10.8775 25.1766 10.5804 25.5681 10.3678C25.9596 10.1553 26.3935 10.0325 26.8384 10.0086C27.2832 9.98468 27.7278 10.0601 28.1398 10.2294C28.5519 10.3988 28.921 10.6577 29.2205 10.9875C29.52 11.3173 29.7423 11.7097 29.8712 12.1361C30.0001 12.5625 30.0324 13.0123 29.9658 13.4528C29.8992 13.8933 29.7354 14.3134 29.4861 14.6826C29.2369 15.0519 28.9086 15.361 28.525 15.5875V15.5875C28.8393 16.3529 29.0007 17.1725 29 18C29 22.975 23.175 27 16 27C8.82499 27 2.99999 22.975 2.99999 18C2.99931 17.1725 3.16068 16.3529 3.47499 15.5875V15.5875C3.09139 15.361 2.76306 15.0519 2.51384 14.6826C2.26461 14.3134 2.10075 13.8933 2.03414 13.4528C1.96754 13.0123 1.99987 12.5625 2.12879 12.1361C2.25771 11.7097 2.47998 11.3173 2.77945 10.9875C3.07893 10.6577 3.44809 10.3988 3.86014 10.2294C4.27219 10.0601 4.71678 9.98468 5.16162 10.0086C5.60646 10.0325 6.04039 10.1553 6.43189 10.3678C6.82339 10.5804 7.16263 10.8775 7.42499 11.2375V11.2375Z" stroke="#8247E5" stroke-linecap="round" stroke-linejoin="round"/>
<path d="M11 18C11.8284 18 12.5 17.3284 12.5 16.5C12.5 15.6716 11.8284 15 11 15C10.1716 15 9.5 15.6716 9.5 16.5C9.5 17.3284 10.1716 18 11 18Z" fill="#8247E5"/>
<path d="M21 18C21.8284 18 22.5 17.3284 22.5 16.5C22.5 15.6716 21.8284 15 21 15C20.1716 15 19.5 15.6716 19.5 16.5C19.5 17.3284 20.1716 18 21 18Z" fill="#8247E5"/>
</svg>
