<svg width="32" height="32" viewBox="0 0 32 32" fill="none" xmlns="http://www.w3.org/2000/svg">
<path d="M4.58745 21.6249L7.61245 4.48739C7.63359 4.35805 7.68027 4.23421 7.74976 4.12309C7.81925 4.01197 7.91016 3.91579 8.0172 3.84017C8.12424 3.76454 8.24526 3.71098 8.37321 3.6826C8.50116 3.65423 8.63348 3.6516 8.76245 3.67489L15.6625 4.88739C15.9232 4.93613 16.1543 5.08522 16.3063 5.30261C16.4582 5.51999 16.5188 5.78831 16.475 6.04989L13.4375 23.2874C13.2294 24.4481 12.5753 25.4812 11.6152 26.1657C10.655 26.8502 9.46503 27.1317 8.29995 26.9499C5.81245 26.5499 4.14995 24.1124 4.58745 21.6249Z" stroke-linecap="round" stroke-linejoin="round"/>
<path d="M14.7875 15.6L23.9 12.2875C24.0239 12.2417 24.1556 12.221 24.2875 12.2264C24.4195 12.2319 24.5491 12.2634 24.6688 12.3192C24.7885 12.375 24.8959 12.4539 24.985 12.5515C25.074 12.649 25.1428 12.7632 25.1875 12.8875L27.5875 19.4625C27.676 19.7112 27.6626 19.9848 27.5502 20.2236C27.4378 20.4625 27.2355 20.6472 26.9875 20.7375L10.5375 26.725" stroke-linecap="round" stroke-linejoin="round"/>
<path d="M27.5 20.3125V26C27.5 26.2652 27.3946 26.5196 27.2071 26.7071C27.0196 26.8946 26.7652 27 26.5 27H9" stroke-linecap="round" stroke-linejoin="round"/>
<path d="M9 23.5C9.55228 23.5 10 23.0523 10 22.5C10 21.9477 9.55228 21.5 9 21.5C8.44772 21.5 8 21.9477 8 22.5C8 23.0523 8.44772 23.5 9 23.5Z" fill="#8247E5"/>
</svg>
