<svg width="32" height="32" viewBox="0 0 32 32" fill="none" xmlns="http://www.w3.org/2000/svg">
<path d="M16 13V18" stroke="#8247E5" stroke-linecap="round" stroke-linejoin="round"/>
<path d="M14.2748 5.00007L3.27479 24.0001C3.09955 24.3036 3.00715 24.6478 3.00684 24.9983C3.00653 25.3488 3.09832 25.6932 3.27302 25.997C3.44773 26.3009 3.6992 26.5534 4.00226 26.7295C4.30532 26.9055 4.64932 26.9988 4.99979 27.0001H26.9998C27.3503 26.9988 27.6943 26.9055 27.9973 26.7295C28.3004 26.5534 28.5519 26.3009 28.7266 25.997C28.9013 25.6932 28.9931 25.3488 28.9927 24.9983C28.9924 24.6478 28.9 24.3036 28.7248 24.0001L17.7248 5.00007C17.5509 4.69616 17.2997 4.44359 16.9968 4.26793C16.6939 4.09227 16.35 3.99976 15.9998 3.99976C15.6496 3.99976 15.3057 4.09227 15.0028 4.26793C14.6998 4.44359 14.4487 4.69616 14.2748 5.00007V5.00007Z" stroke="#8247E5" stroke-linecap="round" stroke-linejoin="round"/>
<path d="M16 23.5C16.5523 23.5 17 23.0523 17 22.5C17 21.9477 16.5523 21.5 16 21.5C15.4477 21.5 15 21.9477 15 22.5C15 23.0523 15.4477 23.5 16 23.5Z" fill="#8247E5"/>
</svg>
