<svg width="28" height="28" viewBox="0 0 28 28" fill="none" xmlns="http://www.w3.org/2000/svg">
<path d="M14 24.5C19.799 24.5 24.5 19.799 24.5 14C24.5 8.20101 19.799 3.5 14 3.5C8.20101 3.5 3.5 8.20101 3.5 14C3.5 19.799 8.20101 24.5 14 24.5Z" stroke="#8247E5" stroke-width="2" stroke-linecap="round" stroke-linejoin="round"/>
<path d="M10.5 11.375C11.0509 10.6404 11.819 10.0978 12.6955 9.824C13.572 9.55022 14.5124 9.55914 15.3835 9.84951C16.2546 10.1399 17.0123 10.697 17.5492 11.4419C18.0861 12.1868 18.375 13.0818 18.375 14C18.375 14.9182 18.0861 15.8132 17.5492 16.5581C17.0123 17.303 16.2546 17.8601 15.3835 18.1505C14.5124 18.4409 13.572 18.4498 12.6955 18.176C11.819 17.9022 11.0509 17.3596 10.5 16.625" stroke="#8247E5" stroke-width="2" stroke-linecap="round" stroke-linejoin="round"/>
</svg>
