<svg width="28" height="28" viewBox="0 0 28 28" fill="none" xmlns="http://www.w3.org/2000/svg">
<path d="M14.1641 21.0328C14.33 21.4831 14.6162 21.8792 14.9915 22.1782C15.3669 22.4772 15.817 22.6676 16.2929 22.7286C16.7689 22.7897 17.2524 22.7192 17.6911 22.5247C18.1298 22.3302 18.5067 22.0192 18.781 21.6254C19.0553 21.2317 19.2164 20.7703 19.2468 20.2914C19.2772 19.8125 19.1758 19.3344 18.9535 18.9092C18.7313 18.4839 18.3967 18.1277 17.9862 17.8792C17.5756 17.6308 17.1049 17.4996 16.625 17.5H4.375" stroke="#8247E5" stroke-width="2" stroke-linecap="round" stroke-linejoin="round"/>
<path d="M10.6641 6.96719C10.83 6.51694 11.1162 6.1208 11.4915 5.82182C11.8669 5.52283 12.317 5.33245 12.7929 5.27136C13.2689 5.21027 13.7524 5.28081 14.1911 5.47532C14.6298 5.66982 15.0067 5.98085 15.281 6.37459C15.5553 6.76833 15.7164 7.22972 15.7468 7.70861C15.7772 8.1875 15.6758 8.66557 15.4535 9.09084C15.2313 9.51612 14.8967 9.87234 14.4862 10.1208C14.0756 10.3692 13.6049 10.5004 13.125 10.5H2.625" stroke="#8247E5" stroke-width="2" stroke-linecap="round" stroke-linejoin="round"/>
<path d="M20.2891 10.4672C20.455 10.0169 20.7412 9.6208 21.1165 9.32182C21.4919 9.02283 21.942 8.83245 22.4179 8.77136C22.8939 8.71027 23.3774 8.78081 23.8161 8.97532C24.2548 9.16982 24.6317 9.48085 24.906 9.87459C25.1803 10.2683 25.3414 10.7297 25.3718 11.2086C25.4022 11.6875 25.3008 12.1656 25.0785 12.5908C24.8563 13.0161 24.5217 13.3723 24.1112 13.6208C23.7006 13.8692 23.2299 14.0004 22.75 14H3.5" stroke="#8247E5" stroke-width="2" stroke-linecap="round" stroke-linejoin="round"/>
</svg>
