<svg width="28" height="28" viewBox="0 0 28 28" fill="none" xmlns="http://www.w3.org/2000/svg">
<path d="M14 24.5C19.799 24.5 24.5 19.799 24.5 14C24.5 8.20101 19.799 3.5 14 3.5C8.20101 3.5 3.5 8.20101 3.5 14C3.5 19.799 8.20101 24.5 14 24.5Z" stroke="#8247E5" stroke-width="2" stroke-miterlimit="10"/>
<path d="M16.4058 11.1564C16.4026 11.7101 16.2076 12.2455 15.8542 12.6716C15.5007 13.0978 15.0105 13.3883 14.467 13.4938C13.9235 13.5993 13.3602 13.5133 12.873 13.2503C12.3857 12.9874 12.0046 12.5638 11.7945 12.0515C11.5843 11.5393 11.5581 10.9701 11.7203 10.4407C11.8825 9.91136 12.223 9.45452 12.6841 9.14791C13.1451 8.8413 13.6981 8.70386 14.249 8.75897C14.7999 8.81408 15.3147 9.05833 15.7058 9.45018C16.1535 9.90539 16.4048 10.518 16.4058 11.1564Z" stroke="#8247E5" stroke-width="2" stroke-linecap="round" stroke-linejoin="round"/>
<path d="M16.8433 16.4061C16.8415 17.0611 16.6128 17.6951 16.1962 18.2005C15.7795 18.7058 15.2006 19.0511 14.558 19.1777C13.9154 19.3042 13.2487 19.2042 12.6716 18.8946C12.0944 18.5851 11.6423 18.0851 11.3923 17.4797C11.1423 16.8744 11.1097 16.2011 11.3002 15.5744C11.4906 14.9478 11.8924 14.4065 12.437 14.0427C12.9816 13.6789 13.6355 13.515 14.2873 13.579C14.9391 13.643 15.5486 13.9308 16.0121 14.3936C16.2765 14.6576 16.4861 14.9714 16.6288 15.3168C16.7715 15.6622 16.8444 16.0324 16.8433 16.4061Z" stroke="#8247E5" stroke-width="2" stroke-linecap="round" stroke-linejoin="round"/>
</svg>
