<svg width="28" height="28" viewBox="0 0 28 28" fill="none" xmlns="http://www.w3.org/2000/svg">
<path d="M10.9375 14C11.6624 14 12.25 13.4124 12.25 12.6875C12.25 11.9626 11.6624 11.375 10.9375 11.375C10.2126 11.375 9.625 11.9626 9.625 12.6875C9.625 13.4124 10.2126 14 10.9375 14Z" fill="#8247E5"/>
<path d="M17.0625 14C17.7874 14 18.375 13.4124 18.375 12.6875C18.375 11.9626 17.7874 11.375 17.0625 11.375C16.3376 11.375 15.75 11.9626 15.75 12.6875C15.75 13.4124 16.3376 14 17.0625 14Z" fill="#8247E5"/>
<path d="M23.625 23.625L20.4203 21L17.2047 23.625L14 21L10.7953 23.625L7.57969 21L4.375 23.625V13.125C4.375 10.5723 5.38906 8.12413 7.1941 6.3191C8.99913 4.51406 11.4473 3.5 14 3.5C16.5527 3.5 19.0009 4.51406 20.8059 6.3191C22.6109 8.12413 23.625 10.5723 23.625 13.125V23.625Z" stroke="#8247E5" stroke-width="2" stroke-linecap="round" stroke-linejoin="round"/>
</svg>
