<svg width="28" height="28" viewBox="0 0 28 28" fill="none" xmlns="http://www.w3.org/2000/svg">
<path d="M7.34961 13.2564L20.5402 5.18452C20.6735 5.10229 20.8264 5.05734 20.983 5.05436C21.1396 5.05138 21.2941 5.09048 21.4304 5.16757C21.5667 5.24467 21.6799 5.35694 21.758 5.49267C21.8361 5.6284 21.8764 5.78261 21.8746 5.93921V22.0611C21.8764 22.2177 21.8361 22.3719 21.758 22.5076C21.6799 22.6433 21.5667 22.7556 21.4304 22.8327C21.2941 22.9098 21.1396 22.9489 20.983 22.9459C20.8264 22.943 20.6735 22.898 20.5402 22.8158L7.34961 14.7439C7.22299 14.6654 7.1185 14.5559 7.04604 14.4258C6.97358 14.2956 6.93555 14.1491 6.93555 14.0001C6.93555 13.8512 6.97358 13.7047 7.04604 13.5745C7.1185 13.4444 7.22299 13.3349 7.34961 13.2564Z" stroke="#8247E5" stroke-width="2" stroke-linecap="round" stroke-linejoin="round"/>
<path d="M6.125 4.375V23.625" stroke="#8247E5" stroke-width="2" stroke-linecap="round" stroke-linejoin="round"/>
</svg>
