<svg width="28" height="28" viewBox="0 0 28 28" fill="none" xmlns="http://www.w3.org/2000/svg">
<path d="M6.5625 7.875C7.28737 7.875 7.875 7.28737 7.875 6.5625C7.875 5.83763 7.28737 5.25 6.5625 5.25C5.83763 5.25 5.25 5.83763 5.25 6.5625C5.25 7.28737 5.83763 7.875 6.5625 7.875Z" fill="#8247E5"/>
<path d="M14 7.875C14.7249 7.875 15.3125 7.28737 15.3125 6.5625C15.3125 5.83763 14.7249 5.25 14 5.25C13.2751 5.25 12.6875 5.83763 12.6875 6.5625C12.6875 7.28737 13.2751 7.875 14 7.875Z" fill="#8247E5"/>
<path d="M21.4375 7.875C22.1624 7.875 22.75 7.28737 22.75 6.5625C22.75 5.83763 22.1624 5.25 21.4375 5.25C20.7126 5.25 20.125 5.83763 20.125 6.5625C20.125 7.28737 20.7126 7.875 21.4375 7.875Z" fill="#8247E5"/>
<path d="M6.5625 15.3125C7.28737 15.3125 7.875 14.7249 7.875 14C7.875 13.2751 7.28737 12.6875 6.5625 12.6875C5.83763 12.6875 5.25 13.2751 5.25 14C5.25 14.7249 5.83763 15.3125 6.5625 15.3125Z" fill="#8247E5"/>
<path d="M14 15.3125C14.7249 15.3125 15.3125 14.7249 15.3125 14C15.3125 13.2751 14.7249 12.6875 14 12.6875C13.2751 12.6875 12.6875 13.2751 12.6875 14C12.6875 14.7249 13.2751 15.3125 14 15.3125Z" fill="#8247E5"/>
<path d="M21.4375 15.3125C22.1624 15.3125 22.75 14.7249 22.75 14C22.75 13.2751 22.1624 12.6875 21.4375 12.6875C20.7126 12.6875 20.125 13.2751 20.125 14C20.125 14.7249 20.7126 15.3125 21.4375 15.3125Z" fill="#8247E5"/>
<path d="M6.5625 22.75C7.28737 22.75 7.875 22.1624 7.875 21.4375C7.875 20.7126 7.28737 20.125 6.5625 20.125C5.83763 20.125 5.25 20.7126 5.25 21.4375C5.25 22.1624 5.83763 22.75 6.5625 22.75Z" fill="#8247E5"/>
<path d="M14 22.75C14.7249 22.75 15.3125 22.1624 15.3125 21.4375C15.3125 20.7126 14.7249 20.125 14 20.125C13.2751 20.125 12.6875 20.7126 12.6875 21.4375C12.6875 22.1624 13.2751 22.75 14 22.75Z" fill="#8247E5"/>
<path d="M21.4375 22.75C22.1624 22.75 22.75 22.1624 22.75 21.4375C22.75 20.7126 22.1624 20.125 21.4375 20.125C20.7126 20.125 20.125 20.7126 20.125 21.4375C20.125 22.1624 20.7126 22.75 21.4375 22.75Z" fill="#8247E5"/>
</svg>
