<svg width="28" height="28" viewBox="0 0 28 28" fill="none" xmlns="http://www.w3.org/2000/svg">
<path d="M9.625 16.1875C9.625 14.7165 10.0612 13.2785 10.8784 12.0554C11.6957 10.8324 12.8573 9.87908 14.2163 9.31615C15.5753 8.75322 17.0708 8.60594 18.5135 8.89291C19.9562 9.17989 21.2815 9.88824 22.3216 10.9284C23.3618 11.9685 24.0701 13.2938 24.3571 14.7365C24.6441 16.1793 24.4968 17.6747 23.9339 19.0337C23.3709 20.3927 22.4176 21.5543 21.1946 22.3716C19.9715 23.1888 18.5335 23.625 17.0625 23.625H8.3125C7.03615 23.625 5.81207 23.118 4.90955 22.2155C4.00703 21.3129 3.5 20.0889 3.5 18.8125C3.5 17.5361 4.00703 16.3121 4.90955 15.4096C5.81207 14.507 7.03615 14 8.3125 14C8.84504 13.9973 9.37409 14.0861 9.87656 14.2625" stroke="#8247E5" stroke-width="2" stroke-linecap="round" stroke-linejoin="round"/>
<path d="M5.14043 15.192C4.1233 14.7604 3.22256 14.0946 2.51168 13.2487C1.80079 12.4029 1.29989 11.401 1.0498 10.3248V10.3248C1.56712 10.4388 2.09508 10.4975 2.6248 10.4998C4.48043 10.4969 6.25923 9.75849 7.57136 8.44636C8.88349 7.13423 9.62191 5.35543 9.62481 3.4998C9.62248 2.97008 9.56382 2.44212 9.44981 1.9248C10.9927 2.28109 12.3692 3.15 13.3546 4.38961C14.3399 5.62922 14.8758 7.16629 14.8748 8.7498C14.8748 8.85918 14.8748 8.96855 14.8639 9.07793" stroke="#8247E5" stroke-width="2" stroke-linecap="round" stroke-linejoin="round"/>
</svg>
