<svg width="28" height="28" viewBox="0 0 28 28" fill="none" xmlns="http://www.w3.org/2000/svg">
<path d="M5.25 4.375L22.75 23.625" stroke="#8247E5" stroke-width="2" stroke-linecap="round" stroke-linejoin="round"/>
<path d="M9.99691 9.60315C9.7492 10.1609 9.62246 10.7648 9.62504 11.375" stroke="#8247E5" stroke-width="2" stroke-linecap="round" stroke-linejoin="round"/>
<path d="M9.51562 3.86088C10.8438 3.06817 12.3584 2.6417 13.905 2.62491C15.4517 2.60811 16.9751 3.00161 18.3202 3.76529C19.6653 4.52898 20.7839 5.63557 21.562 6.97232C22.3402 8.30906 22.7501 9.82819 22.75 11.3749" stroke="#8247E5" stroke-width="2" stroke-linecap="round" stroke-linejoin="round"/>
<path d="M17.7078 23.6252C17.0767 24.3879 16.2257 24.9375 15.2709 25.1989C14.316 25.4603 13.3038 25.421 12.3722 25.0861C11.4405 24.7512 10.6349 24.1372 10.0649 23.3277C9.49503 22.5182 9.18862 21.5527 9.1875 20.5627C9.1875 16.0236 5.25 17.5002 5.25 11.3752C5.24814 9.52411 5.83411 7.72025 6.92344 6.22363" stroke="#8247E5" stroke-width="2" stroke-linecap="round" stroke-linejoin="round"/>
<path d="M17.8391 13.0155C18.1975 12.5446 18.3864 11.9665 18.375 11.3748C18.377 10.6776 18.2118 9.99004 17.8934 9.36974C17.575 8.74944 17.1126 8.21446 16.545 7.8096C15.9773 7.40475 15.3209 7.14179 14.6307 7.04277C13.9406 6.94375 13.2367 7.01154 12.5781 7.24046" stroke="#8247E5" stroke-width="2" stroke-linecap="round" stroke-linejoin="round"/>
<path d="M18.2548 18.6814C17.9239 18.8004 17.5693 18.8383 17.2207 18.7918C16.8722 18.7454 16.5398 18.6161 16.2516 18.4146C15.9634 18.2132 15.7277 17.9456 15.5643 17.6342C15.4009 17.3228 15.3146 16.9768 15.3126 16.6252C15.3098 16.2855 15.3691 15.9482 15.4876 15.6299" stroke="#8247E5" stroke-width="2" stroke-linecap="round" stroke-linejoin="round"/>
</svg>
