<svg width="28" height="28" viewBox="0 0 28 28" fill="none" xmlns="http://www.w3.org/2000/svg">
<path d="M18.3749 12.25V10.9375C18.3749 10.3573 18.1444 9.80094 17.7342 9.3907C17.3239 8.98047 16.7675 8.75 16.1874 8.75C15.6072 8.75 15.0508 8.98047 14.6406 9.3907C14.2303 9.80094 13.9999 10.3573 13.9999 10.9375V3.9375C13.9999 3.35734 13.7694 2.80094 13.3592 2.3907C12.9489 1.98047 12.3925 1.75 11.8124 1.75C11.2322 1.75 10.6758 1.98047 10.2656 2.3907C9.85534 2.80094 9.62487 3.35734 9.62487 3.9375V17.2047L7.22956 13.0484C6.93948 12.5451 6.46135 12.1777 5.90035 12.0269C5.33935 11.8762 4.74144 11.9545 4.23815 12.2445C3.73486 12.5346 3.36742 13.0127 3.21666 13.5737C3.0659 14.1347 3.14416 14.7326 3.43424 15.2359C6.99987 22.75 9.16549 25.375 13.9999 25.375C15.1489 25.375 16.2868 25.1487 17.3484 24.7089C18.4099 24.2692 19.3745 23.6247 20.1871 22.8122C20.9996 21.9997 21.6441 21.0351 22.0838 19.9735C22.5235 18.9119 22.7499 17.7741 22.7499 16.625V12.25C22.7499 11.6698 22.5194 11.1134 22.1092 10.7032C21.6989 10.293 21.1425 10.0625 20.5624 10.0625C19.9822 10.0625 19.4258 10.293 19.0156 10.7032C18.6053 11.1134 18.3749 11.6698 18.3749 12.25V12.25Z" stroke="#8247E5" stroke-width="2" stroke-linecap="round" stroke-linejoin="round"/>
</svg>
