<svg width="28" height="28" viewBox="0 0 28 28" fill="none" xmlns="http://www.w3.org/2000/svg">
<path d="M2.625 20.125V17.6203C2.625 11.3312 7.67812 6.14684 13.9562 6.12496C15.4537 6.1192 16.9376 6.40917 18.3227 6.97824C19.7078 7.54731 20.967 8.38428 22.0279 9.44112C23.0888 10.498 23.9306 11.7539 24.505 13.1368C25.0793 14.5197 25.375 16.0025 25.375 17.5V20.125C25.375 20.357 25.2828 20.5796 25.1187 20.7437C24.9546 20.9078 24.7321 21 24.5 21H3.5C3.26794 21 3.04538 20.9078 2.88128 20.7437C2.71719 20.5796 2.625 20.357 2.625 20.125Z" stroke="#8247E5" stroke-width="2" stroke-linecap="round" stroke-linejoin="round"/>
<path d="M14 6.125V9.625" stroke="#8247E5" stroke-width="2" stroke-linecap="round" stroke-linejoin="round"/>
<path d="M3.00781 14.5576L6.39844 15.4654" stroke="#8247E5" stroke-width="2" stroke-linecap="round" stroke-linejoin="round"/>
<path d="M24.9922 14.5576L21.6016 15.4654" stroke="#8247E5" stroke-width="2" stroke-linecap="round" stroke-linejoin="round"/>
<path d="M11.3096 21.0002L18.7908 11.2549" stroke="#8247E5" stroke-width="2" stroke-linecap="round" stroke-linejoin="round"/>
</svg>
