<svg width="28" height="28" viewBox="0 0 28 28" fill="none" xmlns="http://www.w3.org/2000/svg">
<path d="M24.2372 16.3406C24.4186 15.5442 24.5067 14.7293 24.4997 13.9125C24.4559 8.12655 19.6653 3.4453 13.8903 3.49999C11.4232 3.526 9.04398 4.41998 7.17018 6.02507C5.29639 7.63016 4.04767 9.84384 3.64311 12.2777C3.23855 14.7116 3.704 17.2102 4.95778 19.3352C6.21157 21.4601 8.17361 23.0757 10.4997 23.8984C10.8953 24.041 11.3196 24.0859 11.7363 24.0295C12.1531 23.9731 12.5501 23.8169 12.8936 23.5743C13.2372 23.3317 13.5171 23.0098 13.7096 22.6359C13.9022 22.262 14.0017 21.8471 13.9997 21.4265V21C13.9982 20.6549 14.0651 20.3129 14.1965 19.9937C14.3279 19.6746 14.5212 19.3846 14.7653 19.1406C15.0093 18.8966 15.2993 18.7033 15.6184 18.5719C15.9375 18.4404 16.2795 18.3735 16.6247 18.375H21.6778C22.2716 18.3754 22.848 18.1744 23.3129 17.8049C23.7777 17.4354 24.1036 16.9192 24.2372 16.3406V16.3406Z" stroke="#8247E5" stroke-width="2" stroke-linecap="round" stroke-linejoin="round"/>
<path d="M14 9.625C14.7249 9.625 15.3125 9.03737 15.3125 8.3125C15.3125 7.58763 14.7249 7 14 7C13.2751 7 12.6875 7.58763 12.6875 8.3125C12.6875 9.03737 13.2751 9.625 14 9.625Z" fill="#8247E5"/>
<path d="M9.07812 12.4688C9.803 12.4688 10.3906 11.8811 10.3906 11.1562C10.3906 10.4314 9.803 9.84375 9.07812 9.84375C8.35325 9.84375 7.76562 10.4314 7.76562 11.1562C7.76562 11.8811 8.35325 12.4688 9.07812 12.4688Z" fill="#8247E5"/>
<path d="M9.07812 18.1562C9.803 18.1562 10.3906 17.5686 10.3906 16.8438C10.3906 16.1189 9.803 15.5312 9.07812 15.5312C8.35325 15.5312 7.76562 16.1189 7.76562 16.8438C7.76562 17.5686 8.35325 18.1562 9.07812 18.1562Z" fill="#8247E5"/>
<path d="M18.9219 12.4688C19.6467 12.4688 20.2344 11.8811 20.2344 11.1562C20.2344 10.4314 19.6467 9.84375 18.9219 9.84375C18.197 9.84375 17.6094 10.4314 17.6094 11.1562C17.6094 11.8811 18.197 12.4688 18.9219 12.4688Z" fill="#8247E5"/>
</svg>
