<svg width="28" height="28" viewBox="0 0 28 28" fill="none" xmlns="http://www.w3.org/2000/svg">
<path d="M14 15.3125C14.7249 15.3125 15.3125 14.7249 15.3125 14C15.3125 13.2751 14.7249 12.6875 14 12.6875C13.2751 12.6875 12.6875 13.2751 12.6875 14C12.6875 14.7249 13.2751 15.3125 14 15.3125Z" fill="#8247E5"/>
<path d="M21 15.3125C21.7249 15.3125 22.3125 14.7249 22.3125 14C22.3125 13.2751 21.7249 12.6875 21 12.6875C20.2751 12.6875 19.6875 13.2751 19.6875 14C19.6875 14.7249 20.2751 15.3125 21 15.3125Z" fill="#8247E5"/>
<path d="M7 15.3125C7.72487 15.3125 8.3125 14.7249 8.3125 14C8.3125 13.2751 7.72487 12.6875 7 12.6875C6.27513 12.6875 5.6875 13.2751 5.6875 14C5.6875 14.7249 6.27513 15.3125 7 15.3125Z" fill="#8247E5"/>
</svg>
