<svg width="28" height="28" viewBox="0 0 28 28" fill="none" xmlns="http://www.w3.org/2000/svg">
<path d="M8.72852 10.9047H3.47852V5.65466" stroke="#8247E5" stroke-width="2" stroke-linecap="round" stroke-linejoin="round"/>
<path d="M20.8035 7.19683C19.9106 6.3026 18.8501 5.59317 17.6828 5.10915C16.5154 4.62512 15.2641 4.37598 14.0004 4.37598C12.7367 4.37598 11.4854 4.62512 10.318 5.10915C9.15066 5.59317 8.0902 6.3026 7.19727 7.19683L3.47852 10.9046" stroke="#8247E5" stroke-width="2" stroke-linecap="round" stroke-linejoin="round"/>
<path d="M19.2715 17.0953H24.5215V22.3453" stroke="#8247E5" stroke-width="2" stroke-linecap="round" stroke-linejoin="round"/>
<path d="M7.19727 20.8031C8.0902 21.6974 9.15066 22.4068 10.318 22.8908C11.4854 23.3749 12.7367 23.624 14.0004 23.624C15.2641 23.624 16.5154 23.3749 17.6828 22.8908C18.8501 22.4068 19.9106 21.6974 20.8035 20.8031L24.5223 17.0953" stroke="#8247E5" stroke-width="2" stroke-linecap="round" stroke-linejoin="round"/>
</svg>
