<svg width="28" height="28" viewBox="0 0 28 28" fill="none" xmlns="http://www.w3.org/2000/svg">
<path d="M1.75 13.125H26.25" stroke="#8247E5" stroke-width="2" stroke-linecap="round" stroke-linejoin="round"/>
<path d="M23.625 23.625H21C20.7679 23.625 20.5454 23.5328 20.3813 23.3687C20.2172 23.2046 20.125 22.9821 20.125 22.75V20.125H7.875V22.75C7.875 22.9821 7.78281 23.2046 7.61872 23.3687C7.45462 23.5328 7.23206 23.625 7 23.625H4.375C4.14294 23.625 3.92038 23.5328 3.75628 23.3687C3.59219 23.2046 3.5 22.9821 3.5 22.75V13.125L6.77031 5.775C6.83817 5.61951 6.94978 5.48709 7.09154 5.39388C7.23329 5.30067 7.39909 5.25068 7.56875 5.25H20.4313C20.6009 5.25068 20.7667 5.30067 20.9085 5.39388C21.0502 5.48709 21.1618 5.61951 21.2297 5.775L24.5 13.125V22.75C24.5 22.9821 24.4078 23.2046 24.2437 23.3687C24.0796 23.5328 23.8571 23.625 23.625 23.625Z" stroke="#8247E5" stroke-width="2" stroke-linecap="round" stroke-linejoin="round"/>
</svg>
