<svg width="32" height="32" viewBox="0 0 32 32" fill="none" xmlns="http://www.w3.org/2000/svg">
<path d="M8.00017 26.9999C7.73496 26.9999 7.4806 26.8946 7.29307 26.707C7.10553 26.5195 7.00017 26.2651 7.00017 25.9999V20.6624C6.45156 20.9241 5.84355 21.0362 5.23767 20.9874C4.72467 20.9497 4.22627 20.7994 3.77796 20.5472C3.32965 20.295 2.94245 19.947 2.64391 19.5281C2.34537 19.1093 2.14284 18.6297 2.05072 18.1236C1.9586 17.6175 1.97917 17.0974 2.11095 16.6002C2.24273 16.1029 2.48249 15.6409 2.81317 15.2469C3.14385 14.8528 3.55731 14.5366 4.02413 14.3205C4.49095 14.1045 4.99966 13.994 5.51404 13.9969C6.02842 13.9998 6.53584 14.1161 7.00017 14.3374V8.99993C7.00017 8.73471 7.10553 8.48036 7.29307 8.29282C7.4806 8.10529 7.73496 7.99993 8.00017 7.99993H13.8377C13.576 7.45132 13.4639 6.8433 13.5127 6.23743C13.5504 5.72442 13.7007 5.22603 13.9529 4.77772C14.2051 4.32941 14.5531 3.94221 14.972 3.64367C15.3909 3.34513 15.8704 3.14259 16.3765 3.05048C16.8826 2.95836 17.4027 2.97892 17.8999 3.11071C18.3972 3.24249 18.8592 3.48225 19.2532 3.81293C19.6473 4.1436 19.9635 4.55707 20.1796 5.02389C20.3956 5.49071 20.5061 5.99941 20.5032 6.5138C20.5003 7.02818 20.384 7.53559 20.1627 7.99993H26.0002C26.2654 7.99993 26.5197 8.10529 26.7073 8.29282C26.8948 8.48036 27.0002 8.73471 27.0002 8.99993V14.3374C26.4516 14.0757 25.8435 13.9636 25.2377 14.0124C24.7247 14.0501 24.2263 14.2004 23.778 14.4527C23.3297 14.7049 22.9425 15.0528 22.6439 15.4717C22.3454 15.8906 22.1428 16.3702 22.0507 16.8762C21.9586 17.3823 21.9792 17.9025 22.111 18.3997C22.2427 18.8969 22.4825 19.359 22.8132 19.753C23.1438 20.147 23.5573 20.4633 24.0241 20.6793C24.491 20.8954 24.9997 21.0059 25.514 21.003C26.0284 21 26.5358 20.8838 27.0002 20.6624V25.9999C27.0002 26.2651 26.8948 26.5195 26.7073 26.707C26.5197 26.8946 26.2654 26.9999 26.0002 26.9999H8.00017Z" stroke="#8247E5" stroke-linecap="round" stroke-linejoin="round"/>
</svg>
