<svg width="28" height="28" viewBox="0 0 28 28" fill="none" xmlns="http://www.w3.org/2000/svg">
<path d="M23.625 7.875H4.375C3.89175 7.875 3.5 8.26675 3.5 8.75V21.875C3.5 22.3582 3.89175 22.75 4.375 22.75H23.625C24.1082 22.75 24.5 22.3582 24.5 21.875V8.75C24.5 8.26675 24.1082 7.875 23.625 7.875Z" stroke="#8247E5" stroke-width="2" stroke-linecap="round" stroke-linejoin="round"/>
<path d="M8.75 2.625L14 7.875L19.25 2.625" stroke="#8247E5" stroke-width="2" stroke-linecap="round" stroke-linejoin="round"/>
<path d="M20.5625 14C21.2874 14 21.875 13.4124 21.875 12.6875C21.875 11.9626 21.2874 11.375 20.5625 11.375C19.8376 11.375 19.25 11.9626 19.25 12.6875C19.25 13.4124 19.8376 14 20.5625 14Z" fill="#8247E5"/>
<path d="M20.5625 19.25C21.2874 19.25 21.875 18.6624 21.875 17.9375C21.875 17.2126 21.2874 16.625 20.5625 16.625C19.8376 16.625 19.25 17.2126 19.25 17.9375C19.25 18.6624 19.8376 19.25 20.5625 19.25Z" fill="#8247E5"/>
<path d="M16.625 22.75V7.875" stroke="#8247E5" stroke-width="2" stroke-linecap="round" stroke-linejoin="round"/>
</svg>
