<svg width="28" height="28" viewBox="0 0 28 28" fill="none" xmlns="http://www.w3.org/2000/svg">
<path d="M21 13.125H23.9641C24.1255 13.1254 24.2839 13.0805 24.4211 12.9954C24.5584 12.9103 24.6691 12.7885 24.7406 12.6438L26.7531 8.61875C26.8528 8.41717 26.8721 8.18522 26.8072 7.96992C26.7422 7.75463 26.5977 7.57211 26.4031 7.45937L21 4.375" stroke="#8247E5" stroke-width="2" stroke-linecap="round" stroke-linejoin="round"/>
<path d="M7.00023 13.125H4.03617C3.87469 13.1254 3.71634 13.0805 3.57908 12.9954C3.44182 12.9103 3.33115 12.7885 3.25961 12.6438L1.24711 8.61875C1.1474 8.41717 1.12808 8.18522 1.19308 7.96992C1.25807 7.75463 1.40251 7.57211 1.59711 7.45937L7.00023 4.375" stroke="#8247E5" stroke-width="2" stroke-linecap="round" stroke-linejoin="round"/>
<path d="M17.5 4.375C17.5 5.30326 17.1313 6.1935 16.4749 6.84987C15.8185 7.50625 14.9283 7.875 14 7.875C13.0717 7.875 12.1815 7.50625 11.5251 6.84987C10.8687 6.1935 10.5 5.30326 10.5 4.375H7V22.75C7 22.9821 7.09219 23.2046 7.25628 23.3687C7.42038 23.5328 7.64294 23.625 7.875 23.625H20.125C20.3571 23.625 20.5796 23.5328 20.7437 23.3687C20.9078 23.2046 21 22.9821 21 22.75V4.375H17.5Z" stroke="#8247E5" stroke-width="2" stroke-linecap="round" stroke-linejoin="round"/>
</svg>
