<svg width="28" height="28" viewBox="0 0 28 28" fill="none" xmlns="http://www.w3.org/2000/svg">
<path d="M6.5625 11.375C7.28737 11.375 7.875 10.7874 7.875 10.0625C7.875 9.33763 7.28737 8.75 6.5625 8.75C5.83763 8.75 5.25 9.33763 5.25 10.0625C5.25 10.7874 5.83763 11.375 6.5625 11.375Z" fill="#8247E5"/>
<path d="M14 11.375C14.7249 11.375 15.3125 10.7874 15.3125 10.0625C15.3125 9.33763 14.7249 8.75 14 8.75C13.2751 8.75 12.6875 9.33763 12.6875 10.0625C12.6875 10.7874 13.2751 11.375 14 11.375Z" fill="#8247E5"/>
<path d="M21.4375 11.375C22.1624 11.375 22.75 10.7874 22.75 10.0625C22.75 9.33763 22.1624 8.75 21.4375 8.75C20.7126 8.75 20.125 9.33763 20.125 10.0625C20.125 10.7874 20.7126 11.375 21.4375 11.375Z" fill="#8247E5"/>
<path d="M6.5625 19.25C7.28737 19.25 7.875 18.6624 7.875 17.9375C7.875 17.2126 7.28737 16.625 6.5625 16.625C5.83763 16.625 5.25 17.2126 5.25 17.9375C5.25 18.6624 5.83763 19.25 6.5625 19.25Z" fill="#8247E5"/>
<path d="M14 19.25C14.7249 19.25 15.3125 18.6624 15.3125 17.9375C15.3125 17.2126 14.7249 16.625 14 16.625C13.2751 16.625 12.6875 17.2126 12.6875 17.9375C12.6875 18.6624 13.2751 19.25 14 19.25Z" fill="#8247E5"/>
<path d="M21.4375 19.25C22.1624 19.25 22.75 18.6624 22.75 17.9375C22.75 17.2126 22.1624 16.625 21.4375 16.625C20.7126 16.625 20.125 17.2126 20.125 17.9375C20.125 18.6624 20.7126 19.25 21.4375 19.25Z" fill="#8247E5"/>
</svg>
