<svg width="28" height="28" viewBox="0 0 28 28" fill="none" xmlns="http://www.w3.org/2000/svg">
<path d="M13.4202 2.83271L4.59365 4.59365L2.83271 13.4202C2.80512 13.5611 2.81263 13.7067 2.8546 13.844C2.89656 13.9814 2.97169 14.1063 3.07334 14.2077L14.4921 25.6265C14.5726 25.7088 14.6687 25.7742 14.7748 25.8189C14.8809 25.8636 14.9949 25.8866 15.1101 25.8866C15.2252 25.8866 15.3392 25.8636 15.4453 25.8189C15.5514 25.7742 15.6475 25.7088 15.728 25.6265L25.6265 15.728C25.7088 15.6475 25.7742 15.5514 25.8189 15.4453C25.8636 15.3392 25.8866 15.2252 25.8866 15.1101C25.8866 14.9949 25.8636 14.8809 25.8189 14.7748C25.7742 14.6687 25.7088 14.5726 25.6265 14.4921L14.2077 3.07334C14.1063 2.97169 13.9814 2.89656 13.844 2.8546C13.7067 2.81263 13.5611 2.80512 13.4202 2.83271V2.83271Z" stroke="#8247E5" stroke-width="2" stroke-linecap="round" stroke-linejoin="round"/>
<path d="M9.1875 10.5C9.91237 10.5 10.5 9.91237 10.5 9.1875C10.5 8.46263 9.91237 7.875 9.1875 7.875C8.46263 7.875 7.875 8.46263 7.875 9.1875C7.875 9.91237 8.46263 10.5 9.1875 10.5Z" fill="#8247E5"/>
</svg>
