<svg width="32" height="32" viewBox="0 0 32 32" fill="none" xmlns="http://www.w3.org/2000/svg">
<path d="M15.2623 4.80004L5.54978 15.325C5.41885 15.4682 5.33237 15.6463 5.30087 15.8377C5.26937 16.0291 5.29422 16.2255 5.37238 16.403C5.45055 16.5805 5.57866 16.7315 5.7411 16.8375C5.90354 16.9435 6.09331 17 6.28728 17H25.7123C25.9063 17 26.096 16.9435 26.2585 16.8375C26.4209 16.7315 26.549 16.5805 26.6272 16.403C26.7053 16.2255 26.7302 16.0291 26.6987 15.8377C26.6672 15.6463 26.5807 15.4682 26.4498 15.325L16.7373 4.80004C16.6446 4.696 16.531 4.61274 16.4039 4.55573C16.2768 4.49871 16.1391 4.46924 15.9998 4.46924C15.8605 4.46924 15.7227 4.49871 15.5956 4.55573C15.4685 4.61274 15.3549 4.696 15.2623 4.80004V4.80004Z" stroke="#8247E5" stroke-linecap="round" stroke-linejoin="round"/>
<path d="M5 22V25C5 25.5523 5.44772 26 6 26H26C26.5523 26 27 25.5523 27 25V22C27 21.4477 26.5523 21 26 21H6C5.44772 21 5 21.4477 5 22Z" stroke="#8247E5" stroke-linecap="round" stroke-linejoin="round"/>
</svg>
