<svg width="28" height="28" viewBox="0 0 28 28" fill="none" xmlns="http://www.w3.org/2000/svg">
<path d="M5.25 15.2686V22.7498C5.25 22.9819 5.34219 23.2044 5.50628 23.3685C5.67038 23.5326 5.89294 23.6248 6.125 23.6248H21.875C22.1071 23.6248 22.3296 23.5326 22.4937 23.3685C22.6578 23.2044 22.75 22.9819 22.75 22.7498V15.2686" stroke="#8247E5" stroke-width="2" stroke-linecap="round" stroke-linejoin="round"/>
<path d="M5.90625 4.375H22.0938C22.2836 4.37656 22.4679 4.43905 22.6195 4.55326C22.7711 4.66747 22.882 4.82736 22.9359 5.00937L24.5 10.5H3.5L5.06406 5.00937C5.11796 4.82736 5.22889 4.66747 5.38051 4.55326C5.53213 4.43905 5.71643 4.37656 5.90625 4.375V4.375Z" stroke="#8247E5" stroke-width="2" stroke-linecap="round" stroke-linejoin="round"/>
<path d="M10.5 10.5V12.25C10.5 13.1783 10.1313 14.0685 9.47487 14.7249C8.8185 15.3813 7.92826 15.75 7 15.75C6.07174 15.75 5.1815 15.3813 4.52513 14.7249C3.86875 14.0685 3.5 13.1783 3.5 12.25V10.5" stroke="#8247E5" stroke-width="2" stroke-linecap="round" stroke-linejoin="round"/>
<path d="M17.5 10.5V12.25C17.5 13.1783 17.1313 14.0685 16.4749 14.7249C15.8185 15.3813 14.9283 15.75 14 15.75C13.0717 15.75 12.1815 15.3813 11.5251 14.7249C10.8687 14.0685 10.5 13.1783 10.5 12.25V10.5" stroke="#8247E5" stroke-width="2" stroke-linecap="round" stroke-linejoin="round"/>
<path d="M24.5 10.5V12.25C24.5 13.1783 24.1313 14.0685 23.4749 14.7249C22.8185 15.3813 21.9283 15.75 21 15.75C20.0717 15.75 19.1815 15.3813 18.5251 14.7249C17.8687 14.0685 17.5 13.1783 17.5 12.25V10.5" stroke="#8247E5" stroke-width="2" stroke-linecap="round" stroke-linejoin="round"/>
</svg>
