<svg width="28" height="28" viewBox="0 0 28 28" fill="none" xmlns="http://www.w3.org/2000/svg">
<path d="M10.5 6.125V21.875" stroke="#8247E5" stroke-width="2" stroke-linecap="round" stroke-linejoin="round"/>
<path d="M2.62501 18.2875C2.6239 18.086 2.69325 17.8904 2.82108 17.7346C2.9489 17.5788 3.12716 17.4726 3.32501 17.4344C4.11199 17.2673 4.8177 16.835 5.32407 16.2098C5.83044 15.5846 6.10674 14.8045 6.10674 14C6.10674 13.1955 5.83044 12.4154 5.32407 11.7902C4.8177 11.165 4.11199 10.7327 3.32501 10.5656C3.12716 10.5274 2.9489 10.4212 2.82108 10.2654C2.69325 10.1096 2.6239 9.91401 2.62501 9.7125V7C2.62501 6.76794 2.7172 6.54538 2.88129 6.38128C3.04539 6.21719 3.26795 6.125 3.50001 6.125H24.5C24.7321 6.125 24.9546 6.21719 25.1187 6.38128C25.2828 6.54538 25.375 6.76794 25.375 7V9.7125C25.3761 9.91401 25.3068 10.1096 25.1789 10.2654C25.0511 10.4212 24.8729 10.5274 24.675 10.5656C23.888 10.7327 23.1823 11.165 22.676 11.7902C22.1696 12.4154 21.8933 13.1955 21.8933 14C21.8933 14.8045 22.1696 15.5846 22.676 16.2098C23.1823 16.835 23.888 17.2673 24.675 17.4344C24.8729 17.4726 25.0511 17.5788 25.1789 17.7346C25.3068 17.8904 25.3761 18.086 25.375 18.2875V21C25.375 21.2321 25.2828 21.4546 25.1187 21.6187C24.9546 21.7828 24.7321 21.875 24.5 21.875H3.50001C3.26795 21.875 3.04539 21.7828 2.88129 21.6187C2.7172 21.4546 2.62501 21.2321 2.62501 21V18.2875Z" stroke="#8247E5" stroke-width="2" stroke-linecap="round" stroke-linejoin="round"/>
</svg>
