<svg width="28" height="28" viewBox="0 0 28 28" fill="none" xmlns="http://www.w3.org/2000/svg">
<path d="M11.6595 16.6357L10.708 17.7076C9.97492 18.4394 9.04139 18.9375 8.02536 19.1389C7.00933 19.3403 5.9564 19.236 4.99962 18.8392C4.04284 18.4424 3.22515 17.7709 2.64988 16.9095C2.07461 16.0482 1.76758 15.0356 1.76758 13.9998C1.76758 12.964 2.07461 11.9515 2.64988 11.0901C3.22515 10.2287 4.04284 9.55722 4.99962 9.16042C5.9564 8.76362 7.00933 8.65933 8.02536 8.86074C9.04139 9.06215 9.97492 9.56021 10.708 10.292L17.2924 17.7076C18.0254 18.4394 18.9589 18.9375 19.975 19.1389C20.991 19.3403 22.0439 19.236 23.0007 18.8392C23.9575 18.4424 24.7752 17.7709 25.3504 16.9095C25.9257 16.0482 26.2328 15.0356 26.2328 13.9998C26.2328 12.964 25.9257 11.9515 25.3504 11.0901C24.7752 10.2287 23.9575 9.55722 23.0007 9.16042C22.0439 8.76362 20.991 8.65933 19.975 8.86074C18.9589 9.06215 18.0254 9.56021 17.2924 10.292L16.3408 11.3639" stroke="#8247E5" stroke-width="2" stroke-linecap="round" stroke-linejoin="round"/>
</svg>
