<svg width="32" height="32" viewBox="0 0 32 32" fill="none" xmlns="http://www.w3.org/2000/svg">
<path d="M4.73746 25.9875L11.4625 7.47497C11.52 7.31656 11.6167 7.17526 11.7435 7.06422C11.8703 6.95318 12.0231 6.87599 12.1877 6.83982C12.3524 6.80365 12.5235 6.80968 12.6851 6.85735C12.8468 6.90502 12.9938 6.99277 13.1125 7.11247L24.8875 18.8875C25.0072 19.0061 25.0949 19.1531 25.1426 19.3148C25.1902 19.4765 25.1963 19.6476 25.1601 19.8122C25.1239 19.9768 25.0467 20.1296 24.9357 20.2564C24.8247 20.3832 24.6834 20.4799 24.525 20.5375L6.01246 27.2625C5.83435 27.3305 5.64035 27.3456 5.45387 27.3058C5.2674 27.2661 5.09642 27.1732 4.9616 27.0383C4.82677 26.9035 4.73386 26.7325 4.69409 26.5461C4.65431 26.3596 4.66938 26.1656 4.73746 25.9875V25.9875Z" stroke="#8247E5" stroke-linecap="round" stroke-linejoin="round"/>
<path d="M21 9C21 9 21 6 24 6C27 6 27 3 27 3" stroke="#8247E5" stroke-linecap="round" stroke-linejoin="round"/>
<path d="M12.8002 24.7999L7.2002 19.2" stroke="#8247E5" stroke-linecap="round" stroke-linejoin="round"/>
<path d="M18 2V5" stroke="#8247E5" stroke-linecap="round" stroke-linejoin="round"/>
<path d="M27 14L29 16" stroke="#8247E5" stroke-linecap="round" stroke-linejoin="round"/>
<path d="M27 10L30 9" stroke="#8247E5" stroke-linecap="round" stroke-linejoin="round"/>
<path d="M9.6001 12.6L19.4001 22.4" stroke="#8247E5" stroke-linecap="round" stroke-linejoin="round"/>
</svg>
