<svg width="32" height="32" viewBox="0 0 32 32" fill="none" xmlns="http://www.w3.org/2000/svg">
<path d="M28.1875 17.0001H24.1875C23.6571 17.0001 23.1484 17.2108 22.7733 17.5858C22.3982 17.9609 22.1875 18.4696 22.1875 19.0001V24C22.1875 24.5305 22.3982 25.0392 22.7733 25.4143C23.1484 25.7893 23.6571 26 24.1875 26H26.1875C26.7179 26 27.2266 25.7893 27.6017 25.4143C27.9768 25.0392 28.1875 24.5305 28.1875 24V17.0001ZM28.1875 17.0001C28.1876 15.4157 27.8739 13.8471 27.2646 12.3846C26.6553 10.9222 25.7624 9.59484 24.6375 8.47922C23.5126 7.3636 22.1779 6.48178 20.7104 5.88463C19.2429 5.28749 17.6718 4.98685 16.0875 5.00005C14.5043 4.98851 12.9344 5.29037 11.4684 5.88826C10.0024 6.48615 8.66919 7.36823 7.5456 8.48368C6.42201 9.59914 5.53026 10.9259 4.92174 12.3875C4.31322 13.8492 3.99996 15.4168 4 17.0001V24C4 24.5305 4.21071 25.0392 4.58579 25.4143C4.96086 25.7893 5.46957 26 6 26H8C8.53043 26 9.03914 25.7893 9.41421 25.4143C9.78929 25.0392 10 24.5305 10 24V19.0001C10 18.4696 9.78929 17.9609 9.41421 17.5858C9.03914 17.2108 8.53043 17.0001 8 17.0001H4" stroke="#8247E5" stroke-linecap="round" stroke-linejoin="round"/>
</svg>
