<svg width="28" height="28" viewBox="0 0 28 28" fill="none" xmlns="http://www.w3.org/2000/svg">
<path d="M3.66406 2.625L24.3359 25.375" stroke="#8247E5" stroke-width="2" stroke-linecap="round" stroke-linejoin="round"/>
<path d="M10.2812 4.70312L10.5 4.375H17.5L19.25 7H22.75C23.2141 7 23.6592 7.18437 23.9874 7.51256C24.3156 7.84075 24.5 8.28587 24.5 8.75V20.3438" stroke="#8247E5" stroke-width="2" stroke-linecap="round" stroke-linejoin="round"/>
<path d="M21.9516 22.75H5.25C4.78587 22.75 4.34075 22.5656 4.01256 22.2374C3.68437 21.9092 3.5 21.4641 3.5 21V8.75C3.5 8.28587 3.68437 7.84075 4.01256 7.51256C4.34075 7.18437 4.78587 7 5.25 7H7.63438" stroke="#8247E5" stroke-width="2" stroke-linecap="round" stroke-linejoin="round"/>
<path d="M16.8547 17.15C16.48 17.5363 16.0302 17.8417 15.5329 18.0473C15.0356 18.2529 14.5014 18.3544 13.9634 18.3456C13.4253 18.3367 12.8948 18.2176 12.4046 17.9957C11.9143 17.7738 11.4748 17.4538 11.1131 17.0553C10.7514 16.6569 10.4751 16.1886 10.3015 15.6793C10.1278 15.1699 10.0604 14.6304 10.1034 14.094C10.1464 13.5576 10.2989 13.0357 10.5515 12.5605C10.804 12.0854 11.1513 11.667 11.5719 11.3313" stroke="#8247E5" stroke-width="2" stroke-linecap="round" stroke-linejoin="round"/>
</svg>
