<svg width="28" height="28" viewBox="0 0 28 28" fill="none" xmlns="http://www.w3.org/2000/svg">
<path d="M23.625 5.25H4.375C3.89175 5.25 3.5 5.64175 3.5 6.125V21.875C3.5 22.3582 3.89175 22.75 4.375 22.75H23.625C24.1082 22.75 24.5 22.3582 24.5 21.875V6.125C24.5 5.64175 24.1082 5.25 23.625 5.25Z" stroke="#8247E5" stroke-width="2" stroke-linecap="round" stroke-linejoin="round"/>
<path d="M12.6871 16.1438C12.2612 16.5782 11.7157 16.8759 11.12 16.9991C10.5243 17.1222 9.90536 17.0652 9.34219 16.8352C8.77903 16.6052 8.29711 16.2127 7.95789 15.7078C7.61866 15.2028 7.4375 14.6083 7.4375 14C7.4375 13.3917 7.61866 12.7972 7.95789 12.2922C8.29711 11.7873 8.77903 11.3948 9.34219 11.1648C9.90536 10.9348 10.5243 10.8778 11.12 11.0009C11.7157 11.1241 12.2612 11.4218 12.6871 11.8563" stroke="#8247E5" stroke-width="2" stroke-linecap="round" stroke-linejoin="round"/>
<path d="M20.5621 16.1438C20.1362 16.5782 19.5907 16.8759 18.995 16.9991C18.3993 17.1222 17.7804 17.0652 17.2172 16.8352C16.654 16.6052 16.1721 16.2127 15.8329 15.7078C15.4937 15.2028 15.3125 14.6083 15.3125 14C15.3125 13.3917 15.4937 12.7972 15.8329 12.2922C16.1721 11.7873 16.654 11.3948 17.2172 11.1648C17.7804 10.9348 18.3993 10.8778 18.995 11.0009C19.5907 11.1241 20.1362 11.4218 20.5621 11.8563" stroke="#8247E5" stroke-width="2" stroke-linecap="round" stroke-linejoin="round"/>
</svg>
