<svg width="28" height="28" viewBox="0 0 28 28" fill="none" xmlns="http://www.w3.org/2000/svg">
<path d="M10.0625 7.875C10.7874 7.875 11.375 7.28737 11.375 6.5625C11.375 5.83763 10.7874 5.25 10.0625 5.25C9.33763 5.25 8.75 5.83763 8.75 6.5625C8.75 7.28737 9.33763 7.875 10.0625 7.875Z" fill="#8247E5"/>
<path d="M17.9375 7.875C18.6624 7.875 19.25 7.28737 19.25 6.5625C19.25 5.83763 18.6624 5.25 17.9375 5.25C17.2126 5.25 16.625 5.83763 16.625 6.5625C16.625 7.28737 17.2126 7.875 17.9375 7.875Z" fill="#8247E5"/>
<path d="M10.0625 15.3125C10.7874 15.3125 11.375 14.7249 11.375 14C11.375 13.2751 10.7874 12.6875 10.0625 12.6875C9.33763 12.6875 8.75 13.2751 8.75 14C8.75 14.7249 9.33763 15.3125 10.0625 15.3125Z" fill="#8247E5"/>
<path d="M17.9375 15.3125C18.6624 15.3125 19.25 14.7249 19.25 14C19.25 13.2751 18.6624 12.6875 17.9375 12.6875C17.2126 12.6875 16.625 13.2751 16.625 14C16.625 14.7249 17.2126 15.3125 17.9375 15.3125Z" fill="#8247E5"/>
<path d="M10.0625 22.75C10.7874 22.75 11.375 22.1624 11.375 21.4375C11.375 20.7126 10.7874 20.125 10.0625 20.125C9.33763 20.125 8.75 20.7126 8.75 21.4375C8.75 22.1624 9.33763 22.75 10.0625 22.75Z" fill="#8247E5"/>
<path d="M17.9375 22.75C18.6624 22.75 19.25 22.1624 19.25 21.4375C19.25 20.7126 18.6624 20.125 17.9375 20.125C17.2126 20.125 16.625 20.7126 16.625 21.4375C16.625 22.1624 17.2126 22.75 17.9375 22.75Z" fill="#8247E5"/>
</svg>
