<svg width="28" height="28" viewBox="0 0 28 28" fill="none" xmlns="http://www.w3.org/2000/svg">
<path d="M6.125 5.25C10.5333 5.2529 14.7603 7.00539 17.8775 10.1225C20.9946 13.2397 22.7471 17.4667 22.75 21.875" stroke="#8247E5" stroke-width="2" stroke-linecap="round" stroke-linejoin="round"/>
<path d="M6.125 13.125C7.27407 13.125 8.41188 13.3513 9.47348 13.7911C10.5351 14.2308 11.4997 14.8753 12.3122 15.6878C13.1247 16.5003 13.7692 17.4649 14.2089 18.5265C14.6487 19.5881 14.875 20.7259 14.875 21.875" stroke="#8247E5" stroke-width="2" stroke-linecap="round" stroke-linejoin="round"/>
<path d="M6.125 23.1875C6.84987 23.1875 7.4375 22.5999 7.4375 21.875C7.4375 21.1501 6.84987 20.5625 6.125 20.5625C5.40013 20.5625 4.8125 21.1501 4.8125 21.875C4.8125 22.5999 5.40013 23.1875 6.125 23.1875Z" fill="#8247E5"/>
</svg>
