<svg width="28" height="28" viewBox="0 0 28 28" fill="none" xmlns="http://www.w3.org/2000/svg">
<path d="M24.0079 13.2344L5.53445 2.88755C5.37884 2.80158 5.20074 2.76505 5.02385 2.78283C4.84697 2.8006 4.67969 2.87183 4.5443 2.98703C4.4089 3.10224 4.31181 3.25595 4.26595 3.42771C4.22008 3.59947 4.22763 3.78112 4.28757 3.94848L7.7657 13.7047C7.84232 13.8942 7.84232 14.1059 7.7657 14.2954L4.28757 24.0516C4.22763 24.219 4.22008 24.4006 4.26595 24.5724C4.31181 24.7441 4.4089 24.8979 4.5443 25.0131C4.67969 25.1283 4.84697 25.1995 5.02385 25.2173C5.20074 25.235 5.37884 25.1985 5.53445 25.1125L24.0079 14.7657C24.1447 14.69 24.2586 14.5791 24.338 14.4444C24.4174 14.3098 24.4593 14.1563 24.4593 14C24.4593 13.8437 24.4174 13.6903 24.338 13.5557C24.2586 13.421 24.1447 13.3101 24.0079 13.2344V13.2344Z" stroke="#8247E5" stroke-width="2" stroke-linecap="round" stroke-linejoin="round"/>
<path d="M7.875 14H14.875" stroke="#8247E5" stroke-width="2" stroke-linecap="round" stroke-linejoin="round"/>
</svg>
