<svg width="28" height="28" viewBox="0 0 28 28" fill="none" xmlns="http://www.w3.org/2000/svg">
<path d="M22.75 15.75H5.25C4.76675 15.75 4.375 16.1418 4.375 16.625V21C4.375 21.4832 4.76675 21.875 5.25 21.875H22.75C23.2332 21.875 23.625 21.4832 23.625 21V16.625C23.625 16.1418 23.2332 15.75 22.75 15.75Z" stroke="#8247E5" stroke-width="2" stroke-linecap="round" stroke-linejoin="round"/>
<path d="M22.75 6.125H5.25C4.76675 6.125 4.375 6.51675 4.375 7V11.375C4.375 11.8582 4.76675 12.25 5.25 12.25H22.75C23.2332 12.25 23.625 11.8582 23.625 11.375V7C23.625 6.51675 23.2332 6.125 22.75 6.125Z" stroke="#8247E5" stroke-width="2" stroke-linecap="round" stroke-linejoin="round"/>
</svg>
