<svg width="32" height="32" viewBox="0 0 32 32" fill="none" xmlns="http://www.w3.org/2000/svg">
<path d="M18.2627 16C18.5441 15.6849 18.8889 15.4328 19.2745 15.2602C19.6601 15.0876 20.0777 14.9984 20.5002 14.9984C20.9226 14.9984 21.3403 15.0876 21.7259 15.2602C22.1115 15.4328 22.4563 15.6849 22.7377 16" stroke="#8247E5" stroke-linecap="round" stroke-linejoin="round"/>
<path d="M9.2627 16C9.5441 15.6849 9.88889 15.4328 10.2745 15.2602C10.6601 15.0876 11.0777 14.9984 11.5002 14.9984C11.9226 14.9984 12.3403 15.0876 12.7259 15.2602C13.1115 15.4328 13.4563 15.6849 13.7377 16" stroke="#8247E5" stroke-linecap="round" stroke-linejoin="round"/>
<path d="M19.3125 22C18.3308 22.652 17.1785 22.9998 16 22.9998C14.8215 22.9998 13.6692 22.652 12.6875 22" stroke="#8247E5" stroke-linecap="round" stroke-linejoin="round"/>
<path d="M27.0001 6.03745C27.002 5.87435 26.9634 5.71333 26.8879 5.56875C26.8124 5.42418 26.7022 5.30056 26.5673 5.20894C26.4324 5.11733 26.2768 5.06057 26.1146 5.04373C25.9523 5.02689 25.7885 5.0505 25.6376 5.11245C23.7501 5.83745 20.1126 6.99995 16.0001 6.99995C11.8876 6.99995 8.25007 5.83745 6.36257 5.11245C6.21168 5.0505 6.0478 5.02689 5.88556 5.04373C5.72332 5.06057 5.56778 5.11733 5.43283 5.20894C5.29789 5.30056 5.18773 5.42418 5.11221 5.56875C5.0367 5.71333 4.99817 5.87435 5.00007 6.03745V13C5.00007 21.8375 9.92507 29 16.0001 29C22.0751 29 27.0001 21.8375 27.0001 13V6.03745Z" stroke="#8247E5" stroke-linecap="round" stroke-linejoin="round"/>
</svg>
