<svg width="28" height="28" viewBox="0 0 28 28" fill="none" xmlns="http://www.w3.org/2000/svg">
<path d="M14.875 23.625H9.625C8.23261 23.625 6.89726 23.0719 5.91269 22.0873C4.92812 21.1027 4.375 19.7674 4.375 18.375V9.625C4.375 8.23261 4.92812 6.89726 5.91269 5.91269C6.89726 4.92812 8.23261 4.375 9.625 4.375H18.375C19.7674 4.375 21.1027 4.92812 22.0873 5.91269C23.0719 6.89726 23.625 8.23261 23.625 9.625V14.875C22.75 17.5 17.5 22.75 14.875 23.625Z" stroke="#8247E5" stroke-width="2" stroke-linecap="round" stroke-linejoin="round"/>
<path d="M14.875 23.625V20.125C14.875 18.7326 15.4281 17.3973 16.4127 16.4127C17.3973 15.4281 18.7326 14.875 20.125 14.875H23.625" stroke="#8247E5" stroke-width="2" stroke-linecap="round" stroke-linejoin="round"/>
</svg>
