<svg width="28" height="28" viewBox="0 0 28 28" fill="none" xmlns="http://www.w3.org/2000/svg">
<path d="M8.46563 22.0828L4.93281 25.0359C4.80534 25.1414 4.65056 25.2086 4.48645 25.2297C4.32234 25.2508 4.15561 25.2249 4.00561 25.155C3.85561 25.0852 3.72849 24.9742 3.639 24.8351C3.54951 24.6959 3.50131 24.5342 3.5 24.3688V7C3.5 6.76794 3.59219 6.54538 3.75628 6.38128C3.92038 6.21719 4.14294 6.125 4.375 6.125H23.625C23.8571 6.125 24.0796 6.21719 24.2437 6.38128C24.4078 6.54538 24.5 6.76794 24.5 7V21C24.5 21.2321 24.4078 21.4546 24.2437 21.6187C24.0796 21.7828 23.8571 21.875 23.625 21.875H9.02344C8.81858 21.8751 8.62058 21.9488 8.46563 22.0828V22.0828Z" stroke="#8247E5" stroke-width="2" stroke-linecap="round" stroke-linejoin="round"/>
<path d="M14 15.3125C14.7249 15.3125 15.3125 14.7249 15.3125 14C15.3125 13.2751 14.7249 12.6875 14 12.6875C13.2751 12.6875 12.6875 13.2751 12.6875 14C12.6875 14.7249 13.2751 15.3125 14 15.3125Z" fill="#8247E5"/>
<path d="M8.75 15.3125C9.47487 15.3125 10.0625 14.7249 10.0625 14C10.0625 13.2751 9.47487 12.6875 8.75 12.6875C8.02513 12.6875 7.4375 13.2751 7.4375 14C7.4375 14.7249 8.02513 15.3125 8.75 15.3125Z" fill="#8247E5"/>
<path d="M19.25 15.3125C19.9749 15.3125 20.5625 14.7249 20.5625 14C20.5625 13.2751 19.9749 12.6875 19.25 12.6875C18.5251 12.6875 17.9375 13.2751 17.9375 14C17.9375 14.7249 18.5251 15.3125 19.25 15.3125Z" fill="#8247E5"/>
</svg>
