<svg width="28" height="28" viewBox="0 0 28 28" fill="none" xmlns="http://www.w3.org/2000/svg">
<path d="M16.625 8.75H12.2281L11.375 14.0219C11.8033 13.5936 12.349 13.302 12.9431 13.1838C13.5371 13.0657 14.1529 13.1263 14.7124 13.3581C15.272 13.59 15.7503 13.9825 16.0868 14.4861C16.4233 14.9897 16.6029 15.5818 16.6029 16.1875C16.6029 16.7932 16.4233 17.3853 16.0868 17.8889C15.7503 18.3925 15.272 18.785 14.7124 19.0169C14.1529 19.2487 13.5371 19.3093 12.9431 19.1912C12.349 19.073 11.8033 18.7814 11.375 18.3531" stroke="#8247E5" stroke-width="2" stroke-linecap="round" stroke-linejoin="round"/>
<path d="M22.75 4.375H5.25C4.76675 4.375 4.375 4.76675 4.375 5.25V22.75C4.375 23.2332 4.76675 23.625 5.25 23.625H22.75C23.2332 23.625 23.625 23.2332 23.625 22.75V5.25C23.625 4.76675 23.2332 4.375 22.75 4.375Z" stroke="#8247E5" stroke-width="2" stroke-linecap="round" stroke-linejoin="round"/>
</svg>
