<svg width="28" height="28" viewBox="0 0 28 28" fill="none" xmlns="http://www.w3.org/2000/svg">
<path d="M22.7504 10.9375L10.2817 23.4063C9.90873 23.7806 9.46555 24.0776 8.97755 24.2803C8.48955 24.483 7.96633 24.5873 7.43792 24.5873C6.9095 24.5873 6.38629 24.483 5.89829 24.2803C5.41028 24.0776 4.9671 23.7806 4.59417 23.4063V23.4063C4.21981 23.0333 3.92278 22.5901 3.7201 22.1021C3.51742 21.6141 3.41309 21.0909 3.41309 20.5625C3.41309 20.0341 3.51742 19.5109 3.7201 19.0229C3.92278 18.5349 4.21981 18.0917 4.59417 17.7188L18.8129 3.5L25.3754 10.0625L22.7504 10.9375Z" stroke="#8247E5" stroke-width="2" stroke-linecap="round" stroke-linejoin="round"/>
<path d="M7.4375 14.8749C7.4375 14.8749 9.625 13.1249 13.125 14.8749C16.625 16.6249 18.8125 14.8749 18.8125 14.8749" stroke="#8247E5" stroke-width="2" stroke-linecap="round" stroke-linejoin="round"/>
</svg>
