<svg width="28" height="28" viewBox="0 0 28 28" fill="none" xmlns="http://www.w3.org/2000/svg">
<path d="M16.625 12.25H21" stroke="#8247E5" stroke-width="2" stroke-linecap="round" stroke-linejoin="round"/>
<path d="M16.625 15.75H21" stroke="#8247E5" stroke-width="2" stroke-linecap="round" stroke-linejoin="round"/>
<path d="M10.0732 15.75C11.523 15.75 12.6982 14.5747 12.6982 13.125C12.6982 11.6753 11.523 10.5 10.0732 10.5C8.62349 10.5 7.44824 11.6753 7.44824 13.125C7.44824 14.5747 8.62349 15.75 10.0732 15.75Z" stroke="#8247E5" stroke-width="2" stroke-linecap="round" stroke-linejoin="round"/>
<path d="M6.68262 18.375C6.87538 17.6222 7.31323 16.9549 7.92714 16.4783C8.54105 16.0018 9.29609 15.7432 10.0732 15.7432C10.8504 15.7432 11.6054 16.0018 12.2193 16.4783C12.8333 16.9549 13.2711 17.6222 13.4639 18.375" stroke="#8247E5" stroke-width="2" stroke-linecap="round" stroke-linejoin="round"/>
<path d="M23.625 5.25H4.375C3.89175 5.25 3.5 5.64175 3.5 6.125V21.875C3.5 22.3582 3.89175 22.75 4.375 22.75H23.625C24.1082 22.75 24.5 22.3582 24.5 21.875V6.125C24.5 5.64175 24.1082 5.25 23.625 5.25Z" stroke="#8247E5" stroke-width="2" stroke-linecap="round" stroke-linejoin="round"/>
</svg>
