<svg width="28" height="28" viewBox="0 0 28 28" fill="none" xmlns="http://www.w3.org/2000/svg">
<path d="M9.625 2.625V6.125" stroke="#8247E5" stroke-width="2" stroke-linecap="round" stroke-linejoin="round"/>
<path d="M13.125 2.625V6.125" stroke="#8247E5" stroke-width="2" stroke-linecap="round" stroke-linejoin="round"/>
<path d="M16.625 2.625V6.125" stroke="#8247E5" stroke-width="2" stroke-linecap="round" stroke-linejoin="round"/>
<path d="M3.5 23.625H22.75" stroke="#8247E5" stroke-width="2" stroke-linecap="round" stroke-linejoin="round"/>
<path d="M9.11094 23.625C7.43627 22.8566 6.01735 21.6236 5.02274 20.0726C4.02813 18.5215 3.49962 16.7176 3.5 14.875V9.625H22.75V14.875C22.7504 16.7176 22.2219 18.5215 21.2273 20.0726C20.2327 21.6236 18.8137 22.8566 17.1391 23.625" stroke="#8247E5" stroke-width="2" stroke-linecap="round" stroke-linejoin="round"/>
<path d="M22.7498 9.625C23.6781 9.625 24.5683 9.99375 25.2247 10.6501C25.8811 11.3065 26.2498 12.1967 26.2498 13.125V14C26.2498 14.9283 25.8811 15.8185 25.2247 16.4749C24.5683 17.1313 23.6781 17.5 22.7498 17.5H22.3779" stroke="#8247E5" stroke-width="2" stroke-linecap="round" stroke-linejoin="round"/>
</svg>
