<svg width="28" height="28" viewBox="0 0 28 28" fill="none" xmlns="http://www.w3.org/2000/svg">
<path d="M19.25 14H24.5C24.7321 14 24.9546 14.0922 25.1187 14.2563C25.2828 14.4204 25.375 14.6429 25.375 14.875V21.875C25.375 22.1071 25.2828 22.3296 25.1187 22.4937C24.9546 22.6578 24.7321 22.75 24.5 22.75H3.5C3.26794 22.75 3.04538 22.6578 2.88128 22.4937C2.71719 22.3296 2.625 22.1071 2.625 21.875V14.875C2.625 14.6429 2.71719 14.4204 2.88128 14.2563C3.04538 14.0922 3.26794 14 3.5 14H8.75" stroke="#8247E5" stroke-width="2" stroke-linecap="round" stroke-linejoin="round"/>
<path d="M14 2.625V14" stroke="#8247E5" stroke-width="2" stroke-linecap="round" stroke-linejoin="round"/>
<path d="M8.75 8.75L14 14L19.25 8.75" stroke="#8247E5" stroke-width="2" stroke-linecap="round" stroke-linejoin="round"/>
<path d="M20.5625 19.6875C21.2874 19.6875 21.875 19.0999 21.875 18.375C21.875 17.6501 21.2874 17.0625 20.5625 17.0625C19.8376 17.0625 19.25 17.6501 19.25 18.375C19.25 19.0999 19.8376 19.6875 20.5625 19.6875Z" fill="#8247E5"/>
</svg>
