<svg width="28" height="28" viewBox="0 0 28 28" fill="none" xmlns="http://www.w3.org/2000/svg">
<path d="M19.5557 7.84235C19.5508 8.53556 19.4037 9.22039 19.1233 9.85442C18.843 10.4884 18.4355 11.0582 17.926 11.5283C16.8523 12.5067 15.4521 13.049 13.9995 13.049C12.5469 13.049 11.1466 12.5067 10.0729 11.5283C9.56016 11.0609 9.15057 10.4917 8.87032 9.85699C8.59006 9.22231 8.44531 8.53615 8.44531 7.84235C8.44531 7.14855 8.59006 6.46238 8.87032 5.8277C9.15057 5.19302 9.56016 4.6238 10.0729 4.15641C11.1431 3.17101 12.5447 2.62402 13.9995 2.62402C15.4542 2.62402 16.8558 3.17101 17.926 4.15641C18.437 4.6253 18.8456 5.19477 19.1261 5.82907C19.4065 6.46338 19.5528 7.14882 19.5557 7.84235V7.84235Z" stroke="#8247E5" stroke-width="2" stroke-linecap="round" stroke-linejoin="round"/>
<path d="M20.5623 19.2172C20.5583 20.0362 20.3853 20.8456 20.054 21.5946C19.7228 22.3437 19.2405 23.0163 18.6373 23.5703C17.3721 24.7317 15.7172 25.3761 13.9998 25.3761C12.2824 25.3761 10.6275 24.7317 9.36228 23.5703C8.75564 23.0178 8.27102 22.3448 7.93941 21.5943C7.60781 20.8437 7.43652 20.0322 7.43652 19.2117C7.43652 18.3912 7.60781 17.5797 7.93941 16.8292C8.27102 16.0787 8.75564 15.4056 9.36228 14.8531C10.6275 13.6918 12.2824 13.0474 13.9998 13.0474C15.7172 13.0474 17.3721 13.6918 18.6373 14.8531C19.2418 15.4084 19.7249 16.0828 20.0562 16.8338C20.3875 17.5849 20.5598 18.3963 20.5623 19.2172Z" stroke="#8247E5" stroke-width="2" stroke-linecap="round" stroke-linejoin="round"/>
</svg>
