<svg width="28" height="28" viewBox="0 0 28 28" fill="none" xmlns="http://www.w3.org/2000/svg">
<path d="M14 19.25C18.3492 19.25 21.875 15.7242 21.875 11.375C21.875 7.02576 18.3492 3.5 14 3.5C9.65076 3.5 6.125 7.02576 6.125 11.375C6.125 15.7242 9.65076 19.25 14 19.25Z" stroke="#8247E5" stroke-width="2" stroke-linecap="round" stroke-linejoin="round"/>
<path d="M14 14.875C15.933 14.875 17.5 13.308 17.5 11.375C17.5 9.442 15.933 7.875 14 7.875C12.067 7.875 10.5 9.442 10.5 11.375C10.5 13.308 12.067 14.875 14 14.875Z" stroke="#8247E5" stroke-width="2" stroke-linecap="round" stroke-linejoin="round"/>
<path d="M14 19.25V22.75" stroke="#8247E5" stroke-width="2" stroke-linecap="round" stroke-linejoin="round"/>
<path d="M3.5 22.75H24.5" stroke="#8247E5" stroke-width="2" stroke-linecap="round" stroke-linejoin="round"/>
</svg>
