<svg width="28" height="28" viewBox="0 0 28 28" fill="none" xmlns="http://www.w3.org/2000/svg">
<path d="M12.917 19.042L16.6248 22.7498L20.3326 19.042" stroke="#8247E5" stroke-width="2" stroke-linecap="round" stroke-linejoin="round"/>
<path d="M16.625 14V22.75" stroke="#8247E5" stroke-width="2" stroke-linecap="round" stroke-linejoin="round"/>
<path d="M10.5 22.75H7.875C6.25055 22.75 4.69263 22.1047 3.54397 20.956C2.39531 19.8074 1.75 18.2495 1.75 16.625C1.75 15.0005 2.39531 13.4426 3.54397 12.294C4.69263 11.1453 6.25055 10.5 7.875 10.5C8.38745 10.4998 8.89801 10.5622 9.39531 10.6859" stroke="#8247E5" stroke-width="2" stroke-linecap="round" stroke-linejoin="round"/>
<path d="M8.75 14C8.75 12.6135 9.07947 11.2469 9.71125 10.0128C10.343 8.77865 11.259 7.71231 12.3838 6.90163C13.5085 6.09096 14.8098 5.55916 16.1804 5.35008C17.551 5.14099 18.9517 5.26059 20.267 5.69902C21.5823 6.13746 22.7746 6.88218 23.7456 7.87181C24.7166 8.86143 25.4386 10.0676 25.852 11.391C26.2654 12.7144 26.3584 14.1171 26.1233 15.4835C25.8883 16.8499 25.3319 18.1408 24.5 19.25" stroke="#8247E5" stroke-width="2" stroke-linecap="round" stroke-linejoin="round"/>
</svg>
