<svg width="28" height="28" viewBox="0 0 28 28" fill="none" xmlns="http://www.w3.org/2000/svg">
<path d="M5.66535 13.3327C5.53608 13.1087 5.36394 12.9123 5.15877 12.7547C4.95359 12.5972 4.71939 12.4816 4.46954 12.4146C4.2197 12.3475 3.95909 12.3304 3.70261 12.364C3.44613 12.3977 3.19879 12.4816 2.97473 12.6109C2.75066 12.7401 2.55425 12.9123 2.3967 13.1175C2.23916 13.3226 2.12357 13.5568 2.05654 13.8067C1.98951 14.0565 1.97235 14.3171 2.00603 14.5736C2.03971 14.8301 2.12358 15.0774 2.25285 15.3015L6.29973 22.3124C7.35472 24.0998 9.07266 25.3984 11.08 25.9259C13.0873 26.4534 15.2218 26.1671 17.0191 25.1293C18.8165 24.0915 20.1316 22.3861 20.6783 20.384C21.2251 18.3818 20.9593 16.2447 19.9388 14.4374L18.0794 11.2109C17.8023 10.793 17.3762 10.4965 16.888 10.3821C16.3998 10.2676 15.8864 10.3437 15.4524 10.5949C15.0184 10.8461 14.6966 11.2534 14.5527 11.7337C14.4088 12.214 14.4535 12.7312 14.6779 13.1796" stroke="#8247E5" stroke-width="2" stroke-linecap="round" stroke-linejoin="round"/>
<path d="M11.7034 15.9143L7.54719 8.7174C7.41792 8.49333 7.24578 8.29692 7.0406 8.13938C6.83543 7.98184 6.60123 7.86625 6.35138 7.79922C6.10153 7.73219 5.84093 7.71502 5.58445 7.7487C5.32797 7.78239 5.08063 7.86626 4.85656 7.99553C4.63249 8.1248 4.43608 8.29693 4.27854 8.50211C4.121 8.70729 4.00541 8.94149 3.93838 9.19133C3.87135 9.44118 3.85418 9.70179 3.88786 9.95827C3.92155 10.2147 4.00542 10.4621 4.13469 10.6862L8.29094 17.883" stroke="#8247E5" stroke-width="2" stroke-linecap="round" stroke-linejoin="round"/>
<path d="M16.4281 16.2204L11.8343 8.25793C11.5732 7.80541 11.1431 7.47513 10.6385 7.33975C10.1339 7.20437 9.5962 7.27499 9.14368 7.53606C8.69115 7.79713 8.36087 8.22728 8.22549 8.73187C8.09011 9.23646 8.16073 9.77416 8.4218 10.2267" stroke="#8247E5" stroke-width="2" stroke-linecap="round" stroke-linejoin="round"/>
<path d="M10.8281 7.40471L9.70149 5.4469C9.44042 4.99437 9.01027 4.66409 8.50568 4.52872C8.00109 4.39334 7.46339 4.46395 7.01086 4.72502C6.55834 4.9861 6.22806 5.41624 6.09268 5.92083C5.9573 6.42542 6.02792 6.96312 6.28899 7.41565L6.55149 7.86409" stroke="#8247E5" stroke-width="2" stroke-linecap="round" stroke-linejoin="round"/>
<path d="M20.5626 20.9455C21.8975 19.7367 22.7785 18.1075 23.0591 16.3286C23.3396 14.5497 23.0029 12.7284 22.1048 11.1674L20.2454 7.95178C20.1162 7.72771 19.944 7.5313 19.7388 7.37375C19.5337 7.21621 19.2995 7.10063 19.0496 7.03359C18.7998 6.96656 18.5392 6.9494 18.2827 6.98308C18.0262 7.01676 17.7789 7.10063 17.5548 7.2299C17.3307 7.35917 17.1343 7.53131 16.9768 7.73649C16.8192 7.94166 16.7037 8.17586 16.6366 8.42571C16.5696 8.67556 16.5524 8.93616 16.5861 9.19264C16.6198 9.44912 16.7037 9.69646 16.8329 9.92053" stroke="#8247E5" stroke-width="2" stroke-linecap="round" stroke-linejoin="round"/>
<path d="M17.0839 10.358L13.9886 4.99866C13.7275 4.54613 13.2974 4.21585 12.7928 4.08047C12.2882 3.9451 11.7505 4.01571 11.298 4.27678C10.8454 4.53785 10.5152 4.968 10.3798 5.47259C10.2444 5.97718 10.315 6.51488 10.5761 6.96741" stroke="#8247E5" stroke-width="2" stroke-linecap="round" stroke-linejoin="round"/>
<path d="M19.3371 1.23584L18.8887 2.92022" stroke="#8247E5" stroke-width="2" stroke-linecap="round" stroke-linejoin="round"/>
<path d="M22.6518 2.77832L21.6455 4.21113" stroke="#8247E5" stroke-width="2" stroke-linecap="round" stroke-linejoin="round"/>
<path d="M25.2219 5.34863L23.7891 6.35488" stroke="#8247E5" stroke-width="2" stroke-linecap="round" stroke-linejoin="round"/>
</svg>
