<svg width="28" height="28" viewBox="0 0 28 28" fill="none" xmlns="http://www.w3.org/2000/svg">
<path d="M23.9424 8.43262C24.6746 9.1631 25.2555 10.0308 25.6518 10.9861C26.0482 11.9414 26.2522 12.9655 26.2522 13.9998C26.2522 15.0341 26.0482 16.0582 25.6518 17.0135C25.2555 17.9688 24.6746 18.8365 23.9424 19.567" stroke="#8247E5" stroke-width="2" stroke-linecap="round" stroke-linejoin="round"/>
<path d="M8.75 9.625V18.375" stroke="#8247E5" stroke-width="2" stroke-linecap="round" stroke-linejoin="round"/>
<path d="M20.8467 11.5283C21.1721 11.8525 21.4303 12.2377 21.6065 12.6619C21.7827 13.0861 21.8733 13.5409 21.8733 14.0002C21.8733 14.4595 21.7827 14.9143 21.6065 15.3385C21.4303 15.7627 21.1721 16.1479 20.8467 16.4721" stroke="#8247E5" stroke-width="2" stroke-linecap="round" stroke-linejoin="round"/>
<path d="M5.25 4.375L22.75 23.625" stroke="#8247E5" stroke-width="2" stroke-linecap="round" stroke-linejoin="round"/>
<path d="M16.625 16.8875V24.5L8.75 18.375H3.5C3.26794 18.375 3.04538 18.2828 2.88128 18.1187C2.71719 17.9546 2.625 17.732 2.625 17.5V10.5C2.625 10.2679 2.71719 10.0454 2.88128 9.88126C3.04538 9.71716 3.26794 9.62498 3.5 9.62498H8.75L9.49375 9.04529" stroke="#8247E5" stroke-width="2" stroke-linecap="round" stroke-linejoin="round"/>
<path d="M12.2715 6.89062L16.6246 3.5V11.6813" stroke="#8247E5" stroke-width="2" stroke-linecap="round" stroke-linejoin="round"/>
</svg>
