<svg width="28" height="28" viewBox="0 0 28 28" fill="none" xmlns="http://www.w3.org/2000/svg">
<path d="M3.5 7.87502H9.17656C9.31647 7.87396 9.4545 7.90732 9.57848 7.97217C9.70245 8.03702 9.80858 8.13137 9.8875 8.2469L18.1125 19.7531C18.1914 19.8687 18.2975 19.963 18.4215 20.0279C18.5455 20.0927 18.6835 20.1261 18.8234 20.125H25.375" stroke="#8247E5" stroke-width="2" stroke-linecap="round" stroke-linejoin="round"/>
<path d="M22.75 5.25L25.375 7.875L22.75 10.5" stroke="#8247E5" stroke-width="2" stroke-linecap="round" stroke-linejoin="round"/>
<path d="M22.75 17.5L25.375 20.125L22.75 22.75" stroke="#8247E5" stroke-width="2" stroke-linecap="round" stroke-linejoin="round"/>
<path d="M16.1543 10.9922L18.1121 8.2469C18.191 8.13137 18.2972 8.03702 18.4211 7.97217C18.5451 7.90732 18.6831 7.87396 18.823 7.87502H25.3746" stroke="#8247E5" stroke-width="2" stroke-linecap="round" stroke-linejoin="round"/>
<path d="M3.5 20.125H9.17656C9.31647 20.1261 9.4545 20.0927 9.57848 20.0279C9.70245 19.963 9.80858 19.8687 9.8875 19.7531L11.8453 17.0078" stroke="#8247E5" stroke-width="2" stroke-linecap="round" stroke-linejoin="round"/>
</svg>
