<svg width="28" height="28" viewBox="0 0 28 28" fill="none" xmlns="http://www.w3.org/2000/svg">
<path d="M21.875 4.375H17.9375C17.4543 4.375 17.0625 4.76675 17.0625 5.25V22.75C17.0625 23.2332 17.4543 23.625 17.9375 23.625H21.875C22.3582 23.625 22.75 23.2332 22.75 22.75V5.25C22.75 4.76675 22.3582 4.375 21.875 4.375Z" stroke="#8247E5" stroke-width="2" stroke-linecap="round" stroke-linejoin="round"/>
<path d="M10.0625 4.375H6.125C5.64175 4.375 5.25 4.76675 5.25 5.25V22.75C5.25 23.2332 5.64175 23.625 6.125 23.625H10.0625C10.5457 23.625 10.9375 23.2332 10.9375 22.75V5.25C10.9375 4.76675 10.5457 4.375 10.0625 4.375Z" stroke="#8247E5" stroke-width="2" stroke-linecap="round" stroke-linejoin="round"/>
</svg>
