<svg width="28" height="28" viewBox="0 0 28 28" fill="none" xmlns="http://www.w3.org/2000/svg">
<path d="M14.4371 19.6875L11.0465 23.0781C10.8026 23.3228 10.5128 23.517 10.1938 23.6495C9.87468 23.782 9.5326 23.8502 9.18711 23.8502C8.84162 23.8502 8.49953 23.782 8.18046 23.6495C7.86139 23.517 7.57161 23.3228 7.32773 23.0781L4.92148 20.6719C4.67676 20.428 4.48259 20.1382 4.3501 19.8191C4.21761 19.5001 4.14941 19.158 4.14941 18.8125C4.14941 18.467 4.21761 18.1249 4.3501 17.8059C4.48259 17.4868 4.67676 17.197 4.92148 16.9531L8.31211 13.5625" stroke="#8247E5" stroke-width="2" stroke-linecap="round" stroke-linejoin="round"/>
<path d="M6.125 21.875L2.625 25.375" stroke="#8247E5" stroke-width="2" stroke-linecap="round" stroke-linejoin="round"/>
<path d="M25.375 2.625L21.875 6.125" stroke="#8247E5" stroke-width="2" stroke-linecap="round" stroke-linejoin="round"/>
<path d="M15.75 15.75L13.125 18.375" stroke="#8247E5" stroke-width="2" stroke-linecap="round" stroke-linejoin="round"/>
<path d="M12.25 12.25L9.625 14.875" stroke="#8247E5" stroke-width="2" stroke-linecap="round" stroke-linejoin="round"/>
<path d="M19.6875 14.4376L23.0781 11.047C23.3228 10.8031 23.517 10.5133 23.6495 10.1942C23.782 9.87517 23.8502 9.53308 23.8502 9.1876C23.8502 8.84211 23.782 8.50002 23.6495 8.18095C23.517 7.86188 23.3228 7.57209 23.0781 7.32822L20.6719 4.92197C20.428 4.67725 20.1382 4.48308 19.8191 4.35059C19.5001 4.2181 19.158 4.1499 18.8125 4.1499C18.467 4.1499 18.1249 4.2181 17.8059 4.35059C17.4868 4.48308 17.197 4.67725 16.9531 4.92197L13.5625 8.3126" stroke="#8247E5" stroke-width="2" stroke-linecap="round" stroke-linejoin="round"/>
<path d="M12.6875 7.4375L20.5625 15.3125" stroke="#8247E5" stroke-width="2" stroke-linecap="round" stroke-linejoin="round"/>
<path d="M7.4375 12.6875L15.3125 20.5625" stroke="#8247E5" stroke-width="2" stroke-linecap="round" stroke-linejoin="round"/>
</svg>
