<svg width="28" height="28" viewBox="0 0 28 28" fill="none" xmlns="http://www.w3.org/2000/svg">
<path d="M19.25 7H8.75V12.25H19.25V7Z" stroke="#8247E5" stroke-width="2" stroke-linecap="round" stroke-linejoin="round"/>
<path d="M22.75 23.625V4.375C22.75 3.89175 22.3582 3.5 21.875 3.5L6.125 3.5C5.64175 3.5 5.25 3.89175 5.25 4.375V23.625C5.25 24.1082 5.64175 24.5 6.125 24.5H21.875C22.3582 24.5 22.75 24.1082 22.75 23.625Z" stroke="#8247E5" stroke-width="2" stroke-linecap="round" stroke-linejoin="round"/>
<path d="M9.625 17.5C10.3499 17.5 10.9375 16.9124 10.9375 16.1875C10.9375 15.4626 10.3499 14.875 9.625 14.875C8.90013 14.875 8.3125 15.4626 8.3125 16.1875C8.3125 16.9124 8.90013 17.5 9.625 17.5Z" fill="#8247E5"/>
<path d="M14 17.5C14.7249 17.5 15.3125 16.9124 15.3125 16.1875C15.3125 15.4626 14.7249 14.875 14 14.875C13.2751 14.875 12.6875 15.4626 12.6875 16.1875C12.6875 16.9124 13.2751 17.5 14 17.5Z" fill="#8247E5"/>
<path d="M18.375 17.5C19.0999 17.5 19.6875 16.9124 19.6875 16.1875C19.6875 15.4626 19.0999 14.875 18.375 14.875C17.6501 14.875 17.0625 15.4626 17.0625 16.1875C17.0625 16.9124 17.6501 17.5 18.375 17.5Z" fill="#8247E5"/>
<path d="M9.625 21.875C10.3499 21.875 10.9375 21.2874 10.9375 20.5625C10.9375 19.8376 10.3499 19.25 9.625 19.25C8.90013 19.25 8.3125 19.8376 8.3125 20.5625C8.3125 21.2874 8.90013 21.875 9.625 21.875Z" fill="#8247E5"/>
<path d="M14 21.875C14.7249 21.875 15.3125 21.2874 15.3125 20.5625C15.3125 19.8376 14.7249 19.25 14 19.25C13.2751 19.25 12.6875 19.8376 12.6875 20.5625C12.6875 21.2874 13.2751 21.875 14 21.875Z" fill="#8247E5"/>
<path d="M18.375 21.875C19.0999 21.875 19.6875 21.2874 19.6875 20.5625C19.6875 19.8376 19.0999 19.25 18.375 19.25C17.6501 19.25 17.0625 19.8376 17.0625 20.5625C17.0625 21.2874 17.6501 21.875 18.375 21.875Z" fill="#8247E5"/>
</svg>
