<svg width="28" height="28" viewBox="0 0 28 28" fill="none" xmlns="http://www.w3.org/2000/svg">
<path d="M19.25 21.875C19.25 22.5712 18.9734 23.2389 18.4812 23.7312C17.9889 24.2234 17.3212 24.5 16.625 24.5C15.9288 24.5 15.2611 24.2234 14.7688 23.7312C14.2766 23.2389 14 22.5712 14 21.875V14.875" stroke="#8247E5" stroke-width="2" stroke-linecap="round" stroke-linejoin="round"/>
<path d="M3.53257 14.8748C3.41134 14.8754 3.29135 14.8505 3.18037 14.8017C3.0694 14.7529 2.96993 14.6814 2.88844 14.5916C2.80694 14.5019 2.74525 14.396 2.70736 14.2808C2.66946 14.1657 2.65623 14.0438 2.66851 13.9232C2.91773 11.0899 4.21939 8.45268 6.31688 6.5316C8.41436 4.61051 11.1555 3.54492 13.9998 3.54492C16.8441 3.54492 19.5851 4.61051 21.6826 6.5316C23.7801 8.45268 25.0818 11.0899 25.331 13.9232C25.3433 14.0438 25.33 14.1657 25.2922 14.2808C25.2543 14.396 25.1926 14.5019 25.1111 14.5916C25.0296 14.6814 24.9301 14.7529 24.8191 14.8017C24.7082 14.8505 24.5882 14.8754 24.4669 14.8748H3.53257Z" stroke="#8247E5" stroke-width="2" stroke-linecap="round" stroke-linejoin="round"/>
</svg>
