<svg width="32" height="32" viewBox="0 0 32 32" fill="none" xmlns="http://www.w3.org/2000/svg">
<path d="M4.26254 17.5875C3.14173 15.6992 2.74888 13.4667 3.15777 11.3092C3.56665 9.15172 4.74913 7.21775 6.48314 5.8705C8.21714 4.52325 10.3834 3.85542 12.575 3.99242C14.7665 4.12943 16.8327 5.06185 18.3854 6.61456C19.9382 8.16728 20.8706 10.2335 21.0076 12.4251C21.1446 14.6166 20.4768 16.7829 19.1295 18.5169C17.7823 20.2509 15.8483 21.4334 13.6908 21.8422C11.5334 22.2511 9.30083 21.8583 7.41254 20.7375L4.30004 21.625C4.17179 21.661 4.03626 21.6623 3.90738 21.6286C3.77849 21.5949 3.66091 21.5275 3.56671 21.4333C3.47252 21.3391 3.40511 21.2215 3.37142 21.0926C3.33773 20.9637 3.33898 20.8282 3.37504 20.7L4.26254 17.5875Z" stroke="#8247E5" stroke-linecap="round" stroke-linejoin="round"/>
<path d="M11.5127 21.9875C11.9533 23.2435 12.6673 24.386 13.6033 25.3325C14.5392 26.2789 15.6737 27.0057 16.9248 27.4602C18.1759 27.9147 19.5123 28.0856 20.8375 27.9606C22.1627 27.8356 23.4436 27.4178 24.5877 26.7374V26.7374L27.7002 27.625C27.8284 27.661 27.964 27.6623 28.0929 27.6286C28.2217 27.5949 28.3393 27.5275 28.4335 27.4333C28.5277 27.3391 28.5951 27.2215 28.6288 27.0926C28.6625 26.9637 28.6612 26.8282 28.6252 26.7L27.7377 23.5875C28.53 22.2575 28.9654 20.7454 29.0016 19.1977C29.0378 17.65 28.6736 16.1192 27.9442 14.7536C27.2149 13.3881 26.1453 12.234 24.8389 11.4034C23.5325 10.5727 22.0337 10.0936 20.4877 10.0125" stroke="#8247E5" stroke-linecap="round" stroke-linejoin="round"/>
</svg>
