<svg width="32" height="32" viewBox="0 0 32 32" fill="none" xmlns="http://www.w3.org/2000/svg">
<path d="M11.7625 23.0751C10.3375 27.3126 4.6875 27.3125 4.6875 27.3125C4.6875 27.3125 4.6875 21.6625 8.925 20.2375" stroke="#8247E5" stroke-linecap="round" stroke-linejoin="round"/>
<path d="M24.4874 13.1751L15.9999 21.6626L10.3374 16.0001L18.8249 7.5126C22.0374 4.3001 25.2499 4.3376 26.6249 4.5376C26.8371 4.5659 27.034 4.66325 27.1854 4.8146C27.3368 4.96596 27.4341 5.16292 27.4624 5.3751C27.6624 6.7501 27.6999 9.9626 24.4874 13.1751Z" stroke="#8247E5" stroke-linecap="round" stroke-linejoin="round"/>
<path d="M23.075 14.5874V22.6624C23.0712 22.9262 22.9634 23.1778 22.775 23.3624L18.7375 27.4124C18.6094 27.5403 18.449 27.6311 18.2733 27.675C18.0977 27.7189 17.9134 27.7143 17.7402 27.6617C17.567 27.6091 17.4113 27.5105 17.2897 27.3763C17.1682 27.2421 17.0853 27.0775 17.05 26.8999L16 21.6624" stroke="#8247E5" stroke-linecap="round" stroke-linejoin="round"/>
<path d="M17.4124 8.92505H9.33741C9.07364 8.92881 8.82204 9.03663 8.63741 9.22505L4.58741 13.2625C4.45946 13.3906 4.36869 13.5511 4.32478 13.7267C4.28087 13.9023 4.28547 14.0866 4.33808 14.2598C4.39069 14.4331 4.48934 14.5888 4.62351 14.7103C4.75768 14.8319 4.92234 14.9147 5.09991 14.95L10.3374 16" stroke="#8247E5" stroke-linecap="round" stroke-linejoin="round"/>
</svg>
