<svg width="28" height="28" viewBox="0 0 28 28" fill="none" xmlns="http://www.w3.org/2000/svg">
<path d="M22.75 4.375H5.25C4.76675 4.375 4.375 4.76675 4.375 5.25V22.75C4.375 23.2332 4.76675 23.625 5.25 23.625H22.75C23.2332 23.625 23.625 23.2332 23.625 22.75V5.25C23.625 4.76675 23.2332 4.375 22.75 4.375Z" stroke="#8247E5" stroke-width="2" stroke-linecap="round" stroke-linejoin="round"/>
<path d="M11.5828 10.3577C11.8187 9.80065 12.2398 9.34214 12.7749 9.05979C13.3099 8.77743 13.9261 8.68855 14.5191 8.80819C15.1121 8.92783 15.6456 9.24863 16.0294 9.71634C16.4131 10.184 16.6235 10.7699 16.625 11.3749C16.6274 11.8976 16.471 12.4087 16.1766 12.8405V12.8405L11.375 19.2499H16.625" stroke="#8247E5" stroke-width="2" stroke-linecap="round" stroke-linejoin="round"/>
</svg>
