<svg width="28" height="28" viewBox="0 0 28 28" fill="none" xmlns="http://www.w3.org/2000/svg">
<path d="M18.375 11.375H9.625C7.692 11.375 6.125 12.942 6.125 14.875V15.75C6.125 17.683 7.692 19.25 9.625 19.25H18.375C20.308 19.25 21.875 17.683 21.875 15.75V14.875C21.875 12.942 20.308 11.375 18.375 11.375Z" stroke="#8247E5" stroke-width="2" stroke-linecap="round" stroke-linejoin="round"/>
<path d="M2.625 7C2.625 6.30381 2.90156 5.63613 3.39384 5.14384C3.88613 4.65156 4.55381 4.375 5.25 4.375C5.94619 4.375 6.61387 4.65156 7.10616 5.14384C7.59844 5.63613 7.875 6.30381 7.875 7H20.125C20.125 6.30381 20.4016 5.63613 20.8938 5.14384C21.3861 4.65156 22.0538 4.375 22.75 4.375C23.4462 4.375 24.1139 4.65156 24.6062 5.14384C25.0984 5.63613 25.375 6.30381 25.375 7V15.75C25.3721 17.6056 24.6337 19.3844 23.3216 20.6966C22.0094 22.0087 20.2306 22.7471 18.375 22.75H9.625C7.76937 22.7471 5.99058 22.0087 4.67845 20.6966C3.36632 19.3844 2.62789 17.6056 2.625 15.75V7Z" stroke="#8247E5" stroke-width="2" stroke-linecap="round" stroke-linejoin="round"/>
<path d="M10.0625 16.625C10.7874 16.625 11.375 16.0374 11.375 15.3125C11.375 14.5876 10.7874 14 10.0625 14C9.33763 14 8.75 14.5876 8.75 15.3125C8.75 16.0374 9.33763 16.625 10.0625 16.625Z" fill="#8247E5"/>
<path d="M17.9375 16.625C18.6624 16.625 19.25 16.0374 19.25 15.3125C19.25 14.5876 18.6624 14 17.9375 14C17.2126 14 16.625 14.5876 16.625 15.3125C16.625 16.0374 17.2126 16.625 17.9375 16.625Z" fill="#8247E5"/>
</svg>
