<svg width="28" height="28" viewBox="0 0 28 28" fill="none" xmlns="http://www.w3.org/2000/svg">
<path d="M16.3734 21.4266L14.7547 24.1281C14.6754 24.2571 14.5644 24.3635 14.4323 24.4374C14.3002 24.5112 14.1514 24.55 14 24.55C13.8486 24.55 13.6998 24.5112 13.5677 24.4374C13.4356 24.3635 13.3246 24.2571 13.2453 24.1281L11.6266 21.4266C11.5504 21.2969 11.4418 21.1893 11.3113 21.1145C11.1809 21.0397 11.0332 21.0002 10.8828 21H4.375C4.14294 21 3.92038 20.9078 3.75628 20.7437C3.59219 20.5796 3.5 20.3571 3.5 20.125V6.125C3.5 5.89294 3.59219 5.67038 3.75628 5.50628C3.92038 5.34219 4.14294 5.25 4.375 5.25H23.625C23.8571 5.25 24.0796 5.34219 24.2437 5.50628C24.4078 5.67038 24.5 5.89294 24.5 6.125V20.125C24.5 20.3571 24.4078 20.5796 24.2437 20.7437C24.0796 20.9078 23.8571 21 23.625 21H17.1172C16.9668 21.0002 16.8191 21.0397 16.6887 21.1145C16.5582 21.1893 16.4496 21.2969 16.3734 21.4266V21.4266Z" stroke="#8247E5" stroke-width="2" stroke-linecap="round" stroke-linejoin="round"/>
</svg>
